<svg width="24" height="24" viewBox="0 0 24 24" fill="none" xmlns="http://www.w3.org/2000/svg">
<path d="M10.3636 3.00067C8.90721 3.00067 7.48354 3.43254 6.2726 4.24166C5.06167 5.05078 4.11786 6.20082 3.56052 7.54634C3.00319 8.89186 2.85737 10.3724 3.14149 11.8008C3.42562 13.2292 4.12693 14.5413 5.15675 15.5711C6.18657 16.6009 7.49863 17.3022 8.92703 17.5864C10.3554 17.8705 11.836 17.7247 13.1815 17.1673C14.527 16.61 15.6771 15.6662 16.4862 14.4553C17.2953 13.2443 17.7272 11.8206 17.7272 10.3643C17.7271 8.41135 16.9512 6.53847 15.5703 5.15755C14.1894 3.77664 12.3165 3.0008 10.3636 3.00067V3.00067Z" stroke="#37B9C5" stroke-width="2" stroke-miterlimit="10"/>
<path d="M15.8574 15.8574L21.0001 21" stroke="#37B9C5" stroke-width="2" stroke-miterlimit="10" stroke-linecap="round"/>
</svg>
