<svg width="25" height="24" viewBox="0 0 25 24" fill="none" xmlns="http://www.w3.org/2000/svg">
<path d="M11.2635 3.00064C9.80711 3.00064 8.38344 3.43251 7.1725 4.24163C5.96157 5.05075 5.01776 6.20079 4.46043 7.54631C3.90309 8.89183 3.75727 10.3724 4.04139 11.8008C4.32552 13.2292 5.02683 14.5413 6.05665 15.5711C7.08647 16.6009 8.39853 17.3022 9.82693 17.5863C11.2553 17.8705 12.7359 17.7246 14.0814 17.1673C15.4269 16.61 16.577 15.6662 17.3861 14.4552C18.1952 13.2443 18.6271 11.8206 18.6271 10.3642C18.627 8.41132 17.8511 6.53844 16.4702 5.15752C15.0893 3.77661 13.2164 3.00077 11.2635 3.00064V3.00064Z" stroke="#ADB3BC" stroke-width="2" stroke-miterlimit="10"/>
<path d="M16.7573 15.8574L21.9 21" stroke="#ADB3BC" stroke-width="2" stroke-miterlimit="10" stroke-linecap="round"/>
</svg>
