<svg width="25" height="24" viewBox="0 0 25 24" fill="none" xmlns="http://www.w3.org/2000/svg">
<path d="M17.05 13C17.8 13 18.46 12.59 18.8 11.97L22.38 5.48C22.75 4.82 22.27 4 21.51 4H6.71L5.77 2H2.5V4H4.5L8.1 11.59L6.75 14.03C6.02 15.37 6.98 17 8.5 17H20.5V15H8.5L9.6 13H17.05ZM7.66 6H19.81L17.05 11H10.03L7.66 6ZM8.5 18C7.4 18 6.51 18.9 6.51 20C6.51 21.1 7.4 22 8.5 22C9.6 22 10.5 21.1 10.5 20C10.5 18.9 9.6 18 8.5 18ZM18.5 18C17.4 18 16.51 18.9 16.51 20C16.51 21.1 17.4 22 18.5 22C19.6 22 20.5 21.1 20.5 20C20.5 18.9 19.6 18 18.5 18Z" fill="#ADB3BC"/>
</svg>
