<svg width="15" height="16" viewBox="0 0 15 16" fill="none" xmlns="http://www.w3.org/2000/svg">
<g id="fluent:add-12-filled">
<path id="Vector" d="M8.125 2.19629C8.125 1.94765 8.02623 1.70919 7.85041 1.53338C7.6746 1.35756 7.43614 1.25879 7.1875 1.25879C6.93886 1.25879 6.7004 1.35756 6.52459 1.53338C6.34877 1.70919 6.25 1.94765 6.25 2.19629V6.25879H2.1875C1.93886 6.25879 1.7004 6.35756 1.52459 6.53338C1.34877 6.70919 1.25 6.94765 1.25 7.19629C1.25 7.44493 1.34877 7.68339 1.52459 7.8592C1.7004 8.03502 1.93886 8.13379 2.1875 8.13379H6.25V12.1963C6.25 12.4449 6.34877 12.6834 6.52459 12.8592C6.7004 13.035 6.93886 13.1338 7.1875 13.1338C7.43614 13.1338 7.6746 13.035 7.85041 12.8592C8.02623 12.6834 8.125 12.4449 8.125 12.1963V8.13379H12.1875C12.4361 8.13379 12.6746 8.03502 12.8504 7.8592C13.0262 7.68339 13.125 7.44493 13.125 7.19629C13.125 6.94765 13.0262 6.70919 12.8504 6.53338C12.6746 6.35756 12.4361 6.25879 12.1875 6.25879H8.125V2.19629Z" fill="#00B6AA"/>
</g>
</svg>
