<svg width="18" height="18" viewBox="0 0 18 18" fill="none" xmlns="http://www.w3.org/2000/svg">
<path d="M8.99996 13.3546C7.27917 13.3546 5.88421 11.9596 5.88421 10.2388C5.88421 8.51801 7.27917 7.12305 8.99996 7.12305C10.7208 7.12305 12.1157 8.51801 12.1157 10.2388C12.1157 11.9596 10.7208 13.3546 8.99996 13.3546ZM8.99996 8.9407C8.28302 8.9407 7.70185 9.5219 7.70185 10.2388C7.70185 10.9557 8.28302 11.5369 8.99996 11.5369C9.71691 11.5369 10.2981 10.9557 10.2981 10.2388C10.2981 9.52186 9.71691 8.9407 8.99996 8.9407Z" fill="white"/>
<path d="M7.09137 3.05469H10.9083C11.1563 3.05469 11.3817 3.19872 11.4858 3.42379C11.681 3.84553 11.373 4.32748 10.9083 4.32748H7.09134C6.62661 4.32748 6.3186 3.84553 6.51383 3.42379C6.618 3.19872 6.84338 3.05469 7.09137 3.05469Z" fill="white"/>
<path d="M2.47826 8.41751C2.16663 8.41751 1.91404 8.16487 1.91404 7.85329C1.91404 7.54166 2.16663 7.28906 2.47826 7.28906C2.78985 7.28906 3.04248 7.54166 3.04248 7.85329C3.04248 8.16491 2.78985 8.41751 2.47826 8.41751Z" fill="white"/>
<path d="M1.47206 3.97589H4.01847C4.23749 3.97589 4.43658 3.83818 4.51382 3.63325L4.95949 2.45098C5.21972 1.76066 5.89029 1.29688 6.62801 1.29688H11.372C12.1097 1.29688 12.7803 1.76066 13.0405 2.45098L13.4862 3.63325C13.5635 3.83818 13.7625 3.97589 13.9816 3.97589H14.0407V3.30577C14.0407 2.89986 14.3709 2.56964 14.7768 2.56964H16.0905C16.4964 2.56964 16.8266 2.89989 16.8266 3.30577V4.00637C17.4956 4.14478 18 4.73857 18 5.44795V15.2304C18 16.0421 17.3396 16.7024 16.5279 16.7024H1.47206C0.660376 16.7024 0 16.0421 0 15.2304V5.44795C0 4.63626 0.660376 3.97589 1.47206 3.97589ZM16.1235 3.30577C16.1235 3.28756 16.1087 3.27276 16.0905 3.27276H14.7768C14.7586 3.27276 14.7438 3.2876 14.7438 3.30577V3.97589H16.1235V3.30577ZM17.2969 6.57193H12.325C13.3239 7.47857 13.9521 8.7866 13.9521 10.2386C13.9521 11.6906 13.3239 12.9987 12.325 13.9053H17.2969V6.57193ZM9 5.98964C6.65712 5.98964 4.75105 7.89574 4.75105 10.2386C4.75105 12.5815 6.65715 14.4876 9 14.4876C11.3428 14.4876 13.2489 12.5815 13.2489 10.2386C13.2489 7.89574 11.3429 5.98964 9 5.98964ZM0.703125 15.2304C0.703125 15.6544 1.04808 15.9993 1.47206 15.9993H16.5279C16.9519 15.9993 17.2969 15.6544 17.2969 15.2304V14.6084H11.3277C10.6333 14.9798 9.84087 15.1907 9 15.1907C8.15913 15.1907 7.36664 14.9798 6.67234 14.6084H0.703125V15.2304ZM0.703125 13.9053H5.67499C4.67613 12.9987 4.04793 11.6906 4.04793 10.2386C4.04793 8.7866 4.67613 7.47857 5.67496 6.57193H0.703125V13.9053ZM0.703125 5.8688H6.67227C7.36661 5.49745 8.1591 5.28651 9 5.28651C9.8409 5.28651 10.6334 5.49745 11.3277 5.8688H17.2969V5.44791C17.2969 5.02389 16.9519 4.67898 16.5279 4.67898H13.9815C13.4716 4.67898 13.0081 4.35839 12.8282 3.88125L12.3825 2.69898C12.2249 2.28086 11.8188 1.99996 11.372 1.99996H6.62801C6.18117 1.99996 5.77505 2.28086 5.61744 2.69898L5.17173 3.88125C4.99187 4.35839 4.52837 4.67898 4.01843 4.67898H1.47203C1.04801 4.67898 0.703089 5.02393 0.703089 5.44791V5.8688H0.703125Z" fill="white"/>
</svg>
