<svg width="25" height="25" viewBox="0 0 25 25" fill="none" xmlns="http://www.w3.org/2000/svg">
<g id="arrow-right 1" clip-path="url(#clip0_735_2000)">
<path id="Vector" d="M25 12.4999C25 5.59639 19.4036 -2.44626e-07 12.5001 -5.46389e-07C5.59654 -8.48152e-07 -7.46312e-05 5.59639 -7.4933e-05 12.4999C-7.52347e-05 19.4035 5.59654 25.0001 12.5001 25.0001C19.4004 24.9923 24.9922 19.4005 25 12.4999ZM1.25008 12.4999C1.25008 6.2867 6.28685 1.24992 12.5001 1.24992C18.7133 1.24992 23.7501 6.2867 23.7501 12.4999C23.7501 18.7131 18.7133 23.7499 12.5001 23.7499C6.28983 23.7428 1.25717 18.7102 1.25008 12.4999Z" fill="#82C3E1"/>
<path id="Vector_2" d="M17.3455 11.0363C17.5727 10.7763 17.5462 10.3814 17.2864 10.1542C17.0264 9.92711 16.6316 9.95366 16.4043 10.2134L12.5 14.6757L8.59555 10.2132C8.36827 9.9532 7.97344 9.92688 7.71366 10.1539C7.45365 10.3812 7.4271 10.776 7.65438 11.036L12.0295 16.036C12.148 16.1717 12.3197 16.2495 12.5 16.2495C12.6804 16.2495 12.8518 16.1717 12.9706 16.036L17.3455 11.0363Z" fill="#82C3E1"/>
</g>
<defs>
<clipPath id="clip0_735_2000">
<rect width="25" height="25" fill="white" transform="translate(25) rotate(90)"/>
</clipPath>
</defs>
</svg>
