<svg width="24" height="25" viewBox="0 0 24 25" fill="none" xmlns="http://www.w3.org/2000/svg">
<path fill-rule="evenodd" clip-rule="evenodd" d="M23.6184 23.4493L22.2706 18.4224C22.1932 18.1407 22.2319 17.8368 22.3645 17.5717C23.5411 15.2129 23.9333 12.3957 23.2097 9.45688C22.2264 5.47958 19.1219 2.28668 15.1556 1.23159C14.0729 0.949868 13.0068 0.811768 11.9738 0.811768C4.56053 0.811768 -1.22866 7.76653 0.771039 15.5057C1.69908 19.0853 5.52171 22.7919 9.11786 23.6647C10.0901 23.9022 11.0457 24.0127 11.9738 24.0127C13.968 24.0127 15.8351 23.499 17.4757 22.6151C17.658 22.5157 17.8624 22.4605 18.0613 22.4605C18.1607 22.4605 18.2601 22.4715 18.3596 22.4991L23.2539 23.8083C23.2815 23.8138 23.3091 23.8194 23.3312 23.8194C23.519 23.8194 23.6682 23.6426 23.6184 23.4493ZM20.7239 18.8367L21.4862 21.6816L18.7739 20.9579C18.5419 20.8972 18.3043 20.864 18.0613 20.864C17.5972 20.864 17.1277 20.9855 16.7079 21.212C15.233 22.0075 13.642 22.4107 11.9738 22.4107C11.1507 22.4107 10.3166 22.3058 9.49349 22.1069C6.44975 21.3667 3.09666 18.0965 2.32329 15.1024C1.51678 11.9758 2.15205 8.76638 4.06336 6.29713C5.97468 3.82789 8.85823 2.41374 11.9738 2.41374C12.8908 2.41374 13.8243 2.53527 14.7468 2.78385C18.1552 3.68979 20.8012 6.39657 21.6574 9.84356C22.2595 12.2741 22.011 14.6992 20.9338 16.8591C20.6244 17.4778 20.5471 18.1793 20.7239 18.8367Z" fill="#82C3E1"/>
</svg>
