<svg width="14" height="14" viewBox="0 0 14 14" fill="none" xmlns="http://www.w3.org/2000/svg">
<g clip-path="url(#clip0_2569_7014)">
<path d="M8.58012 12.0514H4.42012C4.00391 12.0454 3.60532 11.8825 3.30404 11.5953C3.00276 11.3081 2.82101 10.9177 2.79512 10.5023L2.3022 3.0056C2.29967 2.95125 2.30795 2.89693 2.32654 2.8458C2.34514 2.79466 2.37369 2.74772 2.41054 2.70768C2.4485 2.66619 2.49446 2.63281 2.54566 2.60954C2.59686 2.58626 2.65223 2.57359 2.70845 2.57227H10.2918C10.3475 2.57214 10.4026 2.58348 10.4538 2.60557C10.5049 2.62765 10.551 2.66002 10.5891 2.70066C10.6272 2.74131 10.6565 2.78935 10.6752 2.84181C10.694 2.89426 10.7017 2.95002 10.698 3.0056L10.2268 10.5023C10.2006 10.9214 10.0158 11.3149 9.70994 11.6026C9.40407 11.8904 9.00008 12.0509 8.58012 12.0514ZM3.16345 3.38477L3.58054 10.4535C3.59432 10.6667 3.68882 10.8666 3.8448 11.0125C4.00079 11.1584 4.20652 11.2394 4.42012 11.2389H8.58012C8.79334 11.2381 8.99836 11.1567 9.15407 11.011C9.30978 10.8654 9.40467 10.6662 9.4197 10.4535L9.85845 3.41185L3.16345 3.38477Z" fill="#FD0606"/>
<path d="M11.375 3.38477H1.625C1.51726 3.38477 1.41392 3.34196 1.33774 3.26578C1.26155 3.18959 1.21875 3.08626 1.21875 2.97852C1.21875 2.87077 1.26155 2.76744 1.33774 2.69125C1.41392 2.61507 1.51726 2.57227 1.625 2.57227H11.375C11.4827 2.57227 11.5861 2.61507 11.6623 2.69125C11.7384 2.76744 11.7812 2.87077 11.7812 2.97852C11.7812 3.08626 11.7384 3.18959 11.6623 3.26578C11.5861 3.34196 11.4827 3.38477 11.375 3.38477Z" fill="#FD0606"/>
<path d="M8.125 3.38477H4.875C4.76769 3.38336 4.66517 3.34011 4.58929 3.26423C4.5134 3.18834 4.47015 3.08582 4.46875 2.97852V2.00352C4.47562 1.72554 4.5891 1.46085 4.78572 1.26424C4.98234 1.06762 5.24703 0.954132 5.525 0.947266H7.475C7.7576 0.954333 8.02624 1.07158 8.22358 1.27399C8.42093 1.47639 8.53134 1.74791 8.53125 2.0306V2.97852C8.52985 3.08582 8.4866 3.18834 8.41071 3.26423C8.33483 3.34011 8.23231 3.38336 8.125 3.38477ZM5.28125 2.57227H7.71875V2.0306C7.71875 1.96595 7.69307 1.90395 7.64736 1.85824C7.60165 1.81253 7.53965 1.78685 7.475 1.78685H5.525C5.46035 1.78685 5.39835 1.81253 5.35264 1.85824C5.30693 1.90395 5.28125 1.96595 5.28125 2.0306V2.57227Z" fill="#FD0606"/>
<path d="M8.125 9.88411C8.01769 9.88271 7.91517 9.83946 7.83929 9.76357C7.7634 9.68769 7.72015 9.58517 7.71875 9.47786V5.14453C7.71875 5.03679 7.76155 4.93346 7.83774 4.85727C7.91392 4.78108 8.01726 4.73828 8.125 4.73828C8.23274 4.73828 8.33608 4.78108 8.41226 4.85727C8.48845 4.93346 8.53125 5.03679 8.53125 5.14453V9.47786C8.52985 9.58517 8.4866 9.68769 8.41071 9.76357C8.33483 9.83946 8.23231 9.88271 8.125 9.88411Z" fill="#FD0606"/>
<path d="M4.875 9.88411C4.76769 9.88271 4.66517 9.83946 4.58929 9.76357C4.5134 9.68769 4.47015 9.58517 4.46875 9.47786V5.14453C4.46875 5.03679 4.51155 4.93346 4.58774 4.85727C4.66392 4.78108 4.76726 4.73828 4.875 4.73828C4.98274 4.73828 5.08608 4.78108 5.16226 4.85727C5.23845 4.93346 5.28125 5.03679 5.28125 5.14453V9.47786C5.27985 9.58517 5.2366 9.68769 5.16071 9.76357C5.08483 9.83946 4.98231 9.88271 4.875 9.88411Z" fill="#FD0606"/>
<path d="M6.5 9.88411C6.39269 9.88271 6.29017 9.83946 6.21429 9.76357C6.1384 9.68769 6.09515 9.58517 6.09375 9.47786V5.14453C6.09375 5.03679 6.13655 4.93346 6.21274 4.85727C6.28892 4.78108 6.39226 4.73828 6.5 4.73828C6.60774 4.73828 6.71108 4.78108 6.78726 4.85727C6.86345 4.93346 6.90625 5.03679 6.90625 5.14453V9.47786C6.90485 9.58517 6.8616 9.68769 6.78571 9.76357C6.70983 9.83946 6.60731 9.88271 6.5 9.88411Z" fill="#FD0606"/>
</g>
<defs>
<clipPath id="clip0_2569_7014">
<rect width="13.5385" height="13.5385" fill="white" transform="translate(0.230469 0.230469)"/>
</clipPath>
</defs>
</svg>
