<svg width="22" height="20" viewBox="0 0 22 20" fill="none" xmlns="http://www.w3.org/2000/svg">
<path d="M11 8.53042C10.7353 8.52747 10.4767 8.60989 10.2625 8.76548C10.0483 8.92106 9.8899 9.14151 9.81084 9.39417L9.375 10.7421H7.95834C7.69438 10.7421 7.43721 10.8257 7.22368 10.9809C7.01015 11.1361 6.85123 11.3548 6.76967 11.6059C6.68812 11.8569 6.68813 12.1273 6.7697 12.3784C6.85127 12.6294 7.01021 12.8482 7.22375 13.0033L8.37042 13.8367L7.93251 15.185C7.8514 15.4357 7.8516 15.7056 7.93307 15.9562C8.01454 16.2068 8.17311 16.4252 8.38614 16.5803C8.59917 16.7354 8.85575 16.8192 9.11925 16.8197C9.38275 16.8203 9.63967 16.7375 9.85334 16.5833L11 15.75L12.1467 16.5833C12.3591 16.7413 12.6167 16.8266 12.8815 16.8266C13.1462 16.8266 13.4038 16.7413 13.6163 16.5833C13.8321 16.4301 13.9928 16.2114 14.0746 15.9597C14.1564 15.708 14.1549 15.4367 14.0704 15.1858L13.6325 13.8375L14.7792 13.0042C14.9927 12.849 15.1517 12.6302 15.2332 12.3792C15.3148 12.1282 15.3148 11.8578 15.2333 11.6067C15.1517 11.3557 14.9928 11.1369 14.7792 10.9817C14.5657 10.8265 14.3085 10.743 14.0446 10.7429H12.6279L12.19 9.395C12.111 9.14209 11.9525 8.92139 11.7382 8.76564C11.5238 8.6099 11.265 8.52741 11 8.53042ZM12.3242 11.5754H14.0446C14.1327 11.5753 14.2186 11.6031 14.2899 11.6548C14.3612 11.7065 14.4143 11.7795 14.4415 11.8633C14.4687 11.9471 14.4687 12.0374 14.4414 12.1212C14.4141 12.205 14.361 12.2779 14.2896 12.3296L12.8975 13.3408C12.8264 13.3925 12.7735 13.4654 12.7464 13.549C12.7192 13.6326 12.7192 13.7226 12.7463 13.8062L13.2779 15.4425C13.3053 15.5262 13.3054 15.6165 13.2782 15.7002C13.2511 15.784 13.1981 15.8571 13.1269 15.9088C13.0556 15.9606 12.9698 15.9885 12.8818 15.9885C12.7937 15.9885 12.7079 15.9606 12.6367 15.9087L11.245 14.8971C11.1738 14.8453 11.088 14.8174 11 14.8174C10.912 14.8174 10.8262 14.8453 10.755 14.8971L9.36334 15.9087C9.29213 15.9606 9.20633 15.9885 9.11825 15.9885C9.03018 15.9885 8.94437 15.9606 8.87314 15.9088C8.8019 15.8571 8.74891 15.784 8.72178 15.7002C8.69464 15.6165 8.69475 15.5262 8.72209 15.4425L9.25375 13.8062C9.28086 13.7226 9.28082 13.6326 9.25366 13.549C9.22649 13.4654 9.17358 13.3925 9.1025 13.3408L7.71042 12.3296C7.63905 12.2779 7.5859 12.205 7.5586 12.1212C7.53131 12.0374 7.53126 11.9471 7.55849 11.8633C7.58571 11.7795 7.63879 11.7065 7.71011 11.6548C7.78143 11.6031 7.86731 11.5753 7.95542 11.5754H9.67584C9.76383 11.5754 9.84955 11.5476 9.92074 11.4958C9.99192 11.4441 10.0449 11.3712 10.0721 11.2875L10.6038 9.65167C10.6312 9.5683 10.6842 9.49572 10.7553 9.44426C10.8263 9.39281 10.9118 9.3651 10.9996 9.3651C11.0873 9.3651 11.1728 9.39281 11.2439 9.44426C11.315 9.49572 11.368 9.5683 11.3954 9.65167L11.9271 11.2875C11.9543 11.3713 12.0074 11.4443 12.0788 11.4961C12.1501 11.5478 12.236 11.5756 12.3242 11.5754ZM18.0833 1.66667H16.8333V1.25C16.8333 0.918479 16.7016 0.600537 16.4672 0.366117C16.2328 0.131696 15.9149 0 15.5833 0C15.2518 0 14.9339 0.131696 14.6995 0.366117C14.465 0.600537 14.3333 0.918479 14.3333 1.25V1.66667H8.91667C8.80616 1.66667 8.70018 1.71057 8.62204 1.78871C8.5439 1.86685 8.5 1.97283 8.5 2.08333C8.5 2.19384 8.5439 2.29982 8.62204 2.37796C8.70018 2.4561 8.80616 2.5 8.91667 2.5H14.3333V3.75C14.3333 4.08152 14.465 4.39946 14.6995 4.63388C14.9339 4.8683 15.2518 5 15.5833 5C15.9149 5 16.2328 4.8683 16.4672 4.63388C16.7016 4.39946 16.8333 4.08152 16.8333 3.75V2.5H18.0833C18.8566 2.50088 19.598 2.80846 20.1448 3.35525C20.6915 3.90204 20.9991 4.64339 21 5.41667V5.83333H2.25001C2.1395 5.83333 2.03352 5.87723 1.95538 5.95537C1.87724 6.03351 1.83334 6.13949 1.83334 6.25C1.83334 6.36051 1.87724 6.46649 1.95538 6.54463C2.03352 6.62277 2.1395 6.66667 2.25001 6.66667H21V16.25C20.9991 17.0233 20.6915 17.7646 20.1448 18.3114C19.598 18.8582 18.8566 19.1658 18.0833 19.1667H3.91667C3.14339 19.1658 2.40204 18.8582 1.85525 18.3114C1.30846 17.7646 1.00089 17.0233 1.00001 16.25V5.41667C1.00089 4.64339 1.30846 3.90204 1.85525 3.35525C2.40204 2.80846 3.14339 2.50088 3.91667 2.5H5.16667V3.75C5.16667 4.08152 5.29837 4.39946 5.53279 4.63388C5.76721 4.8683 6.08515 5 6.41667 5C6.74819 5 7.06613 4.8683 7.30056 4.63388C7.53498 4.39946 7.66667 4.08152 7.66667 3.75V1.25C7.66667 0.918479 7.53498 0.600537 7.30056 0.366117C7.06613 0.131696 6.74819 0 6.41667 0C6.08515 0 5.76721 0.131696 5.53279 0.366117C5.29837 0.600537 5.16667 0.918479 5.16667 1.25V1.66667H3.91667C2.92245 1.66777 1.96926 2.06321 1.26624 2.76623C0.563217 3.46926 0.167775 4.42244 0.166672 5.41667V16.25C0.167775 17.2442 0.563217 18.1974 1.26624 18.9004C1.96926 19.6035 2.92245 19.9989 3.91667 20H18.0833C19.0776 19.9989 20.0307 19.6035 20.7338 18.9004C21.4368 18.1974 21.8322 17.2442 21.8333 16.25V5.41667C21.8322 4.42244 21.4368 3.46926 20.7338 2.76623C20.0307 2.06321 19.0776 1.66777 18.0833 1.66667ZM16 3.75C16 3.86051 15.9561 3.96649 15.878 4.04463C15.7998 4.12277 15.6938 4.16667 15.5833 4.16667C15.4728 4.16667 15.3668 4.12277 15.2887 4.04463C15.2106 3.96649 15.1667 3.86051 15.1667 3.75V1.25C15.1667 1.13949 15.2106 1.03351 15.2887 0.955372C15.3668 0.877232 15.4728 0.833333 15.5833 0.833333C15.6938 0.833333 15.7998 0.877232 15.878 0.955372C15.9561 1.03351 16 1.13949 16 1.25V3.75ZM6 1.25C6 1.13949 6.0439 1.03351 6.12204 0.955372C6.20018 0.877232 6.30616 0.833333 6.41667 0.833333C6.52718 0.833333 6.63316 0.877232 6.7113 0.955372C6.78944 1.03351 6.83334 1.13949 6.83334 1.25V3.75C6.83334 3.86051 6.78944 3.96649 6.7113 4.04463C6.63316 4.12277 6.52718 4.16667 6.41667 4.16667C6.30616 4.16667 6.20018 4.12277 6.12204 4.04463C6.0439 3.96649 6 3.86051 6 3.75V1.25Z" fill="#828282"/>
</svg>
