<svg width="164" height="124" viewBox="0 0 164 124" fill="none" xmlns="http://www.w3.org/2000/svg">
<g clip-path="url(#clip0_278_1763)">
<path d="M0.548244 105.305C0.548244 101.276 0.668697 97.235 0.512108 93.2058C0.391655 90.2319 1.47573 88.697 4.58343 88.745C7.43817 88.793 9.66655 89.5844 9.90746 92.882C10.0159 94.369 9.87132 95.8799 10.064 97.3549C10.2086 98.4581 9.47383 100.065 10.8349 100.581C12.4249 101.168 13.0754 99.4534 13.9186 98.518C16.1228 96.0838 18.291 93.6135 20.3748 91.0593C22.3744 88.6131 24.663 88.4452 27.072 90.184C29.6859 92.0786 29.5534 94.5009 27.6864 96.7913C25.7952 99.1056 23.88 101.468 21.6035 103.363C18.8692 105.653 19.5196 107.38 21.6516 109.514C23.9764 111.841 26.0602 114.395 28.3248 116.781C29.4088 117.932 30.4568 119.083 29.6016 120.69C28.7945 122.225 27.3491 123.017 25.5664 123.161C22.8923 123.364 20.6639 122.117 19.3992 120.115C17.7731 117.549 15.1713 115.954 13.5451 113.447C12.967 112.548 12.0877 111.157 10.7265 111.793C9.43769 112.392 10.064 113.915 9.96769 115.042C9.88337 116.074 10.0038 117.129 10.0159 118.172C10.064 120.618 10.329 123.149 6.63113 123.125C3.28253 123.101 0.58438 122.393 0.572335 118.292C0.560289 113.963 0.572335 109.634 0.572335 105.293C0.572335 105.293 0.572335 105.293 0.560289 105.293L0.548244 105.305Z" fill="#1FA7E4"/>
<path d="M47.0672 105.761C47.0672 101.732 47.1154 97.7027 47.0431 93.6735C46.9949 91.1553 48.2476 89.8123 50.5965 89.2487C55.7759 88.0255 60.9916 87.7017 66.1349 89.3086C74.7473 92.0067 77.2407 101.252 70.9771 107.692C68.7006 110.03 68.1826 111.745 71.0253 113.807C71.736 114.323 72.3985 115.03 72.796 115.81C73.7837 117.716 76.8191 119.479 73.856 121.89C71.1096 124.12 68.0983 123.76 65.8338 121.158C63.9909 119.036 62.6418 116.481 61.1843 114.047C60.3652 112.692 59.5461 111.469 57.7273 111.793C55.4387 112.2 56.4143 114.107 56.2096 115.414C56.053 116.433 56.1132 117.501 56.1734 118.544C56.3059 121.146 56.2096 123.269 52.5358 123.149C49.1149 123.041 47.0431 122.057 47.1033 118.304C47.1635 114.119 47.1154 109.946 47.1154 105.761C47.1033 105.761 47.0913 105.761 47.0792 105.761H47.0672ZM56.1734 100.341C56.1975 102.379 55.3423 105.281 59.5823 105.029C62.8586 104.838 65.1352 103.734 65.0749 100.125C65.0027 96.3476 62.1841 95.7361 59.2089 95.5082C55.6194 95.2324 56.1012 97.7626 56.1734 100.353V100.341Z" fill="#E1497D"/>
<path d="M116.472 16.5322C115.93 20.0577 114.172 22.6119 111.931 24.9022C107.944 28.9674 103.801 32.8886 99.9823 37.1096C96.4651 40.9948 96.5615 44.4244 100.091 48.2377C103.548 51.979 107.366 55.3966 110.763 59.1859C113.341 62.0639 115.894 65.1337 115.593 69.4506C115.509 70.7098 115.099 71.9209 114.063 72.5564C112.702 73.3959 111.859 72.0888 111.064 71.2973C102.367 62.6155 93.7308 53.8497 84.998 45.2038C82.9141 43.1413 83.0105 41.6544 85.0943 39.6278C93.6706 31.2337 102.09 22.7078 110.606 14.2538C111.606 13.2585 112.437 11.3758 114.184 12.1673C115.979 12.9827 116.123 15.0332 116.484 16.5322H116.472Z" fill="#EF952D"/>
<path d="M40.9722 68.5514C41.1287 65.4816 42.5621 63.1672 44.3689 61.1526C47.9705 57.1475 51.7407 53.3102 55.4265 49.377C60.5097 43.9568 60.4735 40.923 55.4747 35.5508C51.1986 30.958 46.0673 27.1327 42.5983 21.8085C41.0565 19.4342 39.3701 17.0119 41.1288 13.9541C42.2369 12.0235 43.321 11.292 45.2362 13.2226C54.1618 22.2162 63.1235 31.1619 72.1816 40.0356C74.0848 41.8943 73.7716 43.1174 72.0491 44.8202C63.244 53.598 54.5352 62.4717 45.7662 71.2734C44.9712 72.0649 44.0678 73.4079 42.779 72.6884C41.201 71.8011 41.0806 70.0023 40.9963 68.5634L40.9722 68.5514Z" fill="#1FA7E4"/>
<path d="M104.728 80.0392C101.729 79.7514 99.3922 78.3724 97.4047 76.5497C94.2127 73.6238 91.1291 70.5539 88.0937 67.4601C79.939 59.138 77.3854 59.1021 68.8332 67.1963C65.581 70.2781 62.2926 73.348 58.9079 76.2859C56.8481 78.0726 54.3547 79.2478 51.5843 79.4157C50.2352 79.4996 48.7778 78.984 48.0912 77.7368C47.4528 76.5857 48.6091 75.8182 49.3198 75.1347C58.1249 66.5848 66.9782 58.0828 75.7834 49.5329C77.6263 47.7461 79.2163 47.5663 81.1556 49.4609C89.8041 57.9149 98.537 66.285 107.173 74.751C108.017 75.5784 109.884 76.3099 108.896 77.9287C108.017 79.4037 106.27 79.7874 104.752 80.0392H104.728Z" fill="#74B876"/>
<path d="M104.15 124C100.175 123.688 96.3807 123.484 93.3091 120.894C91.4542 119.335 91.0446 117.489 92.3696 115.318C93.7789 112.992 95.3568 114.107 96.9468 114.982C99.1391 116.194 101.536 116.253 103.957 116.277C105.896 116.301 107.776 116.002 108.318 113.927C108.932 111.577 106.932 110.905 105.246 110.246C102.873 109.322 100.404 108.615 98.0911 107.56C93.9596 105.689 91.1289 102.763 91.6107 97.8465C92.0805 93.0619 95.1641 90.4718 99.5245 89.1287C103.849 87.7977 108.185 88.0615 112.389 89.4285C114.714 90.184 116.978 91.6469 116.292 94.6088C115.533 97.8945 113.076 96.7313 110.847 96.3236C108.944 95.9759 106.956 95.9639 105.017 95.9759C103.487 95.9759 101.837 96.2637 101.464 98.0744C101.066 99.993 102.584 100.629 104.042 101.156C105.74 101.768 107.438 102.379 109.125 102.991C115.352 105.281 118.616 109.143 118.279 113.807C117.918 118.892 114.232 122.213 107.499 123.496C106.318 123.724 105.126 123.832 104.138 123.964L104.15 124Z" fill="#74B876"/>
<path d="M89.7438 27.1687C87.0095 30.1186 84.215 33.0085 81.5771 36.0304C79.4812 38.4407 77.6865 38.7045 75.3015 36.2462C68.4477 29.1952 61.4253 22.3001 54.4631 15.3331C54.3908 14.5656 54.2101 13.8941 53.2224 13.9301L53.4754 13.6783C53.4754 13.6783 53.1983 13.9181 53.1983 13.9061C53.2224 13.2825 52.9454 13.0067 52.319 13.1027L52.2106 13.0307C52.2106 12.4671 52.4515 11.6877 52.1624 11.3639C48.9222 7.67051 51.0302 7.1189 54.5113 7.29878C55.1015 7.33475 55.6917 7.27479 56.2819 7.25081L56.3181 7.2628C56.2819 8.97759 57.5105 9.10949 58.7633 9.18144C63.473 11.9275 66.9782 16.0526 70.9049 19.71C75.6869 24.1708 77.6985 24.6145 83.1791 22.2162C83.3357 22.3961 83.4923 22.5759 83.6609 22.7438C83.8296 22.3481 83.9982 21.9644 84.1789 21.5687C84.48 21.3168 84.7932 21.053 85.0943 20.8012C87.0095 20.6933 88.8886 20.5494 88.3466 17.8033C88.3466 17.8033 88.4309 17.7434 88.4309 17.7554C89.0572 17.7913 89.3222 17.5275 89.1536 16.904L89.2741 16.7721C90.334 16.916 90.4786 16.2204 90.5388 15.429L90.5629 15.405C92.2613 15.2851 93.1527 14.3857 93.2249 12.6949C93.5381 12.4072 93.8392 12.1074 94.1524 11.8196C95.5135 11.7476 96.5374 11.3039 96.5253 9.70907C96.5253 9.70907 96.5735 9.63712 96.5735 9.64911C99.344 10.4166 100.705 7.52661 103.054 7.19085C104.03 7.04695 105.041 6.07564 105.957 7.13089C106.957 8.28208 106.101 9.46924 105.547 10.4046C104.523 12.1074 102.054 12.8988 102.343 15.441L102.295 15.489C98.3683 15.8847 93.5863 20.5973 92.9238 24.7344L92.707 24.9263C91.4181 24.6625 90.9363 25.346 90.864 26.4852L90.7797 26.5211C90.4425 26.737 90.1172 26.9648 89.78 27.1807L89.7438 27.1687Z" fill="#E1497D"/>
<path d="M137.479 89.2247C139.37 89.2846 141.021 89.7883 142.081 91.503C142.864 92.7741 143.61 94.0572 144.466 95.2804C145.947 97.4029 145.947 101.66 148.621 101.468C150.946 101.3 151.066 97.1271 152.235 94.7767C153.415 92.4024 153.801 89.6324 157.318 89.2846C161.763 88.8409 163.979 91.3831 162.269 95.5322C161.317 97.8585 160.028 100.101 158.595 102.187C154.993 107.428 151.813 112.728 152.825 119.491C153.198 121.937 151.825 123.041 149.44 123.113C147.079 123.185 143.912 122.873 144.237 120.247C145.502 109.862 137.961 103.267 134.107 95.1125C132.324 91.3591 133.516 89.1767 137.467 89.2247H137.479Z" fill="#EF952D"/>
<path d="M113.316 49.3409C109.944 49.3529 106.752 46.1751 106.752 42.7935C106.752 39.1361 109.546 36.2342 113.16 36.1263C116.822 36.0183 120.158 39.268 120.05 42.8295C119.953 46.1991 116.713 49.3289 113.316 49.3409Z" fill="#EF952D"/>
<path d="M41.9601 36.1742C45.4291 36.0663 48.7175 39.0282 48.85 42.4098C48.9825 45.6955 45.6098 49.269 42.1528 49.5088C38.9367 49.7366 35.829 46.5349 35.7085 42.8775C35.5881 39.1361 38.2381 36.2942 41.948 36.1742H41.9601Z" fill="#1FA7E4"/>
<path d="M84.986 8.34201C84.986 11.8555 81.8903 14.7455 78.1924 14.6735C74.627 14.6136 71.9047 11.9754 71.7843 8.46193C71.6759 5.51202 75.3979 1.69872 78.5176 1.53084C81.806 1.36296 84.9739 4.70859 84.9739 8.34201H84.986Z" fill="#E1497D"/>
<path d="M84.9859 77.3291C84.8534 80.7706 81.6735 83.6006 77.9876 83.5527C74.5547 83.5167 71.4952 80.195 71.6758 76.7055C71.8445 73.5997 75.169 70.5659 78.3971 70.5899C81.7337 70.6138 85.1064 74.0674 84.9859 77.3291Z" fill="#74B876"/>
<path d="M102.307 15.4291C102.018 12.8749 104.487 12.0954 105.511 10.3926C106.065 9.46929 106.92 8.28213 105.921 7.11896C105.005 6.0637 103.993 7.03501 103.018 7.17891C100.669 7.51467 99.3078 10.4046 96.5374 9.63717C99.4644 6.43544 102.825 4.21701 107.39 5.73993C109.414 6.42345 110.944 7.57463 108.426 9.72111C106.306 11.5318 104.343 13.5104 102.307 15.4291Z" fill="#E1497D"/>
<path d="M56.2578 7.26278C55.6676 7.27477 55.0773 7.33472 54.4871 7.31074C51.006 7.13087 48.9101 7.68248 52.1383 11.3759C52.4274 11.6996 52.1865 12.4791 52.1865 13.0427C51.6806 12.7549 51.0181 12.575 50.6928 12.1433C49.5244 10.5844 46.5252 9.3493 47.7899 7.31074C49.0306 5.33215 51.9094 5.1163 54.3667 6.19553C55.0292 6.48333 55.6194 6.90303 56.2457 7.26278H56.2578Z" fill="#E1497D"/>
<path d="M92.8877 24.7224C93.5502 20.5973 98.3442 15.8726 102.259 15.4769C99.4163 18.8465 96.3206 21.9523 92.8877 24.7224Z" fill="#E1497D"/>
<path d="M88.3103 17.8153C88.8524 20.5614 86.9733 20.7053 85.0581 20.8132C85.829 19.4821 86.9372 18.5108 88.3103 17.8153Z" fill="#E1497D"/>
<path d="M93.1889 12.6949C93.1166 14.3977 92.2132 15.2851 90.5269 15.405C90.9364 14.038 92.0446 13.3425 93.1889 12.6949Z" fill="#E1497D"/>
<path d="M58.7512 9.20538C57.4864 9.13343 56.2698 9.00153 56.306 7.28674C57.4864 7.46662 58.5103 7.83835 58.7512 9.20538Z" fill="#E1497D"/>
<path d="M96.5013 9.70911C96.5134 11.316 95.4895 11.7477 94.1284 11.8196C94.6584 10.8243 95.3209 9.97292 96.5013 9.70911Z" fill="#E1497D"/>
<path d="M90.8279 26.4732C90.9122 25.322 91.382 24.6385 92.6708 24.9143C92.3576 25.8017 91.7433 26.3173 90.8279 26.4732Z" fill="#E1497D"/>
<path d="M53.2104 13.954C54.1982 13.918 54.3788 14.5896 54.4511 15.357C54.0416 14.8894 53.62 14.4217 53.2104 13.954Z" fill="#E1497D"/>
<path d="M90.5148 15.441C90.4545 16.2325 90.31 16.928 89.25 16.7841C89.6716 16.3404 90.0932 15.8847 90.5148 15.441Z" fill="#E1497D"/>
<path d="M84.1428 21.5927C83.9742 21.9884 83.8056 22.3721 83.6249 22.7678C83.4683 22.5879 83.3117 22.4081 83.1431 22.2402C83.4683 22.0243 83.8056 21.8085 84.1308 21.5927H84.1428Z" fill="#E1497D"/>
<path d="M52.3069 13.1267C52.9332 13.0307 53.2103 13.3065 53.1862 13.9301C52.8971 13.6663 52.596 13.4025 52.3069 13.1267Z" fill="#E1497D"/>
<path d="M89.1295 16.9159C89.2981 17.5514 89.0331 17.8153 88.4067 17.7673C88.6476 17.4795 88.8885 17.2037 89.1295 16.9159Z" fill="#E1497D"/>
</g>
<defs>
<clipPath id="clip0_278_1763">
<rect width="163" height="124" fill="white" transform="translate(0.5)"/>
</clipPath>
</defs>
</svg>
