<svg width="18" height="18" viewBox="0 0 18 18" fill="none" xmlns="http://www.w3.org/2000/svg">
<path d="M15.5391 3.02344H2.46094C1.87938 3.02344 1.40625 3.49657 1.40625 4.07812V13.9219C1.40625 14.5034 1.87938 14.9766 2.46094 14.9766H15.5391C16.1206 14.9766 16.5938 14.5034 16.5938 13.9219V4.07812C16.5938 3.49657 16.1206 3.02344 15.5391 3.02344ZM15.8906 13.4715L12.7516 9.45C12.6063 9.26395 12.3227 9.27102 12.1869 9.46406L9.63278 13.0951L5.79948 7.42454C5.66139 7.22025 5.36133 7.21789 5.22007 7.42001L2.10938 11.8705V4.07812C2.10938 3.88427 2.26709 3.72656 2.46094 3.72656H15.5391C15.7329 3.72656 15.8906 3.88427 15.8906 4.07812V13.4715Z" fill="white"/>
<path d="M12.6466 6.14422C12.3345 5.60046 11.755 5.25938 11.1166 5.25938C10.661 5.25938 10.2312 5.43551 9.90871 5.73845C9.79554 5.19198 9.31154 4.78125 8.73153 4.78125C8.06754 4.78125 7.5293 5.31953 7.5293 5.98349C7.5293 6.43075 7.77367 6.82073 8.13609 7.02773C8.0283 7.20415 7.96639 7.41083 7.96639 7.63105V7.63534C7.9677 7.98068 8.25323 8.26161 8.60286 8.26161H12.9324C13.3787 8.26161 13.7436 7.90313 13.7458 7.46448L13.7458 7.45587C13.7458 6.80221 13.27 6.25504 12.6466 6.14422ZM12.9324 7.55849H8.67525C8.70555 7.36938 8.85254 7.21733 9.04692 7.18439C9.23346 7.15282 9.36153 6.97925 9.33675 6.79166C9.32423 6.69684 9.38136 6.60744 9.47266 6.57911C9.53566 6.55952 9.60408 6.57299 9.65558 6.61518C9.73637 6.68137 9.84237 6.70816 9.94495 6.68844C10.0475 6.66868 10.136 6.60431 10.1863 6.51284C10.3733 6.17337 10.7298 5.9625 11.1166 5.9625C11.5447 5.9625 11.9287 6.21738 12.095 6.61191C12.1497 6.74156 12.2764 6.82611 12.4171 6.82689C12.762 6.82875 13.0427 7.11091 13.0427 7.45903C13.0424 7.51296 12.9919 7.55849 12.9324 7.55849Z" fill="white"/>
<path d="M16.2422 1.61719H1.75781C0.788555 1.61719 0 2.40574 0 3.375V14.625C0 15.5943 0.788555 16.3828 1.75781 16.3828H16.2422C17.2114 16.3828 18 15.5943 18 14.625V3.375C18 2.40574 17.2114 1.61719 16.2422 1.61719ZM17.2969 14.625C17.2969 15.2066 16.8237 15.6797 16.2422 15.6797H1.75781C1.17626 15.6797 0.703125 15.2066 0.703125 14.625V3.375C0.703125 2.79345 1.17626 2.32031 1.75781 2.32031H16.2422C16.8237 2.32031 17.2969 2.79345 17.2969 3.375V14.625Z" fill="white"/>
</svg>
