<svg width="21" height="20" viewBox="0 0 21 20" fill="none" xmlns="http://www.w3.org/2000/svg">
<g clip-path="url(#clip0_147_226)">
<path d="M19.7656 7.64062L12.6211 1.65625C11.3945 0.628906 9.60548 0.628906 8.37892 1.65625L1.23439 7.64062C0.367198 8.36719 0.253917 9.66016 0.980479 10.5234C1.33985 10.9531 1.85939 11.2148 2.41407 11.25V17.0703C2.41407 18.1953 3.32814 19.1094 4.45704 19.1133H8.84767V14.0742C8.84767 13.1641 9.58595 12.4258 10.4961 12.4258C11.4063 12.4258 12.1445 13.1641 12.1445 14.0742V19.1172H16.5391C17.6641 19.1172 18.5781 18.2031 18.582 17.0742V11.2539C19.7109 11.1797 20.5664 10.2031 20.4922 9.07422C20.4531 8.51953 20.1914 8 19.7656 7.64062ZM18.4492 10.4766H17.8008V17.0742C17.8008 17.7695 17.2383 18.3359 16.5391 18.3359H12.9258V14.0742C12.9258 12.7305 11.8359 11.6445 10.4961 11.6445C9.15235 11.6445 8.06642 12.7344 8.06642 14.0742V18.3359H4.45704C3.76173 18.3359 3.19532 17.7734 3.19532 17.0781V10.4766H2.55079C1.3672 10.4766 0.832042 9 1.73829 8.23828L8.88282 2.25391C9.82032 1.46875 11.1836 1.46875 12.1211 2.25391L19.2617 8.24219C20.168 9 19.6328 10.4766 18.4492 10.4766Z" fill="#F3F9FB"/>
</g>
<defs>
<clipPath id="clip0_147_226">
<rect width="20" height="20" fill="white" transform="translate(0.5)"/>
</clipPath>
</defs>
</svg>
