<svg width="40" height="41" viewBox="0 0 40 41" fill="none" xmlns="http://www.w3.org/2000/svg">
<path fill-rule="evenodd" clip-rule="evenodd" d="M31.6666 11.9108C31.6666 10.9903 30.9204 10.2441 29.9999 10.2441H9.99992C9.07945 10.2441 8.33325 10.9903 8.33325 11.9108C8.33325 12.8313 9.07945 13.5775 9.99992 13.5775H29.9999C30.9204 13.5775 31.6666 12.8313 31.6666 11.9108ZM31.6666 20.2441C31.6666 19.3236 30.9204 18.5775 29.9999 18.5775H16.6666C15.7461 18.5775 14.9999 19.3236 14.9999 20.2441C14.9999 21.1646 15.7461 21.9108 16.6666 21.9108H29.9999C30.9204 21.9108 31.6666 21.1646 31.6666 20.2441ZM29.9999 26.9108C30.9204 26.9108 31.6666 27.657 31.6666 28.5775C31.6666 29.498 30.9204 30.2441 29.9999 30.2441H9.99992C9.07945 30.2441 8.33325 29.498 8.33325 28.5775C8.33325 27.657 9.07945 26.9108 9.99992 26.9108H29.9999Z" fill="#C0E8F4"/>
</svg>
