<svg width="21" height="20" viewBox="0 0 21 20" fill="none" xmlns="http://www.w3.org/2000/svg">
<g id="id-card 1" clip-path="url(#clip0_371_2811)">
<g id="_04.Icon">
<path id="IDCard" d="M20.5 4.14062V4.53125H0.5V4.14062C0.5 3.0625 1.375 2.1875 2.45312 2.1875H18.5469C19.625 2.1875 20.5 3.0625 20.5 4.14062ZM0.5 5.625H20.5V15.8594C20.5 16.9375 19.625 17.8125 18.5469 17.8125H2.45312C1.375 17.8125 0.5 16.9375 0.5 15.8594V5.625ZM12.8047 7.84766C12.8047 8.14844 13.0508 8.39453 13.3516 8.39453H17.7266C18.0273 8.39453 18.2734 8.14844 18.2734 7.84766C18.2734 7.54688 18.0273 7.30078 17.7266 7.30078H13.3516C13.0508 7.30078 12.8047 7.54688 12.8047 7.84766ZM12.8047 9.80078C12.8047 10.1016 13.0508 10.3477 13.3516 10.3477H17.7266C18.0273 10.3477 18.2734 10.1016 18.2734 9.80078C18.2734 9.5 18.0273 9.25391 17.7266 9.25391H13.3516C13.0508 9.25391 12.8047 9.5 12.8047 9.80078ZM12.8047 11.7539C12.8047 12.0547 13.0508 12.3008 13.3516 12.3008H17.7266C18.0273 12.3008 18.2734 12.0547 18.2734 11.7539C18.2734 11.4531 18.0273 11.207 17.7266 11.207H13.3516C13.0508 11.207 12.8047 11.4531 12.8047 11.7539ZM4.53906 9.44922C4.53906 10.6445 5.50781 11.6133 6.70312 11.6133C7.89844 11.6133 8.86719 10.6445 8.86719 9.44922C8.86719 8.25391 7.89844 7.28516 6.70312 7.28516C5.50781 7.28516 4.53906 8.25391 4.53906 9.44922ZM3.87891 16.1523H9.53125C10.3242 16.1523 10.8906 15.3789 10.6484 14.625L10 12.6055C9.82031 12.0508 9.19922 11.7695 8.66797 12.0156C8.19141 12.2344 7.53906 12.4258 6.70703 12.4258C5.875 12.4258 5.21875 12.2344 4.74609 12.0195C4.21484 11.7773 3.58984 12.0547 3.41406 12.6094L2.76562 14.6289C2.51953 15.3789 3.08594 16.1523 3.87891 16.1523Z" fill="url(#paint0_linear_371_2811)"/>
</g>
</g>
<defs>
<linearGradient id="paint0_linear_371_2811" x1="2.16586" y1="1.66586" x2="18.8341" y2="18.3341" gradientUnits="userSpaceOnUse">
<stop stop-color="#4AFFC7"/>
<stop offset="1" stop-color="#00B6AA"/>
</linearGradient>
<clipPath id="clip0_371_2811">
<rect width="20" height="20" fill="white" transform="translate(0.5)"/>
</clipPath>
</defs>
</svg>
