<svg width="20" height="21" viewBox="0 0 20 21" fill="none" xmlns="http://www.w3.org/2000/svg">
<g id="bx:link">
<path id="Vector" d="M7.05417 9.91967C7.99833 8.97551 9.645 8.97551 10.5892 9.91967L11.1783 10.5088L12.3567 9.33051L11.7675 8.74134C10.9817 7.95467 9.935 7.52051 8.82167 7.52051C7.70833 7.52051 6.66167 7.95467 5.87583 8.74134L4.1075 10.5088C3.32774 11.2911 2.88989 12.3506 2.88989 13.4551C2.88989 14.5596 3.32774 15.6191 4.1075 16.4013C4.49406 16.7885 4.95331 17.0954 5.45885 17.3045C5.96439 17.5135 6.50626 17.6207 7.05333 17.6197C7.60055 17.6208 8.14259 17.5138 8.64829 17.3047C9.15399 17.0956 9.61337 16.7886 10 16.4013L10.5892 15.8122L9.41083 14.6338L8.82167 15.223C8.35206 15.6905 7.71639 15.953 7.05375 15.953C6.39111 15.953 5.75544 15.6905 5.28583 15.223C4.81792 14.7536 4.55517 14.1179 4.55517 13.4551C4.55517 12.7923 4.81792 12.1566 5.28583 11.6872L7.05417 9.91967Z" fill="#00B6AA"/>
<path id="Vector_2" d="M10 4.61624L9.41084 5.20541L10.5892 6.38374L11.1783 5.79458C11.6479 5.32707 12.2836 5.0646 12.9463 5.0646C13.6089 5.0646 14.2446 5.32707 14.7142 5.79458C15.1821 6.26397 15.4448 6.89972 15.4448 7.56249C15.4448 8.22527 15.1821 8.86102 14.7142 9.33041L12.9458 11.0979C12.0017 12.0421 10.355 12.0421 9.41084 11.0979L8.82167 10.5087L7.64334 11.6871L8.23251 12.2762C9.01834 13.0629 10.065 13.4971 11.1783 13.4971C12.2917 13.4971 13.3383 13.0629 14.1242 12.2762L15.8925 10.5087C16.6723 9.72648 17.1101 8.66701 17.1101 7.56249C17.1101 6.45798 16.6723 5.39851 15.8925 4.61624C15.1105 3.83608 14.0509 3.39795 12.9463 3.39795C11.8416 3.39795 10.7821 3.83608 10 4.61624Z" fill="#00B6AA"/>
</g>
</svg>
