<svg width="10" height="13" viewBox="0 0 10 13" fill="none" xmlns="http://www.w3.org/2000/svg">
<g id="map-pin" clip-path="url(#clip0_349_2363)">
<path id="Vector" d="M9.20455 5.57559C9.20455 8.18157 7.06067 10.5335 5.69938 11.7642C5.06776 12.3352 4.13679 12.3352 3.50517 11.7642C2.14388 10.5335 0 8.18157 0 5.57559C1.81883e-08 4.27362 0.484881 3.02498 1.34797 2.10434C2.21107 1.18371 3.38167 0.666504 4.60227 0.666504C5.82287 0.666504 6.99348 1.18371 7.85657 2.10434C8.71966 3.02498 9.20455 4.27362 9.20455 5.57559Z" fill="#828282"/>
<path id="Vector_2" d="M4.5 7C5.32843 7 6 6.32843 6 5.5C6 4.67157 5.32843 4 4.5 4C3.67157 4 3 4.67157 3 5.5C3 6.32843 3.67157 7 4.5 7Z" fill="white"/>
</g>
<defs>
<clipPath id="clip0_349_2363">
<rect width="10" height="13" fill="white"/>
</clipPath>
</defs>
</svg>
