<svg width="23" height="20" viewBox="0 0 23 20" fill="none" xmlns="http://www.w3.org/2000/svg">
<path d="M20.2879 14.4095V11.7129C20.2879 11.0487 20.0243 10.4117 19.5551 9.94174C19.0859 9.47173 18.4493 9.20714 17.7852 9.20604H12.1223V5.58738C12.8012 5.43426 13.3997 5.03624 13.8035 4.46945C14.2073 3.90267 14.388 3.20691 14.311 2.51527C14.2339 1.82363 13.9046 1.18467 13.386 0.720619C12.8674 0.256566 12.1959 0 11.5 0C10.8041 0 10.1326 0.256566 9.614 0.720619C9.09539 1.18467 8.76608 1.82363 8.68904 2.51527C8.61201 3.20691 8.79267 3.90267 9.19647 4.46945C9.60027 5.03624 10.1988 5.43426 10.8777 5.58738V9.20708H5.21999C4.55521 9.20763 3.9178 9.47188 3.44763 9.94185C2.97747 10.4118 2.71295 11.0491 2.71212 11.7139V14.4105C2.03298 14.5636 1.43413 14.9618 1.03014 15.5288C0.626153 16.0958 0.445383 16.7918 0.522416 17.4837C0.59945 18.1756 0.928878 18.8148 1.44768 19.2791C1.96648 19.7433 2.63823 20 3.33442 20C4.03061 20 4.70236 19.7433 5.22117 19.2791C5.73997 18.8148 6.0694 18.1756 6.14643 17.4837C6.22346 16.7918 6.04269 16.0958 5.6387 15.5288C5.23471 14.9618 4.63586 14.5636 3.95672 14.4105V11.7139C3.95727 11.379 4.09054 11.058 4.32733 10.8212C4.56412 10.5845 4.88511 10.4512 5.21999 10.4506H10.8777V14.4084C10.1988 14.5616 9.60027 14.9596 9.19647 15.5264C8.79267 16.0932 8.61201 16.7889 8.68904 17.4806C8.76608 18.1722 9.09539 18.8112 9.614 19.2752C10.1326 19.7393 10.8041 19.9958 11.5 19.9958C12.1959 19.9958 12.8674 19.7393 13.386 19.2752C13.9046 18.8112 14.2339 18.1722 14.311 17.4806C14.388 16.7889 14.2073 16.0932 13.8035 15.5264C13.3997 14.9596 12.8012 14.5616 12.1223 14.4084V10.4517H17.7852C18.1195 10.4528 18.4398 10.5863 18.6758 10.8231C18.9118 11.0599 19.0443 11.3806 19.0443 11.7149V14.4116C18.3655 14.5647 17.7669 14.9627 17.3631 15.5295C16.9593 16.0963 16.7786 16.792 16.8557 17.4837C16.9327 18.1753 17.262 18.8143 17.7806 19.2783C18.2992 19.7424 18.9707 19.9989 19.6666 19.9989C20.3625 19.9989 21.034 19.7424 21.5526 19.2783C22.0712 18.8143 22.4006 18.1753 22.4776 17.4837C22.5546 16.792 22.374 16.0963 21.9702 15.5295C21.5664 14.9627 20.9678 14.5647 20.2889 14.4116L20.2879 14.4095ZM4.91921 17.1632C4.91921 17.4764 4.82632 17.7826 4.6523 18.043C4.47827 18.3035 4.23093 18.5065 3.94153 18.6263C3.65214 18.7462 3.3337 18.7776 3.02649 18.7165C2.71927 18.6554 2.43707 18.5045 2.21558 18.283C1.99409 18.0615 1.84325 17.7793 1.78214 17.4721C1.72103 17.1649 1.7524 16.8465 1.87227 16.5571C1.99214 16.2677 2.19513 16.0203 2.45558 15.8463C2.71602 15.6723 3.02222 15.5794 3.33546 15.5794C3.75533 15.58 4.15784 15.747 4.45473 16.0439C4.75162 16.3408 4.91866 16.7433 4.91921 17.1632ZM13.0848 17.1632C13.0848 17.4763 12.9919 17.7825 12.818 18.0429C12.644 18.3034 12.3967 18.5063 12.1074 18.6262C11.818 18.7461 11.4996 18.7776 11.1925 18.7165C10.8853 18.6555 10.6031 18.5048 10.3815 18.2834C10.16 18.062 10.0091 17.7799 9.94785 17.4728C9.88663 17.1656 9.91784 16.8472 10.0376 16.5578C10.1573 16.2684 10.3601 16.021 10.6204 15.8468C10.8807 15.6727 11.1868 15.5796 11.5 15.5794C11.9198 15.5802 12.3221 15.7474 12.619 16.0442C12.9158 16.341 13.084 16.7434 13.0848 17.1632ZM11.5 4.41746C11.1865 4.41766 10.8799 4.32487 10.6192 4.15081C10.3584 3.97675 10.1551 3.72925 10.035 3.43962C9.91494 3.15 9.88347 2.83127 9.94458 2.52375C10.0057 2.21624 10.1567 1.93376 10.3784 1.71206C10.6001 1.49036 10.8825 1.33941 11.19 1.27829C11.4976 1.21717 11.8163 1.24864 12.1059 1.36872C12.3955 1.4888 12.643 1.69209 12.8171 1.95286C12.9912 2.21364 13.084 2.52018 13.0838 2.83371C13.0832 3.25358 12.9162 3.65609 12.6193 3.95298C12.3224 4.24987 11.9199 4.41691 11.5 4.41746ZM19.6656 18.7479C19.3521 18.7481 19.0456 18.6554 18.7848 18.4814C18.5241 18.3073 18.3208 18.0599 18.2007 17.7703C18.0806 17.4808 18.0491 17.1621 18.1101 16.8546C18.1711 16.5471 18.322 16.2646 18.5436 16.0429C18.7652 15.8212 19.0475 15.6701 19.355 15.6089C19.6624 15.5477 19.9811 15.579 20.2708 15.6989C20.5604 15.8188 20.808 16.0219 20.9822 16.2826C21.1564 16.5432 21.2493 16.8497 21.2493 17.1632C21.2491 17.5833 21.0822 17.9862 20.7853 18.2835C20.4884 18.5807 20.0857 18.7471 19.6656 18.7479Z" fill="#828282"/>
</svg>
