<svg width="297" height="155" viewBox="0 0 297 155" fill="none" xmlns="http://www.w3.org/2000/svg">
<path opacity="0.3" d="M66.9805 8.60572C108.058 -11.9902 153.985 10.0667 197.307 16.137C210.467 17.9798 223.706 20.329 236.569 24.8595C243.787 27.4022 251.874 30.3903 257.933 36.9544C263.559 43.0502 262.854 48.0694 261.323 56.5399C260.187 62.8316 262.566 64.8882 266.213 67.973C271.615 72.5391 277.618 76.5224 281.538 83.8679C284.959 90.2742 285.096 97.1234 285.073 104.853C285.051 111.832 285.787 117.422 288.499 123.306C290.239 127.081 294.054 131.453 290.766 135.149C288.66 137.516 283.795 136.987 281.345 137.134C274.789 137.526 268.207 137.211 261.649 137.02C245.509 136.546 229.361 136.142 213.259 138.135C196.658 140.189 180.288 144.884 163.73 147.468C139.078 151.314 114.191 150.904 89.5137 147.692C65.3097 144.541 39.766 140.112 16.8432 127.798C9.91031 124.075 -2.80931 115.64 8.03064 106.1C15.18 99.8086 25.8671 97.9811 31.4552 88.4137C36.2843 80.1468 30.7599 71.0782 27.1279 64.3079C23.5214 57.5834 17.187 47.5705 23.5163 40.225C29.927 32.7828 40.3391 31.9556 48.0284 28.9751C52.9237 27.0764 57.9999 24.974 61.1989 18.947C62.8748 15.7883 63.4708 11.1357 66.056 9.58563C66.2266 9.48382 66.7105 8.74316 66.9805 8.60572Z" fill="#F9A826"/>
<path d="M62.1742 62.4473H0V71.5236H62.1742C63.9087 71.5236 65.3172 69.4925 65.3172 66.9854C65.3172 64.4784 63.9112 62.4473 62.1742 62.4473Z" fill="white"/>
<path d="M296.542 58.709H221.142C219.407 58.709 217.999 60.7401 217.999 63.2471C217.999 65.7542 219.405 67.7853 221.142 67.7853H296.542V58.709Z" fill="white"/>
<path d="M296.542 107.3H260.698C258.964 107.3 257.555 109.331 257.555 111.838C257.555 114.345 258.961 116.376 260.698 116.376H296.542V107.3Z" fill="white"/>
<path d="M88.6069 11.9884C88.6069 14.4954 87.201 16.5265 85.4639 16.5265H8.56802C6.83353 16.5265 5.42505 14.4954 5.42505 11.9884C5.42505 9.4813 6.83098 7.4502 8.56802 7.4502H85.4639C87.1984 7.4502 88.6069 9.4813 88.6069 11.9884Z" fill="white"/>
<path d="M51.3598 70.457H0V79.5333H51.3598C53.0943 79.5333 54.5028 77.5022 54.5028 74.9952C54.5028 72.4881 53.0968 70.457 51.3598 70.457Z" fill="white"/>
<path d="M296.542 65.252H253.062C251.328 65.252 249.919 67.283 249.919 69.7901C249.919 72.2972 251.325 74.3283 253.062 74.3283H296.542V65.252Z" fill="white"/>
<path d="M296.542 99.6846H271.082C269.348 99.6846 267.939 101.716 267.939 104.223C267.939 106.73 269.345 108.761 271.082 108.761H296.542V99.6846Z" fill="white"/>
<path d="M97.6538 20.9425C97.6538 23.4495 96.2478 25.4806 94.5108 25.4806H17.6149C15.8804 25.4806 14.4719 23.4495 14.4719 20.9425C14.4719 18.4354 15.8778 16.4043 17.6149 16.4043H94.5108C96.2453 16.4043 97.6538 18.4354 97.6538 20.9425Z" fill="white"/>
<path d="M65.4014 124.508H0V133.584H65.4014C67.1359 133.584 68.5444 131.553 68.5444 129.046C68.5444 126.539 67.1385 124.508 65.4014 124.508Z" fill="white"/>
<path d="M55.519 116.101H0V125.177H55.519C57.2535 125.177 58.6619 123.146 58.6619 120.639C58.6619 118.132 57.256 116.101 55.519 116.101Z" fill="white"/>
<path opacity="0.5" d="M258.516 34.7198H253.725V29.9322C253.725 28.736 252.755 27.7637 251.555 27.7637C250.355 27.7637 249.385 28.7334 249.385 29.9322V34.7198H244.594C243.397 34.7198 242.424 35.6896 242.424 36.8884C242.424 38.0872 243.395 39.0569 244.594 39.0569H249.385V43.8445C249.385 45.0408 250.355 46.0131 251.555 46.0131C252.755 46.0131 253.725 45.0433 253.725 43.8445V39.0569H258.516C259.713 39.0569 260.686 38.0872 260.686 36.8884C260.686 35.6896 259.715 34.7198 258.516 34.7198Z" fill="#F9A826"/>
<path opacity="0.5" d="M39.8856 96.6481L37.5526 98.9795L35.2196 96.6481C34.6363 96.0652 33.6888 96.0652 33.1056 96.6481C32.5223 97.2309 32.5223 98.1778 33.1056 98.7606L35.4386 101.092L33.1056 103.424C32.5223 104.006 32.5223 104.953 33.1056 105.536C33.6888 106.119 34.6363 106.119 35.2196 105.536L37.5526 103.205L39.8856 105.536C40.4689 106.119 41.4164 106.119 41.9996 105.536C42.5829 104.953 42.5829 104.006 41.9996 103.424L39.6666 101.092L41.9996 98.7606C42.5829 98.1778 42.5829 97.2309 41.9996 96.6481C41.4164 96.0652 40.4714 96.0652 39.8856 96.6481Z" fill="#F9A826"/>
<path opacity="0.5" d="M258.421 149.607L255.714 148.642L256.679 145.936C256.921 145.259 256.567 144.516 255.89 144.274C255.212 144.033 254.468 144.386 254.226 145.063L253.261 147.769L250.554 146.804C249.876 146.562 249.132 146.916 248.89 147.593C248.648 148.27 249.003 149.014 249.68 149.255L252.387 150.22L251.422 152.926C251.18 153.603 251.534 154.346 252.212 154.588C252.889 154.829 253.633 154.476 253.875 153.799L254.84 151.093L257.548 152.058C258.225 152.299 258.969 151.946 259.211 151.269C259.453 150.592 259.099 149.848 258.421 149.607Z" fill="#F9A826"/>
<path opacity="0.5" d="M50.9396 47.9373C47.249 47.9373 44.2461 44.9365 44.2461 41.2484C44.2461 37.5604 47.249 34.5596 50.9396 34.5596C54.6301 34.5596 57.633 37.5604 57.633 41.2484C57.633 44.9365 54.6301 47.9373 50.9396 47.9373ZM50.9396 37.7462C49.0064 37.7462 47.4349 39.3191 47.4349 41.251C47.4349 43.1828 49.0064 44.7532 50.9396 44.7532C52.8727 44.7532 54.4442 43.1828 54.4442 41.251C54.4442 39.3191 52.8727 37.7462 50.9396 37.7462Z" fill="#F9A826"/>
<path opacity="0.5" d="M226.404 67.0469C223.887 67.0469 221.839 65.0006 221.839 62.4859C221.839 59.9712 223.887 57.9248 226.404 57.9248C228.92 57.9248 230.968 59.9712 230.968 62.4859C230.968 65.0006 228.92 67.0469 226.404 67.0469ZM226.404 60.0984C225.087 60.0984 224.015 61.17 224.015 62.4859C224.015 63.8018 225.087 64.8758 226.404 64.8758C227.72 64.8758 228.795 63.8043 228.795 62.4859C228.795 61.1674 227.723 60.0984 226.404 60.0984Z" fill="#F9A826"/>
<path opacity="0.5" d="M25.5335 151.053C23.0171 151.053 20.9693 149.006 20.9693 146.492C20.9693 143.977 23.0171 141.931 25.5335 141.931C28.0499 141.931 30.0976 143.977 30.0976 146.492C30.0976 149.006 28.0499 151.053 25.5335 151.053ZM25.5335 144.104C24.2167 144.104 23.1444 145.176 23.1444 146.494C23.1444 147.813 24.2167 148.882 25.5335 148.882C26.8503 148.882 27.9251 147.81 27.9251 146.494C27.9251 145.178 26.8528 144.104 25.5335 144.104Z" fill="#F9A826"/>
<path opacity="0.5" d="M242.444 101.283C241.102 101.283 240.01 100.191 240.01 98.8493C240.01 97.5079 241.102 96.416 242.444 96.416C243.787 96.416 244.879 97.5079 244.879 98.8493C244.879 100.191 243.787 101.283 242.444 101.283ZM242.444 97.5766C241.742 97.5766 241.168 98.1493 241.168 98.8518C241.168 99.5543 241.742 100.127 242.444 100.127C243.147 100.127 243.718 99.5543 243.718 98.8518C243.718 98.1493 243.145 97.5766 242.444 97.5766Z" fill="#F9A826"/>
<path opacity="0.5" d="M28.3096 66.51C26.9674 66.51 25.8747 65.4181 25.8747 64.0768C25.8747 62.7355 26.9674 61.6436 28.3096 61.6436C29.6519 61.6436 30.7445 62.7355 30.7445 64.0768C30.7445 65.4181 29.6519 66.51 28.3096 66.51ZM28.3096 62.8042C27.6067 62.8042 27.0361 63.3769 27.0361 64.0793C27.0361 64.7818 27.6092 65.352 28.3096 65.352C29.01 65.352 29.5856 64.7793 29.5856 64.0793C29.5856 63.3794 29.0126 62.8042 28.3096 62.8042Z" fill="#F9A826"/>
<path opacity="0.9" d="M207.044 31.8387H132.331V24.1979C132.331 21.9759 130.527 20.1738 128.304 20.1738H86.8414C84.6179 20.1738 82.8146 21.9759 82.8146 24.1979V136.675C82.8146 138.897 84.6179 140.699 86.8414 140.699H207.044C209.267 140.699 211.071 138.897 211.071 136.675V35.8627C211.071 33.6407 209.267 31.8387 207.044 31.8387Z" fill="#F9A826"/>
<path d="M207.043 141.449H86.8415C84.208 141.449 82.0634 139.306 82.0634 136.674V24.1977C82.0634 21.5659 84.2054 19.4229 86.8415 19.4229H128.304C130.937 19.4229 133.082 21.5634 133.082 24.1977V31.0902H207.043C209.677 31.0902 211.822 33.2308 211.822 35.8651V136.677C211.822 139.309 209.68 141.452 207.043 141.452V141.449ZM83.5661 35.8676V136.674C83.5661 138.479 85.0357 139.948 86.8415 139.948H207.043C208.849 139.948 210.319 138.479 210.319 136.674V35.8625C210.319 34.058 208.849 32.5894 207.043 32.5894H132.33C131.915 32.5894 131.579 32.2534 131.579 31.8385V24.1977C131.579 22.3931 130.11 20.9245 128.304 20.9245H86.8415C85.0357 20.9245 83.5661 22.3931 83.5661 24.1977V35.8676Z" fill="#F9A826"/>
<path d="M82.8146 42.2178V136.674C82.8146 138.896 84.6179 140.698 86.8414 140.698H207.044C209.267 140.698 211.071 138.896 211.071 136.674V42.2178H82.8146Z" fill="white"/>
<path d="M207.043 141.449H86.8414C84.2078 141.449 82.0633 139.305 82.0633 136.674V41.4668H211.821V136.674C211.821 139.305 209.679 141.449 207.043 141.449ZM83.566 42.9685V136.674C83.566 138.478 85.0356 139.947 86.8414 139.947H207.043C208.849 139.947 210.319 138.478 210.319 136.674V42.9685H83.566Z" fill="#F9A826"/>
<path opacity="0.4" d="M158.531 94.0029L179.343 98.592L178.349 108.254L175.93 112.682L170.693 115.421H165.729C165.538 115.421 161.317 113.006 161.317 113.006L159.091 108.577L158.531 103.667V94.0055V94.0029Z" fill="#F9A826"/>
<path d="M121.259 78.4414C120.94 78.7596 120.423 78.7596 120.102 78.4414L109.204 67.5504C108.886 67.2322 108.886 66.7156 109.204 66.3949C109.522 66.0767 110.039 66.0767 110.36 66.3949L121.259 77.2859C121.577 77.6041 121.577 78.1208 121.259 78.4414Z" fill="#F9A826"/>
<path d="M109.205 78.4414C108.887 78.1233 108.887 77.6066 109.205 77.2859L120.104 66.3949C120.422 66.0767 120.939 66.0767 121.26 66.3949C121.578 66.713 121.578 67.2297 121.26 67.5504L110.362 78.4414C110.043 78.7596 109.526 78.7596 109.205 78.4414Z" fill="#F9A826"/>
<path d="M182.106 78.4414C181.788 78.7596 181.271 78.7596 180.95 78.4414L170.051 67.5504C169.733 67.2322 169.733 66.7156 170.051 66.3949C170.37 66.0767 170.887 66.0767 171.207 66.3949L182.106 77.2859C182.424 77.6041 182.424 78.1208 182.106 78.4414Z" fill="#F9A826"/>
<path d="M170.051 78.4414C169.733 78.1233 169.733 77.6066 170.051 77.2859L180.95 66.3949C181.268 66.0767 181.785 66.0767 182.106 66.3949C182.424 66.713 182.424 67.2297 182.106 67.5504L171.207 78.4414C170.889 78.7596 170.372 78.7596 170.051 78.4414Z" fill="#F9A826"/>
<path d="M185.124 101.53C185.017 101.53 184.91 101.509 184.808 101.469C160.986 92.0437 134.75 92.0437 110.928 101.469C110.485 101.644 109.986 101.428 109.813 100.985C109.637 100.542 109.853 100.043 110.297 99.8703C122.308 95.1183 134.951 92.708 147.869 92.708C160.788 92.708 173.431 95.1183 185.442 99.8703C185.886 100.046 186.102 100.545 185.926 100.985C185.791 101.324 185.468 101.527 185.127 101.527L185.124 101.53Z" fill="#F9A826"/>
<path d="M168.426 116.623C162.367 116.623 157.438 111.698 157.438 105.643V94.3574C157.438 93.8814 157.823 93.4971 158.299 93.4971C158.776 93.4971 159.16 93.8814 159.16 94.3574V105.643C159.16 110.749 163.317 114.903 168.426 114.903C173.535 114.903 177.692 110.749 177.692 105.643V98.5672C177.692 98.0938 178.077 97.7069 178.553 97.7069C179.029 97.7069 179.414 98.0912 179.414 98.5672V105.643C179.414 111.698 174.485 116.623 168.426 116.623Z" fill="#F9A826"/>
<path d="M168.426 108.982C167.95 108.982 167.565 108.598 167.565 108.122V95.8945C167.565 95.4185 167.95 95.0342 168.426 95.0342C168.902 95.0342 169.287 95.4185 169.287 95.8945V108.122C169.287 108.595 168.902 108.982 168.426 108.982Z" fill="#F9A826"/>
<path d="M94.3371 37.1964C90.5447 37.1964 87.4603 34.1141 87.4603 30.3243C87.4603 26.5344 90.5447 23.4521 94.3371 23.4521C98.1296 23.4521 101.214 26.5344 101.214 30.3243C101.214 34.1141 98.1296 37.1964 94.3371 37.1964ZM94.3371 25.3483C91.5915 25.3483 89.3553 27.5805 89.3553 30.3268C89.3553 33.0731 91.589 35.3053 94.3371 35.3053C97.0853 35.3053 99.319 33.0731 99.319 30.3268C99.319 27.5805 97.0853 25.3483 94.3371 25.3483Z" fill="white"/>
<path d="M95.8832 27.3357L94.2582 28.9596L92.6333 27.3357C92.2257 26.9285 91.5661 26.9285 91.1611 27.3357C90.7536 27.7429 90.7536 28.4022 91.1611 28.8069L92.7861 30.4307L91.1611 32.0546C90.7536 32.4618 90.7536 33.121 91.1611 33.5257C91.5686 33.933 92.2283 33.933 92.6333 33.5257L94.2582 31.9019L95.8832 33.5257C96.2907 33.933 96.9504 33.933 97.3554 33.5257C97.7603 33.1185 97.7629 32.4593 97.3554 32.0546L95.7304 30.4307L97.3554 28.8069C97.7629 28.3996 97.7629 27.7404 97.3554 27.3357C96.9478 26.9285 96.2907 26.9285 95.8832 27.3357Z" fill="white"/>
</svg>
