<svg width="21" height="23" viewBox="0 0 21 23" fill="none" xmlns="http://www.w3.org/2000/svg">
<path d="M18.9236 19.8334H1.90958C1.50876 19.8334 1.1181 19.7072 0.792946 19.4728C0.467793 19.2385 0.224638 18.9077 0.0979276 18.5274C-0.0287825 18.1472 -0.0326218 17.7367 0.0869534 17.3541C0.206529 16.9715 0.443455 16.6363 0.764167 16.3959L1.62198 15.7525C1.94481 15.5112 2.1614 15.1541 2.22615 14.7563L3.3024 8.22298C3.56516 6.52417 4.42717 4.97547 5.73252 3.85695C7.03786 2.73844 8.70038 2.12395 10.4194 2.12463C12.1384 2.12531 13.8004 2.74111 15.1049 3.86066C16.4094 4.98021 17.2701 6.52959 17.5316 8.22861L18.6071 14.7563C18.6718 15.1541 18.8884 15.5112 19.2112 15.7525L20.0693 16.3959C20.3901 16.6363 20.6271 16.9716 20.7466 17.3542C20.8662 17.7368 20.8624 18.1474 20.7356 18.5277C20.6088 18.908 20.3656 19.2387 20.0403 19.4731C19.7151 19.7074 19.3245 19.8335 18.9236 19.8334ZM10.4174 3.16668C8.94478 3.15954 7.5189 3.68332 6.40109 4.64205C5.28328 5.60077 4.54841 6.93021 4.33114 8.38673L3.25411 14.9256C3.14606 15.5884 2.78505 16.1835 2.24708 16.5855L1.38901 17.2292C1.2432 17.3385 1.13549 17.4909 1.08113 17.6648C1.02678 17.8387 1.02853 18.0253 1.08616 18.1982C1.14378 18.3711 1.25434 18.5214 1.40218 18.6279C1.55002 18.7344 1.72763 18.7917 1.90984 18.7917H18.9239C19.1061 18.7917 19.2836 18.7344 19.4314 18.6279C19.5792 18.5214 19.6897 18.3711 19.7473 18.1983C19.805 18.0255 19.8067 17.8389 19.7524 17.665C19.6981 17.4911 19.5905 17.3387 19.4447 17.2294L18.5864 16.5855C18.0484 16.1835 17.6874 15.5884 17.5794 14.9256L16.5028 8.39231C16.2866 6.93499 15.5523 5.60443 14.4346 4.64463C13.3169 3.68483 11.8906 3.16011 10.4174 3.16668Z" fill="#828282"/>
<path d="M11.9791 3.35413C11.841 3.35413 11.7085 3.29925 11.6108 3.20158C11.5132 3.1039 11.4583 2.97143 11.4583 2.83329V2.12496C11.4583 1.84869 11.3485 1.58374 11.1532 1.38839C10.9578 1.19304 10.6929 1.08329 10.4166 1.08329C10.1403 1.08329 9.8754 1.19304 9.68005 1.38839C9.4847 1.58374 9.37495 1.84869 9.37495 2.12496V2.83329C9.37495 2.97143 9.32008 3.1039 9.2224 3.20158C9.12473 3.29925 8.99225 3.35413 8.85412 3.35413C8.71598 3.35413 8.58351 3.29925 8.48583 3.20158C8.38816 3.1039 8.33328 2.97143 8.33328 2.83329V2.12496C8.33328 1.57242 8.55278 1.04252 8.94348 0.65182C9.33418 0.261119 9.86408 0.041626 10.4166 0.041626C10.9692 0.041626 11.4991 0.261119 11.8898 0.65182C12.2805 1.04252 12.4999 1.57242 12.4999 2.12496V2.83329C12.4999 2.97143 12.4451 3.1039 12.3474 3.20158C12.2497 3.29925 12.1172 3.35413 11.9791 3.35413Z" fill="#828282"/>
<path d="M10.4166 22.9583C9.45001 22.9572 8.5233 22.5728 7.83981 21.8893C7.15632 21.2058 6.77186 20.2791 6.77078 19.3125C6.77078 19.1743 6.82566 19.0418 6.92333 18.9442C7.02101 18.8465 7.15348 18.7916 7.29162 18.7916C7.42975 18.7916 7.56223 18.8465 7.6599 18.9442C7.75758 19.0418 7.81245 19.1743 7.81245 19.3125C7.81245 20.0031 8.08682 20.6655 8.57519 21.1539C9.06357 21.6423 9.72595 21.9166 10.4166 21.9166C11.1073 21.9166 11.7697 21.6423 12.258 21.1539C12.7464 20.6655 13.0208 20.0031 13.0208 19.3125C13.0208 19.1743 13.0757 19.0418 13.1733 18.9442C13.271 18.8465 13.4035 18.7916 13.5416 18.7916C13.6797 18.7916 13.8122 18.8465 13.9099 18.9442C14.0076 19.0418 14.0624 19.1743 14.0624 19.3125C14.0614 20.2791 13.6769 21.2058 12.9934 21.8893C12.3099 22.5728 11.3832 22.9572 10.4166 22.9583Z" fill="#828282"/>
</svg>
