<svg width="297" height="155" viewBox="0 0 297 155" fill="none" xmlns="http://www.w3.org/2000/svg">
<path opacity="0.3" d="M66.9805 8.60572C108.058 -11.9902 153.985 10.0667 197.307 16.137C210.467 17.9798 223.706 20.329 236.569 24.8595C243.787 27.4022 251.874 30.3903 257.933 36.9544C263.559 43.0502 262.854 48.0694 261.323 56.5399C260.187 62.8316 262.566 64.8882 266.213 67.973C271.615 72.5391 277.618 76.5224 281.538 83.8679C284.959 90.2742 285.096 97.1234 285.073 104.853C285.051 111.832 285.787 117.422 288.499 123.306C290.239 127.081 294.054 131.453 290.766 135.149C288.66 137.516 283.795 136.987 281.345 137.134C274.789 137.526 268.207 137.211 261.649 137.02C245.509 136.546 229.361 136.142 213.259 138.135C196.658 140.189 180.288 144.884 163.73 147.468C139.078 151.314 114.191 150.904 89.5137 147.692C65.3097 144.541 39.766 140.112 16.8432 127.798C9.91031 124.075 -2.80931 115.64 8.03064 106.1C15.18 99.8086 25.8671 97.9811 31.4552 88.4136C36.2843 80.1468 30.7599 71.0782 27.1279 64.3079C23.5214 57.5834 17.187 47.5705 23.5163 40.225C29.927 32.7828 40.3391 31.9556 48.0284 28.9751C52.9237 27.0764 57.9999 24.974 61.1989 18.947C62.8748 15.7883 63.4708 11.1357 66.056 9.58563C66.2266 9.48382 66.7105 8.74316 66.9805 8.60572Z" fill="#F9A826"/>
<path d="M62.1742 62.4473H0V71.5236H62.1742C63.9087 71.5236 65.3172 69.4925 65.3172 66.9854C65.3172 64.4784 63.9112 62.4473 62.1742 62.4473Z" fill="white"/>
<path d="M296.542 58.709H221.142C219.407 58.709 217.999 60.7401 217.999 63.2471C217.999 65.7542 219.405 67.7853 221.142 67.7853H296.542V58.709Z" fill="white"/>
<path d="M296.542 107.3H260.698C258.964 107.3 257.555 109.331 257.555 111.838C257.555 114.345 258.961 116.376 260.698 116.376H296.542V107.3Z" fill="white"/>
<path d="M88.6069 11.9884C88.6069 14.4954 87.201 16.5265 85.4639 16.5265H8.56802C6.83353 16.5265 5.42505 14.4954 5.42505 11.9884C5.42505 9.4813 6.83098 7.4502 8.56802 7.4502H85.4639C87.1984 7.4502 88.6069 9.4813 88.6069 11.9884Z" fill="white"/>
<path d="M51.3598 70.457H0V79.5333H51.3598C53.0943 79.5333 54.5028 77.5022 54.5028 74.9952C54.5028 72.4881 53.0968 70.457 51.3598 70.457Z" fill="white"/>
<path d="M296.542 65.252H253.062C251.328 65.252 249.919 67.283 249.919 69.7901C249.919 72.2972 251.325 74.3283 253.062 74.3283H296.542V65.252Z" fill="white"/>
<path d="M296.542 99.6846H271.082C269.348 99.6846 267.939 101.716 267.939 104.223C267.939 106.73 269.345 108.761 271.082 108.761H296.542V99.6846Z" fill="white"/>
<path d="M97.6538 20.9425C97.6538 23.4495 96.2478 25.4806 94.5108 25.4806H17.6149C15.8804 25.4806 14.4719 23.4495 14.4719 20.9425C14.4719 18.4354 15.8778 16.4043 17.6149 16.4043H94.5108C96.2453 16.4043 97.6538 18.4354 97.6538 20.9425Z" fill="white"/>
<path d="M65.4014 124.508H0V133.584H65.4014C67.1359 133.584 68.5444 131.553 68.5444 129.046C68.5444 126.539 67.1385 124.508 65.4014 124.508Z" fill="white"/>
<path d="M55.519 116.101H0V125.177H55.519C57.2535 125.177 58.6619 123.146 58.6619 120.639C58.6619 118.132 57.256 116.101 55.519 116.101Z" fill="white"/>
<path opacity="0.5" d="M258.516 34.7198H253.725V29.9322C253.725 28.736 252.755 27.7637 251.555 27.7637C250.355 27.7637 249.385 28.7334 249.385 29.9322V34.7198H244.594C243.397 34.7198 242.424 35.6896 242.424 36.8884C242.424 38.0872 243.395 39.0569 244.594 39.0569H249.385V43.8445C249.385 45.0408 250.355 46.0131 251.555 46.0131C252.755 46.0131 253.725 45.0433 253.725 43.8445V39.0569H258.516C259.713 39.0569 260.686 38.0872 260.686 36.8884C260.686 35.6896 259.715 34.7198 258.516 34.7198Z" fill="#F9A826"/>
<path opacity="0.5" d="M39.8856 96.6481L37.5526 98.9795L35.2196 96.6481C34.6363 96.0652 33.6888 96.0652 33.1056 96.6481C32.5223 97.2309 32.5223 98.1778 33.1056 98.7606L35.4386 101.092L33.1056 103.424C32.5223 104.006 32.5223 104.953 33.1056 105.536C33.6888 106.119 34.6363 106.119 35.2196 105.536L37.5526 103.205L39.8856 105.536C40.4689 106.119 41.4164 106.119 41.9996 105.536C42.5829 104.953 42.5829 104.006 41.9996 103.424L39.6666 101.092L41.9996 98.7606C42.5829 98.1778 42.5829 97.2309 41.9996 96.6481C41.4164 96.0652 40.4714 96.0652 39.8856 96.6481Z" fill="#F9A826"/>
<path opacity="0.5" d="M258.421 149.607L255.714 148.642L256.679 145.936C256.921 145.259 256.567 144.516 255.89 144.274C255.212 144.033 254.468 144.386 254.226 145.063L253.261 147.769L250.554 146.804C249.876 146.562 249.132 146.916 248.89 147.593C248.648 148.27 249.003 149.014 249.68 149.255L252.387 150.22L251.422 152.926C251.18 153.603 251.534 154.346 252.212 154.588C252.889 154.829 253.633 154.476 253.875 153.799L254.84 151.093L257.548 152.058C258.225 152.299 258.969 151.946 259.211 151.269C259.453 150.592 259.099 149.848 258.421 149.607Z" fill="#F9A826"/>
<path opacity="0.5" d="M50.9396 47.9373C47.249 47.9373 44.2461 44.9365 44.2461 41.2484C44.2461 37.5604 47.249 34.5596 50.9396 34.5596C54.6301 34.5596 57.633 37.5604 57.633 41.2484C57.633 44.9365 54.6301 47.9373 50.9396 47.9373ZM50.9396 37.7462C49.0064 37.7462 47.4349 39.3191 47.4349 41.251C47.4349 43.1828 49.0064 44.7532 50.9396 44.7532C52.8727 44.7532 54.4442 43.1828 54.4442 41.251C54.4442 39.3191 52.8727 37.7462 50.9396 37.7462Z" fill="#F9A826"/>
<path opacity="0.5" d="M226.404 67.0469C223.887 67.0469 221.839 65.0006 221.839 62.4859C221.839 59.9712 223.887 57.9248 226.404 57.9248C228.92 57.9248 230.968 59.9712 230.968 62.4859C230.968 65.0006 228.92 67.0469 226.404 67.0469ZM226.404 60.0984C225.087 60.0984 224.015 61.17 224.015 62.4859C224.015 63.8018 225.087 64.8758 226.404 64.8758C227.72 64.8758 228.795 63.8043 228.795 62.4859C228.795 61.1674 227.723 60.0984 226.404 60.0984Z" fill="#F9A826"/>
<path opacity="0.5" d="M25.5335 151.053C23.0171 151.053 20.9693 149.006 20.9693 146.492C20.9693 143.977 23.0171 141.931 25.5335 141.931C28.0499 141.931 30.0976 143.977 30.0976 146.492C30.0976 149.006 28.0499 151.053 25.5335 151.053ZM25.5335 144.104C24.2167 144.104 23.1444 145.176 23.1444 146.494C23.1444 147.813 24.2167 148.882 25.5335 148.882C26.8503 148.882 27.9251 147.81 27.9251 146.494C27.9251 145.178 26.8528 144.104 25.5335 144.104Z" fill="#F9A826"/>
<path opacity="0.5" d="M242.444 101.283C241.102 101.283 240.01 100.191 240.01 98.8493C240.01 97.5079 241.102 96.416 242.444 96.416C243.787 96.416 244.879 97.5079 244.879 98.8493C244.879 100.191 243.787 101.283 242.444 101.283ZM242.444 97.5766C241.742 97.5766 241.168 98.1493 241.168 98.8518C241.168 99.5543 241.742 100.127 242.444 100.127C243.147 100.127 243.718 99.5543 243.718 98.8518C243.718 98.1493 243.145 97.5766 242.444 97.5766Z" fill="#F9A826"/>
<path opacity="0.5" d="M28.3096 66.51C26.9674 66.51 25.8747 65.4181 25.8747 64.0768C25.8747 62.7355 26.9674 61.6436 28.3096 61.6436C29.6519 61.6436 30.7445 62.7355 30.7445 64.0768C30.7445 65.4181 29.6519 66.51 28.3096 66.51ZM28.3096 62.8042C27.6067 62.8042 27.0361 63.3769 27.0361 64.0793C27.0361 64.7818 27.6092 65.352 28.3096 65.352C29.01 65.352 29.5856 64.7793 29.5856 64.0793C29.5856 63.3794 29.0126 62.8042 28.3096 62.8042Z" fill="#F9A826"/>
<path d="M199.903 142.857C196.674 142.857 194.053 140.241 194.053 137.013C194.053 133.785 196.668 131.163 199.896 131.163C203.125 131.163 205.746 133.779 205.746 137.007C205.746 140.235 203.131 142.857 199.903 142.857Z" fill="#F9A826"/>
<path d="M199.878 102.404C196.65 102.404 194.028 99.7881 194.028 96.5599C194.028 93.3317 196.644 90.71 199.872 90.71C203.1 90.71 205.722 93.3256 205.722 96.5538C205.722 99.782 203.106 102.404 199.878 102.404Z" fill="#F9A826"/>
<path d="M235.039 116.922C236.981 117.21 238.996 117.437 240.668 118.545C241.581 119.152 242.365 119.942 242.923 120.885C243.401 121.682 243.443 122.325 244.246 122.821C244.675 123.084 245.128 122.809 245.293 122.392C246.108 120.371 243.1 117.865 241.581 116.977C239.566 115.795 237.06 115.195 234.984 116.487C234.831 116.585 234.825 116.891 235.039 116.922Z" fill="#F9A826"/>
<path d="M241.814 124.224C243.731 129.125 251.345 126.154 249.428 121.247C247.511 116.347 239.897 119.318 241.814 124.224Z" fill="#DC432B"/>
<path d="M142.156 143.984C134.775 144.56 127.332 144.897 119.927 144.707C112.515 144.517 105.133 142.955 97.7703 142.894C97.0046 142.894 96.8821 143.978 97.5926 144.198C104.539 146.373 112.705 146.355 119.927 146.495C127.449 146.642 134.861 146.183 142.303 145.099C142.934 145.007 142.794 143.929 142.15 143.978L142.156 143.984Z" fill="#DC432B"/>
<path d="M64.594 138.82C73.715 139.384 82.8116 139.451 91.9448 139.304C100.202 139.169 109.397 139.856 117.47 138.122C118.089 137.987 117.875 137.154 117.329 137.093C112.784 136.609 108.221 137.326 103.663 137.43C99.4303 137.528 95.1975 137.589 90.9647 137.626C82.1745 137.693 73.3842 137.571 64.594 137.583C63.7915 137.583 63.8038 138.771 64.594 138.82Z" fill="#DC432B"/>
<path d="M147.014 103.929L146.99 129.412H143.651L137.991 116.664L144.68 103.923L147.014 103.929Z" fill="#F3F9FB"/>
<path d="M169.852 134.914L169.894 86.4786C169.897 83.8094 167.735 81.6436 165.065 81.6413L124.851 81.6062C122.182 81.6039 120.016 83.7658 120.014 86.4351L119.971 134.87C119.969 137.54 122.131 139.705 124.8 139.708L165.015 139.743C167.684 139.745 169.85 137.583 169.852 134.914Z" fill="#DC432B"/>
<path d="M142.41 91.334L128.193 120.916C127.781 121.771 126.754 122.127 125.904 121.719L122.282 119.978C121.426 119.567 121.07 118.539 121.479 117.689L135.697 88.1073C136.108 87.2515 137.135 86.8957 137.985 87.3044L141.607 89.0451C142.463 89.4564 142.819 90.4837 142.41 91.334Z" fill="#F9A826"/>
<path d="M135.4 91.8129C134.126 94.4653 138.242 96.4439 139.516 93.7915C140.79 91.1391 136.674 89.1605 135.4 91.8129Z" fill="#5A5A5B"/>
<path d="M131.326 100.29C130.052 102.943 134.169 104.921 135.443 102.269C136.717 99.6166 132.601 97.6381 131.326 100.29Z" fill="#5A5A5B"/>
<path d="M127.504 108.242C126.23 110.894 130.346 112.873 131.62 110.22C132.895 107.568 128.778 105.589 127.504 108.242Z" fill="#5A5A5B"/>
<path d="M124.178 115.163C122.904 117.816 127.02 119.794 128.294 117.142C129.568 114.489 125.452 112.505 124.178 115.163Z" fill="#5A5A5B"/>
<path d="M153.366 139.739C153.507 139.739 153.642 139.745 153.783 139.745C153.924 139.745 154.058 139.745 154.199 139.739L154.616 135.794C154.787 135.782 154.959 135.764 155.13 135.739L156.349 139.519C156.625 139.47 156.895 139.408 157.164 139.347L156.748 135.402C156.913 135.353 157.078 135.298 157.238 135.243L159.216 138.686C159.474 138.581 159.731 138.465 159.976 138.349L158.751 134.575C158.904 134.496 159.051 134.404 159.198 134.318L161.844 137.271C162.077 137.111 162.297 136.952 162.518 136.78L160.533 133.344C160.662 133.234 160.791 133.117 160.919 133.001L164.123 135.341C164.313 135.139 164.503 134.931 164.68 134.722L162.022 131.776C162.126 131.641 162.23 131.5 162.328 131.359L165.948 132.983C166.095 132.744 166.236 132.505 166.365 132.26L163.155 129.926C163.229 129.773 163.302 129.614 163.363 129.454L167.247 130.287C167.339 130.024 167.425 129.761 167.504 129.497L163.878 127.886C163.915 127.721 163.951 127.549 163.982 127.384H167.951C167.988 127.12 168.019 126.839 168.037 126.563L164.154 125.736C164.154 125.65 164.154 125.564 164.154 125.479C164.154 125.393 164.154 125.307 164.154 125.221L168.037 124.407C168.019 124.125 167.988 123.849 167.951 123.58H163.982C163.951 123.408 163.915 123.243 163.878 123.077L167.51 121.473C167.431 121.203 167.345 120.94 167.253 120.682L163.369 121.509C163.302 121.35 163.235 121.191 163.161 121.038L166.377 118.71C166.242 118.465 166.108 118.226 165.961 117.987L162.334 119.604C162.236 119.463 162.138 119.322 162.034 119.188L164.693 116.247C164.515 116.033 164.325 115.831 164.135 115.629L160.925 117.963C160.803 117.846 160.674 117.73 160.546 117.62L162.536 114.189C162.316 114.018 162.089 113.852 161.863 113.699L159.21 116.646C159.063 116.554 158.916 116.468 158.763 116.388L160 112.615C159.749 112.492 159.498 112.382 159.241 112.278L157.256 115.715C157.097 115.659 156.931 115.604 156.766 115.555L157.189 111.61C156.919 111.543 156.65 111.488 156.374 111.439L155.149 115.212C154.977 115.188 154.806 115.175 154.634 115.157L154.23 111.212C154.089 111.212 153.954 111.206 153.813 111.206C153.673 111.206 153.538 111.206 153.397 111.206L152.98 115.151C152.809 115.163 152.637 115.182 152.466 115.206L151.247 111.427C150.971 111.476 150.702 111.537 150.432 111.598L150.849 115.543C150.683 115.592 150.518 115.647 150.359 115.702L148.38 112.26C148.123 112.364 147.865 112.48 147.62 112.597L148.846 116.37C148.692 116.45 148.545 116.535 148.398 116.627L145.752 113.675C145.519 113.834 145.299 113.993 145.078 114.165L147.063 117.601C146.934 117.711 146.806 117.828 146.677 117.944L143.473 115.604C143.284 115.806 143.094 116.015 142.916 116.223L145.575 119.169C145.47 119.304 145.366 119.445 145.268 119.586L141.648 117.963C141.501 118.202 141.36 118.44 141.231 118.685L144.441 121.019C144.368 121.172 144.294 121.332 144.233 121.491L140.349 120.658C140.257 120.921 140.172 121.185 140.092 121.448L143.718 123.065C143.682 123.231 143.645 123.402 143.614 123.568H139.645C139.608 123.831 139.578 124.107 139.559 124.388L143.443 125.215C143.443 125.301 143.443 125.387 143.443 125.473C143.443 125.558 143.443 125.644 143.443 125.73L139.559 126.545C139.578 126.826 139.608 127.102 139.645 127.372H143.614C143.645 127.543 143.682 127.708 143.718 127.874L140.086 129.479C140.166 129.748 140.251 130.012 140.343 130.269L144.227 129.442C144.294 129.601 144.362 129.761 144.435 129.914L141.219 132.241C141.354 132.486 141.489 132.725 141.636 132.964L145.262 131.347C145.36 131.488 145.458 131.629 145.562 131.764L142.904 134.71C143.081 134.924 143.271 135.133 143.461 135.329L146.671 132.995C146.794 133.111 146.922 133.228 147.051 133.338L145.06 136.768C145.28 136.94 145.501 137.105 145.734 137.258L148.386 134.312C148.533 134.404 148.68 134.49 148.833 134.569L147.596 138.342C147.847 138.465 148.098 138.575 148.356 138.679L150.34 135.243C150.5 135.298 150.665 135.353 150.83 135.402L150.408 139.347C150.677 139.414 150.947 139.47 151.222 139.519L152.447 135.745C152.619 135.77 152.79 135.788 152.962 135.8L153.366 139.745V139.739ZM155.375 125.46C155.375 126.318 154.677 127.01 153.82 127.01C152.962 127.01 152.27 126.312 152.27 125.454C152.27 124.597 152.968 123.904 153.826 123.904C154.683 123.904 155.375 124.603 155.375 125.46ZM153.832 117.613C157.869 117.613 161.195 120.67 161.624 124.597H157.446C157.054 122.955 155.584 121.736 153.826 121.736C153.458 121.736 153.103 121.791 152.766 121.889L150.683 118.269C151.645 117.846 152.711 117.613 153.832 117.613ZM145.979 125.448C145.979 122.857 147.241 120.56 149.176 119.133L151.259 122.753C150.542 123.433 150.095 124.388 150.095 125.454C150.095 126.52 150.536 127.476 151.253 128.156L149.164 131.77C147.228 130.342 145.973 128.039 145.979 125.448ZM150.671 132.64L152.76 129.025C153.097 129.123 153.452 129.179 153.82 129.179C155.578 129.179 157.048 127.966 157.446 126.33H161.624C161.189 130.257 157.862 133.307 153.82 133.301C152.699 133.301 151.639 133.062 150.671 132.64Z" fill="#F9A826"/>
<path d="M163.639 125.466C163.639 120.033 159.241 115.622 153.807 115.616C148.374 115.616 143.963 120.014 143.957 125.448C143.957 130.881 148.356 135.298 153.789 135.298C159.222 135.298 163.633 130.9 163.639 125.466ZM153.82 127.01C152.962 127.01 152.27 126.312 152.27 125.454C152.27 124.596 152.968 123.904 153.826 123.904C154.683 123.904 155.375 124.602 155.375 125.46C155.375 126.318 154.677 127.01 153.82 127.01ZM150.683 118.269C151.645 117.846 152.711 117.613 153.832 117.613C157.869 117.613 161.195 120.67 161.624 124.596H157.446C157.054 122.955 155.584 121.736 153.826 121.736C153.458 121.736 153.103 121.791 152.766 121.889L150.683 118.269ZM145.979 125.454C145.979 122.863 147.241 120.566 149.176 119.138L151.259 122.759C150.542 123.439 150.095 124.394 150.095 125.46C150.095 126.526 150.536 127.482 151.253 128.161L149.164 131.776C147.228 130.348 145.973 128.045 145.979 125.454ZM152.76 129.031C153.097 129.129 153.452 129.184 153.82 129.184C155.578 129.184 157.048 127.972 157.446 126.336H161.624C161.189 130.263 157.862 133.313 153.82 133.307C152.699 133.307 151.639 133.068 150.671 132.645L152.76 129.031Z" fill="#F9A826"/>
<path d="M162.836 125.466C162.836 120.474 158.8 116.425 153.807 116.419C148.815 116.419 144.766 120.456 144.76 125.448C144.76 130.44 148.797 134.489 153.789 134.496C158.781 134.496 162.83 130.459 162.836 125.466ZM145.072 125.448C145.072 120.627 148.986 116.725 153.807 116.731C158.628 116.731 162.53 120.646 162.524 125.466C162.524 130.287 158.61 134.189 153.789 134.183C148.968 134.183 145.066 130.269 145.072 125.448Z" fill="#F3F9FB"/>
<g style="mix-blend-mode:multiply">
<path d="M152.27 125.454C152.27 124.596 152.968 123.904 153.826 123.904C154.683 123.904 155.375 124.603 155.375 125.46C155.375 126.318 154.677 127.01 153.82 127.01C152.962 127.01 152.27 126.312 152.27 125.454ZM153.832 117.613C157.869 117.613 161.195 120.67 161.624 124.596H157.446C157.054 122.955 155.584 121.736 153.826 121.736C153.458 121.736 153.103 121.791 152.766 121.889L150.683 118.269C151.645 117.846 152.711 117.613 153.832 117.613ZM145.979 125.448C145.979 122.857 147.241 120.56 149.176 119.132L151.259 122.753C150.542 123.433 150.095 124.388 150.095 125.454C150.095 126.52 150.536 127.476 151.253 128.155L149.164 131.77C147.228 130.342 145.973 128.039 145.979 125.448ZM150.671 132.639L152.76 129.025C153.097 129.123 153.452 129.178 153.82 129.178C155.578 129.178 157.048 127.966 157.446 126.33H161.624C161.189 130.257 157.862 133.307 153.82 133.301C152.699 133.301 151.639 133.062 150.671 132.639Z" fill="#F3F9FB"/>
</g>
<path d="M147.774 117.197C147.774 117.197 147.798 117.215 147.798 117.197C147.798 117.179 147.774 117.179 147.774 117.197Z" fill="#F3F9FB"/>
<path d="M147.768 118.03C147.768 118.03 147.792 118.048 147.792 118.03C147.792 118.012 147.768 118.012 147.768 118.03Z" fill="#F3F9FB"/>
<path d="M238.972 115.102C238.972 108.713 231.976 103.537 223.357 103.543L223.37 126.686C231.988 126.686 238.972 121.497 238.966 115.108L238.972 115.102Z" fill="#F9A826"/>
<path d="M229.948 133.638L229.932 102.618C229.93 99.2957 227.236 96.6039 223.914 96.6057L179.681 96.6288C176.358 96.6306 173.667 99.3251 173.668 102.647L173.685 133.667C173.686 136.99 176.381 139.681 179.703 139.68L223.936 139.656C227.258 139.655 229.95 136.96 229.948 133.638Z" fill="#DC432B"/>
<path d="M171.719 89.8448L173.443 89.019C173.849 88.8246 174.02 88.338 173.826 87.9323L169.797 79.5243C169.603 79.1185 169.116 78.9472 168.711 79.1416L166.987 79.9674C166.581 80.1618 166.41 80.6484 166.604 81.0542L170.633 89.4621C170.827 89.8679 171.314 90.0392 171.719 89.8448Z" fill="#00B6AA"/>
<path d="M179.195 65.3499L176.891 64.6752C176.349 64.5164 175.78 64.8272 175.622 65.3695L170.623 82.4415C170.464 82.9837 170.775 83.5519 171.317 83.7107L173.622 84.3854C174.164 84.5442 174.732 84.2333 174.891 83.6911L179.89 66.6191C180.048 66.0769 179.738 65.5087 179.195 65.3499Z" fill="#82C3E1"/>
<path d="M167.57 51.2933L166.176 53.2489C165.848 53.709 165.956 54.3478 166.416 54.6756L174.742 60.6082C175.202 60.936 175.841 60.8288 176.169 60.3687L177.562 58.413C177.89 57.9529 177.783 57.3142 177.323 56.9863L168.996 51.0538C168.536 50.7259 167.897 50.8332 167.57 51.2933Z" fill="#82C3E1"/>
<path d="M180.264 62.5315C180.405 61.1532 179.406 59.9159 178.022 59.775C176.644 59.6341 175.406 60.6325 175.265 62.0169C175.124 63.3952 176.123 64.6326 177.507 64.7735C178.892 64.9143 180.123 63.9159 180.264 62.5315Z" fill="#DC432B"/>
<path d="M166.331 141.412L166.237 143.321C166.215 143.77 166.562 144.153 167.011 144.175L176.323 144.63C176.773 144.652 177.155 144.305 177.177 143.856L177.27 141.947C177.292 141.498 176.946 141.116 176.496 141.094L167.184 140.638C166.735 140.616 166.353 140.963 166.331 141.412Z" fill="#00B6AA"/>
<path d="M100.201 127.263L100.298 129.662C100.32 130.227 100.796 130.666 101.361 130.643L119.135 129.926C119.7 129.904 120.139 129.427 120.116 128.863L120.019 126.464C119.997 125.899 119.521 125.46 118.956 125.483L101.182 126.2C100.617 126.223 100.178 126.699 100.201 127.263Z" fill="#82C3E1"/>
<path d="M96.9982 109.354L94.6254 109.723C94.0671 109.81 93.6848 110.332 93.7716 110.891L95.3409 120.993C95.4277 121.551 95.9505 121.934 96.5088 121.847L98.8816 121.478C99.4399 121.392 99.8221 120.869 99.7354 120.311L98.166 110.208C98.0793 109.65 97.5564 109.268 96.9982 109.354Z" fill="#82C3E1"/>
<path d="M100.839 122.043C101.942 122.882 102.156 124.462 101.317 125.565C100.478 126.667 98.8974 126.882 97.7948 126.043C96.6921 125.203 96.4777 123.623 97.317 122.52C98.1562 121.418 99.7366 121.203 100.839 122.043Z" fill="#DC432B"/>
<path d="M229.728 137.7L237.765 134.839L241.134 140.211L238.812 141.902L236.92 138.71L232.852 140.138L233.318 143.58L230.469 144.652L229.728 137.7Z" fill="#DC432B"/>
<path d="M109.623 132.482L104.052 131.451C103.506 131.35 102.982 131.711 102.881 132.256L100.799 143.514C100.698 144.06 101.058 144.584 101.604 144.685L107.175 145.715C107.721 145.816 108.245 145.456 108.346 144.91L110.428 133.652C110.529 133.107 110.169 132.583 109.623 132.482Z" fill="#00B6AA"/>
<path d="M106.07 135.881C100.913 134.926 95.9632 138.332 95.0076 143.489L113.678 146.944C114.634 141.786 111.228 136.837 106.07 135.881Z" fill="#F9A826"/>
<path d="M89.6907 136.662L93.5997 133.478C94.0299 133.128 94.0947 132.495 93.7443 132.065L86.5145 123.188C86.1642 122.757 85.5314 122.693 85.1012 123.043L81.1922 126.227C80.762 126.577 80.6972 127.21 81.0476 127.64L88.2774 136.517C88.6277 136.947 89.2605 137.012 89.6907 136.662Z" fill="#82C3E1"/>
<path d="M81.4367 128.637L87.4166 123.767C87.8468 123.417 87.9115 122.784 87.5612 122.354L80.3314 113.477C79.981 113.046 79.3483 112.982 78.9181 113.332L72.9382 118.202C72.508 118.553 72.4433 119.185 72.7936 119.616L80.0234 128.493C80.3737 128.923 81.0065 128.988 81.4367 128.637Z" fill="#00B6AA"/>
<path d="M70.3582 134.177C65.1269 133.797 60.5817 137.723 60.2019 142.955L79.1362 144.339C79.516 139.108 75.5894 134.563 70.3582 134.177Z" fill="#F9A826"/>
<path d="M201.195 105.484C202.114 107.065 204.043 108.174 205.508 109.227C207.21 110.452 208.932 112.051 210.892 112.811C211.854 113.184 212.454 111.837 211.841 111.181C210.488 109.748 208.448 108.817 206.782 107.775C205.183 106.777 203.394 105.35 201.507 105.08C201.281 105.05 201.066 105.258 201.201 105.484H201.195Z" fill="#5A5A5B"/>
<path d="M203.082 113.816C204.858 113.117 206.273 111.47 207.596 110.134C208.821 108.891 211.094 107.353 211.443 105.595C211.572 104.946 211.057 104.401 210.396 104.548C208.625 104.946 207.174 107.225 205.955 108.493C204.656 109.846 203.02 111.31 202.371 113.105C202.23 113.497 202.684 113.975 203.082 113.816Z" fill="#5A5A5B"/>
<path d="M201.195 128.285C202.114 129.866 204.043 130.974 205.507 132.028C207.21 133.253 208.932 134.852 210.892 135.611C211.854 135.985 212.454 134.637 211.841 133.982C210.488 132.549 208.448 131.618 206.782 130.576C205.183 129.578 203.394 128.15 201.507 127.881C201.281 127.85 201.066 128.059 201.201 128.285H201.195Z" fill="#5A5A5B"/>
<path d="M203.082 136.61C204.858 135.911 206.273 134.263 207.596 132.928C208.821 131.685 211.094 130.147 211.443 128.389C211.572 127.74 211.057 127.195 210.396 127.342C208.625 127.74 207.174 130.018 205.955 131.286C204.656 132.64 203.02 134.104 202.371 135.899C202.23 136.291 202.684 136.769 203.082 136.61Z" fill="#5A5A5B"/>
<path d="M152.013 70.8382C151.339 70.5074 150.689 70.1888 149.991 69.8397C150.444 68.3757 150.885 66.9423 151.357 65.515C151.424 65.3067 151.639 65.123 151.829 64.9882C152.601 64.4369 153.097 63.7018 153.513 62.8504C155.608 58.5992 157.74 54.3725 159.872 50.1397C159.982 49.9253 160.135 49.7293 160.374 49.3679C159.645 49.0555 159.026 48.835 158.463 48.5226C158.304 48.4368 158.212 48.0693 158.242 47.8549C158.285 47.5792 158.5 47.3342 158.61 47.0708C158.763 46.6971 158.965 46.6052 159.394 46.6788C159.694 46.7278 160.233 46.5379 160.337 46.3051C160.448 46.0662 160.251 45.5578 160.025 45.3311C159.737 45.0432 159.725 44.8533 159.89 44.5225C161.777 40.7675 163.651 37.0064 165.544 33.2514C166.003 32.3326 166.781 31.8303 167.798 31.7506C169.556 31.6159 170.928 32.3203 171.872 33.7905C172.429 34.6664 172.466 35.6159 171.988 36.5715C170.12 40.2836 168.258 43.9957 166.408 47.7201C166.218 48.0999 166.046 48.2592 165.575 48.1367C165.305 48.0693 164.833 48.253 164.668 48.4736C164.539 48.6451 164.644 49.2148 164.827 49.3495C165.391 49.7477 165.244 50.1213 164.974 50.5746C164.803 50.8625 164.656 51.1627 164.386 51.6711C163.694 51.1933 163.039 50.7462 162.285 50.2255C161.856 51.1382 161.562 51.7936 161.238 52.443C159.229 56.4614 157.207 60.4797 155.21 64.5043C155.014 64.9024 154.873 65.3741 154.873 65.8152C154.873 66.685 154.598 67.3956 154.052 68.0694C153.336 68.9515 152.705 69.9071 152.031 70.8382H152.013ZM162.794 44.9575C162.898 44.8166 163.106 44.5899 163.241 44.3204C164.778 41.2698 166.31 38.207 167.841 35.1503C167.915 34.9972 168.056 34.8257 168.031 34.6909C167.976 34.4092 167.89 33.9987 167.694 33.913C167.455 33.8088 167.075 33.9314 166.794 34.0477C166.653 34.1029 166.585 34.3601 166.5 34.5317C164.987 37.5455 163.48 40.5593 161.967 43.5731C161.881 43.7446 161.777 43.9222 161.734 44.106C161.611 44.6634 162.101 45.1474 162.794 44.9575ZM165.366 46.2561C165.464 46.1274 165.673 45.9253 165.795 45.6803C167.357 42.5868 168.907 39.4873 170.457 36.3816C170.53 36.2285 170.61 36.0753 170.634 35.9099C170.72 35.3464 170.169 34.8931 169.667 35.1442C169.434 35.2606 169.238 35.5301 169.115 35.7752C167.572 38.8257 166.046 41.8824 164.515 44.9452C164.429 45.1167 164.331 45.2944 164.301 45.4843C164.221 46.0111 164.717 46.4398 165.36 46.2622L165.366 46.2561Z" fill="#5A5A5B"/>
<path d="M164.533 55.5543L169.207 48.418L164.778 43.8789L162.591 45.7411L165.25 48.3322L162.904 51.9463L159.67 50.6783L157.954 53.196L164.533 55.5543Z" fill="#DC432B"/>
<path d="M159.492 79.7324H131.057C130.688 79.7324 130.389 80.0314 130.389 80.4001V82.7891C130.389 83.1579 130.688 83.4568 131.057 83.4568H159.492C159.861 83.4568 160.16 83.1579 160.16 82.7891V80.4001C160.16 80.0314 159.861 79.7324 159.492 79.7324Z" fill="#B73D30"/>
<path d="M146.518 81.8089C149.409 72.8043 144.233 62.9237 135.234 60.0875C134.297 59.7935 133.899 61.2636 134.83 61.5515C143.063 64.1426 147.682 73.2147 145.048 81.3985C144.748 82.3357 146.218 82.7339 146.512 81.8028L146.518 81.8089Z" fill="#5A5A5B"/>
<path d="M149.777 77.5885C150.757 77.5885 150.757 76.0693 149.777 76.0693C148.797 76.0693 148.797 77.5885 149.777 77.5885Z" fill="#5A5A5B"/>
<path d="M139.89 70.4889C140.87 70.4889 140.87 68.9697 139.89 68.9697C138.91 68.9697 138.91 70.4889 139.89 70.4889Z" fill="#5A5A5B"/>
<path d="M134.714 70.7771C133.856 70.7771 133.005 70.3974 132.509 69.7235C132.319 69.4601 132.184 69.16 132.117 68.8353C132.086 68.8353 132.049 68.8231 132.012 68.8169C131.234 68.6332 130.61 67.9165 130.457 67.0221C130.395 66.6607 130.401 66.2809 130.481 65.8767C130.316 65.8399 130.15 65.7848 129.991 65.7113C129.844 65.6439 129.084 65.2641 128.821 64.3636C128.711 63.9961 128.705 63.5979 128.79 63.1753C128.153 62.8874 127.577 62.3483 127.265 61.7174C126.922 61.019 126.916 60.284 127.259 59.5918C127.351 59.4019 127.577 59.3284 127.767 59.4203C127.957 59.5121 128.031 59.7388 127.939 59.9287C127.645 60.5229 127.78 61.0497 127.945 61.3805C128.166 61.8276 128.576 62.2258 129.029 62.4463C129.139 62.1952 129.28 61.944 129.452 61.6806C129.905 60.9823 131.014 60.5964 131.737 60.6944C132.202 60.7556 132.533 61.0007 132.649 61.3805C132.754 61.7602 132.649 62.1462 132.343 62.4708C131.761 63.0956 130.487 63.506 129.525 63.3835C129.476 63.6653 129.483 63.9165 129.55 64.1492C129.728 64.7557 130.279 65.0068 130.303 65.0191C130.432 65.0742 130.561 65.1171 130.695 65.1477C130.738 65.0313 130.787 64.9088 130.842 64.7924C131.192 64.0083 131.633 63.5428 132.19 63.359C132.619 63.2181 133.121 63.3161 133.483 63.5979C133.783 63.8368 133.942 64.1737 133.911 64.529C133.868 65.0436 133.452 65.4785 132.796 65.6929C132.362 65.8338 131.81 65.9624 131.241 65.9685C131.167 66.2993 131.161 66.6117 131.204 66.8996C131.296 67.4387 131.651 67.892 132.08 68.0512C132.086 67.9839 132.098 67.9104 132.11 67.843C132.227 67.212 132.582 66.6607 133.078 66.3483C133.63 65.993 134.432 65.9624 134.836 66.5137C135.167 66.967 135.026 67.5734 134.726 67.941C134.45 68.2779 134.071 68.4555 133.697 68.6025C133.452 68.7006 133.182 68.7924 132.907 68.8414C132.956 69.0068 133.029 69.16 133.127 69.2947C133.636 69.9869 134.726 70.2442 135.565 69.8583C135.755 69.7725 135.982 69.8583 136.068 70.0421C136.153 70.232 136.068 70.4586 135.884 70.5444C135.516 70.7159 135.118 70.7955 134.72 70.7955L134.714 70.7771ZM133.948 66.8322C133.801 66.8322 133.63 66.8874 133.495 66.9731C133.17 67.1814 132.943 67.5428 132.864 67.9716C132.864 68.0022 132.852 68.0267 132.852 68.0574C133.048 68.0145 133.244 67.9471 133.427 67.8736C133.703 67.7695 133.979 67.6408 134.144 67.4387C134.273 67.2794 134.31 67.0589 134.224 66.9425C134.169 66.869 134.064 66.8322 133.948 66.8322ZM132.594 64.0512C132.533 64.0512 132.478 64.0573 132.429 64.0757C132.086 64.1921 131.792 64.5229 131.535 65.1048C131.522 65.1355 131.51 65.1661 131.498 65.1967C131.884 65.1661 132.257 65.0742 132.564 64.9701C132.845 64.8782 133.133 64.6883 133.152 64.4616C133.164 64.3391 133.084 64.2472 133.011 64.1921C132.894 64.1002 132.741 64.0512 132.594 64.0512ZM129.777 62.6423C130.475 62.6668 131.4 62.3667 131.786 61.9501C131.97 61.7541 131.933 61.6377 131.921 61.5948C131.896 61.5213 131.798 61.4662 131.633 61.4478C131.112 61.3743 130.34 61.699 130.089 62.091C129.966 62.2809 129.862 62.4647 129.777 62.6423Z" fill="#5A5A5B"/>
<path d="M102.701 96.811C102.597 96.811 102.493 96.7681 102.42 96.6885C101.47 95.6471 101.354 93.9871 102.144 92.9028C102.358 92.6088 102.64 92.3699 102.965 92.1861C102.959 92.1371 102.953 92.0881 102.946 92.0452C102.879 91.1754 103.424 90.2872 104.3 89.8339C104.668 89.644 105.084 89.5215 105.544 89.4725C105.525 89.2765 105.525 89.0682 105.55 88.8661C105.568 88.6884 105.715 87.7757 106.567 87.1999C106.922 86.961 107.345 86.814 107.835 86.7711C107.914 85.9993 108.294 85.2029 108.858 84.6578C109.47 84.0636 110.236 83.8247 111.069 83.9472C111.277 83.9778 111.418 84.1738 111.388 84.3821C111.357 84.5904 111.185 84.7374 110.953 84.7006C110.211 84.5904 109.685 84.915 109.378 85.2091C108.962 85.6134 108.674 86.2075 108.594 86.7834C108.907 86.814 109.237 86.8814 109.587 86.9732C110.463 87.2121 111.228 88.2474 111.369 89.0253C111.461 89.5276 111.314 89.938 110.965 90.1831C110.61 90.4158 110.187 90.4281 109.746 90.2198C108.888 89.8155 108.031 88.5904 107.847 87.5307C107.51 87.5674 107.222 87.6654 106.983 87.8247C106.389 88.229 106.303 88.9212 106.297 88.9457C106.279 89.1111 106.279 89.2765 106.297 89.4419C106.444 89.448 106.603 89.4602 106.757 89.4786C107.688 89.5828 108.325 89.889 108.704 90.4036C108.986 90.7956 109.054 91.3469 108.876 91.8186C108.729 92.2045 108.435 92.474 108.067 92.5537C107.522 92.6701 106.94 92.3883 106.505 91.7819C106.205 91.3653 105.881 90.814 105.691 90.2014C105.293 90.2382 104.943 90.3301 104.643 90.4893C104.074 90.7895 103.694 91.3531 103.694 91.8921C103.786 91.8737 103.878 91.8554 103.976 91.8431C104.68 91.7574 105.36 91.9411 105.856 92.3577C106.401 92.811 106.701 93.6257 106.267 94.2137C105.911 94.6976 105.244 94.7528 104.766 94.5629C104.331 94.3913 104.018 94.0483 103.743 93.7053C103.553 93.4664 103.357 93.203 103.204 92.909C103.026 93.0253 102.873 93.1662 102.75 93.3316C102.175 94.1218 102.273 95.3837 102.977 96.1555C103.118 96.3087 103.106 96.5537 102.953 96.6946C102.879 96.762 102.787 96.7926 102.695 96.7926L102.701 96.811ZM103.92 92.6394C104.037 92.8538 104.19 93.0621 104.343 93.2459C104.588 93.546 104.802 93.7727 105.06 93.8768C105.256 93.9564 105.544 93.9442 105.666 93.7788C105.819 93.5705 105.642 93.1724 105.384 92.958C105.048 92.6823 104.57 92.5537 104.08 92.6149C104.025 92.6211 103.976 92.6272 103.92 92.6394ZM106.505 90.2259C106.671 90.6547 106.91 91.0468 107.13 91.3531C107.314 91.6103 107.633 91.886 107.908 91.8247C108.055 91.7941 108.135 91.6655 108.172 91.5613C108.257 91.3347 108.227 91.0468 108.092 90.863C107.847 90.5261 107.387 90.324 106.677 90.2443C106.616 90.2382 106.554 90.2321 106.499 90.2259H106.505ZM108.637 87.5491C108.827 88.327 109.482 89.252 110.083 89.5337C110.371 89.6685 110.505 89.5828 110.548 89.5583C110.634 89.497 110.665 89.3622 110.628 89.1601C110.524 88.5659 109.911 87.8492 109.397 87.7022C109.127 87.6287 108.876 87.5797 108.643 87.5491H108.637Z" fill="#5A5A5B"/>
<path d="M153.428 79.1014C152.931 79.1014 152.435 79.0034 151.976 78.789C151.786 78.7032 151.7 78.4766 151.792 78.2867C151.884 78.0968 152.111 78.0172 152.294 78.1029C153.421 78.6236 154.855 78.2928 155.547 77.3433C155.7 77.1289 155.817 76.8839 155.878 76.6144C155.486 76.5531 155.106 76.4306 154.763 76.2959C154.297 76.1182 153.826 75.8916 153.489 75.4812C153.127 75.0401 152.962 74.3173 153.348 73.7782C153.826 73.1228 154.794 73.1718 155.455 73.5945C156.068 73.9865 156.503 74.6603 156.65 75.4444C156.674 75.573 156.692 75.7078 156.699 75.8364C157.342 75.6772 157.887 75.0217 158.022 74.2376C158.089 73.8334 158.071 73.3923 157.96 72.9206C157.176 72.9084 156.484 72.7614 155.915 72.5776C155.124 72.3203 154.616 71.7935 154.561 71.1748C154.524 70.7644 154.708 70.3601 155.063 70.0784C155.504 69.7292 156.111 69.6128 156.625 69.7843C157.311 70.011 157.85 70.5929 158.291 71.5669C158.371 71.7507 158.444 71.9283 158.512 72.1059C158.72 72.0692 158.928 72.0079 159.124 71.916C159.204 71.8793 159.915 71.5424 160.153 70.7338C160.251 70.3908 160.258 70.0171 160.166 69.6006C158.953 69.7843 157.293 69.282 156.545 68.4735C156.08 67.9712 156.086 67.4995 156.172 67.1932C156.319 66.7338 156.705 66.4459 157.262 66.3724C158.138 66.2437 159.529 66.7215 160.086 67.5914C160.325 67.9589 160.515 68.3142 160.662 68.6634C161.299 68.3754 161.893 67.8303 162.206 67.1993C162.426 66.7522 162.61 66.0416 162.218 65.2391C162.126 65.0492 162.206 64.8226 162.389 64.7307C162.579 64.6388 162.806 64.7185 162.898 64.9022C163.314 65.7598 163.314 66.6664 162.885 67.5301C162.481 68.3448 161.728 69.037 160.901 69.38C161.036 69.9375 161.029 70.4581 160.889 70.9359C160.552 72.0692 159.553 72.547 159.443 72.596C159.21 72.7001 158.971 72.7736 158.732 72.8226C158.849 73.3617 158.867 73.8701 158.781 74.3479C158.591 75.4505 157.82 76.3387 156.864 76.5593C156.797 76.5776 156.729 76.5899 156.662 76.596C156.582 77.0248 156.417 77.423 156.166 77.766C155.553 78.6052 154.493 79.0769 153.428 79.0769V79.1014ZM154.414 74.0416C154.23 74.0416 154.065 74.0968 153.973 74.2254C153.82 74.4398 153.911 74.7828 154.083 74.9972C154.31 75.2729 154.683 75.4444 155.045 75.5853C155.326 75.6956 155.639 75.7997 155.945 75.8548C155.945 75.7691 155.927 75.6772 155.908 75.5914C155.798 75.0095 155.486 74.5194 155.051 74.2376C154.861 74.1151 154.622 74.0416 154.414 74.0416ZM156.147 70.4704C155.939 70.4704 155.712 70.5439 155.547 70.6787C155.437 70.7644 155.308 70.9114 155.326 71.1136C155.357 71.475 155.792 71.7384 156.16 71.8609C156.607 72.0079 157.158 72.1427 157.728 72.1672C157.691 72.0753 157.654 71.9834 157.611 71.8915C157.268 71.1258 156.87 70.6725 156.398 70.5194C156.325 70.4949 156.239 70.4827 156.153 70.4827L156.147 70.4704ZM157.562 67.1197C157.495 67.1197 157.421 67.1197 157.36 67.1319C157.103 67.1687 156.95 67.2606 156.901 67.4137C156.889 67.4627 156.833 67.6649 157.103 67.9589C157.642 68.5408 158.971 68.9574 159.915 68.8655C159.792 68.5898 159.633 68.3019 159.443 68.0079C159.13 67.524 158.248 67.1197 157.562 67.1197Z" fill="#5A5A5B"/>
<path d="M143.424 81.1236C143.865 77.7362 142.273 74.3365 138.971 72.9705C134.996 71.3288 131.271 73.9567 128.839 76.9521C125.176 81.4728 122.701 87.3656 120.999 92.8848C118.799 100.015 118.463 107.85 113.458 113.792C112.833 114.533 113.899 115.617 114.536 114.87C119.363 109.136 120.055 101.938 121.985 94.9553C123.271 90.2937 125.133 85.7914 127.577 81.6137C128.956 79.2553 130.506 76.6765 132.858 75.1696C137.397 72.2599 142.573 75.9475 141.899 81.1236C141.771 82.0915 143.296 82.0854 143.418 81.1236H143.424Z" fill="#5A5A5B"/>
<path d="M166.665 87.4757C166.653 88.0637 166.61 88.664 166.677 89.2521C166.69 89.3562 166.83 89.3562 166.843 89.2521C166.91 88.664 166.867 88.0699 166.855 87.4757C166.855 87.3532 166.665 87.3532 166.665 87.4757Z" fill="#B73D30"/>
<path d="M124.349 90.4647C123.798 91.3713 123.608 92.6209 123.951 93.6194C124.018 93.8154 124.337 93.8521 124.386 93.6194C124.594 92.6393 124.631 91.5244 124.594 90.5259C124.594 90.3973 124.423 90.3483 124.349 90.4585V90.4647Z" fill="#B73D30"/>
<path d="M165.789 89.8033C165.912 89.9626 166.022 90.0851 166.181 90.2137C166.261 90.275 166.389 90.2015 166.328 90.0974C166.224 89.9258 166.12 89.7972 165.973 89.6624C165.881 89.5767 165.703 89.6931 165.789 89.8094V89.8033Z" fill="#B73D30"/>
<path d="M167.663 89.3743C167.614 89.9868 167.651 90.5994 167.639 91.2119C167.633 91.8245 167.547 92.4432 167.621 93.0557C167.639 93.2028 167.866 93.264 167.902 93.0925C168.147 91.9715 168.013 90.4769 167.712 89.3681C167.706 89.3436 167.67 89.3498 167.663 89.3743Z" fill="#B73D30"/>
<path d="M121.44 132.334C121.372 132.683 121.342 133.008 121.378 133.369C121.397 133.534 121.623 133.534 121.642 133.369C121.679 133.008 121.642 132.689 121.581 132.334C121.568 132.266 121.458 132.266 121.446 132.334H121.44Z" fill="#B73D30"/>
<path d="M122.181 132.603C122.132 133.154 122.034 133.736 122.15 134.281C122.175 134.397 122.352 134.397 122.377 134.281C122.493 133.736 122.395 133.154 122.346 132.603C122.34 132.498 122.187 132.498 122.181 132.603Z" fill="#B73D30"/>
<path d="M123.026 134.483C122.94 134.857 123.014 135.329 123.155 135.684C123.204 135.806 123.381 135.794 123.388 135.653C123.406 135.274 123.332 134.802 123.13 134.471C123.106 134.428 123.032 134.434 123.02 134.483H123.026Z" fill="#B73D30"/>
<path d="M121.611 134.882C121.617 135.139 121.709 135.329 121.85 135.549C121.899 135.629 122.028 135.58 122.003 135.488C121.942 135.237 121.856 135.041 121.672 134.863C121.654 134.845 121.611 134.857 121.611 134.888V134.882Z" fill="#B73D30"/>
<path d="M144.87 96.0944C144.858 96.5232 144.778 96.9949 144.913 97.4115C144.968 97.583 145.201 97.583 145.256 97.4115C145.391 96.9949 145.311 96.5294 145.299 96.0944C145.287 95.8188 144.882 95.8188 144.87 96.0944Z" fill="#B73D30"/>
<path d="M145.299 96.0944C145.262 96.3884 145.201 96.6212 145.299 96.903C145.354 97.0745 145.587 97.0745 145.642 96.903C145.728 96.6273 145.673 96.3823 145.642 96.0944C145.617 95.88 145.336 95.88 145.311 96.0944H145.299Z" fill="#B73D30"/>
<path d="M145.63 94.0909C145.771 94.8811 145.679 95.7325 145.875 96.5043C145.899 96.6085 146.052 96.6024 146.083 96.5043C146.303 95.7386 146.022 94.7831 145.813 94.0419C145.783 93.9193 145.611 93.9745 145.63 94.0909Z" fill="#B73D30"/>
<path d="M144.937 99.224C144.846 99.5548 144.827 99.8978 145.091 100.137C145.176 100.216 145.348 100.167 145.336 100.039C145.311 99.7814 145.213 99.5854 145.262 99.3097C145.299 99.1015 144.999 99.0096 144.944 99.224H144.937Z" fill="#B73D30"/>
<path d="M123.302 103.824C123.345 104.167 123.375 104.48 123.584 104.768C123.651 104.86 123.798 104.829 123.804 104.706C123.816 104.351 123.675 104.076 123.522 103.763C123.473 103.659 123.283 103.708 123.302 103.824Z" fill="#B73D30"/>
<path d="M123.78 103.335C123.969 103.525 123.945 103.66 124.037 103.868C124.08 103.966 124.239 104.027 124.3 103.905C124.441 103.586 124.3 103.304 124.037 103.084C123.865 102.937 123.62 103.17 123.786 103.335H123.78Z" fill="#B73D30"/>
<path d="M129.55 85.6988C129.495 86.2195 129.427 86.7279 129.507 87.2486C129.525 87.365 129.721 87.365 129.734 87.2486C129.813 86.7279 129.746 86.2195 129.691 85.6988C129.679 85.6069 129.556 85.6069 129.55 85.6988Z" fill="#B73D30"/>
<path d="M129.954 86.0724C129.979 86.7033 129.881 87.3955 129.991 88.0142C130.015 88.1551 130.205 88.1245 130.242 88.0142C130.463 87.4139 130.31 86.6421 130.138 86.0479C130.107 85.9499 129.948 85.9621 129.954 86.0724Z" fill="#B73D30"/>
<path d="M135.945 117.736C135.571 118.649 135.522 119.617 136.019 120.48C136.08 120.585 136.245 120.517 136.215 120.401C136.006 119.537 135.933 118.667 136.221 117.816C136.282 117.638 136.012 117.577 135.945 117.742V117.736Z" fill="#B73D30"/>
<path d="M134.291 117.522C134.279 117.724 134.267 117.865 134.322 118.061C134.352 118.171 134.518 118.171 134.548 118.061C134.604 117.865 134.591 117.724 134.579 117.522C134.567 117.338 134.303 117.338 134.291 117.522Z" fill="#B73D30"/>
<path d="M160.644 102.9C160.521 103.31 160.448 103.66 160.429 104.088C160.429 104.211 160.619 104.272 160.674 104.156C160.846 103.764 160.938 103.427 161.011 103.004C161.054 102.765 160.711 102.661 160.644 102.9Z" fill="#B73D30"/>
<path d="M161.219 104.186C161.146 104.615 160.974 105.013 160.901 105.435C160.876 105.57 161.048 105.717 161.158 105.589C161.477 105.203 161.507 104.664 161.403 104.186C161.385 104.1 161.238 104.094 161.219 104.186Z" fill="#B73D30"/>
<path d="M182.579 103.041C182.487 103.194 182.457 103.267 182.426 103.445C182.402 103.574 182.42 103.727 182.524 103.825C182.659 103.941 182.726 103.966 182.904 103.923C183.039 103.892 183.137 103.776 183.174 103.653C183.229 103.482 183.241 103.402 183.235 103.224C183.223 102.881 182.757 102.741 182.579 103.047V103.041Z" fill="#B73D30"/>
<path d="M180.864 104.37C180.637 104.658 180.484 104.964 180.705 105.295C180.772 105.399 180.956 105.393 180.987 105.258C181.048 105.001 180.993 104.744 181.06 104.486C181.085 104.382 180.938 104.272 180.864 104.37Z" fill="#B73D30"/>
<path d="M222.892 101.846C222.935 102.097 222.892 102.299 222.825 102.538C222.794 102.66 222.953 102.716 223.021 102.618C223.192 102.366 223.229 102.103 223.198 101.803C223.174 101.582 222.855 101.619 222.892 101.846Z" fill="#B73D30"/>
<path d="M223.872 102.183C223.835 102.459 223.786 102.698 223.854 102.967C223.872 103.047 223.995 103.047 224.013 102.967C224.08 102.698 224.025 102.459 223.995 102.183C223.982 102.11 223.884 102.11 223.878 102.183H223.872Z" fill="#B73D30"/>
<path d="M224.534 129.668C224.331 129.95 224.099 130.226 223.964 130.55C223.921 130.648 224.08 130.734 224.142 130.654C224.356 130.379 224.485 130.042 224.638 129.729C224.668 129.662 224.577 129.607 224.534 129.668Z" fill="#B73D30"/>
<path d="M222.965 128.927C222.965 129.264 222.947 129.601 222.965 129.944C222.965 130.048 223.125 130.048 223.131 129.944C223.149 129.607 223.131 129.27 223.131 128.927C223.131 128.823 222.965 128.817 222.965 128.927Z" fill="#B73D30"/>
<path d="M185.507 131.495C185.667 132.076 186.108 132.775 186.641 133.075C186.775 133.148 186.977 133.02 186.922 132.861C186.726 132.309 186.249 131.709 185.826 131.311C185.691 131.182 185.458 131.311 185.507 131.495Z" fill="#B73D30"/>
<path d="M184.043 133.179C184.196 133.54 184.313 133.908 184.558 134.214C184.656 134.337 184.815 134.196 184.797 134.073C184.729 133.706 184.533 133.375 184.368 133.038C184.282 132.86 183.964 132.989 184.043 133.173V133.179Z" fill="#B73D30"/>
<path d="M217.581 115.39C217.183 115.66 216.919 116.321 217.403 116.646C217.489 116.707 217.648 116.646 217.667 116.542C217.716 116.217 217.636 115.966 217.857 115.672C217.979 115.513 217.74 115.286 217.581 115.396V115.39Z" fill="#B73D30"/>
<path d="M181.226 37.8094C181.409 38.1708 181.587 38.5322 181.777 38.8875C181.801 38.9365 181.906 38.961 181.973 38.961C182.285 38.9733 182.598 38.9916 182.904 38.9671C183.014 38.961 183.155 38.8814 183.216 38.7895C183.388 38.5445 183.529 38.2749 183.67 38.0054C183.743 37.8707 183.823 37.8278 183.97 37.8707C184.368 37.9932 184.772 38.1034 185.164 38.2137C185.164 38.5812 185.177 38.9426 185.164 39.2979C185.158 39.4939 185.189 39.6287 185.391 39.7083C185.563 39.7757 185.734 39.8615 185.869 39.9901C186.151 40.2596 186.402 40.1984 186.684 39.9901C186.916 39.8186 187.186 39.6961 187.363 39.5919C187.755 39.935 188.117 40.2596 188.491 40.5843C188.276 40.9273 188.092 41.2459 187.89 41.5521C187.786 41.7114 187.762 41.8278 187.89 41.9932C188.019 42.1586 188.148 42.3485 188.209 42.5445C188.307 42.8446 188.503 42.9059 188.785 42.8814C189.024 42.8569 189.269 42.8814 189.514 42.8569C189.71 42.8385 189.783 42.9243 189.826 43.108C189.912 43.4633 190.022 43.8186 190.12 44.1678V44.2842C189.777 44.4741 189.434 44.6517 189.103 44.8539C189.023 44.9029 188.956 45.0254 188.95 45.1172C188.938 45.4787 188.827 45.9075 188.987 46.177C189.152 46.4588 189.581 46.5874 189.899 46.765C190.04 46.8447 190.095 46.9304 190.046 47.0897C189.942 47.4266 189.85 47.7635 189.765 48.1004C189.722 48.2658 189.642 48.3209 189.477 48.3026C189.189 48.2781 188.895 48.2781 188.601 48.2597C188.448 48.2474 188.362 48.2903 188.288 48.4435C188.16 48.713 188.001 48.9764 187.829 49.2214C187.737 49.3562 187.731 49.4481 187.817 49.5828C188.013 49.8952 188.19 50.2138 188.386 50.5568C188.27 50.6609 188.166 50.7467 188.068 50.8386C187.958 50.9366 187.854 51.0346 187.749 51.1387C187.321 51.5614 187.302 51.592 186.818 51.2429C186.408 50.9488 186.108 50.9427 185.642 51.1939C185.14 51.4695 184.987 51.7574 185.036 52.2903C185.085 52.8233 185.048 52.8355 184.527 52.9642C184.227 53.0377 183.872 53.2214 183.633 53.1234C183.412 53.0315 183.302 52.6456 183.174 52.3761C183.057 52.1372 182.929 52.0208 182.641 52.0637C182.396 52.1004 182.132 52.0759 181.881 52.0514C181.71 52.0331 181.618 52.0882 181.538 52.2413C181.373 52.5476 181.195 52.8478 181.011 53.1663C180.601 53.0499 180.203 52.9274 179.792 52.8294C179.615 52.7865 179.584 52.6946 179.59 52.5415C179.602 52.2597 179.621 51.9779 179.602 51.6962C179.602 51.592 179.523 51.4634 179.437 51.4083C179.161 51.2245 178.873 51.0591 178.579 50.9059C178.5 50.8631 178.359 50.8692 178.273 50.9059C178.004 51.0407 177.752 51.2122 177.483 51.347C177.415 51.3776 177.287 51.3838 177.238 51.3409C176.919 51.0285 176.613 50.7038 176.301 50.3853C176.49 50.0729 176.68 49.7911 176.84 49.4909C176.889 49.4052 176.883 49.2582 176.84 49.1663C176.693 48.8722 176.509 48.5966 176.356 48.3026C176.282 48.1555 176.196 48.1127 176.037 48.1188C175.7 48.131 175.363 48.1188 175.033 48.1188C175.014 48.082 175.002 48.0637 174.996 48.0453C174.922 47.7696 174.849 47.5001 174.781 47.2245C174.647 46.6915 174.628 46.6609 175.143 46.4404C175.602 46.2444 175.817 45.981 175.7 45.4725C175.67 45.3378 175.688 45.1785 175.719 45.0376C175.774 44.7681 175.664 44.6333 175.431 44.5169C175.18 44.3944 174.83 44.278 174.745 44.0698C174.659 43.8615 174.837 43.5368 174.916 43.2673C175.075 42.6854 175.075 42.6915 175.67 42.6915C175.804 42.6915 175.945 42.6915 176.08 42.7038C176.233 42.7221 176.325 42.667 176.399 42.5261C176.558 42.226 176.754 41.9442 176.913 41.644C176.956 41.5644 176.968 41.4235 176.925 41.3439C176.766 41.0376 176.582 40.7436 176.466 40.5414C176.821 40.131 177.14 39.7635 177.452 39.4082C177.716 39.5675 177.955 39.69 178.163 39.8492C178.408 40.0391 178.616 40.0759 178.873 39.8676C179.057 39.7206 179.296 39.6226 179.517 39.5307C179.682 39.4633 179.762 39.3776 179.749 39.1877C179.731 38.9243 179.749 38.6609 179.731 38.3975C179.713 38.1953 179.792 38.1279 179.976 38.0851C180.331 37.9993 180.687 37.889 181.042 37.791H181.219L181.226 37.8094ZM186.904 45.6441C186.916 43.0713 184.895 41.0008 182.353 40.9886C179.841 40.9763 177.771 43.0407 177.765 45.5522C177.765 48.0637 179.804 50.0974 182.353 50.1096C184.809 50.1219 186.892 48.0759 186.904 45.6379V45.6441Z" fill="#5A5A5B"/>
<path d="M124.184 41.0252C123.841 41.5336 124.067 42.1033 124.656 42.238C124.845 42.2809 125.035 42.3299 125.231 42.3789C126.334 42.6423 126.322 42.6423 126.358 43.7633C126.371 44.0696 126.291 44.2472 125.973 44.3391C125.593 44.4432 125.231 44.5964 124.864 44.7311C124.251 44.9578 124.092 45.5704 124.521 46.0604C124.649 46.2074 124.778 46.3544 124.907 46.5076C125.623 47.3345 125.617 47.3284 124.968 48.2534C124.79 48.5045 124.619 48.6025 124.319 48.4923C123.933 48.3514 123.535 48.2534 123.143 48.1431C122.628 47.9961 122.089 48.4188 122.12 48.9517C122.144 49.3927 122.193 49.8338 122.224 50.2748C122.23 50.3973 122.224 50.6056 122.162 50.6362C121.752 50.8323 121.329 51.0467 120.888 51.1202C120.729 51.1447 120.502 50.7894 120.325 50.5934C120.184 50.4341 120.061 50.2564 119.933 50.0911C119.388 49.3927 118.806 49.4295 118.352 50.1829C118.169 50.4892 117.985 50.8016 117.789 51.1079C117.734 51.1998 117.623 51.3468 117.562 51.3346C117.115 51.2427 116.643 51.1814 116.245 50.9793C116.098 50.9058 116.098 50.4954 116.067 50.232C116.037 49.9747 116.049 49.7113 116.043 49.4479C116.037 48.8353 115.437 48.431 114.879 48.6638C114.499 48.8231 114.132 48.9946 113.746 49.1416C113.623 49.1845 113.409 49.2212 113.354 49.16C113.048 48.8231 112.698 48.4861 112.527 48.0819C112.453 47.9042 112.784 47.5612 112.937 47.2978C113.017 47.1569 113.115 47.0221 113.207 46.8874C113.685 46.189 113.464 45.6377 112.637 45.4417C112.288 45.356 111.933 45.2886 111.583 45.1906C111.485 45.1661 111.326 45.0926 111.32 45.0252C111.271 44.5535 111.191 44.0696 111.265 43.6163C111.289 43.4632 111.706 43.359 111.957 43.2549C112.227 43.1385 112.515 43.0589 112.79 42.9547C113.195 42.8016 113.372 42.1216 113.09 41.797C112.729 41.3743 112.368 40.9578 111.988 40.5167C112.233 40.1369 112.441 39.7633 112.704 39.4325C112.796 39.3222 113.035 39.2487 113.182 39.2732C113.599 39.3529 114.003 39.4938 114.414 39.6101C114.983 39.7694 115.473 39.3529 115.412 38.7648C115.394 38.5994 115.375 38.4402 115.363 38.2748C115.289 37.0558 115.289 37.0435 116.502 36.725C116.643 36.6882 116.876 36.7679 116.98 36.8781C117.286 37.215 117.538 37.6132 117.844 37.9501C117.954 38.0726 118.156 38.14 118.328 38.1767C118.953 38.2993 119.063 37.7541 119.29 37.3865C119.957 36.2962 119.951 36.2839 121.152 36.7434C121.286 36.7924 121.427 36.9945 121.446 37.1415C121.495 37.5826 121.458 38.0297 121.513 38.4647C121.538 38.6545 121.679 38.8506 121.813 39.0098C122.162 39.4202 122.524 39.1385 122.873 38.9976C123.792 38.6178 124.535 38.8628 125.103 39.7327C124.803 40.1798 124.502 40.6086 124.215 41.0435L124.184 41.0252ZM114.665 43.7204C114.518 45.8338 116.312 47.7695 118.567 47.9226C120.723 48.0696 122.652 46.2871 122.799 44.0022C122.934 41.8399 121.158 39.947 118.855 39.8062C116.717 39.6775 114.83 41.4417 114.665 43.7143V43.7204Z" fill="#5A5A5B"/>
<path d="M152.925 50.7651C152.601 50.9856 152.637 51.831 153.017 51.9902C153.55 52.2107 153.63 52.5354 153.403 53.0132C153.348 53.1296 153.317 53.2582 153.274 53.3807C152.84 53.4726 152.38 53.2153 152.031 53.7973C151.682 54.3853 152.141 54.661 152.294 55.1878C152.178 55.2735 151.988 55.3654 151.872 55.5124C151.614 55.8371 151.345 55.88 151.051 55.5921C150.683 55.2245 150.414 55.5553 150.089 55.6778C149.752 55.8065 149.758 56.0637 149.795 56.3149C149.869 56.7498 149.648 56.8846 149.274 56.9581C148.931 57.0255 148.619 57.1541 148.454 56.6763C148.392 56.5048 148.209 56.2843 148.049 56.2598C147.584 56.1801 147.094 56.1556 146.91 56.7743C146.879 56.8785 146.787 56.9581 146.72 57.0622C146.53 57.0071 146.359 56.9581 146.187 56.9091C146.022 56.8601 145.85 56.8049 145.685 56.7559C145.685 56.5109 145.691 56.2965 145.685 56.0821C145.666 55.6778 144.882 55.2062 144.57 55.4512C144.104 55.8187 143.792 55.684 143.492 55.2674C143.418 55.1633 143.314 55.0775 143.216 54.9673C143.314 54.808 143.406 54.6549 143.498 54.5017C143.761 54.0607 143.333 53.2215 142.83 53.2705C142.31 53.3195 142.126 53.0928 142.077 52.6395C142.065 52.4986 142.022 52.3578 141.991 52.2169C142.065 52.1617 142.114 52.1189 142.169 52.0882C142.499 51.9228 142.787 51.8003 142.775 51.2858C142.763 50.8202 142.64 50.5752 142.242 50.3853C141.795 50.1709 142.156 49.8463 142.181 49.5767C142.199 49.344 142.285 49.1479 142.616 49.1847C142.824 49.2092 143.118 49.1908 143.241 49.0683C143.718 48.5905 143.731 48.2903 143.406 47.7084C143.369 47.641 143.339 47.5675 143.296 47.4756C143.565 47.2245 143.823 46.9795 144.08 46.7344C144.496 46.9243 144.778 47.2674 145.342 46.9856C145.967 46.6732 145.715 46.2076 145.807 45.7605C146.15 45.6747 146.5 45.589 146.867 45.4971C146.971 45.687 147.1 45.8462 147.155 46.0239C147.296 46.471 147.669 46.3118 147.97 46.3669C148.276 46.422 148.435 46.2689 148.527 46.0178C148.686 45.5706 148.968 45.4603 149.391 45.6625C149.544 45.736 149.722 45.7727 149.887 45.8217C149.887 46.0545 149.924 46.2566 149.881 46.4465C149.783 46.8876 150.15 46.9366 150.377 47.1265C150.61 47.3225 150.83 47.298 151.039 47.1204C151.437 46.7712 151.755 46.8508 152.043 47.2612C152.135 47.3899 152.251 47.494 152.331 47.5859C152.227 48.0515 151.7 48.2904 152.037 48.9029C152.374 49.5155 152.846 49.2214 153.293 49.3378C153.53 49.9586 153.403 50.4343 152.913 50.7651H152.925ZM144.313 51.3287C144.313 53.2092 145.869 54.7529 147.761 54.7529C149.624 54.7529 151.179 53.2092 151.186 51.3532C151.198 49.4603 149.66 47.9167 147.761 47.9106C145.856 47.9044 144.313 49.4297 144.313 51.3287Z" fill="#5A5A5B"/>
<path d="M159.78 17.9744C159.467 18.103 159.333 17.9376 159.155 17.7661C158.696 17.3128 158.052 17.3067 157.519 17.7661C157.323 17.9376 157.164 18.054 156.882 17.8886C156.619 17.7355 156.625 17.5701 156.656 17.325C156.735 16.6696 156.294 16.106 155.67 15.9468C155.492 15.9039 155.296 15.7324 155.21 15.567C155.075 15.3158 155.228 15.1259 155.473 14.9789C156.019 14.6482 156.178 13.9682 155.927 13.3924C155.859 13.2393 155.872 12.9881 155.951 12.8411C156.062 12.6328 156.239 12.4981 156.558 12.6206C157.195 12.8717 157.746 12.5961 158.077 12.008C158.157 11.8671 158.395 11.7324 158.555 11.7385C158.738 11.7507 158.996 11.8794 159.069 12.0325C159.394 12.7063 159.804 12.9207 160.509 12.8043C160.674 12.7737 160.901 12.9207 161.06 13.0432C161.256 13.2025 161.268 13.3985 161.109 13.6374C160.729 14.2255 160.833 14.7523 161.421 15.1688C161.679 15.3526 161.666 15.5302 161.617 15.7936C161.556 16.0877 161.397 16.1489 161.14 16.1734C160.503 16.2347 160.092 16.7064 160.117 17.3802C160.147 17.6129 160.135 17.8457 159.786 17.9866L159.78 17.9744ZM158.444 13.3189C157.556 13.3128 156.809 14.0601 156.827 14.9483C156.846 15.8243 157.568 16.5287 158.451 16.5226C159.339 16.5165 160.037 15.812 160.031 14.9238C160.031 14.0356 159.326 13.325 158.451 13.3189H158.444Z" fill="#5A5A5B"/>
<path d="M52.355 138.87C52.0426 138.998 51.9078 138.833 51.7302 138.662C51.2708 138.208 50.6276 138.202 50.0946 138.662C49.8986 138.833 49.7394 138.949 49.4576 138.784C49.1942 138.631 49.2003 138.466 49.2309 138.221C49.3106 137.565 48.8695 137.002 48.2447 136.842C48.0671 136.799 47.871 136.628 47.7853 136.462C47.6505 136.211 47.8037 136.021 48.0487 135.874C48.5939 135.544 48.7531 134.864 48.502 134.288C48.4346 134.135 48.4469 133.884 48.5265 133.737C48.6368 133.528 48.8144 133.394 49.1329 133.516C49.77 133.767 50.3213 133.492 50.6521 132.904C50.7317 132.763 50.9706 132.628 51.1299 132.634C51.3136 132.646 51.5709 132.775 51.6444 132.928C51.9691 133.602 52.3795 133.816 53.0839 133.7C53.2493 133.669 53.476 133.816 53.6352 133.939C53.8313 134.098 53.8435 134.294 53.6843 134.533C53.3045 135.121 53.4086 135.648 53.9967 136.064C54.2539 136.248 54.2417 136.426 54.1927 136.689C54.1314 136.983 53.9722 137.044 53.7149 137.069C53.0778 137.13 52.6674 137.602 52.6919 138.276C52.7225 138.508 52.7103 138.741 52.3611 138.882L52.355 138.87ZM51.0196 134.214C50.1314 134.208 49.3841 134.956 49.4025 135.844C49.4208 136.72 50.1437 137.424 51.0257 137.418C51.914 137.412 52.6123 136.708 52.6061 135.819C52.6061 134.931 51.9017 134.221 51.0257 134.214H51.0196Z" fill="#5A5A5B"/>
<path d="M146.457 39.9901C145.96 39.9901 145.464 39.8921 145.005 39.6777C144.815 39.5919 144.729 39.3653 144.821 39.1754C144.913 38.9855 145.14 38.9058 145.323 38.9916C146.45 39.5123 147.884 39.1815 148.576 38.232C148.729 38.0176 148.846 37.7726 148.907 37.5031C148.515 37.4418 148.135 37.3193 147.792 37.1845C147.326 37.0069 146.855 36.7802 146.518 36.3698C146.156 35.9288 145.991 35.206 146.377 34.6669C146.855 34.0115 147.823 34.0605 148.484 34.4831C149.097 34.8752 149.532 35.549 149.679 36.3331C149.703 36.4617 149.722 36.5965 149.728 36.7251C150.371 36.5658 150.916 35.9104 151.051 35.1263C151.118 34.722 151.1 34.281 150.99 33.8093C150.205 33.7971 149.513 33.6501 148.944 33.4663C148.153 33.209 147.645 32.6822 147.59 32.0635C147.553 31.6531 147.737 31.2488 148.092 30.967C148.533 30.6179 149.14 30.5015 149.654 30.673C150.34 30.8997 150.879 31.4816 151.32 32.4556C151.4 32.6393 151.473 32.817 151.541 32.9946C151.749 32.9579 151.957 32.8966 152.153 32.8047C152.233 32.768 152.944 32.4311 153.183 31.6225C153.281 31.2794 153.287 30.9058 153.195 30.4892C151.982 30.673 150.322 30.1707 149.575 29.3621C149.109 28.8598 149.115 28.3882 149.201 28.0819C149.348 27.6225 149.734 27.3346 150.291 27.2611C151.167 27.1324 152.558 27.6102 153.115 28.48C153.354 28.8476 153.544 29.209 153.691 29.552C154.328 29.2641 154.922 28.7189 155.235 28.088C155.455 27.6408 155.639 26.9303 155.247 26.1278C155.155 25.9379 155.235 25.7113 155.418 25.6194C155.608 25.5275 155.835 25.6071 155.927 25.7909C156.343 26.6485 156.343 27.5551 155.915 28.4188C155.51 29.2335 154.757 29.9257 153.93 30.2687C154.065 30.8261 154.058 31.3468 153.918 31.8246C153.581 32.9579 152.582 33.4357 152.472 33.4847C152.239 33.5888 152 33.6623 151.761 33.7113C151.878 34.2504 151.896 34.7588 151.81 35.2366C151.62 36.3392 150.849 37.2274 149.893 37.4479C149.826 37.4663 149.758 37.4786 149.691 37.4847C149.611 37.9135 149.446 38.3116 149.195 38.6547C148.582 39.4939 147.522 39.9656 146.457 39.9656V39.9901ZM147.443 34.9303C147.259 34.9303 147.094 34.9854 147.002 35.1141C146.849 35.3285 146.934 35.6715 147.112 35.8859C147.339 36.1616 147.712 36.3331 148.074 36.474C148.356 36.5842 148.668 36.6884 148.974 36.7435C148.974 36.6577 148.956 36.5658 148.937 36.4801C148.827 35.8982 148.515 35.4081 148.08 35.1263C147.89 35.0038 147.651 34.9303 147.443 34.9303ZM149.176 31.3591C148.968 31.3591 148.741 31.4326 148.576 31.5674C148.466 31.6531 148.337 31.8001 148.356 32.0023C148.386 32.3637 148.821 32.6271 149.189 32.7496C149.636 32.8966 150.187 33.0314 150.757 33.0559C150.72 32.964 150.683 32.8721 150.64 32.7802C150.297 32.0145 149.899 31.5612 149.428 31.4081C149.354 31.3836 149.268 31.3713 149.182 31.3713L149.176 31.3591ZM150.591 28.0084C150.524 28.0084 150.45 28.0084 150.389 28.0206C150.132 28.0574 149.979 28.1493 149.93 28.3024C149.918 28.3514 149.862 28.5536 150.132 28.8476C150.671 29.4295 152 29.8461 152.944 29.7542C152.821 29.4785 152.662 29.1967 152.472 28.8966C152.16 28.4127 151.277 28.0084 150.591 28.0084Z" fill="#5A5A5B"/>
</svg>
