<svg width="20" height="20" viewBox="0 0 20 20" fill="none" xmlns="http://www.w3.org/2000/svg">
<path d="M10 20C15.514 20 20 15.514 20 10C20 4.48598 15.514 0 10 0C4.48598 0 0 4.48598 0 10C0 15.514 4.48598 20 10 20ZM4.84172 17.4468C4.81892 17.2479 4.80749 17.0478 4.80746 16.8475C4.80746 13.9844 7.13672 11.655 10 11.655C12.8633 11.655 15.1925 13.9844 15.1925 16.8477C15.1925 17.0479 15.1811 17.248 15.1583 17.447C13.6438 18.4989 11.844 19.0626 10.0001 19.0626C8.15617 19.0626 6.35633 18.4989 4.84188 17.447L4.84172 17.4468ZM7.20988 7.86242C7.20984 7.31058 7.37345 6.77112 7.68001 6.31226C7.98657 5.8534 8.42231 5.49576 8.93213 5.28455C9.44196 5.07334 10.003 5.01806 10.5442 5.1257C11.0854 5.23333 11.5826 5.49905 11.9728 5.88925C12.3631 6.27944 12.6288 6.77659 12.7365 7.31783C12.8442 7.85906 12.7889 8.42007 12.5778 8.92991C12.3666 9.43975 12.009 9.87552 11.5501 10.1821C11.0913 10.4887 10.5518 10.6523 10 10.6523C9.26031 10.6515 8.55114 10.3573 8.02808 9.83428C7.50502 9.31126 7.21077 8.60212 7.20988 7.86242ZM10 0.9375C14.9971 0.9375 19.0625 5.00293 19.0625 10C19.063 11.2547 18.8023 12.4959 18.2969 13.6444C17.7916 14.7928 17.0527 15.8236 16.1273 16.6709C16.0528 14.0498 14.3252 11.8357 11.9525 11.0364C12.644 10.6112 13.1778 9.97194 13.4728 9.2157C13.7678 8.45946 13.8078 7.62759 13.5869 6.8465C13.366 6.06541 12.8961 5.37779 12.2487 4.88811C11.6013 4.39843 10.8117 4.13346 10 4.13346C9.18826 4.13346 8.39871 4.39843 7.75131 4.88811C7.10391 5.37779 6.63405 6.06541 6.41311 6.8465C6.19217 7.62759 6.23224 8.45946 6.52723 9.2157C6.82221 9.97194 7.35599 10.6112 8.04746 11.0364C5.67484 11.8357 3.94723 14.05 3.8727 16.6709C2.94728 15.8236 2.20839 14.7928 1.70305 13.6444C1.19772 12.4959 0.937001 11.2547 0.9375 10C0.9375 5.00293 5.00293 0.9375 10 0.9375Z" fill="#828282"/>
</svg>
