<svg width="20" height="21" viewBox="0 0 20 21" fill="none" xmlns="http://www.w3.org/2000/svg">
<g id="write 1">
<path id="Vector" d="M18.2625 6.60856L17.35 7.52106C16.7562 6.93536 13.3438 3.51481 13.3438 3.51481L14.2562 2.60231C14.5745 2.29845 14.9975 2.12891 15.4375 2.12891C15.8775 2.12891 16.3005 2.29845 16.6187 2.60231L18.2625 4.24606C18.5747 4.55991 18.75 4.9846 18.75 5.42731C18.75 5.87002 18.5747 6.29472 18.2625 6.60856ZM12.4563 4.40231L6.55625 10.3023C6.26727 10.5912 6.04721 10.9416 5.9125 11.3273L4.6375 14.9648C4.57819 15.1413 4.56943 15.3309 4.61221 15.5121C4.65499 15.6933 4.74761 15.8589 4.87959 15.9903C5.01158 16.1216 5.17767 16.2134 5.3591 16.2553C5.54052 16.2972 5.73005 16.2875 5.90625 16.2273L9.5375 14.9523C9.92095 14.8166 10.2691 14.5966 10.5562 14.3086L16.4625 8.40856C15.8848 7.83081 12.4563 4.40231 12.4563 4.40231ZM14.0747 17.2779C14.0747 17.1958 14.0586 17.1145 14.0272 17.0387C13.9958 16.9628 13.9497 16.8939 13.8917 16.8359C13.8337 16.7778 13.7648 16.7318 13.6889 16.7004C13.6131 16.669 13.5318 16.6528 13.4497 16.6529H1.875C1.70924 16.6529 1.55027 16.7187 1.43306 16.8359C1.31585 16.9531 1.25 17.1121 1.25 17.2779C1.25 17.4436 1.31585 17.6026 1.43306 17.7198C1.55027 17.837 1.70924 17.9029 1.875 17.9029H13.4497C13.5318 17.9029 13.6131 17.8867 13.6889 17.8553C13.7648 17.8239 13.8337 17.7779 13.8917 17.7199C13.9497 17.6618 13.9958 17.5929 14.0272 17.5171C14.0586 17.4412 14.0747 17.36 14.0747 17.2779Z" fill="#00B6AA"/>
</g>
</svg>
