<svg width="18" height="18" viewBox="0 0 18 18" fill="none" xmlns="http://www.w3.org/2000/svg">
<g id="location 1" clip-path="url(#clip0_792_6967)">
<g id="InterfaceIcon">
<g id="04.Location">
<path id="Background" d="M9 18C13.9706 18 18 13.9706 18 9C18 4.02944 13.9706 0 9 0C4.02944 0 0 4.02944 0 9C0 13.9706 4.02944 18 9 18Z" fill="#41A5EE"/>
<path id="04.Location_2" d="M8.99998 3.72656C6.81221 3.72656 5.03857 5.5002 5.03857 7.68797C5.03857 9.1023 6.69408 11.8758 7.86443 13.6603C8.40057 14.4777 9.59904 14.4777 10.1352 13.6603C11.3059 11.8758 12.961 9.1023 12.961 7.68797C12.961 5.5002 11.1874 3.72656 8.99963 3.72656H8.99998ZM8.99998 9.39059C8.05955 9.39059 7.29736 8.6284 7.29736 7.68797C7.29736 6.74754 8.05955 5.98535 8.99998 5.98535C9.94041 5.98535 10.7026 6.74754 10.7026 7.68797C10.7026 8.6284 9.94041 9.39059 8.99998 9.39059Z" fill="white"/>
</g>
</g>
</g>
<defs>
<clipPath id="clip0_792_6967">
<rect width="18" height="18" fill="white"/>
</clipPath>
</defs>
</svg>
