<svg width="30" height="30" viewBox="0 0 30 30" fill="none" xmlns="http://www.w3.org/2000/svg">
<g id="power 1">
<g id="Group">
<path id="Vector" d="M15 17.5C14.6685 17.5 14.3505 17.3683 14.1161 17.1339C13.8817 16.8995 13.75 16.5815 13.75 16.25V6.25C13.75 5.91848 13.8817 5.60054 14.1161 5.36612C14.3505 5.1317 14.6685 5 15 5C15.3315 5 15.6495 5.1317 15.8839 5.36612C16.1183 5.60054 16.25 5.91848 16.25 6.25V16.25C16.25 16.5815 16.1183 16.8995 15.8839 17.1339C15.6495 17.3683 15.3315 17.5 15 17.5Z" fill="#D53547"/>
<path id="Vector_2" d="M15 26.25C12.873 26.2477 10.8021 25.5672 9.08832 24.3074C7.37451 23.0476 6.10704 21.2741 5.47007 19.2447C4.83309 17.2153 4.8598 15.0357 5.5463 13.0225C6.2328 11.0093 7.54334 9.26746 9.2875 8.05004C9.42156 7.94612 9.57537 7.87057 9.73956 7.82799C9.90375 7.78541 10.0749 7.77669 10.2426 7.80237C10.4102 7.82805 10.5709 7.88758 10.7148 7.97734C10.8588 8.06711 10.9829 8.18522 11.0797 8.3245C11.1765 8.46378 11.244 8.6213 11.278 8.78748C11.312 8.95367 11.3118 9.12503 11.2774 9.29113C11.2431 9.45724 11.1753 9.61462 11.0782 9.75368C10.981 9.89275 10.8566 10.0106 10.7125 10.1C9.40258 11.0127 8.41807 12.3196 7.90225 13.8305C7.38642 15.3414 7.36619 16.9775 7.8445 18.5006C8.32281 20.0238 9.2747 21.3546 10.5617 22.2994C11.8486 23.2442 13.4035 23.7537 15 23.7537C16.5965 23.7537 18.1514 23.2442 19.4383 22.2994C20.7253 21.3546 21.6772 20.0238 22.1555 18.5006C22.6338 16.9775 22.6136 15.3414 22.0978 13.8305C21.5819 12.3196 20.5974 11.0127 19.2875 10.1C19.0344 9.90381 18.8662 9.61792 18.8177 9.30133C18.7693 8.98475 18.8441 8.66163 19.0269 8.39865C19.2098 8.13566 19.4865 7.95288 19.8002 7.88802C20.1138 7.82315 20.4404 7.88114 20.7125 8.05004C22.4567 9.26746 23.7672 11.0093 24.4537 13.0225C25.1402 15.0357 25.1669 17.2153 24.5299 19.2447C23.893 21.2741 22.6255 23.0476 20.9117 24.3074C19.1979 25.5672 17.127 26.2477 15 26.25Z" fill="#D53547"/>
</g>
</g>
</svg>
