<svg width="30" height="30" viewBox="0 0 30 30" fill="none" xmlns="http://www.w3.org/2000/svg">
<g id="vuesax/linear/setting">
<g id="setting">
<path id="Vector" d="M3.75 11.3875V18.6C3.75 21.25 3.75 21.25 6.25 22.9375L13.125 26.9125C14.1625 27.5125 15.85 27.5125 16.875 26.9125L23.75 22.9375C26.25 21.25 26.25 21.25 26.25 18.6125V11.3875C26.25 8.75001 26.25 8.75001 23.75 7.06251L16.875 3.08751C15.85 2.48751 14.1625 2.48751 13.125 3.08751L6.25 7.06251C3.75 8.75001 3.75 8.75001 3.75 11.3875Z" stroke="#333333" stroke-width="1.5" stroke-linecap="round" stroke-linejoin="round"/>
<path id="Vector_2" d="M15 18.75C17.0711 18.75 18.75 17.0711 18.75 15C18.75 12.9289 17.0711 11.25 15 11.25C12.9289 11.25 11.25 12.9289 11.25 15C11.25 17.0711 12.9289 18.75 15 18.75Z" stroke="#333333" stroke-width="1.5" stroke-linecap="round" stroke-linejoin="round"/>
</g>
</g>
</svg>
