<svg width="16" height="16" viewBox="0 0 16 16" fill="none" xmlns="http://www.w3.org/2000/svg">
<g id="vuesax/bold/star">
<path id="Vector" d="M9.20995 1.8345L10.5375 4.48957C10.7164 4.85676 11.1965 5.20513 11.6014 5.28045L14.0023 5.67588C15.5369 5.93009 15.8947 7.04108 14.7931 8.15207L12.9195 10.0257C12.6088 10.3364 12.4299 10.9484 12.5335 11.3909L13.0702 13.707C13.4938 15.5336 12.5147 16.2491 10.9047 15.2888L8.65445 13.9518C8.2496 13.707 7.57171 13.707 7.16686 13.9518L4.91664 15.2888C3.30664 16.2397 2.32747 15.5336 2.75115 13.707L3.28781 11.3909C3.37255 10.939 3.19366 10.327 2.88296 10.0163L1.00935 8.14265C-0.0922282 7.04108 0.265548 5.93009 1.80022 5.66647L4.20108 5.27103C4.60594 5.20512 5.08611 4.84735 5.265 4.48016L6.59253 1.82508C7.3175 0.39398 8.48498 0.39398 9.20995 1.8345Z" fill="#FBFDFF"/>
</g>
</svg>
