<svg width="24" height="25" viewBox="0 0 24 25" fill="none" xmlns="http://www.w3.org/2000/svg">
<g id="vuesax/bold/wallet-money">
<g id="wallet-money">
<path id="Vector" d="M20.97 16.58C20.73 19.25 18.8 21 16 21H7C4.24 21 2 18.76 2 16V9C2 6.28 3.64 4.38 6.19 4.06C6.45 4.02 6.72 4 7 4H16C16.26 4 16.51 4.01 16.75 4.05C19.14 4.33 20.76 6 20.97 8.42C21 8.71 20.76 8.95 20.47 8.95H18.92C17.96 8.95 17.07 9.32 16.43 9.98C15.67 10.72 15.29 11.76 15.38 12.8C15.54 14.62 17.14 16.05 19.04 16.05H20.47C20.76 16.05 21 16.29 20.97 16.58Z" fill="#CBD2E4"/>
<path id="Vector_2" d="M22 11.47V13.53C22 14.08 21.56 14.53 21 14.55H19.04C17.96 14.55 16.97 13.76 16.88 12.68C16.82 12.05 17.06 11.46 17.48 11.05C17.85 10.67 18.36 10.45 18.92 10.45H21C21.56 10.47 22 10.92 22 11.47Z" fill="#CBD2E4"/>
</g>
</g>
</svg>
