<svg width="329" height="65" viewBox="0 0 329 65" fill="none" xmlns="http://www.w3.org/2000/svg">
<rect y="7" width="329" height="58" rx="10" fill="#37B9C5"/>
<path d="M233.959 37.16C233.83 37.2855 233.77 37.467 233.8 37.645L234.244 40.105C234.282 40.3135 234.194 40.5245 234.019 40.645C233.848 40.77 233.621 40.785 233.434 40.685L231.22 39.53C231.143 39.489 231.057 39.467 230.97 39.4645H230.834C230.787 39.4715 230.741 39.4865 230.699 39.5095L228.484 40.67C228.375 40.725 228.251 40.7445 228.129 40.725C227.833 40.669 227.636 40.387 227.684 40.0895L228.129 37.6295C228.159 37.45 228.099 37.2675 227.97 37.14L226.164 35.39C226.013 35.2435 225.961 35.0235 226.03 34.825C226.097 34.627 226.268 34.4825 226.474 34.45L228.959 34.0895C229.148 34.07 229.314 33.955 229.399 33.785L230.494 31.54C230.52 31.49 230.554 31.444 230.594 31.405L230.639 31.37C230.663 31.344 230.69 31.3225 230.72 31.305L230.774 31.285L230.859 31.25H231.07C231.258 31.2695 231.423 31.382 231.51 31.55L232.619 33.785C232.699 33.9485 232.855 34.062 233.034 34.0895L235.519 34.45C235.729 34.48 235.905 34.625 235.974 34.825C236.04 35.0255 235.983 35.2455 235.829 35.39L233.959 37.16Z" fill="#FFC618"/>
<path d="M249.959 37.16C249.83 37.2855 249.77 37.467 249.8 37.645L250.244 40.105C250.282 40.3135 250.194 40.5245 250.019 40.645C249.848 40.77 249.621 40.785 249.434 40.685L247.22 39.53C247.143 39.489 247.057 39.467 246.97 39.4645H246.834C246.787 39.4715 246.741 39.4865 246.699 39.5095L244.484 40.67C244.375 40.725 244.251 40.7445 244.129 40.725C243.833 40.669 243.636 40.387 243.684 40.0895L244.129 37.6295C244.159 37.45 244.099 37.2675 243.97 37.14L242.164 35.39C242.013 35.2435 241.961 35.0235 242.03 34.825C242.097 34.627 242.268 34.4825 242.474 34.45L244.959 34.0895C245.148 34.07 245.314 33.955 245.399 33.785L246.494 31.54C246.52 31.49 246.554 31.444 246.594 31.405L246.639 31.37C246.663 31.344 246.69 31.3225 246.72 31.305L246.774 31.285L246.859 31.25H247.07C247.258 31.2695 247.423 31.382 247.51 31.55L248.619 33.785C248.699 33.9485 248.855 34.062 249.034 34.0895L251.519 34.45C251.729 34.48 251.905 34.625 251.974 34.825C252.04 35.0255 251.983 35.2455 251.829 35.39L249.959 37.16Z" fill="#FFC618"/>
<path d="M265.959 37.16C265.83 37.2855 265.77 37.467 265.8 37.645L266.244 40.105C266.282 40.3135 266.194 40.5245 266.019 40.645C265.848 40.77 265.621 40.785 265.434 40.685L263.22 39.53C263.143 39.489 263.057 39.467 262.97 39.4645H262.834C262.787 39.4715 262.741 39.4865 262.699 39.5095L260.484 40.67C260.375 40.725 260.251 40.7445 260.129 40.725C259.833 40.669 259.636 40.387 259.684 40.0895L260.129 37.6295C260.159 37.45 260.099 37.2675 259.97 37.14L258.164 35.39C258.013 35.2435 257.961 35.0235 258.03 34.825C258.097 34.627 258.268 34.4825 258.474 34.45L260.959 34.0895C261.148 34.07 261.314 33.955 261.399 33.785L262.494 31.54C262.52 31.49 262.554 31.444 262.594 31.405L262.639 31.37C262.663 31.344 262.69 31.3225 262.72 31.305L262.774 31.285L262.859 31.25H263.07C263.258 31.2695 263.423 31.382 263.51 31.55L264.619 33.785C264.699 33.9485 264.855 34.062 265.034 34.0895L267.519 34.45C267.729 34.48 267.905 34.625 267.974 34.825C268.04 35.0255 267.983 35.2455 267.829 35.39L265.959 37.16Z" fill="#FFC618"/>
<path d="M281.959 37.16C281.83 37.2855 281.77 37.467 281.8 37.645L282.244 40.105C282.282 40.3135 282.194 40.5245 282.019 40.645C281.848 40.77 281.621 40.785 281.434 40.685L279.22 39.53C279.143 39.489 279.057 39.467 278.97 39.4645H278.834C278.787 39.4715 278.741 39.4865 278.699 39.5095L276.484 40.67C276.375 40.725 276.251 40.7445 276.129 40.725C275.833 40.669 275.636 40.387 275.684 40.0895L276.129 37.6295C276.159 37.45 276.099 37.2675 275.97 37.14L274.164 35.39C274.013 35.2435 273.961 35.0235 274.03 34.825C274.097 34.627 274.268 34.4825 274.474 34.45L276.959 34.0895C277.148 34.07 277.314 33.955 277.399 33.785L278.494 31.54C278.52 31.49 278.554 31.444 278.594 31.405L278.639 31.37C278.663 31.344 278.69 31.3225 278.72 31.305L278.774 31.285L278.859 31.25H279.07C279.258 31.2695 279.423 31.382 279.51 31.55L280.619 33.785C280.699 33.9485 280.855 34.062 281.034 34.0895L283.519 34.45C283.729 34.48 283.905 34.625 283.974 34.825C284.04 35.0255 283.983 35.2455 283.829 35.39L281.959 37.16Z" fill="#FFC618"/>
<path d="M295.488 31.5568L296.601 33.7939C296.683 33.956 296.84 34.0686 297.02 34.0936L299.521 34.4578C299.667 34.4783 299.8 34.5553 299.889 34.6729C299.978 34.789 300.016 34.936 299.994 35.0806C299.977 35.2007 299.92 35.3117 299.834 35.3968L298.022 37.1532C297.889 37.2757 297.829 37.4573 297.861 37.6349L298.307 40.1042C298.355 40.4023 298.157 40.6834 297.861 40.74C297.739 40.7595 297.614 40.739 297.504 40.6829L295.274 39.5209C295.108 39.4373 294.913 39.4373 294.747 39.5209L292.517 40.6829C292.242 40.8285 291.903 40.7295 291.75 40.4593C291.694 40.3518 291.674 40.2292 291.692 40.1097L292.138 37.6399C292.17 37.4628 292.11 37.2802 291.978 37.1577L290.166 35.4023C289.95 35.1942 289.944 34.8515 290.152 34.6359C290.156 34.6314 290.161 34.6264 290.166 34.6214C290.252 34.5338 290.365 34.4783 290.487 34.4638L292.988 34.0991C293.168 34.0736 293.324 33.962 293.407 33.7989L294.48 31.5568C294.575 31.3647 294.773 31.2451 294.989 31.2502H295.056C295.242 31.2727 295.405 31.3882 295.488 31.5568" fill="#FFC618"/>
<path d="M294.996 39.4586C294.899 39.4616 294.805 39.4876 294.72 39.5341L292.5 40.6936C292.229 40.8232 291.904 40.7226 291.752 40.4629C291.695 40.3568 291.675 40.2352 291.694 40.1161L292.137 37.6516C292.167 37.4724 292.107 37.2903 291.977 37.1642L290.164 35.4092C289.949 35.1986 289.945 34.8528 290.155 34.6371C290.158 34.6341 290.161 34.6316 290.164 34.6291C290.25 34.544 290.361 34.488 290.48 34.4705L292.983 34.1022C293.164 34.0791 293.321 33.9661 293.401 33.8019L294.489 31.5316C294.592 31.3484 294.79 31.2393 295 31.2508C294.996 31.3995 294.996 39.3575 294.996 39.4586" fill="#FFC618"/>
<path d="M198.398 17.9001C198.074 18.2139 197.926 18.6676 197.999 19.1126L199.111 25.2626C199.204 25.7839 198.984 26.3114 198.548 26.6126C198.121 26.9251 197.552 26.9626 197.086 26.7126L191.549 23.8251C191.357 23.7226 191.143 23.6676 190.924 23.6614H190.586C190.468 23.6789 190.353 23.7164 190.248 23.7739L184.711 26.6751C184.437 26.8126 184.127 26.8614 183.823 26.8126C183.083 26.6726 182.589 25.9676 182.711 25.2239L183.823 19.0739C183.897 18.6251 183.748 18.1689 183.424 17.8501L178.911 13.4751C178.533 13.1089 178.402 12.5589 178.574 12.0626C178.742 11.5676 179.169 11.2064 179.686 11.1251L185.898 10.2239C186.371 10.1751 186.786 9.88762 186.998 9.46262L189.736 3.85012C189.801 3.72512 189.884 3.61012 189.986 3.51262L190.098 3.42512C190.157 3.36012 190.224 3.30637 190.299 3.26262L190.436 3.21262L190.648 3.12512H191.174C191.644 3.17387 192.058 3.45512 192.274 3.87512L195.048 9.46262C195.248 9.87137 195.637 10.1551 196.086 10.2239L202.298 11.1251C202.823 11.2001 203.262 11.5626 203.436 12.0626C203.599 12.5639 203.458 13.1139 203.073 13.4751L198.398 17.9001Z" fill="#299099"/>
<path d="M57.4525 55.3534C57.3014 55.4998 57.232 55.7115 57.2664 55.9192L57.785 58.7892C57.8288 59.0325 57.7261 59.2786 57.5225 59.4192C57.323 59.565 57.0576 59.5825 56.84 59.4659L54.2564 58.1184C54.1666 58.0705 54.0668 58.0449 53.9648 58.042H53.8067C53.7518 58.0501 53.6982 58.0676 53.6492 58.0945L51.065 59.4484C50.9373 59.5125 50.7926 59.5353 50.6508 59.5125C50.3055 59.4472 50.0751 59.1182 50.1317 58.7711L50.6508 55.9011C50.6853 55.6917 50.6158 55.4788 50.4648 55.33L48.3583 53.2884C48.1822 53.1175 48.1209 52.8608 48.2014 52.6292C48.2796 52.3982 48.4791 52.2296 48.72 52.1917L51.6192 51.7711C51.8397 51.7484 52.0333 51.6142 52.1325 51.4159L53.41 48.7967C53.4403 48.7384 53.4794 48.6847 53.5267 48.6392L53.5792 48.5984C53.6066 48.568 53.6381 48.543 53.6731 48.5225L53.7367 48.4992L53.8358 48.4584H54.0814C54.3008 48.4811 54.4938 48.6124 54.5948 48.8084L55.8892 51.4159C55.9825 51.6066 56.1639 51.739 56.3733 51.7711L59.2725 52.1917C59.5175 52.2267 59.7223 52.3959 59.8033 52.6292C59.8798 52.8631 59.8138 53.1198 59.6342 53.2884L57.4525 55.3534Z" fill="#299099"/>
<path d="M144.453 18.3534C144.301 18.4998 144.232 18.7115 144.266 18.9192L144.785 21.7892C144.829 22.0325 144.726 22.2786 144.523 22.4192C144.323 22.565 144.058 22.5825 143.84 22.4659L141.256 21.1184C141.167 21.0705 141.067 21.0449 140.965 21.042H140.807C140.752 21.0501 140.698 21.0676 140.649 21.0945L138.065 22.4484C137.937 22.5125 137.793 22.5353 137.651 22.5125C137.306 22.4472 137.075 22.1182 137.132 21.7711L137.651 18.9011C137.685 18.6917 137.616 18.4788 137.465 18.33L135.358 16.2884C135.182 16.1175 135.121 15.8608 135.201 15.6292C135.28 15.3982 135.479 15.2296 135.72 15.1917L138.619 14.7711C138.84 14.7484 139.033 14.6142 139.133 14.4159L140.41 11.7967C140.44 11.7384 140.479 11.6847 140.527 11.6392L140.579 11.5984C140.607 11.568 140.638 11.543 140.673 11.5225L140.737 11.4992L140.836 11.4584H141.081C141.301 11.4811 141.494 11.6124 141.595 11.8084L142.889 14.4159C142.983 14.6066 143.164 14.739 143.373 14.7711L146.273 15.1917C146.518 15.2267 146.722 15.3959 146.803 15.6292C146.88 15.8631 146.814 16.1198 146.634 16.2884L144.453 18.3534Z" fill="#299099"/>
<path d="M102.706 21.7567C102.565 21.8927 102.501 22.0893 102.533 22.2822L103.014 24.9472C103.055 25.173 102.96 25.4016 102.771 25.5322C102.585 25.6676 102.339 25.6838 102.137 25.5755L99.7379 24.3242C99.6545 24.2798 99.5619 24.256 99.4671 24.2533H99.3203C99.2694 24.2609 99.2196 24.2771 99.1741 24.302L96.7745 25.5592C96.6559 25.6188 96.5215 25.64 96.3899 25.6188C96.0692 25.5582 95.8553 25.2527 95.9078 24.9304L96.3899 22.2654C96.4219 22.0709 96.3574 21.8732 96.2171 21.7351L94.2611 19.8392C94.0976 19.6805 94.0407 19.4422 94.1154 19.2272C94.188 19.0127 94.3733 18.8561 94.597 18.8209L97.2891 18.4304C97.4938 18.4092 97.6736 18.2847 97.7657 18.1005L98.952 15.6684C98.9801 15.6142 99.0164 15.5644 99.0603 15.5222L99.1091 15.4842C99.1345 15.4561 99.1638 15.4328 99.1963 15.4138L99.2553 15.3922L99.3474 15.3542H99.5754C99.7791 15.3754 99.9584 15.4972 100.052 15.6792L101.254 18.1005C101.341 18.2776 101.509 18.4006 101.704 18.4304L104.396 18.8209C104.623 18.8534 104.813 19.0105 104.889 19.2272C104.96 19.4444 104.898 19.6827 104.732 19.8392L102.706 21.7567Z" fill="#299099"/>
<path d="M38.4253 21.1267C38.1879 21.3568 38.0788 21.6896 38.1329 22.0159L38.9478 26.5259C39.0166 26.9082 38.8552 27.295 38.5353 27.5159C38.2218 27.7451 37.8047 27.7726 37.4628 27.5892L33.4029 25.4717C33.2617 25.3966 33.105 25.3562 32.9446 25.3517H32.6961C32.61 25.3645 32.5256 25.392 32.4486 25.4342L28.3878 27.5617C28.1871 27.6626 27.9597 27.6983 27.737 27.6626C27.1943 27.5599 26.8322 27.0429 26.9211 26.4975L27.737 21.9875C27.7911 21.6584 27.682 21.3238 27.4446 21.0901L24.1345 17.8817C23.8576 17.6132 23.7614 17.2098 23.8879 16.8459C24.0107 16.4829 24.3242 16.218 24.7028 16.1584L29.2586 15.4975C29.6051 15.4617 29.9095 15.2509 30.0653 14.9392L32.0728 10.8234C32.1205 10.7317 32.1819 10.6474 32.2561 10.5759L32.3386 10.5117C32.3817 10.4641 32.4312 10.4247 32.4862 10.3926L32.5861 10.3559L32.742 10.2917H33.1279C33.4726 10.3275 33.776 10.5337 33.9346 10.8417L35.9686 14.9392C36.1153 15.239 36.4004 15.4471 36.7295 15.4975L41.2853 16.1584C41.6703 16.2134 41.9921 16.4792 42.1195 16.8459C42.2396 17.2135 42.136 17.6168 41.8536 17.8817L38.4253 21.1267Z" fill="#299099"/>
<path d="M275.706 16.7567C275.565 16.8927 275.501 17.0893 275.533 17.2822L276.014 19.9472C276.055 20.173 275.96 20.4016 275.771 20.5322C275.585 20.6676 275.339 20.6838 275.137 20.5755L272.738 19.3242C272.655 19.2798 272.562 19.256 272.467 19.2533H272.32C272.269 19.2609 272.22 19.2771 272.174 19.302L269.774 20.5592C269.656 20.6188 269.522 20.64 269.39 20.6188C269.069 20.5582 268.855 20.2527 268.908 19.9304L269.39 17.2654C269.422 17.0709 269.357 16.8732 269.217 16.7351L267.261 14.8392C267.098 14.6805 267.041 14.4422 267.115 14.2272C267.188 14.0127 267.373 13.8561 267.597 13.8209L270.289 13.4304C270.494 13.4092 270.674 13.2847 270.766 13.1005L271.952 10.6684C271.98 10.6142 272.016 10.5644 272.06 10.5222L272.109 10.4842C272.135 10.4561 272.164 10.4328 272.196 10.4138L272.255 10.3922L272.347 10.3542H272.575C272.779 10.3754 272.958 10.4972 273.052 10.6792L274.254 13.1005C274.341 13.2776 274.509 13.4006 274.704 13.4304L277.396 13.8209C277.623 13.8534 277.813 14.0105 277.889 14.2272C277.96 14.4444 277.898 14.6827 277.732 14.8392L275.706 16.7567Z" fill="#299099"/>
<path d="M189.946 58.5467C189.773 58.7141 189.694 58.9561 189.733 59.1934L190.326 62.4734C190.376 62.7514 190.258 63.0327 190.026 63.1934C189.798 63.3601 189.494 63.3801 189.246 63.2467L186.293 61.7067C186.19 61.6521 186.076 61.6227 185.96 61.6194H185.779C185.716 61.6287 185.655 61.6487 185.599 61.6794L182.646 63.2267C182.5 63.3001 182.334 63.3261 182.172 63.3001C181.778 63.2254 181.514 62.8494 181.579 62.4527L182.172 59.1727C182.212 58.9334 182.132 58.6901 181.96 58.5201L179.552 56.1867C179.351 55.9914 179.281 55.6981 179.373 55.4334C179.462 55.1694 179.69 54.9767 179.966 54.9334L183.279 54.4527C183.531 54.4267 183.752 54.2734 183.866 54.0467L185.326 51.0534C185.36 50.9867 185.405 50.9254 185.459 50.8734L185.519 50.8267C185.55 50.7921 185.586 50.7634 185.626 50.7401L185.699 50.7134L185.812 50.6667H186.093C186.344 50.6927 186.564 50.8427 186.68 51.0667L188.159 54.0467C188.266 54.2647 188.473 54.4161 188.712 54.4527L192.026 54.9334C192.306 54.9734 192.54 55.1667 192.632 55.4334C192.72 55.7007 192.644 55.9941 192.439 56.1867L189.946 58.5467Z" fill="#299099"/>
<path d="M317.706 53.7567C317.565 53.8927 317.501 54.0893 317.533 54.2822L318.014 56.9472C318.055 57.173 317.96 57.4016 317.771 57.5322C317.585 57.6676 317.339 57.6838 317.137 57.5755L314.738 56.3242C314.655 56.2798 314.562 56.256 314.467 56.2533H314.32C314.269 56.2609 314.22 56.2771 314.174 56.302L311.774 57.5592C311.656 57.6188 311.522 57.64 311.39 57.6188C311.069 57.5582 310.855 57.2527 310.908 56.9304L311.39 54.2654C311.422 54.0709 311.357 53.8732 311.217 53.7351L309.261 51.8392C309.098 51.6805 309.041 51.4422 309.115 51.2272C309.188 51.0127 309.373 50.8561 309.597 50.8209L312.289 50.4304C312.494 50.4092 312.674 50.2847 312.766 50.1005L313.952 47.6684C313.98 47.6142 314.016 47.5644 314.06 47.5222L314.109 47.4842C314.135 47.4561 314.164 47.4328 314.196 47.4138L314.255 47.3922L314.347 47.3542H314.575C314.779 47.3754 314.958 47.4972 315.052 47.6792L316.254 50.1005C316.341 50.2776 316.509 50.4006 316.704 50.4304L319.396 50.8209C319.623 50.8534 319.813 51.0105 319.889 51.2272C319.96 51.4444 319.898 51.6827 319.732 51.8392L317.706 53.7567Z" fill="#299099"/>
<path d="M317.692 20.1434C317.509 20.3212 317.425 20.5783 317.466 20.8305L318.096 24.3155C318.149 24.6108 318.025 24.9098 317.777 25.0805C317.535 25.2575 317.213 25.2788 316.949 25.1371L313.811 23.5009C313.702 23.4428 313.581 23.4116 313.457 23.4081H313.265C313.199 23.418 313.134 23.4392 313.074 23.4718L309.936 25.1159C309.781 25.1938 309.605 25.2214 309.433 25.1938C309.014 25.1145 308.734 24.715 308.803 24.2935L309.433 20.8085C309.475 20.5542 309.391 20.2957 309.207 20.115L306.649 17.6359C306.436 17.4283 306.361 17.1167 306.459 16.8355C306.554 16.555 306.796 16.3502 307.089 16.3042L310.609 15.7935C310.877 15.7659 311.112 15.603 311.232 15.3621L312.784 12.1817C312.82 12.1109 312.868 12.0457 312.925 11.9905L312.989 11.9409C313.022 11.904 313.061 11.8736 313.103 11.8488L313.18 11.8205L313.301 11.7709H313.599C313.865 11.7985 314.1 11.9579 314.222 12.1959L315.794 15.3621C315.907 15.5937 316.128 15.7545 316.382 15.7935L319.902 16.3042C320.2 16.3467 320.448 16.5521 320.547 16.8355C320.64 17.1195 320.56 17.4312 320.342 17.6359L317.692 20.1434Z" fill="#299099"/>
</svg>
