<svg width="40" height="40" viewBox="0 0 40 40" fill="none" xmlns="http://www.w3.org/2000/svg">
<path d="M16.1601 22.08C16.0401 22.08 13.4001 22.08 12.2001 22.08C11.5601 22.08 11.3601 21.84 11.3601 21.24C11.3601 19.64 11.3601 18 11.3601 16.4C11.3601 15.76 11.6001 15.56 12.2001 15.56H16.1601C16.1601 15.44 16.1601 13.12 16.1601 12.04C16.1601 10.44 16.4401 8.91998 17.2401 7.51998C18.0801 6.07998 19.2801 5.11998 20.8001 4.55998C21.8001 4.19998 22.8001 4.03998 23.8801 4.03998H27.8001C28.3601 4.03998 28.6001 4.27998 28.6001 4.83998V9.39998C28.6001 9.95998 28.3601 10.2 27.8001 10.2C26.7201 10.2 25.6401 10.2 24.5601 10.24C23.4801 10.24 22.9201 10.76 22.9201 11.88C22.8801 13.08 22.9201 14.24 22.9201 15.48H27.5601C28.2001 15.48 28.4401 15.72 28.4401 16.36V21.2C28.4401 21.84 28.2401 22.04 27.5601 22.04C26.1201 22.04 23.0401 22.04 22.9201 22.04V35.08C22.9201 35.76 22.7201 36 22.0001 36C20.3201 36 18.6801 36 17.0001 36C16.4001 36 16.1601 35.76 16.1601 35.16C16.1601 30.96 16.1601 22.2 16.1601 22.08Z" fill="#C0E8F4"/>
</svg>
