<svg width="40" height="40" viewBox="0 0 40 40" fill="none" xmlns="http://www.w3.org/2000/svg">
<g clip-path="url(#clip0_258_2185)">
<path d="M39.2159 29.253C33.8682 28.3729 31.458 22.8952 31.3605 22.6626C31.353 22.6476 31.348 22.6326 31.338 22.6176C31.0655 22.0626 31.0005 21.6051 31.1505 21.2576C31.443 20.5726 32.5631 20.2175 33.3031 19.9825C33.5181 19.915 33.7206 19.85 33.8882 19.785C34.6182 19.4975 35.1382 19.185 35.4832 18.8325C35.8932 18.41 35.9733 18.0049 35.9683 17.7424C35.9558 17.1024 35.4657 16.5324 34.6832 16.2548C34.4207 16.1473 34.1182 16.0898 33.8131 16.0898C33.6056 16.0898 33.2956 16.1173 33.0031 16.2548C32.3781 16.5474 31.8181 16.7074 31.3355 16.7299C31.0805 16.7174 30.9005 16.6624 30.783 16.6099C30.798 16.3599 30.813 16.1023 30.8305 15.8373L30.838 15.7223C31.0105 13.0147 31.223 9.64704 30.328 7.64695C29.7155 6.27688 28.8929 5.09933 27.8804 4.14428C27.0328 3.34424 26.0478 2.69421 24.9527 2.21419C23.0501 1.37415 21.2751 1.24915 20.385 1.24915H20.3825C20.3475 1.24915 20.315 1.24915 20.285 1.24915C20.0375 1.25165 19.635 1.25665 19.5975 1.25665C18.7099 1.25665 16.9324 1.38165 15.0248 2.22169C13.9322 2.70171 12.9522 3.34924 12.1071 4.14928C11.0996 5.10433 10.2795 6.27938 9.66952 7.64445C8.77448 9.64204 8.98699 13.0097 9.157 15.7148V15.7198C9.1745 16.0098 9.1945 16.3124 9.212 16.6074C9.08199 16.6649 8.86948 16.7299 8.55697 16.7299C8.05194 16.7299 7.45192 16.5699 6.77438 16.2523C6.57437 16.1598 6.34686 16.1123 6.09685 16.1123C5.69433 16.1123 5.26681 16.2298 4.8993 16.4474C4.43427 16.7199 4.13426 17.1024 4.05176 17.5299C3.99925 17.8099 4.00175 18.3674 4.62178 18.9325C4.9643 19.2425 5.46432 19.53 6.11185 19.785C6.28186 19.8525 6.48437 19.915 6.69688 19.9825C7.43692 20.2175 8.55947 20.5726 8.85198 21.2576C8.99949 21.6051 8.93448 22.0626 8.66197 22.6176C8.65447 22.6326 8.64697 22.6476 8.64197 22.6626C8.57197 22.8227 7.93444 24.2602 6.62688 25.7778C5.88434 26.6403 5.0668 27.3629 4.19676 27.9229C3.13421 28.6079 1.98666 29.0529 0.784103 29.2505C0.311581 29.328 -0.0259348 29.748 0.00156653 30.2255C0.00906688 30.363 0.0415684 30.5005 0.0990711 30.633V30.6355C0.29158 31.083 0.734101 31.4606 1.45413 31.7931C2.33418 32.2006 3.64924 32.5431 5.36682 32.8106C5.45432 32.9756 5.54433 33.3882 5.60683 33.6707C5.67183 33.9707 5.73934 34.2807 5.83684 34.6082C5.94184 34.9632 6.21186 35.3882 6.90939 35.3882C7.1744 35.3882 7.47692 35.3282 7.82943 35.2607C8.34446 35.1607 9.04949 35.0232 9.92703 35.0232C10.4146 35.0232 10.9196 35.0657 11.4271 35.1507C12.4071 35.3132 13.2522 35.9083 14.2297 36.5983C15.6598 37.6084 17.2799 38.7509 19.755 38.7509C19.8225 38.7509 19.89 38.7484 19.9575 38.7434C20.0375 38.7484 20.14 38.7509 20.245 38.7509C22.7201 38.7509 24.3402 37.6083 25.7703 36.6008L25.7728 36.5983C26.7503 35.9108 27.5954 35.3157 28.5754 35.1532C29.0829 35.0682 29.588 35.0257 30.0755 35.0257C30.9155 35.0257 31.5805 35.1332 32.1731 35.2482C32.5606 35.3232 32.8606 35.3607 33.0931 35.3607H33.1156H33.1381C33.6481 35.3607 34.0232 35.0807 34.1657 34.5932C34.2607 34.2707 34.3282 33.9707 34.3957 33.6632C34.4532 33.3982 34.5482 32.9731 34.6332 32.8081C36.3508 32.5381 37.6658 32.1981 38.5459 31.7906C39.2634 31.4581 39.7059 31.0805 39.8984 30.6355C39.9559 30.503 39.9909 30.3655 39.9984 30.223C40.0259 29.7505 39.6884 29.328 39.2159 29.253Z" fill="#C0E8F4"/>
</g>
<defs>
<clipPath id="clip0_258_2185">
<rect width="40" height="40" fill="white"/>
</clipPath>
</defs>
</svg>
