<svg width="40" height="40" viewBox="0 0 40 40" fill="none" xmlns="http://www.w3.org/2000/svg">
<g clip-path="url(#clip0_258_2176)">
<path d="M39.115 9.88167L39.165 10.2083C38.6817 8.49334 37.3767 7.17 35.7183 6.68834L35.6833 6.68C32.565 5.83334 20.0167 5.83334 20.0167 5.83334C20.0167 5.83334 7.5 5.81667 4.35 6.68C2.66 7.17 1.35334 8.49334 0.878335 10.1733L0.870002 10.2083C-0.294998 16.2933 -0.303331 23.605 0.921669 30.12L0.870002 29.79C1.35334 31.505 2.65834 32.8283 4.31667 33.31L4.35167 33.3183C7.46667 34.1667 20.0183 34.1667 20.0183 34.1667C20.0183 34.1667 32.5333 34.1667 35.685 33.3183C37.3767 32.8283 38.6833 31.505 39.1583 29.825L39.1667 29.79C39.6967 26.96 40 23.7033 40 20.3767C40 20.255 40 20.1317 39.9983 20.0083C40 19.895 40 19.76 40 19.625C40 16.2967 39.6967 13.04 39.115 9.88167ZM16.0133 26.085V13.93L26.4567 20.0167L16.0133 26.085Z" fill="#C0E8F4"/>
</g>
<defs>
<clipPath id="clip0_258_2176">
<rect width="40" height="40" fill="white"/>
</clipPath>
</defs>
</svg>
