<svg width="24" height="25" viewBox="0 0 24 25" fill="none" xmlns="http://www.w3.org/2000/svg">
<g id="vuesax/outline/setting-3">
<g id="setting-3">
<path id="Vector" d="M15 23.25H9C3.57 23.25 1.25 20.93 1.25 15.5V9.5C1.25 4.07 3.57 1.75 9 1.75H15C20.43 1.75 22.75 4.07 22.75 9.5V15.5C22.75 20.93 20.43 23.25 15 23.25ZM9 3.25C4.39 3.25 2.75 4.89 2.75 9.5V15.5C2.75 20.11 4.39 21.75 9 21.75H15C19.61 21.75 21.25 20.11 21.25 15.5V9.5C21.25 4.89 19.61 3.25 15 3.25H9Z" fill="#FBFDFF"/>
<path id="Vector_2" d="M15.58 19.75C15.17 19.75 14.83 19.41 14.83 19V15.1C14.83 14.69 15.17 14.35 15.58 14.35C15.99 14.35 16.33 14.69 16.33 15.1V19C16.33 19.41 15.99 19.75 15.58 19.75Z" fill="#FBFDFF"/>
<path id="Vector_3" d="M15.58 8.7C15.17 8.7 14.83 8.36 14.83 7.95V6C14.83 5.59 15.17 5.25 15.58 5.25C15.99 5.25 16.33 5.59 16.33 6V7.95C16.33 8.36 15.99 8.7 15.58 8.7Z" fill="#FBFDFF"/>
<path id="Vector_4" d="M15.58 13.9C13.73 13.9 12.23 12.4 12.23 10.55C12.23 8.69995 13.73 7.19995 15.58 7.19995C17.43 7.19995 18.93 8.69995 18.93 10.55C18.93 12.4 17.42 13.9 15.58 13.9ZM15.58 8.69995C14.56 8.69995 13.73 9.52995 13.73 10.55C13.73 11.57 14.56 12.4 15.58 12.4C16.6 12.4 17.43 11.57 17.43 10.55C17.43 9.52995 16.59 8.69995 15.58 8.69995Z" fill="#FBFDFF"/>
<path id="Vector_5" d="M8.42004 19.75C8.01004 19.75 7.67004 19.41 7.67004 19V17.05C7.67004 16.64 8.01004 16.3 8.42004 16.3C8.83004 16.3 9.17004 16.64 9.17004 17.05V19C9.17004 19.41 8.84004 19.75 8.42004 19.75Z" fill="#FBFDFF"/>
<path id="Vector_6" d="M8.42004 10.65C8.01004 10.65 7.67004 10.31 7.67004 9.9V6C7.67004 5.59 8.01004 5.25 8.42004 5.25C8.83004 5.25 9.17004 5.59 9.17004 6V9.9C9.17004 10.31 8.84004 10.65 8.42004 10.65Z" fill="#FBFDFF"/>
<path id="Vector_7" d="M8.41995 17.8C6.56995 17.8 5.06995 16.3 5.06995 14.45C5.06995 12.6 6.56995 11.1 8.41995 11.1C10.2699 11.1 11.7699 12.6 11.7699 14.45C11.7699 16.3 10.2699 17.8 8.41995 17.8ZM8.41995 12.6C7.39995 12.6 6.56995 13.43 6.56995 14.45C6.56995 15.47 7.39995 16.3 8.41995 16.3C9.43995 16.3 10.2699 15.47 10.2699 14.45C10.2699 13.43 9.44995 12.6 8.41995 12.6Z" fill="#FBFDFF"/>
</g>
</g>
</svg>
