<svg width="40" height="41" viewBox="0 0 40 41" fill="none" xmlns="http://www.w3.org/2000/svg">
<g id="location (1) 1" clip-path="url(#clip0_1741_2450)">
<path id="Vector" d="M20 40.5C31.0457 40.5 40 31.5457 40 20.5C40 9.45431 31.0457 0.5 20 0.5C8.95431 0.5 0 9.45431 0 20.5C0 31.5457 8.95431 40.5 20 40.5Z" fill="#1BA25B" fill-opacity="0.3"/>
<path id="Vector_2" d="M20.901 30.6586C20.4494 31.336 19.4539 31.336 19.0023 30.6586L13.3466 22.175C9.8296 16.8996 13.6114 9.83334 19.9517 9.83334C26.2919 9.83334 30.0737 16.8996 26.5567 22.175L20.901 30.6586Z" fill="white" fill-opacity="0.7"/>
<path id="Vector_3" d="M19.9866 20.6727C21.8769 20.6727 23.4093 19.1403 23.4093 17.25C23.4093 15.3597 21.8769 13.8273 19.9866 13.8273C18.0963 13.8273 16.564 15.3597 16.564 17.25C16.564 19.1403 18.0963 20.6727 19.9866 20.6727Z" fill="#1BA25B" fill-opacity="0.3"/>
</g>
<defs>
<clipPath id="clip0_1741_2450">
<rect width="40" height="40" fill="white" transform="translate(0 0.5)"/>
</clipPath>
</defs>
</svg>
