<svg width="20" height="20" viewBox="0 0 20 20" fill="none" xmlns="http://www.w3.org/2000/svg">
<g id="Comercial/shopping-basket">
<g id="Icon">
<path fill-rule="evenodd" clip-rule="evenodd" d="M1.47 0.293945H2.47L2.52 0.30571C3.90616 0.337343 5.11733 1.41553 5.52 2.9763L5.72 3.78806H16.15C17.071 3.793 17.9456 4.26457 18.55 5.08218C19.1527 5.90497 19.4194 6.99671 19.28 8.07042L18.68 12.941C18.4802 14.8079 17.1393 16.2146 15.54 16.2351H9.66C8.2553 16.229 7.01824 15.1458 6.61 13.5645L4.08 3.52924C3.88626 2.66827 3.22701 2.0661 2.47 2.05865H1.47C1.05579 2.05865 0.720001 1.66361 0.720001 1.1763C0.720001 0.688988 1.05579 0.293945 1.47 0.293945ZM8.05 12.9998C8.26228 13.8375 8.91703 14.4116 9.66 14.4116H15.54C16.3677 14.401 17.0686 13.6907 17.2 12.7292L17.8 7.84689C17.8817 7.27857 17.7485 6.69661 17.4352 6.25345C17.122 5.81029 16.6599 5.55009 16.17 5.541H6.17L8.05 12.9998Z" fill="#ABB0BF"/>
<path d="M9.43 17.6469C8.87772 17.6469 8.43 18.1736 8.43 18.8234C8.43 19.4731 8.87772 19.9998 9.43 19.9998C9.98229 19.9998 10.43 19.4731 10.43 18.8234C10.43 18.1736 9.98229 17.6469 9.43 17.6469Z" fill="#ABB0BF"/>
<path d="M15.43 17.6469C14.8777 17.6469 14.43 18.1736 14.43 18.8234C14.43 19.4731 14.8777 19.9998 15.43 19.9998C15.9823 19.9998 16.43 19.4731 16.43 18.8234C16.43 18.1736 15.9823 17.6469 15.43 17.6469Z" fill="#ABB0BF"/>
</g>
</g>
</svg>
