<svg width="25" height="25" viewBox="0 0 25 25" fill="none" xmlns="http://www.w3.org/2000/svg">
<g id="vuesax/bold/trash">
<g id="trash">
<path id="Vector" d="M21.948 5.44793C20.2709 5.28126 18.5938 5.15626 16.9063 5.06251V5.05209L16.6771 3.69793C16.5209 2.73959 16.2917 1.30209 13.8542 1.30209H11.1251C8.69798 1.30209 8.46881 2.67709 8.30215 3.68751L8.0834 5.02084C7.11465 5.08334 6.1459 5.14584 5.17715 5.23959L3.05215 5.44793C2.61465 5.48959 2.30215 5.87501 2.34381 6.30209C2.38548 6.72918 2.76048 7.04168 3.19798 7.00001L5.32298 6.79168C10.7813 6.25001 16.2813 6.45834 21.8021 7.01043C21.8334 7.01043 21.8542 7.01043 21.8855 7.01043C22.2813 7.01043 22.6251 6.70834 22.6667 6.30209C22.698 5.87501 22.3855 5.48959 21.948 5.44793Z" fill="#FBFDFF"/>
<path id="Vector_2" d="M20.0313 8.47916C19.7813 8.21874 19.4376 8.07291 19.0834 8.07291H5.91673C5.56256 8.07291 5.2084 8.21874 4.96881 8.47916C4.72923 8.73957 4.59381 9.09374 4.61465 9.45832L5.26048 20.1458C5.37506 21.7292 5.5209 23.7083 9.15631 23.7083H15.8438C19.4792 23.7083 19.6251 21.7396 19.7396 20.1458L20.3855 9.46874C20.4063 9.09374 20.2709 8.73957 20.0313 8.47916ZM14.2292 18.4896H10.7605C10.3334 18.4896 9.97923 18.1354 9.97923 17.7083C9.97923 17.2812 10.3334 16.9271 10.7605 16.9271H14.2292C14.6563 16.9271 15.0105 17.2812 15.0105 17.7083C15.0105 18.1354 14.6563 18.4896 14.2292 18.4896ZM15.1042 14.3229H9.8959C9.46881 14.3229 9.11465 13.9687 9.11465 13.5417C9.11465 13.1146 9.46881 12.7604 9.8959 12.7604H15.1042C15.5313 12.7604 15.8855 13.1146 15.8855 13.5417C15.8855 13.9687 15.5313 14.3229 15.1042 14.3229Z" fill="#FBFDFF"/>
</g>
</g>
</svg>
