<svg width="30" height="30" viewBox="0 0 30 30" fill="none" xmlns="http://www.w3.org/2000/svg">
<g id="vuesax/bold/trush-square">
<g id="trush-square">
<path id="Vector" d="M20.2375 2.5H9.7625C5.2125 2.5 2.5 5.2125 2.5 9.7625V20.225C2.5 24.7875 5.2125 27.5 9.7625 27.5H20.225C24.775 27.5 27.4875 24.7875 27.4875 20.2375V9.7625C27.5 5.2125 24.7875 2.5 20.2375 2.5ZM19.7 19.7C19.625 20.7625 19.5375 22.0875 17.1375 22.0875H12.8625C10.475 22.0875 10.375 20.7625 10.3 19.7L9.9125 14.75C9.8875 14.425 10 14.1125 10.2125 13.875C10.425 13.6375 10.7375 13.5125 11.05 13.5125H18.95C19.2625 13.5125 19.575 13.65 19.7875 13.875C20 14.1125 20.1125 14.425 20.0875 14.7375L19.7 19.7ZM21 12.275C20.975 12.275 20.95 12.275 20.925 12.275C19.625 12.15 18.4375 12.0625 17.3 12.0125C15.775 11.9375 14.25 11.9125 12.7125 11.975C11.9625 12.0125 11.2 12.0625 10.45 12.1375L9.0875 12.275C9.0625 12.275 9.025 12.275 9 12.275C8.5625 12.275 8.1875 11.95 8.15 11.5C8.1 11.0375 8.45 10.6125 8.9125 10.575L10.275 10.4375C10.8125 10.3875 11.3375 10.35 11.875 10.325L11.975 9.7375C12.075 9.1125 12.2625 7.9125 14.1375 7.9125H15.875C17.7625 7.9125 17.95 9.15 18.0375 9.75L18.1375 10.35C19.075 10.4 20.0375 10.475 21.0875 10.575C21.5625 10.625 21.9 11.0375 21.8625 11.5125C21.8125 11.95 21.4375 12.275 21 12.275Z" fill="#D53547" fill-opacity="0.8"/>
</g>
</g>
</svg>
