<svg width="44" height="26" viewBox="0 0 44 26" fill="none" xmlns="http://www.w3.org/2000/svg">
<path d="M13.5227 24.2781C20.0255 24.2781 25.3 19.2007 25.3 12.9472C25.3 6.69378 20.0256 1.62158 13.5227 1.62158C7.01458 1.62158 1.74017 6.69378 1.74017 12.9472C1.74017 19.2007 7.01458 24.2781 13.5227 24.2781Z" fill="#E2001A"/>
<path d="M30.6605 24.2781C37.1633 24.2781 42.4377 19.2007 42.4377 12.9472C42.4377 6.69378 37.1634 1.62158 30.6605 1.62158C24.1523 1.62158 18.8834 6.69378 18.8834 12.9472C18.8834 19.2007 24.1523 24.2781 30.6605 24.2781Z" fill="#F6A800"/>
<path d="M22.0836 20.7188C20.1009 18.6879 18.8834 15.9523 18.8834 12.9473C18.8834 9.97342 20.0794 7.26375 22.0243 5.24316L22.2721 5.36751C24.1524 7.37774 25.3 10.0356 25.3 12.9473C25.3 15.8746 24.1417 18.5376 22.2507 20.553L22.0836 20.7188Z" fill="#EB690A"/>
<path d="M4.05145 10.1079H5.08047L6.40042 13.2735L7.58029 10.1079H8.66858V14.3252H7.82273V11.1959L6.69135 14.3252H6.05023L4.91885 11.2374V14.3252H4.05145V10.1079Z" fill="white"/>
<path d="M13.0001 14.3254V11.0977H12.2782V14.3254H13.0001Z" fill="white"/>
<path d="M17.8274 14.3254V10.165H17.0677V14.3254H17.8274Z" fill="white"/>
<path d="M16.6313 11.0977V11.8696H18.323V11.0977H16.6313Z" fill="white"/>
<path d="M33.7798 14.3254V11.0977H33.058V14.3254H33.7798Z" fill="white"/>
<path d="M40.2988 14.3255V10.2896H39.5769V14.3255H40.2988Z" fill="white"/>
<path d="M23.9477 11.0975H23.1988V14.3252H23.9584V12.1906C24.1361 11.8434 24.6695 11.7709 24.7557 11.7709V11.0767C24.5779 11.0767 23.9691 11.2062 23.9476 11.5222V11.0975H23.9477Z" fill="white"/>
<path d="M35.4285 11.0975H34.6743V14.3252H35.4394V12.1906C35.6118 11.8434 36.1505 11.7709 36.2313 11.7709V11.0767C36.0589 11.0767 35.4501 11.2062 35.4285 11.5222V11.0975Z" fill="white"/>
<path d="M15.2629 12.0198H16.001C16.001 11.455 15.6239 11.1079 15.0043 11.1079C14.3848 11.1079 13.8945 11.4188 13.8945 12.113C13.8945 12.8072 14.6541 12.9057 14.7781 12.9368C14.9289 12.9782 15.3437 13.0249 15.3437 13.4653C15.3437 13.6311 15.139 13.6725 14.9612 13.6725C14.7888 13.6725 14.611 13.543 14.611 13.3513H13.7867C13.7867 14.0766 14.374 14.3668 14.9612 14.3668C15.5485 14.3668 16.1088 13.9108 16.1088 13.3616C16.1088 12.8228 15.5592 12.5067 15.1282 12.4445C14.4763 12.3565 14.541 11.8125 14.9181 11.8125C15.2737 11.8125 15.2522 11.9628 15.2629 12.0198Z" fill="white"/>
<path d="M28.791 13.1699C28.5216 13.4963 28.1068 13.7035 27.6435 13.7035C26.8353 13.7035 26.1834 13.0766 26.1834 12.3098C26.1834 11.5327 26.8353 10.9058 27.6435 10.9058C28.1014 10.9058 28.5162 11.1078 28.7802 11.4291H29.7284C29.3783 10.6312 28.5647 10.1079 27.6435 10.1079C26.3774 10.1079 25.3538 11.0923 25.3538 12.3098C25.3538 13.517 26.3774 14.5066 27.6435 14.5066C28.5809 14.5066 29.389 13.9471 29.7446 13.1699H28.791Z" fill="white"/>
<path d="M38.5641 14.4031C39.5284 14.4031 40.315 13.6466 40.315 12.7244C40.315 11.7918 39.5284 11.0405 38.5641 11.0405V11.7555C39.119 11.7555 39.5715 12.1907 39.5715 12.7244C39.5715 13.2528 39.119 13.688 38.5641 13.688V14.4031ZM38.5641 14.4031V13.688C38.0091 13.688 37.5566 13.2528 37.5566 12.7244C37.5566 12.1907 38.0091 11.7555 38.5641 11.7555V11.0405C37.5997 11.0405 36.8131 11.7918 36.8131 12.7244C36.8131 13.6466 37.5997 14.4031 38.5641 14.4031Z" fill="white"/>
<path d="M32.0451 14.4031C33.0148 14.4031 33.796 13.6466 33.796 12.7244C33.796 11.7918 33.0148 11.0405 32.0451 11.0405V11.7555C32.6 11.7555 33.0526 12.1907 33.0526 12.7244C33.0526 13.2528 32.6 13.688 32.0451 13.688V14.4031ZM32.0451 11.0406C31.0807 11.0406 30.2941 11.7918 30.2941 12.7244C30.2941 13.6466 31.0808 14.4031 32.0451 14.4031V13.6881C31.4902 13.6881 31.0376 13.2529 31.0376 12.7244C31.0376 12.1908 31.4902 11.7556 32.0451 11.7556V11.0406Z" fill="white"/>
<path d="M20.645 13.0562H22.3529C22.3583 13.0096 22.3637 12.9577 22.3637 12.9111V12.7712C22.3368 12.02 21.8465 11.0978 20.6451 11.0874V11.8697C21.0546 11.8697 21.4586 12.0511 21.4586 12.4086H20.6451V13.0562H20.645ZM20.645 14.4137C21.3239 14.4033 22.2775 13.9785 22.2775 13.4345H21.367C21.367 13.5641 21.0168 13.6832 20.645 13.678V14.4137ZM19.81 13.0562H20.645V12.4086H19.8315C19.8315 12.0511 20.2356 11.8697 20.645 11.8697V11.0875C20.6397 11.0875 20.6289 11.0875 20.6235 11.0875C19.5352 11.0875 18.9426 11.9579 18.9372 12.8076V12.8387C18.9534 13.6418 19.4867 14.4137 20.6127 14.4137C20.6235 14.4137 20.6343 14.4137 20.645 14.4137V13.678C20.2356 13.6728 19.81 13.5121 19.81 13.0562Z" fill="white"/>
<path d="M11.2707 14.4031C12.2351 14.4031 13.0217 13.6466 13.0217 12.7244C13.0217 11.7918 12.2351 11.0405 11.2707 11.0405V11.7555C11.8256 11.7555 12.2782 12.1907 12.2782 12.7244C12.2782 13.2528 11.8256 13.688 11.2707 13.688V14.4031ZM11.2707 14.4031V13.688C10.7158 13.688 10.2633 13.2528 10.2633 12.7244C10.2633 12.1907 10.7158 11.7555 11.2707 11.7555V11.0405C10.301 11.0405 9.51978 11.7918 9.51978 12.7244C9.51978 13.6466 10.301 14.4031 11.2707 14.4031Z" fill="white"/>
</svg>
