<svg width="24" height="24" viewBox="0 0 24 24" fill="none" xmlns="http://www.w3.org/2000/svg">
<g clip-path="url(#clip0_371_255)">
<path d="M15.55 13.0001C16.3 13.0001 16.96 12.5901 17.3 11.9701L20.88 5.48006C21.25 4.82006 20.77 4.00006 20.01 4.00006H5.21L4.27 2.00006H1V4.00006H3L6.6 11.5901L5.25 14.0301C4.52 15.3701 5.48 17.0001 7 17.0001H19V15.0001H7L8.1 13.0001H15.55ZM6.16 6.00006H18.31L15.55 11.0001H8.53L6.16 6.00006ZM7 18.0001C5.9 18.0001 5.01 18.9001 5.01 20.0001C5.01 21.1001 5.9 22.0001 7 22.0001C8.1 22.0001 9 21.1001 9 20.0001C9 18.9001 8.1 18.0001 7 18.0001ZM17 18.0001C15.9 18.0001 15.01 18.9001 15.01 20.0001C15.01 21.1001 15.9 22.0001 17 22.0001C18.1 22.0001 19 21.1001 19 20.0001C19 18.9001 18.1 18.0001 17 18.0001Z" fill="#111111"/>
</g>
<defs>
<clipPath id="clip0_371_255">
<rect y="6.10352e-05" width="24" height="24" rx="10" fill="white"/>
</clipPath>
</defs>
</svg>
