<svg width="20" height="22" viewBox="0 0 20 22" fill="none" xmlns="http://www.w3.org/2000/svg">
<path d="M17.6666 0.5H16.1666V2.75C16.1666 3.9905 15.1571 5 13.9166 5H6.41663C5.17613 5 4.16663 3.9905 4.16663 2.75V0.5H2.66663C1.84013 0.5 1.16663 1.1735 1.16663 2V20C1.16663 20.8415 1.82513 21.5 2.66663 21.5H17.6666C18.5081 21.5 19.1666 20.8415 19.1666 20V2C19.1666 1.1585 18.5081 0.5 17.6666 0.5Z" stroke="#C0E8F4" stroke-opacity="0.8"/>
<path d="M6.03844 17.2296C5.93832 17.2296 5.84335 17.1903 5.77177 17.1196L4.2761 15.624C4.20546 15.5533 4.16663 15.4598 4.16663 15.3596C4.16663 15.2595 4.20546 15.1655 4.2761 15.0953C4.34674 15.0247 4.44031 14.9858 4.54043 14.9858C4.64054 14.9858 4.73458 15.0247 4.80475 15.0953L6.03844 16.3267L8.76686 13.5982C8.8375 13.5276 8.93107 13.4888 9.03119 13.4888C9.1313 13.4888 9.22534 13.5276 9.29551 13.5982C9.44148 13.7442 9.44195 13.9819 9.29692 14.1278L6.30323 17.1215C6.23259 17.1912 6.13809 17.2305 6.03797 17.2305L6.03844 17.2296Z" fill="#C0E8F4" fill-opacity="0.7"/>
<path d="M12.0267 15.7324C11.8204 15.7324 11.6525 15.5645 11.6525 15.3582C11.6525 15.1518 11.8204 14.9839 12.0267 14.9839H15.0209C15.2272 14.9839 15.3952 15.1518 15.3952 15.3582C15.3952 15.5645 15.2272 15.7324 15.0209 15.7324H12.0267Z" fill="#C0E8F4" fill-opacity="0.7"/>
<path d="M12.0267 9.74414C11.8204 9.74414 11.6525 9.57619 11.6525 9.36987C11.6525 9.16356 11.8204 8.99561 12.0267 8.99561H15.0209C15.2272 8.99561 15.3952 9.16356 15.3952 9.36987C15.3952 9.57619 15.2272 9.74414 15.0209 9.74414H12.0267Z" fill="#C0E8F4" fill-opacity="0.7"/>
<path d="M6.03844 11.2413C5.93832 11.2413 5.84335 11.202 5.77177 11.1313L4.2761 9.63567C4.13013 9.48971 4.13013 9.25251 4.2761 9.10655C4.34674 9.03591 4.44031 8.99708 4.54043 8.99708C4.64054 8.99708 4.73458 9.03591 4.80475 9.10655L6.03844 10.3379L8.76686 7.60947C8.8375 7.53883 8.93107 7.5 9.03119 7.5C9.1313 7.5 9.22534 7.53883 9.29551 7.60947C9.44148 7.75544 9.44195 7.9931 9.29692 8.13906L6.30323 11.1327C6.23259 11.2025 6.13809 11.2418 6.03797 11.2418L6.03844 11.2413Z" fill="#C0E8F4" fill-opacity="0.7"/>
</svg>
