<svg width="19" height="25" viewBox="0 0 19 25" fill="none" xmlns="http://www.w3.org/2000/svg">
<g clip-path="url(#clip0_302_4769)">
<path d="M13.0834 2H11.4544C11.1454 1.127 10.3114 0.5 9.33337 0.5C8.35537 0.5 7.52137 1.127 7.21087 2H5.58337C5.16937 2 4.83337 2.336 4.83337 2.75V5.75C4.83337 6.164 5.16937 6.5 5.58337 6.5H13.0834C13.4974 6.5 13.8334 6.164 13.8334 5.75V2.75C13.8334 2.336 13.4974 2 13.0834 2Z" fill="#C0E8F4"/>
<path d="M16.8334 3.5H15.3334V5.75C15.3334 6.9905 14.3239 8 13.0834 8H5.58337C4.34287 8 3.33337 6.9905 3.33337 5.75V3.5H1.83337C1.00687 3.5 0.333374 4.1735 0.333374 5V23C0.333374 23.8415 0.991874 24.5 1.83337 24.5H16.8334C17.6749 24.5 18.3334 23.8415 18.3334 23V5C18.3334 4.1585 17.6749 3.5 16.8334 3.5ZM9.11437 16.781L6.11437 19.781C5.96737 19.9265 5.77537 20 5.58337 20C5.39137 20 5.19937 19.9265 5.05237 19.781L3.55237 18.281C3.25987 17.9885 3.25987 17.513 3.55237 17.2205C3.84487 16.928 4.32037 16.928 4.61287 17.2205L5.58337 18.1895L8.05237 15.7205C8.34487 15.428 8.82037 15.428 9.11287 15.7205C9.40537 16.013 9.40687 16.487 9.11437 16.781ZM9.11437 10.781L6.11437 13.781C5.96737 13.9265 5.77537 14 5.58337 14C5.39137 14 5.19937 13.9265 5.05237 13.781L3.55237 12.281C3.25987 11.9885 3.25987 11.513 3.55237 11.2205C3.84487 10.928 4.32037 10.928 4.61287 11.2205L5.58337 12.1895L8.05237 9.7205C8.34487 9.428 8.82037 9.428 9.11287 9.7205C9.40537 10.013 9.40687 10.487 9.11437 10.781ZM14.5834 18.5H11.5834C11.1694 18.5 10.8334 18.164 10.8334 17.75C10.8334 17.336 11.1694 17 11.5834 17H14.5834C14.9974 17 15.3334 17.336 15.3334 17.75C15.3334 18.164 14.9974 18.5 14.5834 18.5ZM14.5834 12.5H11.5834C11.1694 12.5 10.8334 12.164 10.8334 11.75C10.8334 11.336 11.1694 11 11.5834 11H14.5834C14.9974 11 15.3334 11.336 15.3334 11.75C15.3334 12.164 14.9974 12.5 14.5834 12.5Z" fill="#C0E8F4"/>
</g>
<defs>
<clipPath id="clip0_302_4769">
<rect width="18" height="24" fill="white" transform="translate(0.333374 0.5)"/>
</clipPath>
</defs>
</svg>
