<svg width="20" height="21" viewBox="0 0 20 21" fill="none" xmlns="http://www.w3.org/2000/svg">
<path d="M8.8 2.1V7.7C8.8 8.5835 8.0835 9.3 7.2 9.3H1.6C0.7165 9.3 0 8.5835 0 7.7V2.1C0 1.2165 0.7165 0.5 1.6 0.5H7.2C8.0835 0.5 8.8 1.2165 8.8 2.1ZM18.4 0.5H12.8C11.9165 0.5 11.2 1.2165 11.2 2.1V7.7C11.2 8.5835 11.9165 9.3 12.8 9.3H18.4C19.2835 9.3 20 8.5835 20 7.7V2.1C20 1.2165 19.2835 0.5 18.4 0.5ZM7.2 11.7H1.6C0.7165 11.7 0 12.4165 0 13.3V18.9C0 19.7835 0.7165 20.5 1.6 20.5H7.2C8.0835 20.5 8.8 19.7835 8.8 18.9V13.3C8.8 12.4165 8.0835 11.7 7.2 11.7ZM15.6 11.7C13.17 11.7 11.2 13.67 11.2 16.1C11.2 18.53 13.17 20.5 15.6 20.5C18.03 20.5 20 18.53 20 16.1C20 13.67 18.03 11.7 15.6 11.7Z" fill="#C0E8F4"/>
</svg>
