<svg width="22" height="21" viewBox="0 0 22 21" fill="none" xmlns="http://www.w3.org/2000/svg">
<path d="M9.63337 2.1V7.7C9.63337 8.5835 8.91687 9.3 8.03337 9.3H2.43337C1.54987 9.3 0.833374 8.5835 0.833374 7.7V2.1C0.833374 1.2165 1.54987 0.5 2.43337 0.5H8.03337C8.91687 0.5 9.63337 1.2165 9.63337 2.1ZM19.2334 0.5H13.6334C12.7499 0.5 12.0334 1.2165 12.0334 2.1V7.7C12.0334 8.5835 12.7499 9.3 13.6334 9.3H19.2334C20.1169 9.3 20.8334 8.5835 20.8334 7.7V2.1C20.8334 1.2165 20.1169 0.5 19.2334 0.5ZM8.03337 11.7H2.43337C1.54987 11.7 0.833374 12.4165 0.833374 13.3V18.9C0.833374 19.7835 1.54987 20.5 2.43337 20.5H8.03337C8.91687 20.5 9.63337 19.7835 9.63337 18.9V13.3C9.63337 12.4165 8.91687 11.7 8.03337 11.7ZM16.4334 11.7C14.0034 11.7 12.0334 13.67 12.0334 16.1C12.0334 18.53 14.0034 20.5 16.4334 20.5C18.8634 20.5 20.8334 18.53 20.8334 16.1C20.8334 13.67 18.8634 11.7 16.4334 11.7Z" stroke="#C0E8F4" stroke-opacity="0.7" stroke-miterlimit="10"/>
</svg>
