<svg width="60" height="60" viewBox="0 0 60 60" fill="none" xmlns="http://www.w3.org/2000/svg">
<rect width="60" height="60" rx="30" fill="#021934"/>
<path d="M28.8118 34.5309C28.2397 34.5309 27.7017 34.3079 27.2964 33.9033C24.0953 30.7018 24.0953 25.4928 27.2964 22.2915L31.5866 18.0013C33.1348 16.4527 35.1965 15.6 37.3922 15.6C39.5879 15.6 41.6496 16.4527 43.1978 18.0013C46.3989 21.2026 46.3989 26.4116 43.1978 29.6129L40.3379 32.473C39.9332 32.8778 39.3953 33.1008 38.8225 33.1009C38.2504 33.1009 37.7124 32.878 37.3071 32.4733C36.9024 32.0685 36.6791 31.5302 36.6791 30.9576C36.6791 30.3851 36.9024 29.8468 37.3071 29.442L40.167 26.5819C41.697 25.0519 41.697 22.5624 40.167 21.0325C39.4274 20.2929 38.4416 19.8855 37.3922 19.8855C36.3429 19.8855 35.357 20.2929 34.6174 21.0325L30.3273 25.3227C28.7972 26.8526 28.7972 29.342 30.3273 30.8719C31.1631 31.7076 31.1631 33.0674 30.3273 33.9031C29.9219 34.308 29.3839 34.5309 28.8118 34.5309Z" fill="#C0E8F4"/>
<path d="M23.8064 45.6C21.6108 45.6 19.549 44.7472 18.0009 43.1987C14.7998 39.9974 14.7998 34.7884 18.0009 31.5871L20.1463 29.4418C20.551 29.0371 21.0896 28.8142 21.6617 28.8142C22.2338 28.8142 22.7725 29.0373 23.1771 29.4421C23.5818 29.8468 23.8051 30.3851 23.8051 30.9576C23.8051 31.5302 23.5819 32.0685 23.1771 32.4733L21.0317 34.6184C19.5016 36.1481 19.5016 38.6376 21.0317 40.1675C21.7712 40.9071 22.7571 41.3145 23.8064 41.3145C24.8558 41.3145 25.8416 40.9072 26.5812 40.1675L30.8714 35.8773C32.4014 34.3474 32.4014 31.858 30.8714 30.3281C30.4667 29.9233 30.2434 29.385 30.2434 28.8125C30.2434 28.24 30.4667 27.7017 30.8714 27.2969C31.276 26.8921 31.8147 26.6693 32.3868 26.6693C32.9589 26.6693 33.4976 26.892 33.9022 27.2967C37.1033 30.4982 37.1033 35.7072 33.9022 38.9085L29.612 43.1987C28.0639 44.7472 26.0021 45.6 23.8064 45.6Z" fill="#C0E8F4"/>
</svg>
