<svg width="60" height="60" viewBox="0 0 60 60" fill="none" xmlns="http://www.w3.org/2000/svg">
<path d="M30 60C46.5685 60 60 46.5685 60 30C60 13.4315 46.5685 0 30 0C13.4315 0 0 13.4315 0 30C0 46.5685 13.4315 60 30 60Z" fill="#2B55C8"/>
<path d="M39.5045 26.4477L38.9011 31.6739C38.8761 31.9123 38.7643 32.1333 38.5871 32.2948C38.4099 32.4563 38.1795 32.5471 37.9398 32.55H32.4852L32.4579 48.0443C32.4598 48.2279 32.3893 48.4049 32.2617 48.5369C32.1341 48.669 31.9597 48.7455 31.7761 48.75H26.25C26.1581 48.7501 26.0672 48.7316 25.9826 48.6956C25.8981 48.6597 25.8216 48.607 25.758 48.5408C25.6943 48.4745 25.6446 48.3961 25.612 48.3102C25.5794 48.2243 25.5645 48.1327 25.5682 48.0409V32.55H21.4773C21.3488 32.5487 21.2218 32.522 21.1036 32.4716C20.9854 32.4212 20.8783 32.348 20.7884 32.2562C20.6985 32.1644 20.6276 32.0558 20.5796 31.9366C20.5317 31.8173 20.5077 31.6899 20.5091 31.5614L20.4886 26.3352C20.4868 26.2063 20.5104 26.0783 20.5581 25.9584C20.6058 25.8386 20.6766 25.7294 20.7665 25.637C20.8564 25.5445 20.9637 25.4707 21.0821 25.4197C21.2005 25.3687 21.3279 25.3416 21.4568 25.3398H25.5682V20.2943C25.5682 14.4375 29.0454 11.25 34.1454 11.25H38.325C38.4542 11.2513 38.5819 11.2782 38.7007 11.329C38.8196 11.3798 38.9272 11.4535 39.0175 11.546C39.1077 11.6385 39.1789 11.7479 39.2268 11.8679C39.2747 11.9879 39.2984 12.1162 39.2966 12.2455V16.6432C39.2984 16.7724 39.2747 16.9007 39.2268 17.0207C39.1789 17.1408 39.1077 17.2502 39.0175 17.3426C38.9272 17.4351 38.8196 17.5089 38.7007 17.5597C38.5819 17.6105 38.4542 17.6373 38.325 17.6386H35.7614C32.9898 17.6386 32.4511 19.0023 32.4511 20.9727V25.3398H38.5432C38.6817 25.3415 38.8183 25.3726 38.944 25.4309C39.0697 25.4892 39.1816 25.5734 39.2724 25.6781C39.3632 25.7827 39.4309 25.9054 39.4709 26.038C39.5109 26.1707 39.5223 26.3103 39.5045 26.4477Z" fill="white"/>
</svg>
