<svg width="60" height="60" viewBox="0 0 60 60" fill="none" xmlns="http://www.w3.org/2000/svg">
<path d="M60 30C60 13.4315 46.5685 0 30 0C13.4315 0 0 13.4315 0 30C0 46.5685 13.4315 60 30 60C46.5685 60 60 46.5685 60 30Z" fill="url(#paint0_linear_302_5077)"/>
<path opacity="0.1" d="M52.5789 10.2632C48.2052 18.2921 42.0197 26.5737 34.2908 34.3026C26.5618 42.0316 18.2802 48.2053 10.2631 52.5789C9.7605 52.1421 9.27234 51.6868 8.79865 51.2132C5.93546 48.4455 3.65191 45.1356 2.08117 41.4763C0.510421 37.817 -0.316085 33.8817 -0.350159 29.8996C-0.384233 25.9176 0.374806 21.9687 1.8827 18.2831C3.39059 14.5974 5.61716 11.2489 8.43258 8.4327C11.248 5.6165 14.5959 3.389 18.2811 1.88007C21.9663 0.371151 25.9151 -0.38899 29.8971 -0.356028C33.8791 -0.323065 37.8147 0.502342 41.4744 2.07206C45.1341 3.64179 48.4447 5.92441 51.2131 8.78683C51.6868 9.26052 52.1421 9.75262 52.5789 10.2632Z" fill="white"/>
<path d="M37.1052 14.2106H22.8947C20.5915 14.2106 18.3826 15.1255 16.754 16.7541C15.1254 18.3827 14.2104 20.5916 14.2104 22.8948V37.1053C14.2104 39.4085 15.1254 41.6174 16.754 43.246C18.3826 44.8746 20.5915 45.7895 22.8947 45.7895H37.1052C39.4084 45.7895 41.6172 44.8746 43.2459 43.246C44.8745 41.6174 45.7894 39.4085 45.7894 37.1053V22.8948C45.7894 20.5916 44.8745 18.3827 43.2459 16.7541C41.6172 15.1255 39.4084 14.2106 37.1052 14.2106ZM43.0262 35.8579C43.0262 37.7591 42.271 39.5824 40.9267 40.9268C39.5823 42.2711 37.759 43.0264 35.8578 43.0264H24.142C22.2408 43.0264 20.4175 42.2711 19.0732 40.9268C17.7288 39.5824 16.9736 37.7591 16.9736 35.8579V24.1422C16.9736 22.241 17.7288 20.4177 19.0732 19.0733C20.4175 17.729 22.2408 16.9737 24.142 16.9737H35.8578C37.759 16.9737 39.5823 17.729 40.9267 19.0733C42.271 20.4177 43.0262 22.241 43.0262 24.1422V35.8579Z" fill="white"/>
<path d="M35.7591 24.3L35.6841 24.225L35.621 24.1619C34.1285 22.6745 32.107 21.8398 29.9999 21.8408C28.9359 21.8481 27.8837 22.0649 26.9034 22.4789C25.9232 22.8929 25.0342 23.496 24.2871 24.2537C23.54 25.0114 22.9495 25.9089 22.5494 26.8948C22.1493 27.8808 21.9474 28.936 21.9552 30C21.9536 32.1594 22.8048 34.2321 24.3236 35.7671C25.0675 36.5201 25.9541 37.1174 26.9314 37.524C27.9087 37.9307 28.9572 38.1386 30.0157 38.1356C31.6035 38.1023 33.1473 37.6076 34.4588 36.712C35.7703 35.8164 36.7928 34.5585 37.4017 33.0918C38.0106 31.625 38.1795 30.0128 37.8878 28.4516C37.5962 26.8905 36.8565 25.448 35.7591 24.3ZM29.9999 35.3527C28.9382 35.3675 27.896 35.0663 27.006 34.4873C26.1159 33.9082 25.4182 33.0776 25.0016 32.1009C24.5849 31.1242 24.4682 30.0457 24.6661 29.0025C24.8641 27.9593 25.3679 26.9986 26.1134 26.2425C26.8589 25.4864 27.8125 24.9691 28.8528 24.7564C29.8931 24.5437 30.9731 24.6452 31.9556 25.0481C32.938 25.4509 33.7785 26.1368 34.37 27.0186C34.9615 27.9004 35.2774 28.9382 35.2775 30C35.2827 30.6981 35.1503 31.3904 34.8879 32.0372C34.6254 32.6841 34.238 33.2729 33.7479 33.77C33.2578 34.2671 32.6745 34.6627 32.0314 34.9343C31.3883 35.2058 30.698 35.348 29.9999 35.3527Z" fill="white"/>
<path d="M40.4328 21.4658C40.4349 21.7191 40.387 21.9703 40.2918 22.2051C40.1967 22.4399 40.0562 22.6536 39.8784 22.834C39.7006 23.0144 39.4889 23.1579 39.2555 23.2564C39.0221 23.3549 38.7716 23.4064 38.5183 23.4079C38.2671 23.4078 38.0185 23.3579 37.7868 23.261C37.555 23.1641 37.3448 23.0222 37.1683 22.8435C36.9009 22.5721 36.719 22.2283 36.6452 21.8545C36.5713 21.4808 36.6088 21.0936 36.753 20.741C36.8972 20.3884 37.1417 20.0858 37.4562 19.8708C37.7707 19.6558 38.1414 19.5379 38.5223 19.5316C38.9681 19.5315 39.3998 19.688 39.742 19.9737L39.7815 20.0132C39.8451 20.065 39.9033 20.1232 39.9552 20.1869L39.9986 20.2342C40.2811 20.5823 40.4346 21.0175 40.4328 21.4658Z" fill="white"/>
<defs>
<linearGradient id="paint0_linear_302_5077" x1="8.78684" y1="8.78684" x2="51.2132" y2="51.2132" gradientUnits="userSpaceOnUse">
<stop stop-color="#FAE100"/>
<stop offset="0.15" stop-color="#FCB720"/>
<stop offset="0.3" stop-color="#FF7950"/>
<stop offset="0.5" stop-color="#FF1C74"/>
<stop offset="1" stop-color="#6C1CD1"/>
</linearGradient>
</defs>
</svg>
