<svg width="60" height="60" viewBox="0 0 60 60" fill="none" xmlns="http://www.w3.org/2000/svg">
<path d="M30 60C46.5685 60 60 46.5685 60 30C60 13.4315 46.5685 0 30 0C13.4315 0 0 13.4315 0 30C0 46.5685 13.4315 60 30 60Z" fill="#0084FF"/>
<path d="M48.75 29.2943C48.75 38.884 40.3534 46.6568 30 46.6568C28.1823 46.658 26.3728 46.4137 24.6205 45.9306L18.2352 49.4318V42.8113C13.9773 39.6306 11.25 34.7727 11.25 29.2943C11.25 19.7045 19.6466 11.9318 30 11.9318C40.3534 11.9318 48.75 19.7079 48.75 29.2943Z" fill="white"/>
<path d="M42.1125 24.4329L31.8614 35.3079L27.0887 30.2181L17.7716 35.3113L28.0227 24.4329L32.9148 29.5226L42.1125 24.4329Z" fill="#2196F3"/>
</svg>
