<svg width="15" height="15" viewBox="0 0 15 15" fill="none" xmlns="http://www.w3.org/2000/svg">
<path d="M6.90625 9.34375L5.75 10.5C5.50625 10.7437 5.11875 10.7437 4.86875 10.5062C4.8 10.4375 4.73125 10.375 4.6625 10.3062C4.01875 9.65625 3.4375 8.975 2.91875 8.2625C2.40625 7.55 1.99375 6.8375 1.69375 6.13125C1.4 5.41875 1.25 4.7375 1.25 4.0875C1.25 3.6625 1.325 3.25625 1.475 2.88125C1.625 2.5 1.8625 2.15 2.19375 1.8375C2.59375 1.44375 3.03125 1.25 3.49375 1.25C3.66875 1.25 3.84375 1.2875 4 1.3625C4.1625 1.4375 4.30625 1.55 4.41875 1.7125L5.86875 3.75625C5.98125 3.9125 6.0625 4.05625 6.11875 4.19375C6.175 4.325 6.20625 4.45625 6.20625 4.575C6.20625 4.725 6.1625 4.875 6.075 5.01875C5.99375 5.1625 5.875 5.3125 5.725 5.4625L5.25 5.95625C5.18125 6.025 5.15 6.10625 5.15 6.20625C5.15 6.25625 5.15625 6.3 5.16875 6.35C5.1875 6.4 5.20625 6.4375 5.21875 6.475C5.33125 6.68125 5.525 6.95 5.8 7.275C6.08125 7.6 6.38125 7.93125 6.70625 8.2625C6.76875 8.325 6.8375 8.3875 6.9 8.45C7.15 8.69375 7.15625 9.09375 6.90625 9.34375Z" fill="#1FA7E4"/>
<path d="M13.7312 11.4563C13.7312 11.6313 13.7 11.8125 13.6375 11.9875C13.6187 12.0375 13.6 12.0875 13.575 12.1375C13.4687 12.3625 13.3312 12.575 13.15 12.775C12.8437 13.1125 12.5062 13.3563 12.125 13.5125C12.1187 13.5125 12.1125 13.5188 12.1062 13.5188C11.7375 13.6688 11.3375 13.75 10.9062 13.75C10.2687 13.75 9.5875 13.6 8.86875 13.2938C8.15 12.9875 7.43125 12.575 6.71875 12.0563C6.475 11.875 6.23125 11.6938 6 11.5L8.04375 9.45627C8.21875 9.58752 8.375 9.68752 8.50625 9.75627C8.5375 9.76877 8.575 9.78752 8.61875 9.80627C8.66875 9.82502 8.71875 9.83127 8.775 9.83127C8.88125 9.83127 8.9625 9.79377 9.03125 9.72502L9.50625 9.25627C9.6625 9.10002 9.8125 8.98127 9.95625 8.90627C10.1 8.81877 10.2437 8.77502 10.4 8.77502C10.5187 8.77502 10.6437 8.80002 10.7812 8.85627C10.9187 8.91252 11.0625 8.99377 11.2187 9.10002L13.2875 10.5688C13.45 10.6813 13.5625 10.8125 13.6312 10.9688C13.6937 11.125 13.7312 11.2813 13.7312 11.4563Z" fill="#1FA7E4"/>
</svg>
