<svg width="16" height="16" viewBox="0 0 16 16" fill="none" xmlns="http://www.w3.org/2000/svg">
<path d="M8.42849 5.24902C6.91049 5.24902 5.67749 6.48202 5.67749 8.00002C5.67749 9.51802 6.91049 10.754 8.42849 10.754C9.94649 10.754 11.1825 9.51802 11.1825 8.00002C11.1825 6.48202 9.94649 5.24902 8.42849 5.24902Z" fill="#C0E8F4"/>
<path d="M12.5805 0.5H4.27647C2.43147 0.5 0.928467 2.003 0.928467 3.848V12.152C0.928467 14 2.43147 15.5 4.27647 15.5H12.5805C14.4285 15.5 15.9285 14 15.9285 12.152V3.848C15.9285 2.003 14.4285 0.5 12.5805 0.5ZM8.42847 12.86C5.74947 12.86 3.56847 10.679 3.56847 8C3.56847 5.321 5.74947 3.143 8.42847 3.143C11.1075 3.143 13.2885 5.321 13.2885 8C13.2885 10.679 11.1075 12.86 8.42847 12.86ZM13.3905 4.025C12.8235 4.025 12.3615 3.566 12.3615 2.999C12.3615 2.432 12.8235 1.97 13.3905 1.97C13.9575 1.97 14.4195 2.432 14.4195 2.999C14.4195 3.566 13.9575 4.025 13.3905 4.025Z" fill="#C0E8F4"/>
</svg>
