<svg width="18" height="18" viewBox="0 0 18 18" fill="none" xmlns="http://www.w3.org/2000/svg">
<g clip-path="url(#clip0_258_2254)">
<path d="M17.5669 17.5715L17.5712 17.5708V11.2836C17.5712 8.20791 16.9091 5.83862 13.3134 5.83862C11.5848 5.83862 10.4248 6.78719 9.95123 7.68648H9.90123V6.12577H6.49194V17.5708H10.0419V11.9036C10.0419 10.4115 10.3248 8.96862 12.1727 8.96862C13.9934 8.96862 14.0205 10.6715 14.0205 11.9993V17.5715H17.5669Z" fill="#C0E8F4"/>
<path d="M0.711426 6.12646H4.26571V17.5715H0.711426V6.12646Z" fill="#C0E8F4"/>
<path d="M2.48704 0.428589C1.35061 0.428589 0.428467 1.35073 0.428467 2.48716C0.428467 3.62359 1.35061 4.56502 2.48704 4.56502C3.62347 4.56502 4.54561 3.62359 4.54561 2.48716C4.5449 1.35073 3.62275 0.428589 2.48704 0.428589Z" fill="#C0E8F4"/>
</g>
<defs>
<clipPath id="clip0_258_2254">
<rect width="17.1429" height="18" fill="white" transform="translate(0.428467)"/>
</clipPath>
</defs>
</svg>
