<svg width="15" height="15" viewBox="0 0 15 15" fill="none" xmlns="http://www.w3.org/2000/svg">
<path d="M12.8874 5.28125C12.2312 2.39375 9.71244 1.09375 7.49994 1.09375C7.49994 1.09375 7.49994 1.09375 7.49369 1.09375C5.28744 1.09375 2.76244 2.3875 2.10619 5.275C1.37494 8.5 3.34994 11.2312 5.13744 12.95C5.79994 13.5875 6.64994 13.9062 7.49994 13.9062C8.34994 13.9062 9.19994 13.5875 9.85619 12.95C11.6437 11.2312 13.6187 8.50625 12.8874 5.28125ZM7.49994 8.4125C6.41244 8.4125 5.53119 7.53125 5.53119 6.44375C5.53119 5.35625 6.41244 4.475 7.49994 4.475C8.58744 4.475 9.46869 5.35625 9.46869 6.44375C9.46869 7.53125 8.58744 8.4125 7.49994 8.4125Z" fill="#1FA7E4"/>
</svg>
