<svg width="15" height="15" viewBox="0 0 15 15" fill="none" xmlns="http://www.w3.org/2000/svg">
<path d="M10.625 2.1875H4.375C2.5 2.1875 1.25 3.125 1.25 5.3125V9.6875C1.25 11.875 2.5 12.8125 4.375 12.8125H10.625C12.5 12.8125 13.75 11.875 13.75 9.6875V5.3125C13.75 3.125 12.5 2.1875 10.625 2.1875ZM10.9187 5.99375L8.9625 7.55625C8.55 7.8875 8.025 8.05 7.5 8.05C6.975 8.05 6.44375 7.8875 6.0375 7.55625L4.08125 5.99375C3.88125 5.83125 3.85 5.53125 4.00625 5.33125C4.16875 5.13125 4.4625 5.09375 4.6625 5.25625L6.61875 6.81875C7.09375 7.2 7.9 7.2 8.375 6.81875L10.3312 5.25625C10.5312 5.09375 10.8312 5.125 10.9875 5.33125C11.15 5.53125 11.1187 5.83125 10.9187 5.99375Z" fill="#1FA7E4"/>
</svg>
