<svg width="30" height="30" viewBox="0 0 30 30" fill="none" xmlns="http://www.w3.org/2000/svg">
<g clip-path="url(#clip0_131_1874)">
<path d="M29.9524 15C29.9524 23.2843 23.2367 30 14.9524 30C-4.92339 29.2646 -4.918 0.732363 14.9526 0C23.2367 0 29.9524 6.71572 29.9524 15Z" fill="#F9A826"/>
<path d="M14.0884 14.6198V13.7558H12.8787C12.0198 13.7558 11.3235 13.0595 11.3235 12.2006V10.4725C11.3235 9.61359 12.0198 8.91727 12.8787 8.91727H15.3573C16.0513 8.91727 16.7078 9.16119 17.2289 9.6085H18.0629C18.3492 9.6085 18.5814 9.84059 18.5814 10.1269V12.8919C18.5814 13.1781 18.3493 13.4103 18.0629 13.4103H17.0261C16.7398 13.4103 16.5077 13.6424 16.5077 13.9287V15.3112C16.5077 15.7884 16.1208 16.1752 15.6437 16.1752C14.7847 16.1751 14.0884 15.4788 14.0884 14.6198ZM7.86739 14.5162V14.2743C7.86739 10.3613 11.0395 7.18922 14.9524 7.18922C18.8654 7.18922 22.0375 10.3613 22.0375 14.2743V14.5162H22.2103C22.5131 14.5162 22.8039 14.5689 23.0743 14.6648V14.2743C23.0743 9.78867 19.438 6.15234 14.9524 6.15234C10.4668 6.15234 6.83057 9.78861 6.83057 14.2742V14.6648C7.10098 14.5689 7.39173 14.5161 7.6946 14.5161L7.86739 14.5162ZM21.519 22.8108H17.5445V22.2924C17.5445 21.4348 16.8468 20.7371 15.9892 20.7371C13.9287 20.8154 13.9295 23.7698 15.9892 23.8477H21.519C22.7578 23.8477 23.7655 22.8399 23.7655 21.6012V21.2541C23.4624 21.4822 23.1078 21.6454 22.7225 21.7229C22.6613 22.333 22.1449 22.8108 21.519 22.8108ZM22.2103 15.553H21.6918V20.7372H22.2103C23.0692 20.7372 23.7655 20.0409 23.7655 19.182V17.1083C23.7655 16.2493 23.0692 15.553 22.2103 15.553ZM19.9638 14.8618C19.2003 14.8618 18.5813 15.4807 18.5813 16.2442V20.046C18.5813 20.8095 19.2002 21.4284 19.9638 21.4284C20.3455 21.4284 20.655 21.1189 20.655 20.7372V15.553C20.655 15.1713 20.3455 14.8618 19.9638 14.8618ZM6.13934 17.1083V19.182C6.13934 20.0409 6.83567 20.7372 7.6946 20.7372H8.21304V15.553H7.6946C6.83561 15.553 6.13934 16.2493 6.13934 17.1083ZM9.94102 14.8618C9.55929 14.8618 9.24979 15.1713 9.24979 15.553V20.7372C9.24979 21.1189 9.55929 21.4284 9.94102 21.4284C10.7045 21.4284 11.3235 20.8095 11.3235 20.046V16.2442C11.3235 15.4807 10.7046 14.8618 9.94102 14.8618Z" fill="#F3F9FB"/>
</g>
<defs>
<clipPath id="clip0_131_1874">
<rect width="30" height="30" fill="white"/>
</clipPath>
</defs>
</svg>
