<svg width="30" height="30" viewBox="0 0 30 30" fill="none" xmlns="http://www.w3.org/2000/svg">
<g clip-path="url(#clip0_131_1778)">
<path d="M15 30C23.2843 30 30 23.2843 30 15C30 6.71573 23.2843 0 15 0C6.71573 0 0 6.71573 0 15C0 23.2843 6.71573 30 15 30Z" fill="#82C3E1"/>
<path d="M20.625 10.5C19.125 10.5 17.875 9.375 17.875 7.75C17.875 6.125 19.125 5 20.625 5C22.125 5 23.375 6.125 23.375 7.75C23.375 9.375 22.125 10.5 20.625 10.5ZM20.625 6.875C20.125 6.875 19.75 7.25 19.75 7.75C19.75 8.25 20.125 8.625 20.625 8.625C21.125 8.625 21.5 8.25 21.5 7.75C21.5 7.125 21.125 6.875 20.625 6.875Z" fill="#F3F9FB"/>
<path d="M10.625 10.5C9.125 10.5 7.875 9.375 7.875 7.75C7.875 6.125 9.125 5 10.625 5C12.125 5 13.375 6.125 13.375 7.75C13.375 9.375 12.125 10.5 10.625 10.5ZM10.625 6.875C10.125 6.875 9.75 7.25 9.75 7.75C9.75 8.25 10.125 8.625 10.625 8.625C11.125 8.625 11.5 8.25 11.5 7.75C11.5 7.125 11.125 6.875 10.625 6.875Z" fill="#F3F9FB"/>
<path d="M10.625 25C9.125 25 7.875 23.875 7.875 22.25C7.875 20.625 9 19.5 10.625 19.5C12.25 19.5 13.375 20.625 13.375 22.25C13.375 23.875 12.125 25 10.625 25ZM10.625 21.375C10.125 21.375 9.75 21.75 9.75 22.25C9.75 22.75 10.125 23.125 10.625 23.125C11.125 23.125 11.5 22.75 11.5 22.25C11.5 21.75 11.125 21.375 10.625 21.375Z" fill="#F3F9FB"/>
<path d="M10.625 21.375C10.125 21.375 9.75 21 9.75 20.5V9.5C9.75 9 10.125 8.625 10.625 8.625C11.125 8.625 11.5 9 11.5 9.5V16.125C12.5 15.375 13.875 14.875 15.25 14.25C17.375 13.375 19.75 12.375 19.75 11.25V9.5C19.75 9 20.125 8.625 20.625 8.625C21.125 8.625 21.5 9 21.5 9.5V11.375C21.5 13.875 18.625 14.875 16 16.125C13.875 17 11.5 18 11.5 19.125V20.5C11.5 21 11.125 21.375 10.625 21.375Z" fill="#F3F9FB"/>
</g>
<defs>
<clipPath id="clip0_131_1778">
<rect width="30" height="30" fill="white"/>
</clipPath>
</defs>
</svg>
