<svg width="40" height="40" viewBox="0 0 40 40" fill="none" xmlns="http://www.w3.org/2000/svg">
<path d="M20 0C8.97361 0 0 8.97361 0 20C0 31.0264 8.97361 40 20 40C31.0264 40 40 31.0264 40 20C40 8.97361 31.0264 0 20 0ZM30.6158 19.4721L26.9208 22.6393L28.0352 27.3314C28.5631 29.6188 26.0997 31.3783 24.1056 30.1466L20 27.6246L15.8944 30.1466C13.9003 31.3783 11.437 29.5601 11.9648 27.3314L13.0792 22.6393L9.38416 19.4721C7.62463 17.9472 8.56305 15.0733 10.8504 14.8974L15.6598 14.4868L17.5367 10.0293C18.4164 7.85924 21.4663 7.85924 22.346 10.0293L24.2229 14.4868L29.0323 14.8974C31.3783 15.0733 32.3167 18.0059 30.4985 19.4721H30.6158Z" fill="#F9A826"/>
</svg>
