<svg width="30" height="30" viewBox="0 0 30 30" fill="none" xmlns="http://www.w3.org/2000/svg">
<g id="conversation 1" clip-path="url(#clip0_1703_3083)">
<path id="Vector" fill-rule="evenodd" clip-rule="evenodd" d="M15 0C23.2843 0 30 6.71572 30 15C30 23.2843 23.2843 30 15 30C6.71572 30 0 23.2843 0 15C0 6.71572 6.71572 0 15 0ZM8.37252 11.4422C8.37252 11.5687 8.42272 11.6901 8.5121 11.7796C8.60149 11.8691 8.72274 11.9195 8.84924 11.9197H18.1181C18.1812 11.9204 18.2438 11.9085 18.3024 11.8849C18.3609 11.8612 18.4141 11.8261 18.459 11.7817C18.5039 11.7374 18.5396 11.6845 18.5639 11.6262C18.5882 11.568 18.6007 11.5055 18.6007 11.4423C18.6007 11.3792 18.5882 11.3167 18.5639 11.2584C18.5396 11.2002 18.5039 11.1473 18.459 11.1029C18.4141 11.0585 18.3609 11.0235 18.3024 10.9998C18.2438 10.9761 18.1812 10.9643 18.1181 10.965H8.84924C8.72277 10.9652 8.60156 11.0156 8.51218 11.105C8.42281 11.1945 8.37258 11.3158 8.37252 11.4422ZM16.5548 13.2921H8.84924C8.72356 13.2934 8.6035 13.3443 8.51511 13.4337C8.42673 13.5231 8.37716 13.6437 8.37716 13.7694C8.37716 13.8951 8.42673 14.0157 8.51511 14.1051C8.6035 14.1944 8.72356 14.2453 8.84924 14.2467H16.5548C16.6179 14.2474 16.6806 14.2356 16.7391 14.2119C16.7976 14.1882 16.8509 14.1532 16.8957 14.1088C16.9406 14.0644 16.9763 14.0115 17.0006 13.9533C17.0249 13.895 17.0374 13.8325 17.0374 13.7694C17.0374 13.7063 17.0249 13.6437 17.0006 13.5855C16.9763 13.5272 16.9406 13.4744 16.8957 13.43C16.8509 13.3856 16.7976 13.3505 16.7391 13.3269C16.6806 13.3032 16.6179 13.2914 16.5548 13.2921ZM14.2371 15.6186H8.84924C8.72356 15.62 8.6035 15.6709 8.51511 15.7602C8.42673 15.8496 8.37716 15.9702 8.37716 16.0959C8.37716 16.2216 8.42673 16.3422 8.51511 16.4316C8.6035 16.5209 8.72356 16.5718 8.84924 16.5732H14.2371C14.3002 16.5739 14.3629 16.5621 14.4214 16.5384C14.4799 16.5148 14.5332 16.4797 14.5781 16.4353C14.623 16.3909 14.6586 16.3381 14.6829 16.2798C14.7072 16.2215 14.7198 16.159 14.7198 16.0959C14.7198 16.0328 14.7072 15.9703 14.6829 15.912C14.6586 15.8537 14.623 15.8009 14.5781 15.7565C14.5332 15.7121 14.4799 15.6771 14.4214 15.6534C14.3629 15.6297 14.3002 15.6179 14.2371 15.6186ZM12.9028 20.3136C14.5772 20.314 16.1984 19.7253 17.4824 18.6506C18.7664 17.5759 19.6315 16.0838 19.926 14.4355C20.2205 12.7872 19.9258 11.0878 19.0934 9.63493C18.261 8.18207 16.9441 7.06835 15.3732 6.48881C13.8023 5.90926 12.0775 5.90084 10.501 6.46501C8.92452 7.02918 7.59675 8.12999 6.75022 9.57465C5.90369 11.0193 5.59238 12.7157 5.8708 14.3668C6.14922 16.0179 6.99963 17.5185 8.27309 18.6056C8.36655 18.6859 8.42567 18.7989 8.43826 18.9215L8.78356 22.443L11.7074 20.3479C11.8048 20.2785 11.9245 20.2478 12.0433 20.262C12.3285 20.2963 12.6155 20.3135 12.9028 20.3136V20.3136ZM24.2285 16.6068C24.2261 15.4947 23.8992 14.4075 23.2878 13.4785C22.6764 12.5495 21.8072 11.8192 20.7867 11.3771C20.9221 11.9693 20.9901 12.575 20.9894 13.1825C20.9894 16.9397 18.4146 20.1061 14.9353 21.0098C15.5293 21.4961 16.2157 21.8572 16.9529 22.0713C17.6902 22.2854 18.4632 22.3481 19.2253 22.2556C19.3435 22.2411 19.4628 22.2718 19.5593 22.3416L21.8038 23.9485L22.0684 21.2501C22.0808 21.1273 22.14 21.014 22.2336 20.9337C22.8594 20.3998 23.3619 19.7364 23.7063 18.9894C24.0508 18.2423 24.2289 17.4294 24.2285 16.6068Z" fill="#FF5A8B"/>
</g>
<defs>
<clipPath id="clip0_1703_3083">
<rect width="30" height="30" fill="white"/>
</clipPath>
</defs>
</svg>
