<svg width="28" height="30" viewBox="0 0 28 30" fill="none" xmlns="http://www.w3.org/2000/svg">
<path d="M24.842 12.401H24.7678V10.5817C24.7678 4.73759 20.0303 0 14.1861 0C8.34192 0 3.60441 4.73759 3.60441 10.5817V12.401H3.15889C1.52521 12.401 0.262856 13.849 0.262856 15.5198V20.1609C0.221708 21.7803 1.50119 23.1264 3.12059 23.1676C3.13338 23.1679 3.1461 23.1681 3.15889 23.1683H5.9064C6.29556 23.15 6.59624 22.8196 6.57791 22.4305C6.57727 22.4165 6.5762 22.4025 6.57471 22.3886V13.292C6.57471 12.8465 6.31482 12.4009 5.9064 12.4009H5.08956V10.5816C5.08956 5.55777 9.16225 1.48508 14.1861 1.48508C19.2099 1.48508 23.2826 5.55777 23.2826 10.5816V12.4009H22.4658C22.0574 12.4009 21.7975 12.8464 21.7975 13.292V22.3886C21.756 22.7759 22.0365 23.1236 22.4239 23.165C22.4378 23.1665 22.4518 23.1676 22.4658 23.1682H23.3197L23.2455 23.2796C22.1313 24.7603 20.3831 25.6275 18.5301 25.6187C18.1245 23.6296 16.1831 22.3459 14.194 22.7516C12.493 23.0985 11.2666 24.5882 11.2529 26.3242C11.2732 28.3602 12.9296 30 14.9658 29.9999C15.9737 29.9835 16.9344 29.5699 17.639 28.8489C18.1144 28.3621 18.4259 27.739 18.5301 27.0667C20.8506 27.0755 23.0389 25.9881 24.4335 24.1335L25.139 23.0939C26.7355 22.9825 27.738 21.9801 27.738 20.532V15.8909C27.7381 14.2946 26.55 12.401 24.842 12.401ZM5.08956 21.6831H3.15889C2.35939 21.6637 1.72704 20.9998 1.74651 20.2003C1.74687 20.1872 1.74737 20.174 1.74801 20.1608V15.5197C1.74801 14.6658 2.34205 13.8861 3.15889 13.8861H5.08956V21.6831ZM16.5623 27.8094C16.1509 28.2555 15.5727 28.511 14.9658 28.5148C13.7578 28.4957 12.7775 27.5317 12.7381 26.3242C12.7376 25.1144 13.718 24.1332 14.9278 24.1327C16.1377 24.1322 17.1188 25.1126 17.1193 26.3224C17.1193 26.323 17.1193 26.3237 17.1193 26.3242C17.1502 26.8755 16.9481 27.4144 16.5623 27.8094ZM26.2529 20.5321C26.2529 21.5346 25.2876 21.6831 24.842 21.6831H23.2826V13.8861H24.842C25.6589 13.8861 26.2529 15.0371 26.2529 15.8911V20.5321Z" fill="#333333"/>
</svg>
