<svg width="86" height="85" viewBox="0 0 86 85" fill="none" xmlns="http://www.w3.org/2000/svg">
<g clip-path="url(#clip0_848_2026)">
<path fill-rule="evenodd" clip-rule="evenodd" d="M42.8386 84.8207C19.4938 84.8207 0.5 65.8388 0.5 42.494C0.5 19.1492 19.4938 0.155396 42.8386 0.155396C66.1715 0.155396 85.1653 19.1492 85.1653 42.494C85.1653 65.8388 66.1715 84.8207 42.8386 84.8207ZM42.8386 7.05246C23.295 7.05246 7.39706 22.9504 7.39706 42.494C7.39706 62.0377 23.295 77.9356 42.8386 77.9356C62.3703 77.9356 78.2802 62.0377 78.2802 42.494C78.2802 22.9504 62.3823 7.05246 42.8386 7.05246Z" fill="#677484"/>
<path fill-rule="evenodd" clip-rule="evenodd" d="M81.7471 59.145C77.5276 68.9706 69.6982 76.8837 59.9323 81.2108C58.1871 79.6329 56.8006 77.6606 55.916 75.4254C65.0723 71.7796 72.3757 64.4044 75.9259 55.1884C78.1611 56.0491 80.1454 57.4117 81.7471 59.145Z" fill="#677484"/>
<path fill-rule="evenodd" clip-rule="evenodd" d="M42.839 7.05243C23.2954 7.05243 7.39746 22.9503 7.39746 42.494C7.39746 62.0377 23.2954 77.9356 42.839 77.9356C62.3707 77.9356 78.2806 62.0377 78.2806 42.494C78.2806 22.9503 62.3827 7.05243 42.839 7.05243Z" fill="#F5FAFE"/>
<path fill-rule="evenodd" clip-rule="evenodd" d="M55.9151 75.4254C65.0714 71.7796 72.3748 64.4044 75.925 55.1884C74.1917 54.5191 72.3151 54.1605 70.3547 54.1605C61.7842 54.1605 54.8154 61.1292 54.8154 69.6998C54.8154 71.7199 55.2099 73.6563 55.9151 75.4254Z" fill="#A9B3BF"/>
<path fill-rule="evenodd" clip-rule="evenodd" d="M19.2552 43.7013H10.1946C9.5252 43.7013 8.9873 43.1515 8.9873 42.494C8.9873 41.8246 9.5252 41.2867 10.1946 41.2867H19.2552C19.9246 41.2867 20.4625 41.8246 20.4625 42.494C20.4625 43.1515 19.9246 43.7013 19.2552 43.7013Z" fill="#A9B3BF"/>
<path fill-rule="evenodd" clip-rule="evenodd" d="M42.8391 20.1175C42.1697 20.1175 41.6318 19.5796 41.6318 18.9221V9.84956C41.6318 9.18017 42.1697 8.64227 42.8391 8.64227C43.4966 8.64227 44.0345 9.18017 44.0345 9.84956V18.9221C44.0345 19.5796 43.4966 20.1175 42.8391 20.1175Z" fill="#A9B3BF"/>
<path fill-rule="evenodd" clip-rule="evenodd" d="M42.8391 76.3458C42.1697 76.3458 41.6318 75.796 41.6318 75.1386V66.066C41.6318 65.3966 42.1697 64.8587 42.8391 64.8587C43.4966 64.8587 44.0345 65.3966 44.0345 66.066V75.1386C44.0345 75.796 43.4966 76.3458 42.8391 76.3458Z" fill="#A9B3BF"/>
<path fill-rule="evenodd" clip-rule="evenodd" d="M26.5104 71.9709C25.59 71.9709 25.0043 70.9668 25.4704 70.154L27.7177 66.2692C28.0524 65.6954 28.7815 65.4922 29.3672 65.8269C29.941 66.1616 30.1322 66.9027 29.7975 67.4765L27.5623 71.3613C27.3352 71.7558 26.9287 71.9709 26.5104 71.9709Z" fill="#A9B3BF"/>
<path fill-rule="evenodd" clip-rule="evenodd" d="M75.472 43.7013H66.4114C65.742 43.7013 65.2041 43.1515 65.2041 42.494C65.2041 41.8246 65.742 41.2867 66.4114 41.2867H75.472C76.1414 41.2867 76.6793 41.8246 76.6793 42.494C76.6793 43.1515 76.1414 43.7013 75.472 43.7013Z" fill="#A9B3BF"/>
<path fill-rule="evenodd" clip-rule="evenodd" d="M56.9078 19.3166C55.9874 19.3166 55.4017 18.3125 55.8679 17.5116L58.1151 13.6148C58.4498 13.0411 59.179 12.8498 59.7527 13.1726C60.3384 13.5073 60.5297 14.2484 60.195 14.8221L57.9597 18.7189C57.7326 19.1014 57.3262 19.3166 56.9078 19.3166Z" fill="#A9B3BF"/>
<path fill-rule="evenodd" clip-rule="evenodd" d="M67.212 29.6203C65.9928 29.6203 65.5505 27.9827 66.6144 27.3731L70.4992 25.1259C71.073 24.7912 71.8141 24.9944 72.1488 25.5681C72.4835 26.1419 72.2803 26.883 71.7065 27.2177L67.8217 29.4649C67.6304 29.5725 67.4153 29.6203 67.212 29.6203Z" fill="#A9B3BF"/>
<path fill-rule="evenodd" clip-rule="evenodd" d="M14.57 60.0176C13.3388 60.0176 12.8965 58.38 13.9604 57.7704L17.8571 55.5231C18.4309 55.1885 19.16 55.3917 19.4947 55.9654C19.8294 56.5392 19.6382 57.2803 19.0525 57.615L15.1676 59.8622C14.9764 59.9698 14.7732 60.0176 14.57 60.0176Z" fill="#A9B3BF"/>
<path fill-rule="evenodd" clip-rule="evenodd" d="M18.4544 29.6203C18.2512 29.6203 18.036 29.5725 17.8567 29.4649L13.9599 27.2177C13.3862 26.883 13.1949 26.1419 13.5177 25.5681C13.8523 24.9944 14.5934 24.7912 15.1672 25.1259L19.064 27.3731C20.1278 27.9827 19.6856 29.6203 18.4544 29.6203Z" fill="#A9B3BF"/>
<path fill-rule="evenodd" clip-rule="evenodd" d="M28.7584 19.3166C28.34 19.3166 27.9336 19.1014 27.7184 18.7189L25.4712 14.8221C25.1365 14.2484 25.3397 13.5073 25.9135 13.1726C26.4872 12.8498 27.2283 13.0411 27.563 13.6148L29.7983 17.5116C30.2764 18.3125 29.6788 19.3166 28.7584 19.3166Z" fill="#A9B3BF"/>
<path fill-rule="evenodd" clip-rule="evenodd" d="M62.9924 46.4984C62.7772 46.4984 48.0866 44.4663 46.5207 44.2512C45.8633 44.1555 45.3971 43.5459 45.4808 42.8885C45.5764 42.2311 46.186 41.7649 46.8435 41.8605L63.1597 44.0958C63.8172 44.1914 64.2834 44.801 64.1877 45.4584C64.1041 46.0681 63.5901 46.4984 62.9924 46.4984ZM42.8391 39.8045C42.1697 39.8045 41.6318 39.2666 41.6318 38.6092V26.7993C41.6318 26.1419 42.1697 25.592 42.8391 25.592C43.4966 25.592 44.0345 26.1419 44.0345 26.7993V38.6092C44.0345 39.2666 43.4966 39.8045 42.8391 39.8045Z" fill="#A9B3BF"/>
<path fill-rule="evenodd" clip-rule="evenodd" d="M42.8382 47.5861C40.0292 47.5861 37.7461 45.3031 37.7461 42.494C37.7461 39.685 40.0292 37.4019 42.8382 37.4019C45.6353 37.4019 47.9303 39.685 47.9303 42.494C47.9303 45.3031 45.6353 47.5861 42.8382 47.5861Z" fill="#A9B3BF"/>
<path fill-rule="evenodd" clip-rule="evenodd" d="M42.8386 80.3382C21.9561 80.3382 4.98242 63.3645 4.98242 42.494C4.98242 21.6235 21.9561 4.63788 42.8386 4.63788C63.709 4.63788 80.6827 21.6235 80.6827 42.494C80.6827 63.3645 63.709 80.3382 42.8386 80.3382ZM42.8386 10.2798C60.6251 10.2798 75.0408 24.6955 75.0408 42.494C75.0408 60.2805 60.6251 74.7082 42.8386 74.7082C25.0401 74.7082 10.6244 60.2805 10.6244 42.494C10.6244 24.6955 25.0401 10.2798 42.8386 10.2798Z" fill="#677484"/>
<path fill-rule="evenodd" clip-rule="evenodd" d="M78.1011 56.2284C74.3119 65.9344 66.626 73.7041 56.9796 77.6009C56.0234 75.9991 55.354 74.2061 55.0312 72.3056C63.1236 68.9945 69.5665 62.4919 72.7939 54.3517C74.6944 54.6505 76.4874 55.296 78.1011 56.2284Z" fill="#677484"/>
<path fill-rule="evenodd" clip-rule="evenodd" d="M70.3548 84.8446C62.0114 84.8446 55.21 78.0551 55.21 69.6998C55.21 61.3564 62.0114 54.5549 70.3548 54.5549C78.7102 54.5549 85.4997 61.3564 85.4997 69.6998C85.4997 78.0551 78.7102 84.8446 70.3548 84.8446Z" fill="#A9B3BF"/>
<path fill-rule="evenodd" clip-rule="evenodd" d="M71.0128 80.4577C65.0481 80.4577 60.207 75.6167 60.207 69.652C60.207 64.3088 64.1875 59.7068 69.4828 58.9537C70.3076 58.8342 70.9052 59.7307 70.4869 60.4479C69.7219 61.7747 69.3155 63.2928 69.3155 64.8348C69.3155 70.1779 74.0609 74.3018 79.3682 73.5487C80.193 73.4411 80.7906 74.3257 80.3723 75.0429C78.4478 78.3898 74.8618 80.4577 71.0128 80.4577Z" fill="#F5FAFE"/>
</g>
<defs>
<clipPath id="clip0_848_2026">
<rect width="85" height="84.6892" fill="white" transform="translate(0.5 0.155396)"/>
</clipPath>
</defs>
</svg>
