<svg width="30" height="30" viewBox="0 0 30 30" fill="none" xmlns="http://www.w3.org/2000/svg">
<path fill-rule="evenodd" clip-rule="evenodd" d="M15 0C6.72902 0 0 6.72902 0 15C0 23.271 6.72885 30 15 30C23.2712 30 30 23.271 30 15C30 6.72896 23.2711 0 15 0ZM12.0749 6.69897C12.075 6.56965 12.1263 6.44564 12.2177 6.35418C12.3091 6.26273 12.4331 6.21131 12.5624 6.21123H17.4374C17.5668 6.21152 17.6908 6.26309 17.7822 6.35462C17.8736 6.44616 17.9249 6.57019 17.9251 6.69955V7.90523H12.0749V6.69897ZM20.0906 23.0911C20.0781 23.2813 19.9934 23.4595 19.8539 23.5892C19.7143 23.719 19.5304 23.7905 19.3399 23.7891H10.6035C10.4131 23.7886 10.2298 23.716 10.0906 23.586C9.95144 23.456 9.86659 23.2781 9.85313 23.0881L9.10588 12.1523H20.888L20.0903 23.0911H20.0906ZM22.0324 11.1621H7.96758V10.029C7.96783 9.7285 8.08729 9.44041 8.29974 9.22794C8.51218 9.01547 8.80026 8.89598 9.10072 8.8957L20.8991 8.89535C21.1996 8.89577 21.4876 9.01536 21.7001 9.22789C21.9125 9.44042 22.0319 9.72854 22.0322 10.029V11.162L22.0324 11.1621ZM12.7354 21.1821V14.2383C12.7354 14.107 12.7876 13.9811 12.8805 13.8882C12.9734 13.7954 13.0993 13.7433 13.2306 13.7433C13.362 13.7434 13.4879 13.7956 13.5807 13.8885C13.6735 13.9814 13.7256 14.1073 13.7256 14.2386V21.1821C13.7266 21.2478 13.7145 21.313 13.6901 21.3739C13.6657 21.4349 13.6294 21.4904 13.5833 21.5372C13.5372 21.584 13.4823 21.6211 13.4217 21.6465C13.3611 21.6718 13.2961 21.6849 13.2305 21.6849C13.1648 21.6849 13.0998 21.6718 13.0392 21.6465C12.9786 21.6211 12.9237 21.584 12.8776 21.5372C12.8316 21.4904 12.7953 21.4349 12.7708 21.3739C12.7464 21.313 12.7343 21.2478 12.7354 21.1821ZM16.2681 21.1821V14.2383C16.2701 14.1083 16.3232 13.9843 16.4159 13.8931C16.5086 13.8019 16.6334 13.7509 16.7634 13.7509C16.8934 13.7509 17.0182 13.8021 17.1108 13.8934C17.2034 13.9846 17.2564 14.1086 17.2583 14.2386V21.1824C17.2598 21.2483 17.248 21.3139 17.2238 21.3752C17.1995 21.4365 17.1633 21.4924 17.1172 21.5395C17.0711 21.5867 17.016 21.6241 16.9552 21.6497C16.8944 21.6752 16.8291 21.6884 16.7632 21.6884C16.6973 21.6884 16.632 21.6752 16.5712 21.6497C16.5104 21.6241 16.4553 21.5867 16.4092 21.5395C16.3631 21.4924 16.3269 21.4365 16.3026 21.3752C16.2784 21.3139 16.2667 21.2483 16.2681 21.1824V21.1821Z" fill="#E33C5A"/>
</svg>
