<svg width="236" height="175" viewBox="0 0 236 175" fill="none" xmlns="http://www.w3.org/2000/svg">
<g clip-path="url(#clip0_1729_26135)">
<path d="M211.623 132.718C213.631 124.521 214.696 115.953 214.696 107.137C214.696 89.6137 210.489 73.0739 203.029 58.4702L200.842 54.4098C182.44 21.924 147.56 0 107.559 0C80.9527 0 56.6133 9.69979 37.8796 25.7547L33.4015 29.8152C31.1242 31.9997 28.9443 34.284 26.8665 36.6599L23.4882 40.7203C9.04587 58.9784 0.421509 82.0497 0.421509 107.137C0.421509 121.176 3.12344 134.585 8.03308 146.872L9.75354 150.932C10.4925 152.578 11.271 154.204 12.0889 155.805L14.2745 159.865C16.7781 164.285 19.5868 168.51 22.6727 172.51H192.445C198.212 165.033 203.013 156.772 206.661 147.916L208.238 143.855C209.085 141.533 209.855 139.173 210.543 136.779L211.624 132.718H211.623Z" fill="#F0F3FD"/>
<path d="M152.588 172.504H139.608C139.608 171.567 140.368 170.807 141.306 170.807H150.892C151.829 170.807 152.589 171.567 152.589 172.504H152.588Z" fill="#E9EBF2"/>
<path d="M149.512 170.807H142.683L144.903 107.541L146.394 108.532L149.512 170.807Z" fill="#E9EBF2"/>
<path d="M151.622 172.504H138.642C138.642 171.567 139.402 170.807 140.339 170.807H149.925C150.863 170.807 151.623 171.567 151.623 172.504H151.622Z" fill="#E9EBF2"/>
<path d="M145.132 108.1L177.79 126.956L177.433 125.099C177.362 124.733 177.162 124.406 176.867 124.177L155.531 107.662C155.14 107.359 154.629 107.264 154.155 107.405L149.874 108.684C149.471 108.804 149.034 108.753 148.67 108.542L145.826 106.899L145.133 108.099L145.132 108.1Z" fill="#E9EBF2"/>
<path d="M144.439 106.9L111.781 125.756L113.564 126.374C113.917 126.497 114.305 126.487 114.652 126.344L139.617 116.127C140.076 115.939 140.417 115.541 140.532 115.057L141.563 110.718C141.661 110.307 141.925 109.953 142.292 109.74L145.133 108.1L144.44 106.9H144.439Z" fill="#E9EBF2"/>
<path d="M145.824 106.9V69.1895L144.396 70.425C144.113 70.6698 143.93 71.0085 143.88 71.3798L140.245 98.1113C140.178 98.6021 140.352 99.0951 140.713 99.435L143.958 102.5C144.265 102.79 144.439 103.194 144.439 103.617V106.9H145.824Z" fill="#E9EBF2"/>
<path d="M148.266 170.807H141.998L144.218 107.541H146.047L148.266 170.807Z" fill="#E9EBF2"/>
<path d="M146.69 107.904C146.894 107.041 146.36 106.177 145.497 105.973C144.634 105.769 143.769 106.304 143.565 107.167C143.361 108.03 143.896 108.895 144.759 109.098C145.622 109.302 146.487 108.768 146.69 107.904Z" fill="#E9EBF2"/>
<path d="M145.023 108.91C145.831 108.91 146.487 108.254 146.487 107.446C146.487 106.637 145.831 105.981 145.023 105.981C144.214 105.981 143.559 106.637 143.559 107.446C143.559 108.254 144.214 108.91 145.023 108.91Z" fill="#E9EBF2"/>
<path d="M112.359 125.957L143.559 107.446L143.531 107.425L111.781 125.756L112.359 125.957Z" fill="#E9EBF2"/>
<path d="M148.266 170.396H142.012V170.807H148.266V170.396Z" fill="#E9EBF2"/>
<path d="M145.361 69.5909L145.791 106.122L145.824 106.108V69.1895L145.361 69.5909Z" fill="#E9EBF2"/>
<path d="M177.675 126.354L146.045 108.59L146.04 108.625L177.79 126.956L177.675 126.354Z" fill="#E9EBF2"/>
<path d="M195.228 172.504H174.449C174.449 171.004 175.665 169.787 177.166 169.787H192.512C194.012 169.787 195.229 171.003 195.229 172.504H195.228Z" fill="#E9EBF2"/>
<path d="M190.306 169.787H179.372L182.925 68.499L185.314 70.0872L190.306 169.787Z" fill="#E9EBF2"/>
<path d="M193.683 172.504H172.904C172.904 171.004 174.12 169.787 175.621 169.787H190.967C192.467 169.787 193.684 171.003 193.684 172.504H193.683Z" fill="#E9EBF2"/>
<path d="M183.293 69.3948L235.579 99.5812L234.942 96.2691C234.871 95.9025 234.669 95.5741 234.374 95.3456L199.567 68.4029C199.176 68.1001 198.663 68.005 198.19 68.1465L190.505 70.4424C190.102 70.563 189.666 70.512 189.3 70.3009L184.403 67.4736L183.294 69.3948H183.293Z" fill="#E9EBF2"/>
<path d="M182.184 67.4738L129.898 97.6602L133.085 98.7647C133.438 98.8865 133.824 98.876 134.17 98.7345L175.635 81.7642L177.824 72.5517L183.294 69.3938L182.185 67.4727L182.184 67.4738Z" fill="#E9EBF2"/>
<path d="M184.401 67.4736V7.09961L181.851 9.30616C181.568 9.55095 181.384 9.89087 181.333 10.2609L175.404 53.8735C175.337 54.3642 175.512 54.8573 175.872 55.1972L181.7 60.702C182.007 60.992 182.181 61.3969 182.181 61.8192V67.4724H184.4L184.401 67.4736Z" fill="#E9EBF2"/>
<path d="M188.31 169.787H178.275L181.829 68.499H184.757L188.31 169.787Z" fill="#E9EBF2"/>
<path d="M185.667 69.4833C186.21 68.1721 185.588 66.669 184.277 66.1259C182.965 65.5828 181.462 66.2054 180.919 67.5166C180.376 68.8277 180.999 70.3309 182.31 70.874C183.621 71.4171 185.124 70.7945 185.667 69.4833Z" fill="#E9EBF2"/>
<path d="M185.283 69.2457C185.778 68.05 185.211 66.6791 184.015 66.1839C182.819 65.6886 181.448 66.2564 180.953 67.4521C180.458 68.6478 181.025 70.0187 182.221 70.514C183.417 71.0093 184.788 70.4414 185.283 69.2457Z" fill="#E9EBF2"/>
<path d="M130.825 97.9825L180.774 68.3483L180.73 68.3135L129.898 97.6611L130.825 97.9825Z" fill="#E9EBF2"/>
<path d="M188.312 169.13H178.299V169.788H188.312V169.13Z" fill="#E9EBF2"/>
<path d="M183.661 7.74348L184.349 66.2276L184.401 66.2067V7.09961L183.661 7.74348Z" fill="#E9EBF2"/>
<path d="M235.393 98.618L184.755 70.1787L184.748 70.2344L235.578 99.582L235.393 98.618Z" fill="#E9EBF2"/>
<path d="M40.9666 83.2979C40.9666 76.5793 35.5204 71.1328 28.8022 71.1328C22.0839 71.1328 16.6377 76.5793 16.6377 83.2979V111.299C16.6377 118.017 22.0839 123.464 28.8022 123.464C35.5204 123.464 40.9666 118.017 40.9666 111.299V83.2979Z" fill="#E9EBF2"/>
<path d="M29.4663 172.565H28.1392V90.5894C28.1392 90.2228 28.4362 89.9258 28.8028 89.9258C29.1694 89.9258 29.4663 90.2228 29.4663 90.5894V172.565Z" fill="#E4E4E4"/>
<path d="M29.4663 101.7L25.776 95.3073C25.5927 94.9894 25.1866 94.8815 24.8699 95.0648C24.5521 95.2481 24.4442 95.6542 24.6275 95.9709L28.3178 102.363L29.4675 101.7H29.4663Z" fill="#E4E4E4"/>
<path d="M29.2877 109.345L32.978 102.953C33.1613 102.635 33.0523 102.23 32.7356 102.047C32.4177 101.864 32.0128 101.973 31.8295 102.289L28.1392 108.682L29.2888 109.345H29.2877Z" fill="#E4E4E4"/>
<path d="M75.3133 59.1336C75.3133 50.6024 68.3974 43.6865 59.8662 43.6865C51.3351 43.6865 44.4192 50.6024 44.4192 59.1336V94.6925C44.4192 103.224 51.3351 110.14 59.8662 110.14C68.3974 110.14 75.3133 103.224 75.3133 94.6925V59.1336Z" fill="#E9EBF2"/>
<path d="M60.7085 172.491H59.0228V68.394C59.0228 67.9288 59.3999 67.5518 59.8651 67.5518C60.3303 67.5518 60.7073 67.9288 60.7073 68.394V172.491H60.7085Z" fill="#E4E4E4"/>
<path d="M60.7084 82.5023L56.0227 74.386C55.7895 73.9835 55.2744 73.8454 54.8719 74.0774C54.4693 74.3106 54.3313 74.8257 54.5633 75.2283L59.249 83.3445L60.7084 82.5023Z" fill="#E4E4E4"/>
<path d="M60.4835 92.2115L65.1692 84.0953C65.4024 83.6927 65.2644 83.1764 64.8606 82.9444C64.4581 82.7112 63.9418 82.8493 63.7098 83.253L59.024 91.3692L60.4835 92.2115Z" fill="#E4E4E4"/>
<path d="M36.3065 167.964C37.0153 167.298 37.339 166.537 37.0594 166.002C36.7137 165.34 35.5559 165.238 34.3203 165.704C34.383 165.543 34.4422 165.377 34.4955 165.206C35.1545 163.103 34.7774 161.113 33.6556 160.762C32.5616 160.42 31.1613 161.76 30.4815 163.776C29.9188 161.466 28.4722 159.837 27.232 160.13C26.0649 160.405 25.493 162.284 25.8677 164.438C24.1577 163.683 22.5068 163.743 21.9813 164.654C21.4372 165.597 22.2852 167.127 23.9001 168.244C23.1344 168.5 22.6077 168.97 22.5358 169.558C22.4476 170.281 23.0671 170.994 24.0509 171.435C23.9964 171.575 23.9813 171.717 24.0138 171.853C24.1159 172.289 24.6693 172.558 25.3909 172.586V172.588H25.4988C25.4988 172.588 25.5046 172.588 25.5069 172.588H34.6313V172.58C34.8088 172.557 34.9422 172.481 34.9874 172.361C35.0176 172.281 35.0048 172.189 34.9572 172.099C35.4375 172.052 35.7995 171.862 35.9178 171.545C36.0106 171.298 35.941 171.013 35.7485 170.733C36.9956 170.65 37.955 170.103 37.9852 169.399C38.0119 168.781 37.3135 168.22 36.3042 167.965L36.3065 167.964Z" fill="#E4E4E4"/>
<path d="M55.5146 164.085C56.8186 162.86 57.4137 161.461 56.8998 160.476C56.2629 159.257 54.134 159.07 51.8614 159.929C51.9774 159.633 52.0853 159.328 52.1839 159.013C53.395 155.146 52.7036 151.486 50.6386 150.839C48.6258 150.209 46.0526 152.674 44.802 156.381C43.766 152.133 41.107 149.138 38.8274 149.674C36.6811 150.179 35.6289 153.636 36.3192 157.598C33.1741 156.209 30.1392 156.32 29.1728 157.995C28.1716 159.729 29.7308 162.544 32.7019 164.595C31.2935 165.067 30.3248 165.93 30.1926 167.012C30.0301 168.342 31.1706 169.654 32.9792 170.464C32.8794 170.722 32.8527 170.982 32.9107 171.233C33.0998 172.035 34.1149 172.53 35.4444 172.582V172.587H35.6428C35.6428 172.587 35.6533 172.587 35.6579 172.587H52.4391V172.572C52.7663 172.529 53.011 172.391 53.0934 172.169C53.1491 172.021 53.1247 171.854 53.0389 171.685C53.9217 171.6 54.5865 171.25 54.8046 170.668C54.9751 170.214 54.8475 169.689 54.4937 169.174C56.7884 169.021 58.5506 168.015 58.6075 166.721C58.6562 165.583 57.3719 164.554 55.5157 164.083L55.5146 164.085Z" fill="#E9EBF2"/>
<path d="M169.761 164.96C168.6 163.869 168.07 162.624 168.527 161.747C169.093 160.661 170.99 160.495 173.013 161.26C172.91 160.996 172.813 160.724 172.726 160.445C171.648 157.001 172.264 153.742 174.102 153.167C175.895 152.605 178.186 154.801 179.3 158.102C180.222 154.32 182.59 151.653 184.62 152.131C186.532 152.581 187.468 155.659 186.853 159.185C189.654 157.949 192.356 158.047 193.217 159.538C194.108 161.082 192.72 163.588 190.074 165.415C191.328 165.835 192.19 166.604 192.308 167.568C192.453 168.753 191.438 169.92 189.828 170.642C189.917 170.871 189.94 171.103 189.888 171.326C189.72 172.041 188.815 172.481 187.633 172.528V172.533H187.457C187.457 172.533 187.447 172.533 187.443 172.533H172.5V172.52C172.209 172.481 171.991 172.359 171.918 172.161C171.868 172.029 171.89 171.881 171.967 171.731C171.18 171.654 170.588 171.343 170.393 170.825C170.243 170.42 170.355 169.952 170.67 169.494C168.627 169.357 167.057 168.463 167.007 167.311C166.963 166.298 168.108 165.382 169.76 164.962L169.761 164.96Z" fill="#EAEAEA"/>
<path d="M187.031 169.483C186.562 169.042 186.348 168.539 186.532 168.185C186.761 167.747 187.527 167.679 188.344 167.988C188.302 167.881 188.264 167.771 188.228 167.658C187.792 166.266 188.041 164.951 188.784 164.717C189.508 164.491 190.434 165.378 190.884 166.712C191.256 165.184 192.213 164.106 193.033 164.299C193.806 164.481 194.184 165.724 193.936 167.149C195.067 166.649 196.16 166.69 196.507 167.292C196.866 167.916 196.306 168.929 195.238 169.667C195.745 169.836 196.093 170.147 196.14 170.537C196.198 171.015 195.789 171.487 195.138 171.778C195.174 171.871 195.183 171.965 195.162 172.054C195.095 172.343 194.728 172.52 194.25 172.539L194.18 172.54C194.177 172.54 194.176 172.54 194.174 172.54H188.136V172.534C188.019 172.519 187.931 172.469 187.901 172.389C187.881 172.336 187.889 172.276 187.921 172.215C187.603 172.184 187.364 172.059 187.285 171.849C187.223 171.685 187.27 171.496 187.396 171.312C186.57 171.256 185.937 170.895 185.916 170.429C185.899 170.019 186.36 169.649 187.029 169.48L187.031 169.483Z" fill="#E4E4E4"/>
<path d="M113.453 165.398C112.359 164.369 111.859 163.196 112.291 162.369C112.825 161.346 114.612 161.189 116.52 161.91C116.422 161.662 116.332 161.405 116.249 161.142C115.233 157.896 115.813 154.824 117.546 154.281C119.235 153.752 121.396 155.822 122.446 158.933C123.314 155.368 125.547 152.854 127.461 153.304C129.262 153.728 130.145 156.629 129.566 159.954C132.207 158.788 134.753 158.881 135.565 160.287C136.405 161.742 135.097 164.105 132.604 165.826C133.786 166.223 134.599 166.947 134.709 167.857C134.846 168.973 133.889 170.074 132.37 170.754C132.455 170.97 132.477 171.189 132.427 171.399C132.269 172.071 131.417 172.487 130.301 172.531V172.534H130.135C130.135 172.534 130.127 172.534 130.122 172.534H116.037V172.522C115.762 172.486 115.558 172.37 115.488 172.184C115.442 172.06 115.462 171.919 115.535 171.778C114.793 171.706 114.235 171.412 114.052 170.924C113.909 170.542 114.016 170.103 114.313 169.67C112.387 169.541 110.907 168.698 110.861 167.612C110.819 166.657 111.898 165.793 113.456 165.397L113.453 165.398Z" fill="#F2F2F2"/>
<path d="M129.289 168.492C128.67 167.91 128.387 167.245 128.63 166.777C128.933 166.197 129.945 166.108 131.026 166.517C130.97 166.376 130.919 166.231 130.873 166.082C130.297 164.243 130.626 162.503 131.607 162.195C132.564 161.896 133.787 163.068 134.382 164.83C134.874 162.81 136.139 161.387 137.223 161.642C138.244 161.882 138.744 163.525 138.416 165.409C139.911 164.749 141.354 164.801 141.814 165.597C142.29 166.422 141.548 167.759 140.136 168.735C140.806 168.959 141.266 169.369 141.329 169.885C141.407 170.517 140.864 171.14 140.004 171.525C140.052 171.648 140.064 171.771 140.037 171.89C139.947 172.272 139.463 172.508 138.832 172.532V172.534H138.738C138.738 172.534 138.734 172.534 138.731 172.534H130.753V172.527C130.598 172.506 130.482 172.441 130.442 172.336C130.416 172.265 130.427 172.186 130.469 172.106C130.049 172.066 129.734 171.9 129.629 171.622C129.548 171.407 129.609 171.157 129.776 170.912C128.686 170.839 127.847 170.361 127.82 169.747C127.797 169.206 128.409 168.716 129.29 168.492H129.289Z" fill="#E4E4E4"/>
<path d="M137.31 72.3345C137.211 72.3345 137.114 72.3495 137.025 72.3774C137.028 72.3298 137.03 72.2822 137.03 72.2335C137.03 71.1221 136.128 70.2207 135.017 70.2207C134.094 70.2207 133.317 70.8414 133.079 71.6871C132.967 71.6558 132.847 71.6384 132.724 71.6384C132.004 71.6384 131.42 72.2219 131.42 72.9424C131.42 73.6628 132.004 74.2463 132.724 74.2463C132.748 74.2463 132.77 74.2463 132.793 74.244V74.2463H137.312C137.839 74.2463 138.267 73.8182 138.267 73.2904C138.267 72.7625 137.839 72.3345 137.312 72.3345H137.31Z" fill="#F2F2F2"/>
<path d="M102.165 50.3512C101.621 50.3512 101.112 50.5021 100.677 50.7619C100.227 48.8141 98.482 47.3616 96.3973 47.3616C96.214 47.3616 96.033 47.3744 95.8555 47.3964C94.8845 45.2316 92.7104 43.7246 90.1848 43.7246C86.7532 43.7246 83.9724 46.5066 83.9724 49.9371C83.9724 49.9742 83.9724 50.0102 83.9735 50.0473C83.5582 49.8512 83.0942 49.7399 82.6046 49.7399C80.8342 49.7399 79.3992 51.1749 79.3992 52.9453C79.3992 54.7156 80.8342 56.1507 82.6046 56.1507H102.165C103.766 56.1507 105.065 54.8525 105.065 53.2515C105.065 51.6506 103.766 50.3524 102.165 50.3524V50.3512Z" fill="white"/>
<path d="M72.3526 119.39C72.7111 119.39 73.0452 119.488 73.3318 119.66C73.6276 118.379 74.775 117.423 76.1474 117.423C76.268 117.423 76.3864 117.432 76.5035 117.447C77.1428 116.023 78.572 115.031 80.2345 115.031C82.4921 115.031 84.3216 116.861 84.3216 119.118C84.3216 119.143 84.3216 119.166 84.3216 119.19C84.5942 119.062 84.9005 118.988 85.2219 118.988C86.3866 118.988 87.3298 119.933 87.3298 121.096C87.3298 122.26 86.3855 123.204 85.2219 123.204H72.3538C71.3004 123.204 70.4465 122.35 70.4465 121.297C70.4465 120.244 71.3004 119.39 72.3538 119.39H72.3526Z" fill="#F2F2F2"/>
<path d="M200.338 161.117L200.307 161.233C200.304 161.246 200.225 161.544 200.029 161.914C199.847 162.258 199.527 162.728 199.03 163.021C198.534 163.315 197.966 163.368 197.578 163.361C197.16 163.354 196.861 163.279 196.848 163.275L196.732 163.246L196.762 163.13C196.766 163.117 196.844 162.819 197.041 162.449C197.223 162.106 197.543 161.636 198.039 161.342C198.536 161.049 199.103 160.996 199.492 161.003C199.91 161.009 200.209 161.085 200.222 161.088L200.338 161.117ZM197.03 163.07C197.347 163.126 198.216 163.226 198.911 162.817C199.606 162.406 199.937 161.599 200.042 161.294C199.725 161.238 198.856 161.137 198.161 161.547C197.465 161.957 197.134 162.765 197.03 163.07Z" fill="#E4E4E4"/>
<path d="M198.681 163.892C197.576 164.308 196.347 163.757 196.347 163.757C196.347 163.757 196.907 162.531 198.01 162.115C199.114 161.698 200.344 162.249 200.344 162.249C200.344 162.249 199.784 163.475 198.681 163.892Z" fill="#F2F2F2"/>
<path d="M196.319 147.854V148.002C196.318 148.018 196.312 148.402 196.188 148.907C196.073 149.376 195.828 150.04 195.318 150.545C194.807 151.05 194.139 151.285 193.668 151.394C193.162 151.511 192.777 151.513 192.761 151.513H192.612L192.613 151.364C192.613 151.348 192.619 150.964 192.743 150.459C192.858 149.99 193.103 149.326 193.613 148.821C194.124 148.316 194.792 148.081 195.263 147.972C195.769 147.855 196.154 147.854 196.17 147.855H196.319V147.854ZM192.919 151.211C193.319 151.182 194.397 151.04 195.11 150.336C195.825 149.631 195.98 148.555 196.014 148.156C195.614 148.185 194.536 148.327 193.822 149.031C193.108 149.736 192.952 150.812 192.919 151.211Z" fill="#E4E4E4"/>
<path d="M195.161 151.704C193.956 152.541 192.304 152.248 192.304 152.248C192.304 152.248 192.608 150.6 193.814 149.764C195.02 148.927 196.672 149.219 196.672 149.219C196.672 149.219 196.368 150.868 195.161 151.704Z" fill="#F2F2F2"/>
<path d="M43.2012 143.96L43.2951 144.04C43.3056 144.049 43.548 144.258 43.8044 144.607C44.0423 144.932 44.3358 145.444 44.3845 146.04C44.4332 146.636 44.2267 147.189 44.0446 147.548C43.8485 147.935 43.6432 148.18 43.6339 148.191L43.5538 148.286L43.4599 148.206C43.4494 148.197 43.207 147.988 42.9506 147.639C42.7128 147.314 42.4192 146.802 42.3705 146.206C42.3218 145.61 42.5283 145.057 42.7104 144.698C42.9065 144.311 43.1118 144.066 43.12 144.055L43.2 143.96H43.2012ZM43.5248 147.929C43.7209 147.658 44.207 146.893 44.1385 146.061C44.0701 145.227 43.4668 144.553 43.2302 144.317C43.0341 144.588 42.548 145.353 42.6165 146.185C42.6849 147.019 43.2882 147.693 43.5248 147.929Z" fill="#E4E4E4"/>
<path d="M45.0412 146.761C44.9298 147.979 43.859 148.877 43.859 148.877C43.859 148.877 42.9692 147.8 43.0806 146.582C43.1919 145.364 44.2616 144.466 44.2616 144.466C44.2616 144.466 45.1514 145.542 45.04 146.761H45.0412Z" fill="#F2F2F2"/>
<path d="M19.7272 158.029L19.8316 158.022C19.8432 158.022 20.1112 158.004 20.4708 158.065C20.8049 158.12 21.2817 158.256 21.6611 158.586C22.0405 158.915 22.24 159.37 22.3421 159.692C22.4511 160.039 22.472 160.308 22.472 160.32L22.4801 160.423L22.3757 160.43C22.3641 160.43 22.0961 160.448 21.7365 160.387C21.4024 160.332 20.9256 160.196 20.5462 159.866C20.1669 159.537 19.9673 159.082 19.8652 158.76C19.7562 158.413 19.7353 158.144 19.7353 158.132L19.7272 158.029ZM22.2516 160.226C22.211 159.949 22.0544 159.203 21.5242 158.741C20.9929 158.279 20.2341 158.228 19.9534 158.226C19.994 158.503 20.1506 159.249 20.6808 159.711C21.2121 160.173 21.9709 160.224 22.2516 160.226Z" fill="#E4E4E4"/>
<path d="M22.4778 158.634C23.1264 159.433 23.0092 160.601 23.0092 160.601C23.0092 160.601 21.8409 160.476 21.1936 159.677C20.5462 158.879 20.6623 157.711 20.6623 157.711C20.6623 157.711 21.8305 157.836 22.4778 158.634Z" fill="#F2F2F2"/>
<path d="M165.19 154.861L165.308 154.858C165.32 154.858 165.622 154.851 166.022 154.934C166.393 155.012 166.922 155.186 167.333 155.573C167.743 155.961 167.947 156.479 168.045 156.846C168.152 157.24 168.163 157.542 168.163 157.555L168.166 157.672L168.049 157.676C168.036 157.676 167.735 157.682 167.334 157.599C166.963 157.521 166.434 157.347 166.023 156.96C165.614 156.572 165.41 156.054 165.311 155.687C165.204 155.293 165.194 154.991 165.194 154.978L165.19 154.861ZM167.921 157.44C167.888 157.127 167.746 156.283 167.174 155.743C166.6 155.201 165.751 155.108 165.436 155.093C165.47 155.406 165.612 156.25 166.183 156.79C166.758 157.332 167.607 157.425 167.921 157.44Z" fill="#E4E4E4"/>
<path d="M168.247 155.665C168.938 156.59 168.753 157.895 168.753 157.895C168.753 157.895 167.449 157.701 166.759 156.777C166.069 155.852 166.253 154.547 166.253 154.547C166.253 154.547 167.557 154.741 168.247 155.665Z" fill="#F2F2F2"/>
<path d="M132.845 165.39H78.9084L79.8899 161.836L81.8064 154.899L82.9666 150.698L84.6777 144.505L87.976 132.566L89.6872 126.372L101.716 82.833H110.037L114.445 98.7893L122.066 126.372L123.777 132.566L127.076 144.505L128.787 150.698L131.863 161.836L132.845 165.39Z" fill="#1BA15B"/>
<path d="M132.845 165.389H78.9084L79.8899 161.836L81.8064 154.898C119.392 152.678 114.447 98.79 114.447 98.79L131.865 161.837L132.846 165.39L132.845 165.389Z" fill="#168A4D"/>
<path d="M143.88 165.39H67.8722V172.616H143.88V165.39Z" fill="#168A4D"/>
<path d="M132.845 165.389H78.9084L79.8899 161.836H131.863L132.845 165.389Z" fill="#232851"/>
<path d="M123.778 132.566C123.778 132.566 122.648 156.403 95.2605 161.856L131.865 161.836L123.778 132.566Z" fill="#1BA15B"/>
<path d="M123.777 132.566H87.9761L89.6873 126.372H122.066L123.777 132.566Z" fill="white"/>
<path d="M128.787 150.698H82.9666L84.6777 144.505H127.076L128.787 150.698Z" fill="white"/>
<path d="M126.3 165.39C126.3 165.39 116.225 172.995 78.9084 172.616H143.881V165.39H126.301H126.3Z" fill="#1BA15B"/>
<path d="M155.049 172.522H55.6457C54.971 172.522 54.4241 173.069 54.4241 173.744V173.779C54.4241 174.454 54.971 175 55.6457 175H155.049C155.723 175 156.27 174.454 156.27 173.779V173.744C156.27 173.069 155.723 172.522 155.049 172.522Z" fill="#333333"/>
<path d="M57.5298 172.522H41.433C40.7584 172.522 40.2114 173.069 40.2114 173.744V173.779C40.2114 174.454 40.7584 175 41.433 175H57.5298C58.2044 175 58.7514 174.454 58.7514 173.779V173.744C58.7514 173.069 58.2044 172.522 57.5298 172.522Z" fill="#333333"/>
<path d="M34.0534 172.522H17.1412C16.4665 172.522 15.9196 173.069 15.9196 173.744V173.779C15.9196 174.454 16.4665 175 17.1412 175H34.0534C34.7281 175 35.2751 174.454 35.2751 173.779V173.744C35.2751 173.069 34.7281 172.522 34.0534 172.522Z" fill="#333333"/>
<path d="M176.507 172.522H162.625C161.951 172.522 161.404 173.069 161.404 173.744V173.779C161.404 174.454 161.951 175 162.625 175H176.507C177.182 175 177.729 174.454 177.729 173.779V173.744C177.729 173.069 177.182 172.522 176.507 172.522Z" fill="#333333"/>
<path d="M194.656 172.522H184.097C183.422 172.522 182.875 173.069 182.875 173.744V173.779C182.875 174.454 183.422 175 184.097 175H194.656C195.331 175 195.878 174.454 195.878 173.779V173.744C195.878 173.069 195.331 172.522 194.656 172.522Z" fill="#333333"/>
</g>
<defs>
<clipPath id="clip0_1729_26135">
<rect width="235.157" height="175" fill="white" transform="translate(0.421509)"/>
</clipPath>
</defs>
</svg>
