<svg width="79" height="74" viewBox="0 0 79 74" fill="none" xmlns="http://www.w3.org/2000/svg">
<rect width="79" height="74" fill="#82C3E1"/>
<path d="M47.703 11.6251H45.7498V10.5834C45.7498 10.3071 45.6401 10.0422 45.4447 9.84685C45.2494 9.65149 44.9844 9.54175 44.7082 9.54175C44.4319 9.54175 44.167 9.65149 43.9716 9.84685C43.7762 10.0422 43.6665 10.3071 43.6665 10.5834V11.6251H40.5415V10.5834C40.5415 10.3071 40.4318 10.0422 40.2364 9.84685C40.0411 9.65149 39.7761 9.54175 39.4998 9.54175C39.2236 9.54175 38.9586 9.65149 38.7633 9.84685C38.5679 10.0422 38.4582 10.3071 38.4582 10.5834V11.6251H35.3332V10.5834C35.3332 10.3071 35.2234 10.0422 35.0281 9.84685C34.8327 9.65149 34.5678 9.54175 34.2915 9.54175C34.0152 9.54175 33.7503 9.65149 33.5549 9.84685C33.3596 10.0422 33.2498 10.3071 33.2498 10.5834V11.6251H31.2967C30.4337 11.6262 29.6064 11.9695 28.9962 12.5797C28.3859 13.19 28.0426 14.0173 28.0415 14.8803V17.8751H50.9582V14.8803C50.9571 14.0173 50.6138 13.19 50.0035 12.5797C49.3933 11.9695 48.566 11.6262 47.703 11.6251Z" fill="white"/>
<path d="M28.0415 29.2033C28.0426 30.0663 28.3859 30.8936 28.9962 31.5038C29.6064 32.1141 30.4337 32.4574 31.2967 32.4585H47.703C48.566 32.4574 49.3933 32.1141 50.0035 31.5038C50.6138 30.8936 50.9571 30.0663 50.9582 29.2033V19.9585H28.0415V29.2033ZM35.6384 25.0179C35.8337 24.8226 36.0986 24.7129 36.3748 24.7129C36.651 24.7129 36.916 24.8226 37.1113 25.0179L38.4582 26.3637L41.8884 22.9345C42.0848 22.7448 42.348 22.6398 42.6211 22.6422C42.8942 22.6445 43.1555 22.7541 43.3486 22.9472C43.5417 23.1404 43.6513 23.4016 43.6537 23.6747C43.656 23.9479 43.551 24.211 43.3613 24.4075L39.1946 28.5741C38.9993 28.7694 38.7344 28.8791 38.4582 28.8791C38.182 28.8791 37.9171 28.7694 37.7217 28.5741L35.6384 26.4908C35.4431 26.2954 35.3334 26.0305 35.3334 25.7543C35.3334 25.4781 35.4431 25.2132 35.6384 25.0179Z" fill="white"/>
<path d="M11.8288 61.5V48.4091H20.0362V50.1094H13.804V54.098H19.608V55.7919H13.804V59.7997H20.1129V61.5H11.8288ZM30.9203 51.6818L27.3599 61.5H25.3145L21.7477 51.6818H23.7995L26.286 59.2372H26.3883L28.8684 51.6818H30.9203ZM36.614 61.6982C35.6467 61.6982 34.8136 61.4915 34.1147 61.0781C33.4201 60.6605 32.8832 60.0746 32.5039 59.3203C32.1289 58.5618 31.9414 57.6733 31.9414 56.6548C31.9414 55.6491 32.1289 54.7628 32.5039 53.9957C32.8832 53.2287 33.4116 52.63 34.0891 52.1996C34.771 51.7692 35.5678 51.554 36.4798 51.554C37.0337 51.554 37.5707 51.6456 38.0906 51.8288C38.6104 52.0121 39.0771 52.2997 39.4904 52.6918C39.9038 53.0838 40.2298 53.593 40.4684 54.2195C40.707 54.8416 40.8264 55.598 40.8264 56.4886V57.1662H33.0217V55.7344H38.9535C38.9535 55.2315 38.8512 54.7862 38.6467 54.3984C38.4421 54.0064 38.1545 53.6974 37.7837 53.4716C37.4173 53.2457 36.9869 53.1328 36.4925 53.1328C35.9556 53.1328 35.4869 53.2649 35.0863 53.5291C34.69 53.7891 34.3832 54.13 34.1658 54.5518C33.9528 54.9695 33.8462 55.4233 33.8462 55.9134V57.032C33.8462 57.6882 33.9613 58.2464 34.1914 58.7067C34.4258 59.1669 34.7518 59.5185 35.1694 59.7614C35.587 60 36.0749 60.1193 36.6332 60.1193C36.9954 60.1193 37.3256 60.0682 37.6239 59.9659C37.9222 59.8594 38.18 59.7017 38.3974 59.4929C38.6147 59.2841 38.7809 59.0263 38.896 58.7195L40.7049 59.0455C40.56 59.5781 40.3001 60.0447 39.9251 60.4453C39.5543 60.8416 39.0877 61.1506 38.5252 61.3722C37.967 61.5895 37.3299 61.6982 36.614 61.6982ZM44.8581 55.6705V61.5H42.9469V51.6818H44.7814V53.2798H44.9029C45.1287 52.7599 45.4824 52.3423 45.964 52.027C46.4498 51.7116 47.0613 51.554 47.7985 51.554C48.4675 51.554 49.0534 51.6946 49.5563 51.9759C50.0591 52.2528 50.449 52.6662 50.726 53.2159C51.003 53.7656 51.1415 54.4453 51.1415 55.255V61.5H49.2303V55.4851C49.2303 54.7734 49.0449 54.2173 48.6742 53.8168C48.3034 53.4119 47.7942 53.2095 47.1465 53.2095C46.7033 53.2095 46.3091 53.3054 45.964 53.4972C45.623 53.6889 45.3525 53.9702 45.1522 54.3409C44.9561 54.7074 44.8581 55.1506 44.8581 55.6705ZM58.2878 51.6818V53.2159H52.9249V51.6818H58.2878ZM54.3631 49.3295H56.2743V58.6172C56.2743 58.9879 56.3297 59.267 56.4405 59.4545C56.5513 59.6378 56.6941 59.7635 56.8688 59.8317C57.0478 59.8956 57.2417 59.9276 57.4505 59.9276C57.6039 59.9276 57.7381 59.9169 57.8532 59.8956C57.9682 59.8743 58.0577 59.8572 58.1216 59.8445L58.4668 61.4233C58.356 61.4659 58.1983 61.5085 57.9938 61.5511C57.7892 61.598 57.5336 61.6236 57.2267 61.6278C56.7239 61.6364 56.2551 61.5469 55.8205 61.3594C55.3858 61.1719 55.0343 60.8821 54.7658 60.4901C54.4973 60.098 54.3631 59.6058 54.3631 59.0135V49.3295ZM67.601 54.0788L65.8688 54.3857C65.7963 54.1641 65.6813 53.9531 65.5236 53.7528C65.3702 53.5526 65.1614 53.3885 64.8972 53.2607C64.633 53.1328 64.3027 53.0689 63.9064 53.0689C63.3652 53.0689 62.9135 53.1903 62.5513 53.4332C62.1891 53.6719 62.008 53.9808 62.008 54.3601C62.008 54.6882 62.1294 54.9524 62.3723 55.1527C62.6152 55.353 63.0073 55.517 63.5485 55.6449L65.1081 56.0028C66.0115 56.2116 66.6848 56.5334 67.128 56.968C67.5712 57.4027 67.7928 57.9673 67.7928 58.6619C67.7928 59.25 67.6223 59.7741 67.2814 60.2344C66.9448 60.6903 66.4739 61.0483 65.8688 61.3082C65.2679 61.5682 64.5712 61.6982 63.7786 61.6982C62.6792 61.6982 61.7821 61.4638 61.0875 60.995C60.3929 60.522 59.9668 59.8509 59.8091 58.9815L61.6564 58.7003C61.7715 59.1818 62.008 59.5462 62.3659 59.7933C62.7239 60.0362 63.1905 60.1577 63.7658 60.1577C64.3922 60.1577 64.8929 60.0277 65.2679 59.7678C65.6429 59.5036 65.8304 59.1818 65.8304 58.8026C65.8304 58.4957 65.7154 58.2379 65.4853 58.0291C65.2594 57.8203 64.9121 57.6626 64.4434 57.5561L62.7814 57.1918C61.8652 56.983 61.1877 56.6506 60.7488 56.1946C60.3141 55.7386 60.0968 55.1612 60.0968 54.4624C60.0968 53.8828 60.2587 53.3757 60.5826 52.9411C60.9064 52.5064 61.3539 52.1676 61.9249 51.9247C62.4959 51.6776 63.15 51.554 63.8873 51.554C64.9483 51.554 65.7836 51.7841 66.3929 52.2443C67.0023 52.7003 67.405 53.3118 67.601 54.0788Z" fill="white"/>
</svg>
