<svg width="30" height="30" viewBox="0 0 30 30" fill="none" xmlns="http://www.w3.org/2000/svg">
<g clip-path="url(#clip0_131_1832)">
<path d="M15 30C23.2843 30 30 23.2843 30 15C30 6.71573 23.2843 0 15 0C6.71573 0 0 6.71573 0 15C0 23.2843 6.71573 30 15 30Z" fill="#FF5A8B"/>
<path d="M9.27305 12.7494C9.27305 11.8889 8.57314 11.189 7.7127 11.189C6.85225 11.189 6.15234 11.889 6.15234 12.7494C6.15234 13.6098 6.85225 14.3097 7.7127 14.3097C8.57314 14.3097 9.27305 13.6098 9.27305 12.7494ZM23.3163 14.3097H22.2761H21.2358C21.2309 14.3097 20.952 14.3297 20.8102 14.5312C20.7894 14.5601 18.7231 17.4305 14.9944 17.4305C11.2658 17.4305 9.19945 14.5601 9.17865 14.5312C9.0368 14.3296 8.75795 14.3097 8.75303 14.3097H7.7127H6.67248C6.38502 14.3097 6.15234 14.5423 6.15234 14.8298V23.1517C6.15234 23.4392 6.38496 23.6719 6.67248 23.6719H8.75297C9.04043 23.6719 9.27311 23.4393 9.27311 23.1517V16.1736C10.3273 17.1555 12.2486 18.4707 14.9944 18.4707C17.7403 18.4707 19.6615 17.1555 20.7158 16.1736V23.1517C20.7158 23.4392 20.9484 23.6719 21.2359 23.6719H23.3164C23.6038 23.6719 23.8365 23.4393 23.8365 23.1517V14.8298C23.8364 14.5423 23.6038 14.3097 23.3163 14.3097ZM23.8364 12.7494C23.8364 11.8889 23.1365 11.189 22.2761 11.189C21.4156 11.189 20.7157 11.889 20.7157 12.7494C20.7157 13.6098 21.4156 14.3097 22.2761 14.3097C23.1365 14.3097 23.8364 13.6098 23.8364 12.7494ZM12.4506 11.8102L12.0296 14.264C11.9961 14.4591 12.0763 14.6561 12.2363 14.7724C12.3963 14.8893 12.6096 14.9045 12.7839 14.812L14.9878 13.654L17.1916 14.812C17.3649 14.9039 17.5776 14.8898 17.7392 14.7724C17.8992 14.6561 17.9794 14.459 17.9459 14.264L17.5253 11.8102L19.3082 10.0721C19.4499 9.93393 19.5006 9.72721 19.4397 9.53924C19.3782 9.3508 19.2157 9.21363 19.0196 9.18521L16.5562 8.82715L15.454 6.59479C15.3666 6.41701 15.1772 6.32812 14.9877 6.32812C14.7983 6.32812 14.6088 6.41701 14.5214 6.59479L13.4197 8.82715L10.9557 9.18521C10.7597 9.21363 10.5971 9.3508 10.5357 9.53924C10.4747 9.72721 10.5255 9.93393 10.6672 10.0721L12.4506 11.8102ZM19.1554 22.6317H10.8334C10.5459 22.6317 10.3133 22.8643 10.3133 23.1518C10.3133 23.4393 10.5459 23.6719 10.8334 23.6719H19.1553C19.4428 23.6719 19.6754 23.4393 19.6754 23.1518C19.6754 22.8643 19.4428 22.6317 19.1554 22.6317Z" fill="#F3F9FB"/>
</g>
<defs>
<clipPath id="clip0_131_1832">
<rect width="30" height="30" fill="white"/>
</clipPath>
</defs>
</svg>
