<svg width="30" height="30" viewBox="0 0 30 30" fill="none" xmlns="http://www.w3.org/2000/svg">
<path d="M18.625 28.4375H11.375C10.2625 28.4375 8.8375 27.85 8.0625 27.0625L2.93751 21.9375C2.15001 21.15 1.5625 19.725 1.5625 18.625V11.375C1.5625 10.2625 2.15001 8.83752 2.93751 8.06252L8.0625 2.93751C8.85 2.15001 10.275 1.5625 11.375 1.5625H18.625C19.7375 1.5625 21.1625 2.15001 21.9375 2.93751L27.0625 8.06252C27.85 8.85002 28.4375 10.275 28.4375 11.375V18.625C28.4375 19.7375 27.85 21.1625 27.0625 21.9375L21.9375 27.0625C21.15 27.85 19.7375 28.4375 18.625 28.4375ZM11.375 3.4375C10.7625 3.4375 9.81249 3.825 9.38749 4.2625L4.2625 9.38751C3.8375 9.82501 3.4375 10.7625 3.4375 11.375V18.625C3.4375 19.2375 3.825 20.1875 4.2625 20.6125L9.38749 25.7375C9.82499 26.1625 10.7625 26.5625 11.375 26.5625H18.625C19.2375 26.5625 20.1875 26.175 20.6125 25.7375L25.7375 20.6125C26.1625 20.175 26.5625 19.2375 26.5625 18.625V11.375C26.5625 10.7625 26.175 9.81251 25.7375 9.38751L20.6125 4.2625C20.175 3.8375 19.2375 3.4375 18.625 3.4375H11.375Z" fill="#D53547"/>
<path d="M6.17461 24.7875C5.93711 24.7875 5.69961 24.7 5.51211 24.5125C5.14961 24.15 5.14961 23.55 5.51211 23.1875L23.1871 5.51248C23.5496 5.14998 24.1496 5.14998 24.5121 5.51248C24.8746 5.87498 24.8746 6.47497 24.5121 6.83747L6.83711 24.5125C6.64961 24.7 6.41211 24.7875 6.17461 24.7875Z" fill="#D53547"/>
</svg>
