<svg width="24" height="24" viewBox="0 0 24 24" fill="none" xmlns="http://www.w3.org/2000/svg">
<g clip-path="url(#clip0_763_1961)">
<path d="M12.9375 6.46875V11.6117L16.3504 15.0246C16.7166 15.3907 16.7166 15.9843 16.3504 16.3504C15.9843 16.7166 15.3907 16.7165 15.0246 16.3504L11.3371 12.6629C11.1613 12.4871 11.0625 12.2486 11.0625 12V6.46875C11.0625 5.95097 11.4822 5.53125 12 5.53125C12.5178 5.53125 12.9375 5.95097 12.9375 6.46875ZM15.6875 0H8.31248C6.34889 0 4.41169 0.690094 2.86167 2.03803V0.9375C2.86167 0.419719 2.44195 0 1.92417 0C1.40639 0 0.986672 0.419719 0.986672 0.9375V4.62502C0.986672 5.1428 1.41 5.56252 1.92417 5.56252H5.61169C6.12947 5.56252 6.54919 5.1428 6.54919 4.62502C6.54919 4.10723 6.12947 3.68752 5.61169 3.68752H3.83827C5.02486 2.54353 6.62662 1.875 8.31248 1.875H15.6875C19.2372 1.875 22.125 4.76283 22.125 8.31248V15.6875C22.125 19.2372 19.2372 22.125 15.6875 22.125H8.31248C4.76283 22.125 1.875 19.2372 1.875 15.6875V12C1.875 11.4822 1.45528 11.0625 0.9375 11.0625C0.419719 11.0625 0 11.4822 0 12V15.6875C0 20.271 3.72895 24 8.31248 24H15.6875C20.271 24 24 20.271 24 15.6875V8.31248C24 3.72895 20.271 0 15.6875 0Z" fill="#C0E8F4"/>
</g>
<defs>
<clipPath id="clip0_763_1961">
<rect width="24" height="24" fill="white"/>
</clipPath>
</defs>
</svg>
