<svg width="30" height="30" viewBox="0 0 30 30" fill="none" xmlns="http://www.w3.org/2000/svg">
<path d="M15 0C12.0333 0 9.13319 0.879734 6.66645 2.52796C4.19972 4.17618 2.27713 6.51886 1.14181 9.25975C0.00649929 12.0006 -0.290551 15.0166 0.288227 17.9264C0.867006 20.8361 2.29562 23.5088 4.3934 25.6066C6.49119 27.7044 9.16394 29.133 12.0737 29.7118C14.9834 30.2906 17.9994 29.9935 20.7403 28.8582C23.4811 27.7229 25.8238 25.8003 27.472 23.3335C29.1203 20.8668 30 17.9667 30 15C29.9955 11.0231 28.4137 7.21041 25.6017 4.39833C22.7896 1.58625 18.9769 0.00446645 15 0ZM14.6875 6.25C14.9965 6.25 15.2986 6.34164 15.5556 6.51333C15.8125 6.68502 16.0128 6.92905 16.1311 7.21456C16.2493 7.50006 16.2803 7.81423 16.22 8.11733C16.1597 8.42042 16.0109 8.69883 15.7924 8.91735C15.5738 9.13587 15.2954 9.28469 14.9923 9.34498C14.6892 9.40526 14.3751 9.37432 14.0896 9.25606C13.8041 9.1378 13.56 8.93753 13.3883 8.68058C13.2166 8.42362 13.125 8.12153 13.125 7.8125C13.125 7.3981 13.2896 7.00067 13.5827 6.70764C13.8757 6.41462 14.2731 6.25 14.6875 6.25ZM16.25 23.75H15C14.6685 23.75 14.3505 23.6183 14.1161 23.3839C13.8817 23.1495 13.75 22.8315 13.75 22.5V13.125C13.4185 13.125 13.1005 12.9933 12.8661 12.7589C12.6317 12.5245 12.5 12.2065 12.5 11.875C12.5 11.5435 12.6317 11.2255 12.8661 10.9911C13.1005 10.7567 13.4185 10.625 13.75 10.625H15C15.3315 10.625 15.6495 10.7567 15.8839 10.9911C16.1183 11.2255 16.25 11.5435 16.25 11.875V21.25C16.5815 21.25 16.8995 21.3817 17.1339 21.6161C17.3683 21.8505 17.5 22.1685 17.5 22.5C17.5 22.8315 17.3683 23.1495 17.1339 23.3839C16.8995 23.6183 16.5815 23.75 16.25 23.75Z" fill="url(#paint0_linear_131_1898)"/>
<defs>
<linearGradient id="paint0_linear_131_1898" x1="4.39813" y1="4.39812" x2="25.6019" y2="25.6019" gradientUnits="userSpaceOnUse">
<stop stop-color="#00D2FF"/>
<stop offset="1" stop-color="#3A7BD5"/>
</linearGradient>
</defs>
</svg>
