<svg width="30" height="30" viewBox="0 0 30 30" fill="none" xmlns="http://www.w3.org/2000/svg">
<path d="M15 30C23.2843 30 30 23.2843 30 15C30 6.71573 23.2843 0 15 0C6.71573 0 0 6.71573 0 15C0 23.2843 6.71573 30 15 30Z" fill="url(#paint0_linear_131_1972)"/>
<path d="M18.1867 6.66675H11.82C8.98001 6.66675 6.67334 8.97341 6.67334 11.8134V18.1801C6.67334 21.0201 8.98001 23.3267 11.82 23.3267H18.1867C21.0267 23.3267 23.3333 21.0201 23.3333 18.1801V11.8134C23.3333 8.97341 21.0267 6.66675 18.1867 6.66675ZM21.4733 18.1867C21.4733 20.0001 20 21.4801 18.18 21.4801H11.8133C10 21.4801 8.52001 20.0067 8.52001 18.1867V11.8201C8.52001 10.0067 9.99334 8.52675 11.8133 8.52675H18.18C19.9933 8.52675 21.4733 10.0001 21.4733 11.8201V18.1867Z" fill="white"/>
<path d="M15 10.74C12.6533 10.74 10.74 12.6533 10.74 15C10.74 17.3467 12.6533 19.26 15 19.26C17.3467 19.26 19.26 17.3467 19.26 15C19.26 12.6533 17.3467 10.74 15 10.74ZM15 17.5867C13.5733 17.5867 12.4133 16.4267 12.4133 15C12.4133 13.5733 13.5733 12.4133 15 12.4133C16.4267 12.4133 17.5867 13.5733 17.5867 15C17.5867 16.4267 16.4267 17.5867 15 17.5867Z" fill="white"/>
<path d="M19.5845 11.207C19.9769 11.1433 20.2435 10.7736 20.1799 10.3811C20.1163 9.98864 19.7465 9.72206 19.3541 9.78568C18.9616 9.8493 18.695 10.219 18.7586 10.6115C18.8223 11.004 19.192 11.2706 19.5845 11.207Z" fill="white"/>
<defs>
<linearGradient id="paint0_linear_131_1972" x1="3.5786" y1="26.4214" x2="24.8953" y2="5.10473" gradientUnits="userSpaceOnUse">
<stop stop-color="#FEE411"/>
<stop offset="0.0518459" stop-color="#FEDB16"/>
<stop offset="0.1381" stop-color="#FEC125"/>
<stop offset="0.2481" stop-color="#FE983D"/>
<stop offset="0.3762" stop-color="#FE5F5E"/>
<stop offset="0.5" stop-color="#FE2181"/>
<stop offset="1" stop-color="#9000DC"/>
</linearGradient>
</defs>
</svg>
