<svg width="24" height="24" viewBox="0 0 24 24" fill="none" xmlns="http://www.w3.org/2000/svg">
<path d="M22.275 15.6188C21.6937 15.3375 20.9906 15.5859 20.7094 16.1672C19.9312 17.7844 18.7219 19.1531 17.2078 20.1281C15.6562 21.1266 13.8562 21.6562 12 21.6562C6.675 21.6562 2.34375 17.325 2.34375 12C2.34375 6.675 6.675 2.34375 12 2.34375C13.8562 2.34375 15.6562 2.87344 17.2125 3.86719C18.7266 4.8375 19.9359 6.21094 20.7141 7.82812C20.9953 8.40938 21.6937 8.65781 22.2797 8.37656C22.8609 8.09531 23.1094 7.39688 22.8281 6.81094C21.8625 4.8 20.3625 3.09844 18.4781 1.89375C16.5469 0.65625 14.3062 0 12 0C8.79375 0 5.77969 1.24687 3.51562 3.51562C1.24687 5.77969 0 8.79375 0 12C0 15.2063 1.24687 18.2203 3.51562 20.4844C5.78437 22.7531 8.79375 24 12 24C14.3062 24 16.5469 23.3438 18.4781 22.1016C20.3578 20.8922 21.8625 19.1906 22.8281 17.1844C23.1047 16.5984 22.8609 15.9 22.275 15.6188Z" fill="#C0E8F4"/>
<path d="M12.6234 16.561C12.8531 16.7907 13.1531 16.9032 13.4531 16.9032C13.7531 16.9032 14.0531 16.7907 14.2828 16.561L17.2312 13.6126C17.6624 13.1813 17.8968 12.6095 17.8968 12.0048C17.8968 11.4001 17.6578 10.8235 17.2312 10.397L14.2828 7.44854C13.8234 6.98916 13.0828 6.98916 12.6234 7.44854C12.164 7.90791 12.164 8.64854 12.6234 9.10791L14.3531 10.8376H7.69214C7.04526 10.8376 6.52026 11.3626 6.52026 12.0095C6.52026 12.6563 7.04526 13.1813 7.69214 13.1813H14.3578L12.6281 14.911C12.1687 15.361 12.1687 16.1017 12.6234 16.561Z" fill="#C0E8F4"/>
</svg>
