<svg width="30" height="30" viewBox="0 0 30 30" fill="none" xmlns="http://www.w3.org/2000/svg">
<path d="M15 30C23.2843 30 30 23.2843 30 15C30 6.71573 23.2843 0 15 0C6.71573 0 0 6.71573 0 15C0 23.2843 6.71573 30 15 30Z" fill="#828282"/>
<path d="M16.5322 8.32969C16.5322 7.48314 15.8461 6.79688 14.9997 6.79688C14.1533 6.79688 13.4672 7.48314 13.4672 8.32969V13.1426C13.4672 13.9891 14.1533 14.6754 14.9997 14.6754C15.8461 14.6754 16.5322 13.9891 16.5322 13.1426V8.32969Z" fill="white"/>
<path d="M17.8125 10.4625C17.7051 10.723 17.6822 11.0106 17.7472 11.2847C17.8122 11.5588 17.9617 11.8056 18.1746 11.9901C18.9235 12.6372 19.4566 13.4978 19.7027 14.4564C19.9487 15.4151 19.8958 16.4261 19.5511 17.3538C19.2065 18.2816 18.5864 19.0819 17.7741 19.6473C16.9618 20.2128 15.9961 20.5165 15.0064 20.5177C14.0166 20.5189 13.0502 20.2175 12.2366 19.654C11.4229 19.0904 10.801 18.2917 10.454 17.3647C10.1071 16.4378 10.0518 15.427 10.2956 14.4677C10.5393 13.5084 11.0704 12.6466 11.8177 11.9977C12.0324 11.8126 12.1835 11.5649 12.2499 11.2894C12.3162 11.0138 12.2944 10.7244 12.1875 10.462C11.84 9.61645 10.7636 9.34867 10.0717 9.94633C8.90649 10.9516 8.07664 12.2892 7.69344 13.7796C7.31024 15.2701 7.39202 16.842 7.9278 18.2847C8.46359 19.7273 9.42776 20.9715 10.6909 21.8505C11.9541 22.7295 13.4559 23.2011 14.9948 23.2021C16.5337 23.2031 18.0361 22.7334 19.3005 21.8561C20.5648 20.9788 21.5306 19.7358 22.0683 18.2939C22.6059 16.852 22.6898 15.2801 22.3085 13.7892C21.9273 12.2983 21.0992 10.9596 19.9353 9.95277C19.7735 9.81414 19.5812 9.71585 19.3741 9.66595C19.1669 9.61605 18.9509 9.61597 18.7438 9.66572C18.5366 9.71546 18.3442 9.81362 18.1823 9.95213C18.0204 10.0906 17.8937 10.2656 17.8125 10.4625Z" fill="white"/>
</svg>
