<svg width="24" height="24" viewBox="0 0 24 24" fill="none" xmlns="http://www.w3.org/2000/svg">
<path d="M19.4633 8.72656L17.9219 9.34922C17.7234 9.42969 17.5148 9.47031 17.3023 9.47031C16.8469 9.47031 16.4063 9.27813 16.0945 8.94297C15.7844 8.61016 15.6242 8.15781 15.6563 7.70234L15.7727 6.04453L14.7031 4.77266C14.4656 4.48984 14.3469 4.14375 14.3305 3.78906H4.19531C2.35938 3.78906 0.859375 5.28906 0.859375 7.13281V16.4297C0.859375 18.2734 2.35938 19.7656 4.19531 19.7656H6.73438L6.67969 21.3203C6.66406 21.9531 7 22.5312 7.5625 22.8281C7.80469 22.9531 8.0625 23.0156 8.32812 23.0156C8.67188 23.0156 9.01562 22.8984 9.30469 22.6797L13.1797 19.7656H17.6484C19.4844 19.7656 20.9844 18.2734 20.9844 16.4297V9.34141L19.4633 8.72656ZM11.3102 14.2578H7.20937C6.82109 14.2578 6.50625 13.943 6.50625 13.5547C6.50625 13.1664 6.82109 12.8516 7.20937 12.8516H11.3102C11.6984 12.8516 12.0133 13.1664 12.0133 13.5547C12.0133 13.943 11.6984 14.2578 11.3102 14.2578ZM14.9453 10.7063H7.21094C6.82266 10.7063 6.50781 10.3914 6.50781 10.0031C6.50781 9.61484 6.82266 9.3 7.21094 9.3H14.9453C15.3336 9.3 15.6484 9.61484 15.6484 10.0031C15.6484 10.3914 15.3336 10.7063 14.9453 10.7063Z" fill="#FF5A8B"/>
<path d="M19.8695 0.917236L21.0015 2.72895L23.0742 3.24536C23.4179 3.3313 23.5531 3.74692 23.3257 4.0188L21.9523 5.65474L22.1015 7.7852C22.1265 8.13833 21.7726 8.39614 21.4437 8.26333L19.4632 7.46255L17.4828 8.26333C17.1546 8.39614 16.8 8.13911 16.825 7.7852L16.9742 5.65474L15.6007 4.0188C15.3726 3.7477 15.5085 3.3313 15.8523 3.24536L17.925 2.72895L19.057 0.917236C19.2437 0.616455 19.682 0.616455 19.8695 0.917236Z" fill="#FF5A8B"/>
</svg>
