<svg width="69" height="74" viewBox="0 0 69 74" fill="none" xmlns="http://www.w3.org/2000/svg">
<rect width="69" height="74" fill="#F9A826"/>
<g clip-path="url(#clip0_1710_6420)">
<path d="M29.7261 20.2676H33.7678V15.8486H30.2879C29.9639 17.2089 29.7719 18.7064 29.7261 20.2676Z" fill="white"/>
<path d="M35.2324 20.2676H39.2741C39.2283 18.7064 39.0363 17.2089 38.7123 15.8486H35.2324V20.2676Z" fill="white"/>
<path d="M40.7397 20.2676H46.9786C46.8897 18.722 46.5208 17.2293 45.8959 15.8486H40.2139C40.5173 17.2278 40.6965 18.7217 40.7397 20.2676Z" fill="white"/>
<path d="M28.7862 15.8486H23.1042C22.4793 17.2293 22.1104 18.722 22.0215 20.2676H28.2604C28.3036 18.7217 28.4828 17.2278 28.7862 15.8486Z" fill="white"/>
<path d="M33.7674 10.11C32.8576 10.4672 31.9727 11.4731 31.2615 12.99C31.0571 13.4258 30.8719 13.8922 30.7061 14.3838H33.7674V10.11Z" fill="white"/>
<path d="M29.9351 12.3681C31.1047 9.87373 32.7257 8.5 34.4998 8.5C31.1609 8.5 28.0219 9.80024 25.6609 12.1611C24.9802 12.8418 24.3883 13.5875 23.8896 14.3838H29.1686C29.3876 13.6655 29.6437 12.9897 29.9351 12.3681Z" fill="white"/>
<path d="M39.0646 12.3681C39.3561 12.9897 39.6121 13.6655 39.8312 14.3838H45.1101C44.6114 13.5875 44.0195 12.8418 43.3388 12.1611C40.9779 9.80024 37.8389 8.5 34.5 8.5C36.274 8.5 37.8951 9.87373 39.0646 12.3681Z" fill="white"/>
<path d="M35.2324 10.11V14.3838H38.2938C38.1279 13.8922 37.9427 13.4258 37.7384 12.99C37.0271 11.4731 36.1423 10.4672 35.2324 10.11Z" fill="white"/>
<path d="M22 21.7324V32.7676C22 33.1721 22.3279 33.5 22.7324 33.5H46.2676C46.6721 33.5 47 33.1721 47 32.7676V21.7324H22ZM28.7077 30.3451C28.4263 30.433 28.1303 30.3246 27.9533 30.069L26.0999 27.3852V29.8135C26.0999 30.1506 25.8267 30.4239 25.4896 30.4239C25.1525 30.4239 24.8792 30.1506 24.8792 29.8135V25.4272C24.8792 25.1601 25.0529 24.924 25.3079 24.8445C25.5629 24.7649 25.8399 24.8606 25.9918 25.0804L27.9416 27.9038L27.9176 25.4249C27.9143 25.0878 28.185 24.812 28.522 24.8087H28.528C28.8624 24.8087 29.135 25.0781 29.1382 25.4131L29.1793 29.6596V29.6655C29.1793 29.9888 28.9942 30.2556 28.7077 30.3451ZM32.3596 27.006C32.6967 27.006 32.97 27.2792 32.97 27.6163C32.97 27.9534 32.6967 28.2267 32.3596 28.2267H31.2548V29.2032H32.4961C32.8332 29.2032 33.1065 29.4765 33.1065 29.8136C33.1065 30.1506 32.8332 30.4239 32.4961 30.4239H30.6445C30.3074 30.4239 30.0341 30.1506 30.0341 29.8136V25.419C30.0341 25.082 30.3074 24.8087 30.6445 24.8087H32.4961C32.8332 24.8087 33.1065 25.082 33.1065 25.419C33.1065 25.7561 32.8332 26.0294 32.4961 26.0294H31.2548V27.006H32.3596ZM39.774 25.5462L38.9144 29.8654C38.9092 29.8917 38.9022 29.9175 38.8936 29.9428C38.7964 30.2286 38.5284 30.4219 38.2266 30.4239C38.225 30.4239 38.2234 30.4239 38.2218 30.4239C37.922 30.4239 37.6537 30.2347 37.5533 29.9518C37.5503 29.9437 37.5477 29.9355 37.5451 29.9272L36.7948 27.4917L36.0411 29.9268C36.0395 29.9321 36.0377 29.9375 36.0359 29.9428C35.9388 30.2285 35.6708 30.4218 35.3691 30.4239C35.3674 30.4239 35.3658 30.4239 35.3641 30.4239C35.0644 30.4239 34.7961 30.2348 34.6956 29.9521C34.6856 29.924 34.6777 29.8952 34.6719 29.8659L33.8158 25.5374C33.7503 25.2067 33.9654 24.8856 34.2961 24.8202C34.6267 24.7548 34.9479 24.9698 35.0133 25.3005L35.4741 27.6303L36.1997 25.2861C36.246 25.0793 36.3984 24.9024 36.6154 24.8356C36.9375 24.7363 37.2791 24.9171 37.3784 25.2393L38.1148 27.6298L38.5769 25.3079C38.6427 24.9773 38.964 24.7628 39.2947 24.8284C39.6251 24.8943 39.8398 25.2157 39.774 25.5462ZM44.1798 28.9685C44.0292 29.8118 43.2263 30.4239 42.2705 30.4239C41.5004 30.4239 40.7774 30.1134 40.2868 29.572C40.0604 29.3222 40.0794 28.9362 40.3292 28.7099C40.5791 28.4836 40.965 28.5026 41.1914 28.7523C41.4472 29.0347 41.8506 29.2032 42.2705 29.2032C42.6632 29.2032 42.9387 28.9748 42.9781 28.7539C43.0297 28.4647 42.5799 28.2749 42.4408 28.2236C41.7574 27.9715 41.1504 27.7013 41.125 27.6899C41.0955 27.6768 41.0672 27.6614 41.0403 27.6438C40.5568 27.3286 40.3077 26.7759 40.3902 26.2014C40.4779 25.5906 40.9235 25.0934 41.5531 24.9037C42.7152 24.5535 43.6823 25.277 43.8236 25.3899C43.9667 25.5017 44.0589 25.6753 44.0589 25.8708C44.0589 26.2079 43.7857 26.4812 43.4486 26.4812C43.2988 26.4812 43.1617 26.427 43.0554 26.3375L43.0549 26.3381L43.0588 26.3413C43.0533 26.3368 42.4978 25.8939 41.9052 26.0726C41.6568 26.1474 41.6079 26.3089 41.5985 26.3749C41.5921 26.4188 41.5889 26.523 41.6782 26.5998C41.8406 26.6708 42.3341 26.8831 42.8633 27.0783C44.0074 27.5003 44.2936 28.3314 44.1798 28.9685Z" fill="white"/>
</g>
<path d="M22.2552 48.4091V61.5H20.4399L13.7858 51.8991H13.6643V61.5H11.6892V48.4091H13.5173L20.1778 58.0227H20.2993V48.4091H22.2552ZM29.2146 61.6982C28.2472 61.6982 27.4142 61.4915 26.7153 61.0781C26.0207 60.6605 25.4838 60.0746 25.1045 59.3203C24.7295 58.5618 24.542 57.6733 24.542 56.6548C24.542 55.6491 24.7295 54.7628 25.1045 53.9957C25.4838 53.2287 26.0122 52.63 26.6897 52.1996C27.3715 51.7692 28.1684 51.554 29.0803 51.554C29.6343 51.554 30.1713 51.6456 30.6911 51.8288C31.211 52.0121 31.6776 52.2997 32.091 52.6918C32.5044 53.0838 32.8303 53.593 33.069 54.2195C33.3076 54.8416 33.4269 55.598 33.4269 56.4886V57.1662H25.6222V55.7344H31.5541C31.5541 55.2315 31.4518 54.7862 31.2472 54.3984C31.0427 54.0064 30.7551 53.6974 30.3843 53.4716C30.0178 53.2457 29.5874 53.1328 29.0931 53.1328C28.5562 53.1328 28.0874 53.2649 27.6869 53.5291C27.2906 53.7891 26.9838 54.13 26.7664 54.5518C26.5534 54.9695 26.4468 55.4233 26.4468 55.9134V57.032C26.4468 57.6882 26.5619 58.2464 26.792 58.7067C27.0264 59.1669 27.3524 59.5185 27.77 59.7614C28.1876 60 28.6755 60.1193 29.2338 60.1193C29.596 60.1193 29.9262 60.0682 30.2245 59.9659C30.5228 59.8594 30.7806 59.7017 30.998 59.4929C31.2153 59.2841 31.3815 59.0263 31.4965 58.7195L33.3055 59.0455C33.1606 59.5781 32.9007 60.0447 32.5257 60.4453C32.1549 60.8416 31.6883 61.1506 31.1258 61.3722C30.5676 61.5895 29.9305 61.6982 29.2146 61.6982ZM37.6585 61.5L34.7693 51.6818H36.7444L38.6684 58.892H38.7643L40.6947 51.6818H42.6698L44.5874 58.8601H44.6833L46.5945 51.6818H48.5697L45.6869 61.5H43.7373L41.743 54.4112H41.596L39.6017 61.5H37.6585ZM57.7407 54.0788L56.0084 54.3857C55.936 54.1641 55.8209 53.9531 55.6633 53.7528C55.5099 53.5526 55.301 53.3885 55.0368 53.2607C54.7726 53.1328 54.4424 53.0689 54.0461 53.0689C53.5049 53.0689 53.0532 53.1903 52.691 53.4332C52.3287 53.6719 52.1476 53.9808 52.1476 54.3601C52.1476 54.6882 52.2691 54.9524 52.512 55.1527C52.7549 55.353 53.1469 55.517 53.6881 55.6449L55.2478 56.0028C56.1512 56.2116 56.8245 56.5334 57.2677 56.968C57.7108 57.4027 57.9324 57.9673 57.9324 58.6619C57.9324 59.25 57.762 59.7741 57.4211 60.2344C57.0844 60.6903 56.6135 61.0483 56.0084 61.3082C55.4076 61.5682 54.7108 61.6982 53.9182 61.6982C52.8188 61.6982 51.9218 61.4638 51.2272 60.995C50.5326 60.522 50.1064 59.8509 49.9488 58.9815L51.7961 58.7003C51.9111 59.1818 52.1476 59.5462 52.5056 59.7933C52.8635 60.0362 53.3302 60.1577 53.9055 60.1577C54.5319 60.1577 55.0326 60.0277 55.4076 59.7678C55.7826 59.5036 55.9701 59.1818 55.9701 58.8026C55.9701 58.4957 55.855 58.2379 55.6249 58.0291C55.3991 57.8203 55.0518 57.6626 54.583 57.5561L52.9211 57.1918C52.0049 56.983 51.3273 56.6506 50.8884 56.1946C50.4537 55.7386 50.2364 55.1612 50.2364 54.4624C50.2364 53.8828 50.3983 53.3757 50.7222 52.9411C51.0461 52.5064 51.4935 52.1676 52.0645 51.9247C52.6356 51.6776 53.2897 51.554 54.0269 51.554C55.088 51.554 55.9232 51.7841 56.5326 52.2443C57.142 52.7003 57.5447 53.3118 57.7407 54.0788Z" fill="white"/>
<defs>
<clipPath id="clip0_1710_6420">
<rect width="25" height="25" fill="white" transform="translate(22 8.5)"/>
</clipPath>
</defs>
</svg>
