<svg width="150" height="150" viewBox="0 0 150 150" fill="none" xmlns="http://www.w3.org/2000/svg">
<path d="M146.777 75C146.777 114.642 114.642 146.777 75 146.777C35.3584 146.777 3.22266 114.642 3.22266 75C3.22266 35.3584 35.3584 3.22266 75 3.22266C114.642 3.22266 146.777 35.3584 146.777 75Z" fill="#1BA25B" fill-opacity="0.8"/>
<path d="M133.594 75C133.594 107.36 107.36 133.594 75 133.594C42.6396 133.594 16.4062 107.36 16.4062 75C16.4062 42.6396 42.6396 16.4062 75 16.4062C107.36 16.4062 133.594 42.6396 133.594 75Z" fill="#1BA25B"/>
<path d="M23.4375 43.6128V106.387C23.4375 109.623 20.8143 112.246 17.5781 112.246H8.05664C4.82051 112.246 2.19727 109.623 2.19727 106.387V43.6128C2.19727 40.3767 4.82051 37.7534 8.05664 37.7534H17.5781C20.8143 37.7534 23.4375 40.377 23.4375 43.6128Z" fill="#C9F0FF"/>
<path d="M147.803 43.6128V106.387C147.803 109.623 145.179 112.246 141.943 112.246H20.5078C17.2717 112.246 14.6484 109.623 14.6484 106.387V43.6128C14.6484 40.3767 17.2717 37.7534 20.5078 37.7534H141.943C145.179 37.7534 147.803 40.377 147.803 43.6128Z" fill="#FFF5F5"/>
<path d="M111.328 111.328H102.539V38.0859H111.328V111.328Z" fill="#C9F0FF"/>
<path d="M141.943 35.5562H8.05664C3.61406 35.5562 0 39.1702 0 43.6128V106.387C0 110.83 3.61406 114.444 8.05664 114.444H141.943C146.386 114.444 150 110.83 150 106.387V43.6128C150 39.1705 146.386 35.5562 141.943 35.5562ZM145.605 106.387C145.605 108.407 143.963 110.049 141.943 110.049H8.05664C6.03721 110.049 4.39453 108.407 4.39453 106.387V43.6128C4.39453 41.5934 6.03721 39.9507 8.05664 39.9507H141.943C143.963 39.9507 145.605 41.5934 145.605 43.6128V106.387Z" fill="#D53547"/>
<path d="M120.117 120.311C120.117 121.929 118.806 123.24 117.188 123.24H108.398C106.78 123.24 105.469 121.929 105.469 120.311C105.469 118.692 106.78 117.381 108.398 117.381H109.863V32.0332H108.398C106.78 32.0332 105.469 30.7216 105.469 29.1035C105.469 27.4854 106.78 26.1738 108.398 26.1738H117.188C118.806 26.1738 120.117 27.4854 120.117 29.1035C120.117 30.7216 118.806 32.0332 117.188 32.0332H115.723V117.381H117.188C118.806 117.381 120.117 118.692 120.117 120.311Z" fill="#333333"/>
<path d="M23.7731 97.6597C22.8784 97.6597 21.9951 97.2513 21.42 96.4784C20.4558 95.1823 20.7233 93.351 22.0156 92.3842C22.1278 92.2995 33.2568 83.7586 35.0497 68.1454C35.2343 66.5379 36.6857 65.3827 38.2944 65.5691C39.9019 65.7536 41.0553 67.2065 40.8707 68.8137C38.7792 87.0261 26.0594 96.6788 25.5192 97.0808C24.9939 97.4713 24.381 97.6597 23.7731 97.6597ZM60.3069 97.0805C60.8474 96.6785 73.5672 87.0258 75.6584 68.8134C75.843 67.2062 74.6896 65.7533 73.0821 65.5688C71.4743 65.3824 70.022 66.5376 69.8374 68.1451C68.0445 83.7583 56.9155 92.2995 56.8033 92.3839C55.5107 93.3507 55.2435 95.182 56.2076 96.4781C56.7827 97.2513 57.666 97.6594 58.5608 97.6594C59.1684 97.6597 59.7816 97.4713 60.3069 97.0805Z" fill="#333333"/>
<path d="M26.5516 81.2687C18.5761 81.2687 12.0874 74.7803 12.0874 66.8045C12.0874 58.8287 18.5758 52.3403 26.5516 52.3403C34.5273 52.3403 41.0157 58.8293 41.0157 66.8048C41.0157 74.7803 34.5273 81.2687 26.5516 81.2687ZM26.5516 58.2C21.8069 58.2 17.9468 62.0602 17.9468 66.8048C17.9468 71.5494 21.8069 75.4096 26.5516 75.4096C31.2962 75.4096 35.1563 71.5494 35.1563 66.8048C35.1563 62.0602 31.2962 58.2 26.5516 58.2ZM61.3393 81.2687C53.3638 81.2687 46.8751 74.7803 46.8751 66.8045C46.8751 58.8287 53.3635 52.3403 61.3393 52.3403C69.315 52.3403 75.8034 58.829 75.8034 66.8045C75.8034 74.78 69.3147 81.2687 61.3393 81.2687ZM61.3393 58.2C56.5946 58.2 52.7345 62.0602 52.7345 66.8048C52.7345 71.5494 56.5946 75.4096 61.3393 75.4096C66.0839 75.4096 69.944 71.5494 69.944 66.8048C69.9438 62.0602 66.0836 58.2 61.3393 58.2Z" fill="#333333"/>
</svg>
