<svg width="30" height="30" viewBox="0 0 30 30" fill="none" xmlns="http://www.w3.org/2000/svg">
<path d="M15 30C23.2843 30 30 23.2843 30 15C30 6.71573 23.2843 0 15 0C6.71573 0 0 6.71573 0 15C0 23.2843 6.71573 30 15 30Z" fill="#828282"/>
<path d="M11.3129 18.6432H17.5068C17.7921 18.6432 18.023 18.4104 18.023 18.1228C18.023 17.7799 18.023 7.49543 18.023 7.19332C18.023 6.81246 18.1324 6.45984 18.3102 6.1524H12.3452C11.4913 6.1524 10.7967 6.85277 10.7967 7.71375V18.1228C10.7967 18.4104 11.0276 18.6432 11.3129 18.6432ZM14.926 16.5614H13.8937C13.6084 16.5614 13.3776 16.3286 13.3776 16.041C13.3776 15.7533 13.6084 15.5205 13.8937 15.5205H14.926C15.2113 15.5205 15.4422 15.7533 15.4422 16.041C15.4422 16.3286 15.2113 16.5614 14.926 16.5614ZM13.8937 9.2751H14.926C15.2113 9.2751 15.4422 9.50789 15.4422 9.79553C15.4422 10.0832 15.2113 10.316 14.926 10.316H13.8937C13.6084 10.316 13.3776 10.0832 13.3776 9.79553C13.3776 9.50789 13.6084 9.2751 13.8937 9.2751ZM12.8614 11.3569H15.9583C16.2436 11.3569 16.4745 11.5897 16.4745 11.8773C16.4745 12.165 16.2436 12.3977 15.9583 12.3977H12.8614C12.5761 12.3977 12.3452 12.1649 12.3452 11.8773C12.3452 11.5897 12.5761 11.3569 12.8614 11.3569ZM12.8614 13.4387H15.9583C16.2436 13.4387 16.4745 13.6715 16.4745 13.9591C16.4745 14.2468 16.2436 14.4796 15.9583 14.4796H12.8614C12.5761 14.4796 12.3452 14.2468 12.3452 13.9591C12.3452 13.6715 12.5761 13.4387 12.8614 13.4387ZM23.2592 16.9482C23.2141 16.9414 22.4422 16.8592 21.6334 17.1129C21.6335 17.1025 21.6361 17.0924 21.6361 17.0819V16.4261C22.1501 16.2449 23.0208 15.835 23.4891 15.0108C24.1635 13.825 23.6837 12.3272 23.6625 12.2642C23.5798 12.0126 23.3278 11.8601 23.0646 11.9191C23.0001 11.9328 21.4758 12.2728 20.8024 13.4586C20.2129 14.4965 20.5071 15.7729 20.6038 16.1177V17.0819C20.6038 17.3051 20.5779 17.5239 20.5473 17.7403C19.7928 18.4706 19.6212 19.5571 19.5844 19.9971C19.3332 20.3149 19.0408 20.5925 18.7174 20.8339C18.4969 20.7715 18.2674 20.725 18.023 20.725C16.9629 20.725 16.0969 21.4319 15.7462 21.7659H14.2541C13.9034 21.4319 13.0374 20.725 11.9773 20.725C11.7324 20.725 11.5024 20.7717 11.2815 20.8343C10.9732 20.6035 10.6863 20.3359 10.4166 20.0057C10.3811 19.572 10.2119 18.4746 9.4519 17.7392C9.42208 17.5221 9.39653 17.3029 9.39653 17.0819V16.1177C9.49327 15.7729 9.78735 14.4965 9.1979 13.4586C9.1979 13.4586 9.1979 13.4586 9.1979 13.458C8.52349 12.2728 7.00017 11.9328 6.93565 11.9191C6.67655 11.8601 6.42149 12.0126 6.33782 12.2642C6.31667 12.3272 5.83679 13.825 6.5102 15.0103C6.97925 15.835 7.85019 16.2449 8.36417 16.4262V17.082C8.36417 17.0926 8.36681 17.1029 8.36687 17.1135C7.5581 16.8603 6.78618 16.943 6.74106 16.9483C6.47997 16.9804 6.28438 17.2055 6.28743 17.4708C6.28843 17.5373 6.31767 19.1104 7.3389 20.01C7.96198 20.5593 8.86028 20.7638 9.69366 20.7375C9.86575 20.9456 10.0459 21.1448 10.2447 21.3257C9.81788 21.619 9.54993 21.9147 9.5286 21.9393C9.35218 22.137 9.35218 22.4359 9.5286 22.6336C9.57196 22.6834 10.6224 23.8478 11.9774 23.8478C13.0375 23.8478 13.9034 23.141 14.2542 22.8069H15.7462C16.0969 23.1408 16.9629 23.8477 18.023 23.8477C19.3779 23.8477 20.4284 22.6833 20.4717 22.6335C20.6482 22.4358 20.6482 22.1369 20.4717 21.9392C20.4504 21.9147 20.1829 21.6195 19.7568 21.3265C19.9636 21.1389 20.1433 20.9413 20.3075 20.7374C21.1378 20.7625 22.0357 20.5615 22.6614 20.0099C23.6816 19.1103 23.7119 17.5378 23.7129 17.4712C23.7159 17.2059 23.5213 16.9802 23.2592 16.9482ZM21.12 10.8364V7.19326C21.12 6.61834 20.6578 6.15234 20.0877 6.15234C19.5175 6.15234 19.0554 6.61834 19.0554 7.19326V11.3569H20.6038C20.8889 11.3569 21.12 11.1238 21.12 10.8364Z" fill="#F3F9FB"/>
</svg>
