<svg width="79" height="74" viewBox="0 0 79 74" fill="none" xmlns="http://www.w3.org/2000/svg">
<rect width="79" height="74" fill="#FF5A8B"/>
<g clip-path="url(#clip0_1710_6431)">
<path d="M50.1771 16.8333H28.8229C27.8229 16.8333 27 17.6562 27 18.6562V31.677C27 32.677 27.8229 33.4999 28.8229 33.4999H50.1771C51.1771 33.4999 52.0001 32.677 52.0001 31.677V18.6562C52 17.6562 51.1771 16.8333 50.1771 16.8333ZM48.875 21.7812V28.552C48.875 29.552 48.0625 30.3749 47.0521 30.3749H41.3229C40.3125 30.3749 39.5 29.552 39.5 28.552V21.7812C39.5 20.7812 40.3125 19.9583 41.3229 19.9583H47.0521C48.0625 19.9583 48.875 20.7812 48.875 21.7812ZM36.6354 25.6874H30.9063C30.4792 25.6874 30.125 25.3333 30.125 24.9062C30.125 24.4791 30.4792 24.1249 30.9063 24.1249H36.6354C37.0625 24.1249 37.4167 24.4791 37.4167 24.9062C37.4167 25.3333 37.0625 25.6874 36.6354 25.6874ZM37.4167 28.0312C37.4167 28.4583 37.0625 28.8124 36.6354 28.8124H30.9063C30.4792 28.8124 30.125 28.4583 30.125 28.0312C30.125 27.6041 30.4792 27.2499 30.9063 27.2499H36.6354C37.0625 27.2499 37.4167 27.6041 37.4167 28.0312ZM36.6354 22.5624H30.9063C30.4792 22.5624 30.125 22.2083 30.125 21.7812C30.125 21.3541 30.4792 20.9999 30.9063 20.9999H36.6354C37.0625 20.9999 37.4167 21.3541 37.4167 21.7812C37.4167 22.2083 37.0625 22.5624 36.6354 22.5624Z" fill="white"/>
<path d="M50.1771 8.5H28.8229C27.8177 8.5 27 9.31772 27 10.3229V12.9271C27 13.9323 27.8177 14.75 28.8229 14.75H50.1771C51.1823 14.75 52 13.9323 52 12.9271V10.3229C52 9.31772 51.1823 8.5 50.1771 8.5Z" fill="white"/>
</g>
<path d="M16.9001 61.5V48.4091H21.5663C22.5848 48.4091 23.4285 48.5945 24.0976 48.9652C24.7666 49.3359 25.2673 49.843 25.5997 50.4865C25.9321 51.1257 26.0983 51.8459 26.0983 52.647C26.0983 53.4524 25.93 54.1768 25.5933 54.8203C25.2609 55.4595 24.7581 55.9666 24.0848 56.3416C23.4157 56.7124 22.5741 56.8977 21.5599 56.8977H18.3511V55.223H21.3809C22.0244 55.223 22.5464 55.1122 22.947 54.8906C23.3476 54.6648 23.6416 54.358 23.8291 53.9702C24.0166 53.5824 24.1104 53.1413 24.1104 52.647C24.1104 52.1527 24.0166 51.7138 23.8291 51.3303C23.6416 50.9467 23.3454 50.6463 22.9406 50.429C22.54 50.2116 22.0116 50.103 21.3554 50.103H18.8753V61.5H16.9001ZM32.273 61.6982C31.3525 61.6982 30.5493 61.4872 29.8632 61.0653C29.1771 60.6435 28.6444 60.0533 28.2652 59.2947C27.8859 58.5362 27.6963 57.6499 27.6963 56.6357C27.6963 55.6172 27.8859 54.7266 28.2652 53.9638C28.6444 53.201 29.1771 52.6087 29.8632 52.1868C30.5493 51.7649 31.3525 51.554 32.273 51.554C33.1934 51.554 33.9967 51.7649 34.6828 52.1868C35.3689 52.6087 35.9015 53.201 36.2808 53.9638C36.6601 54.7266 36.8497 55.6172 36.8497 56.6357C36.8497 57.6499 36.6601 58.5362 36.2808 59.2947C35.9015 60.0533 35.3689 60.6435 34.6828 61.0653C33.9967 61.4872 33.1934 61.6982 32.273 61.6982ZM32.2794 60.0938C32.876 60.0938 33.3703 59.9361 33.7623 59.6207C34.1544 59.3054 34.4442 58.8857 34.6317 58.3615C34.8234 57.8374 34.9193 57.2599 34.9193 56.6293C34.9193 56.0028 34.8234 55.4276 34.6317 54.9034C34.4442 54.375 34.1544 53.951 33.7623 53.6314C33.3703 53.3118 32.876 53.152 32.2794 53.152C31.6785 53.152 31.18 53.3118 30.7836 53.6314C30.3916 53.951 30.0997 54.375 29.9079 54.9034C29.7204 55.4276 29.6267 56.0028 29.6267 56.6293C29.6267 57.2599 29.7204 57.8374 29.9079 58.3615C30.0997 58.8857 30.3916 59.3054 30.7836 59.6207C31.18 59.9361 31.6785 60.0938 32.2794 60.0938ZM46.3403 54.0788L44.608 54.3857C44.5356 54.1641 44.4205 53.9531 44.2629 53.7528C44.1095 53.5526 43.9007 53.3885 43.6365 53.2607C43.3722 53.1328 43.042 53.0689 42.6457 53.0689C42.1045 53.0689 41.6528 53.1903 41.2906 53.4332C40.9284 53.6719 40.7472 53.9808 40.7472 54.3601C40.7472 54.6882 40.8687 54.9524 41.1116 55.1527C41.3545 55.353 41.7465 55.517 42.2877 55.6449L43.8474 56.0028C44.7508 56.2116 45.4241 56.5334 45.8673 56.968C46.3105 57.4027 46.532 57.9673 46.532 58.6619C46.532 59.25 46.3616 59.7741 46.0207 60.2344C45.684 60.6903 45.2132 61.0483 44.608 61.3082C44.0072 61.5682 43.3105 61.6982 42.5178 61.6982C41.4184 61.6982 40.5214 61.4638 39.8268 60.995C39.1322 60.522 38.7061 59.8509 38.5484 58.9815L40.3957 58.7003C40.5107 59.1818 40.7472 59.5462 41.1052 59.7933C41.4632 60.0362 41.9298 60.1577 42.5051 60.1577C43.1315 60.1577 43.6322 60.0277 44.0072 59.7678C44.3822 59.5036 44.5697 59.1818 44.5697 58.8026C44.5697 58.4957 44.4546 58.2379 44.2245 58.0291C43.9987 57.8203 43.6514 57.6626 43.1826 57.5561L41.5207 57.1918C40.6045 56.983 39.9269 56.6506 39.488 56.1946C39.0534 55.7386 38.836 55.1612 38.836 54.4624C38.836 53.8828 38.998 53.3757 39.3218 52.9411C39.6457 52.5064 40.0931 52.1676 40.6642 51.9247C41.2352 51.6776 41.8893 51.554 42.6265 51.554C43.6876 51.554 44.5228 51.7841 45.1322 52.2443C45.7416 52.7003 46.1443 53.3118 46.3403 54.0788ZM53.2165 51.6818V53.2159H47.8536V51.6818H53.2165ZM49.2918 49.3295H51.203V58.6172C51.203 58.9879 51.2584 59.267 51.3692 59.4545C51.48 59.6378 51.6228 59.7635 51.7975 59.8317C51.9765 59.8956 52.1704 59.9276 52.3792 59.9276C52.5326 59.9276 52.6668 59.9169 52.7819 59.8956C52.8969 59.8743 52.9864 59.8572 53.0503 59.8445L53.3955 61.4233C53.2847 61.4659 53.127 61.5085 52.9225 61.5511C52.718 61.598 52.4623 61.6236 52.1555 61.6278C51.6526 61.6364 51.1839 61.5469 50.7492 61.3594C50.3145 61.1719 49.963 60.8821 49.6945 60.4901C49.426 60.098 49.2918 59.6058 49.2918 59.0135V49.3295ZM62.5297 54.0788L60.7975 54.3857C60.7251 54.1641 60.61 53.9531 60.4523 53.7528C60.2989 53.5526 60.0901 53.3885 59.8259 53.2607C59.5617 53.1328 59.2314 53.0689 58.8351 53.0689C58.2939 53.0689 57.8422 53.1903 57.48 53.4332C57.1178 53.6719 56.9367 53.9808 56.9367 54.3601C56.9367 54.6882 57.0581 54.9524 57.301 55.1527C57.5439 55.353 57.936 55.517 58.4772 55.6449L60.0368 56.0028C60.9403 56.2116 61.6135 56.5334 62.0567 56.968C62.4999 57.4027 62.7215 57.9673 62.7215 58.6619C62.7215 59.25 62.551 59.7741 62.2101 60.2344C61.8735 60.6903 61.4026 61.0483 60.7975 61.3082C60.1966 61.5682 59.4999 61.6982 58.7073 61.6982C57.6079 61.6982 56.7108 61.4638 56.0162 60.995C55.3216 60.522 54.8955 59.8509 54.7378 58.9815L56.5851 58.7003C56.7002 59.1818 56.9367 59.5462 57.2947 59.7933C57.6526 60.0362 58.1192 60.1577 58.6945 60.1577C59.3209 60.1577 59.8216 60.0277 60.1966 59.7678C60.5716 59.5036 60.7591 59.1818 60.7591 58.8026C60.7591 58.4957 60.6441 58.2379 60.414 58.0291C60.1881 57.8203 59.8408 57.6626 59.3721 57.5561L57.7101 57.1918C56.7939 56.983 56.1164 56.6506 55.6775 56.1946C55.2428 55.7386 55.0255 55.1612 55.0255 54.4624C55.0255 53.8828 55.1874 53.3757 55.5113 52.9411C55.8351 52.5064 56.2826 52.1676 56.8536 51.9247C57.4246 51.6776 58.0787 51.554 58.816 51.554C59.877 51.554 60.7123 51.7841 61.3216 52.2443C61.931 52.7003 62.3337 53.3118 62.5297 54.0788Z" fill="white"/>
<defs>
<clipPath id="clip0_1710_6431">
<rect width="25" height="25" fill="white" transform="translate(27 8.5)"/>
</clipPath>
</defs>
</svg>
