<svg width="30" height="30" viewBox="0 0 30 30" fill="none" xmlns="http://www.w3.org/2000/svg">
<g clip-path="url(#clip0_1804_1598)">
<path d="M30 13.418L22.1484 13.418L22.1484 11.1275C22.1484 9.81903 23.213 8.7545 24.5215 8.7545L27.5391 8.7545L27.5391 2.89513L24.5215 2.89513C19.9821 2.89513 16.2891 6.58814 16.2891 11.1275L16.2891 27.1289L30 27.1289L30 13.418Z" fill="#82C3E1"/>
<path d="M13.7109 27.1289L13.7109 13.418L5.85937 13.418L5.85937 11.1275C5.85937 9.81903 6.9239 8.7545 8.23242 8.7545L11.25 8.7545L11.25 2.89513L8.23242 2.89513C3.69301 2.89513 -1.79573e-06 6.58814 -1.39888e-06 11.1275L0 27.1289L13.7109 27.1289Z" fill="#FF5A8B"/>
</g>
<defs>
<clipPath id="clip0_1804_1598">
<rect width="30" height="30" fill="white" transform="translate(30 30) rotate(180)"/>
</clipPath>
</defs>
</svg>
