<svg width="30" height="30" viewBox="0 0 30 30" fill="none" xmlns="http://www.w3.org/2000/svg">
<g clip-path="url(#clip0_131_1916)">
<path d="M27.3633 7.08984C26.6601 7.08984 25.9747 7.37104 25.4824 7.88086L21.9844 11.3789L22.0946 15.0047L25.7109 15.1055L29.2618 11.5546C29.7363 11.0625 30 10.3945 30 9.72656C30 8.26758 28.8223 7.08984 27.3633 7.08984ZM18.5742 1.75781H15C14.5142 1.75781 14.1211 2.15092 14.1211 2.63672V3.51562H7.08984V2.63672C7.08984 2.15092 6.69674 1.75781 6.21094 1.75781H2.63672C1.18277 1.75781 0 2.94059 0 4.39453V29.1211C0 29.6069 0.393105 30 0.878906 30H20.332C20.8178 30 21.2109 29.6069 21.2109 29.1211V19.2366C21.2109 18.8813 20.9972 18.5603 20.6685 18.4247C20.3406 18.2882 19.9621 18.3629 19.7106 18.6152L15.1581 23.1677C14.4243 23.9015 13.5085 24.3856 12.5137 24.5762C12.7042 23.5813 13.1883 22.6656 13.9222 21.9317L20.9534 14.9004C21.1182 14.7357 21.2109 14.5125 21.2109 14.2791V4.39453C21.2109 2.94059 20.0282 1.75781 18.5742 1.75781Z" fill="url(#paint0_linear_131_1916)"/>
<path d="M6.21094 5.27344H15C15.4858 5.27344 15.8789 4.88033 15.8789 4.39453V0.878906C15.8789 0.393105 15.4858 0 15 0H6.21094C5.72514 0 5.33203 0.393105 5.33203 0.878906V4.39453C5.33203 4.88033 5.72514 5.27344 6.21094 5.27344ZM7.96875 7.08984H4.45313C3.96732 7.08984 3.57422 7.48295 3.57422 7.96875V11.4844C3.57422 11.9702 3.96732 12.3633 4.45313 12.3633H7.96875C8.45455 12.3633 8.84766 11.9702 8.84766 11.4844V7.96875C8.84766 7.48295 8.45455 7.08984 7.96875 7.08984ZM7.96875 14.1211H4.45313C3.96732 14.1211 3.57422 14.5142 3.57422 15V18.5156C3.57422 19.0014 3.96732 19.3945 4.45313 19.3945H7.96875C8.45455 19.3945 8.84766 19.0014 8.84766 18.5156V15C8.84766 14.5142 8.45455 14.1211 7.96875 14.1211ZM7.96875 21.1523H4.45313C3.96732 21.1523 3.57422 21.5454 3.57422 22.0312V25.5469C3.57422 26.0327 3.96732 26.4258 4.45313 26.4258H7.96875C8.45455 26.4258 8.84766 26.0327 8.84766 25.5469V22.0312C8.84766 21.5454 8.45455 21.1523 7.96875 21.1523ZM21.9844 11.3789L12.6856 20.6953C11.3847 21.996 10.6641 23.7187 10.6641 25.5469C10.6641 26.039 11.0507 26.4258 11.543 26.4258C13.371 26.4258 15.0938 25.705 16.3945 24.4042L25.7109 15.1055L21.9844 11.3789ZM10.6055 7.96875C10.6055 8.45455 10.9986 8.84766 11.4844 8.84766H16.7578C17.2436 8.84766 17.6367 8.45455 17.6367 7.96875C17.6367 7.48295 17.2436 7.08984 16.7578 7.08984H11.4844C10.9986 7.08984 10.6055 7.48295 10.6055 7.96875ZM11.4844 10.6055C10.9986 10.6055 10.6055 10.9986 10.6055 11.4844C10.6055 11.9702 10.9986 12.3633 11.4844 12.3633H15C15.4858 12.3633 15.8789 11.9702 15.8789 11.4844C15.8789 10.9986 15.4858 10.6055 15 10.6055H11.4844ZM11.4844 15.8789H13.2422C13.728 15.8789 14.1211 15.4858 14.1211 15C14.1211 14.5142 13.728 14.1211 13.2422 14.1211H11.4844C10.9986 14.1211 10.6055 14.5142 10.6055 15C10.6055 15.4858 10.9986 15.8789 11.4844 15.8789Z" fill="#FFD465"/>
</g>
<defs>
<linearGradient id="paint0_linear_131_1916" x1="15" y1="30" x2="15" y2="1.75781" gradientUnits="userSpaceOnUse">
<stop stop-color="#FFEBD3"/>
<stop offset="1" stop-color="#FFF0D2"/>
<stop offset="1" stop-color="#FACCB9"/>
</linearGradient>
<clipPath id="clip0_131_1916">
<rect width="30" height="30" fill="white"/>
</clipPath>
</defs>
</svg>
