<svg width="30" height="30" viewBox="0 0 30 30" fill="none" xmlns="http://www.w3.org/2000/svg">
<g clip-path="url(#clip0_131_1854)">
<path d="M15 30C23.2843 30 30 23.2843 30 15C30 6.71573 23.2843 0 15 0C6.71573 0 0 6.71573 0 15C0 23.2843 6.71573 30 15 30Z" fill="#64CCC5"/>
<path d="M22.7396 12.2566C22.6534 12.2566 22.5681 12.2735 22.4884 12.3064C22.4088 12.3394 22.3364 12.3877 22.2754 12.4487C22.2145 12.5096 22.1661 12.582 22.1332 12.6617C22.1002 12.7413 22.0833 12.8267 22.0834 12.9129V20.1932C22.0826 20.8887 21.806 21.5554 21.3142 22.0472C20.8224 22.539 20.1556 22.8156 19.4601 22.8164H10.5398C9.8441 22.8164 9.17687 22.54 8.68492 22.0481C8.19297 21.5561 7.91659 20.8889 7.91659 20.1932V11.2729C7.91651 10.9283 7.98431 10.5872 8.11612 10.2689C8.24792 9.95059 8.44114 9.66138 8.68475 9.41777C8.92835 9.17417 9.21757 8.98094 9.53587 8.84914C9.85417 8.71734 10.1953 8.64954 10.5398 8.64961H16.9676C17.1065 9.15597 17.4221 9.59583 17.8574 9.88949C18.2927 10.1832 18.8187 10.3112 19.3402 10.2504C19.8618 10.1897 20.3443 9.94408 20.7004 9.55821C21.0564 9.17233 21.2625 8.67167 21.2813 8.14695C21.3 7.62222 21.1302 7.10813 20.8026 6.69783C20.4749 6.28752 20.0112 6.00814 19.4953 5.9103C18.9795 5.81247 18.4456 5.90264 17.9905 6.16449C17.5354 6.42634 17.1891 6.84255 17.0144 7.3377H10.5398C9.49616 7.3377 8.49524 7.75229 7.75726 8.49028C7.01927 9.22826 6.60468 10.2292 6.60468 11.2729V20.1932C6.60468 21.2368 7.01927 22.2378 7.75726 22.9757C8.49524 23.7137 9.49616 24.1283 10.5398 24.1283H19.4601C20.5038 24.1283 21.5047 23.7137 22.2427 22.9757C22.9807 22.2378 23.3953 21.2368 23.3953 20.1932V12.9129C23.3954 12.8267 23.3785 12.7414 23.3456 12.6618C23.3126 12.5822 23.2644 12.5098 23.2035 12.4489C23.1426 12.3879 23.0703 12.3396 22.9907 12.3066C22.9111 12.2736 22.8258 12.2566 22.7396 12.2566Z" fill="#F3F9FB"/>
<path d="M18.8572 20.3009C18.8572 20.387 18.8742 20.4723 18.9071 20.5518C18.9401 20.6314 18.9884 20.7037 19.0493 20.7646C19.1102 20.8254 19.1824 20.8737 19.262 20.9067C19.3415 20.9396 19.4268 20.9566 19.5129 20.9566C19.599 20.9566 19.6843 20.9396 19.7638 20.9067C19.8434 20.8737 19.9156 20.8254 19.9765 20.7646C20.0374 20.7037 20.0857 20.6314 20.1187 20.5518C20.1516 20.4723 20.1686 20.387 20.1686 20.3009C20.1686 19.0133 19.9151 17.7382 19.4224 16.5486C18.9296 15.359 18.2074 14.278 17.2969 13.3675C16.3864 12.457 15.3055 11.7348 14.1158 11.2421C12.9262 10.7493 11.6511 10.4958 10.3635 10.4958C10.1896 10.4958 10.0228 10.5649 9.89986 10.6879C9.7769 10.8108 9.70782 10.9776 9.70782 11.1515C9.70782 11.3254 9.7769 11.4922 9.89986 11.6151C10.0228 11.7381 10.1896 11.8072 10.3635 11.8072C15.0469 11.8072 18.8572 15.6175 18.8572 20.3009Z" fill="#F3F9FB"/>
<path d="M14.5611 20.301C14.5611 20.4749 14.6302 20.6417 14.7532 20.7647C14.8761 20.8876 15.0429 20.9567 15.2168 20.9567C15.3907 20.9567 15.5575 20.8876 15.6804 20.7647C15.8034 20.6417 15.8725 20.4749 15.8725 20.301C15.8704 18.8409 15.2895 17.4411 14.257 16.4086C13.2246 15.3762 11.8248 14.7952 10.3646 14.7932C10.1908 14.7932 10.024 14.8623 9.90102 14.9853C9.77806 15.1082 9.70898 15.275 9.70898 15.4489C9.70898 15.6228 9.77806 15.7895 9.90102 15.9125C10.024 16.0355 10.1908 16.1045 10.3646 16.1045C11.4771 16.1061 12.5436 16.5487 13.3303 17.3354C14.117 18.122 14.5596 19.1885 14.5611 20.301Z" fill="#F3F9FB"/>
<path d="M10.5276 20.9566C10.9803 20.9566 11.3473 20.5896 11.3473 20.1369C11.3473 19.6841 10.9803 19.3171 10.5276 19.3171C10.0748 19.3171 9.70782 19.6841 9.70782 20.1369C9.70782 20.5896 10.0748 20.9566 10.5276 20.9566Z" fill="#F3F9FB"/>
</g>
<defs>
<clipPath id="clip0_131_1854">
<rect width="30" height="30" fill="white"/>
</clipPath>
</defs>
</svg>
