<svg width="30" height="30" viewBox="0 0 30 30" fill="none" xmlns="http://www.w3.org/2000/svg">
<g clip-path="url(#clip0_1710_3113)">
<path d="M25.3588 25.3917C31.073 19.6775 31.073 10.4129 25.3588 4.69865C19.6446 -1.01557 10.38 -1.01557 4.66577 4.69865C-1.04845 10.4129 -1.04845 19.6775 4.66577 25.3917C10.38 31.1059 19.6446 31.1059 25.3588 25.3917Z" fill="#0EAE62"/>
<path fill-rule="evenodd" clip-rule="evenodd" d="M24.0991 12.4834V22.4919C24.0991 22.8506 23.8265 23.1418 23.4895 23.1418H6.54221C6.20527 23.1418 5.93261 22.8506 5.93261 22.4919V12.4834H24.0991ZM16.1813 17.6623C16.0868 17.5678 15.9334 17.5678 15.8389 17.6623C15.7444 17.7568 15.7444 17.9102 15.8389 18.0047L16.3873 18.5531C16.4818 18.6476 16.6352 18.6476 16.7297 18.5531L16.7312 18.5516L18.2014 17.0814C18.2959 16.9869 18.2959 16.8335 18.2014 16.739C18.1069 16.6445 17.9535 16.6445 17.859 16.739L16.5593 18.0388L16.1813 17.6623ZM21.835 21.9698C21.969 21.9698 22.0775 21.8614 22.0775 21.7274V20.1131C22.0775 19.9791 21.969 19.8707 21.835 19.8707H20.2208C20.0868 19.8707 19.9783 19.9791 19.9783 20.1131V21.7274C19.9783 21.8614 20.0868 21.9698 20.2208 21.9698H21.835ZM17.8273 21.9698C17.9613 21.9698 18.0697 21.8614 18.0697 21.7274V20.1131C18.0697 19.9791 17.9613 19.8707 17.8273 19.8707H16.213C16.079 19.8707 15.9706 19.9791 15.9706 20.1131V21.7274C15.9706 21.8614 16.079 21.9698 16.213 21.9698H17.8273ZM13.8187 21.9698C13.9527 21.9698 14.0612 21.8614 14.0612 21.7274V20.1131C14.0612 19.9791 13.9527 19.8707 13.8187 19.8707H12.2045C12.0705 19.8707 11.962 19.9791 11.962 20.1131V21.7274C11.962 21.8614 12.0705 21.9698 12.2045 21.9698H13.8187ZM9.811 21.9698C9.945 21.9698 10.0534 21.8614 10.0534 21.7274V20.1131C10.0534 19.9791 9.945 19.8707 9.811 19.8707H8.19675C8.06274 19.8707 7.9543 19.9791 7.9543 20.1131V21.7274C7.9543 21.8614 8.06274 21.9698 8.19675 21.9698H9.811ZM21.835 18.6956C21.969 18.6956 22.0775 18.5872 22.0775 18.4532V16.8397C22.0775 16.7057 21.969 16.5973 21.835 16.5973H20.2208C20.0868 16.5973 19.9783 16.7057 19.9783 16.8397V18.454C19.9783 18.588 20.0868 18.6964 20.2208 18.6964H21.835V18.6956ZM13.8187 18.6956C13.9527 18.6956 14.0612 18.5872 14.0612 18.4532V16.8397C14.0612 16.7057 13.9527 16.5973 13.8187 16.5973H12.2045C12.0705 16.5973 11.962 16.7057 11.962 16.8397V18.454C11.962 18.588 12.0705 18.6964 12.2045 18.6964H13.8187V18.6956ZM9.811 18.6956C9.945 18.6956 10.0534 18.5872 10.0534 18.4532V16.8397C10.0534 16.7057 9.945 16.5973 9.811 16.5973H8.19675C8.06274 16.5973 7.9543 16.7057 7.9543 16.8397V18.454C7.9543 18.588 8.06274 18.6964 8.19675 18.6964H9.811V18.6956ZM21.835 15.4222C21.969 15.4222 22.0775 15.3138 22.0775 15.1798V13.5655C22.0775 13.4315 21.969 13.3231 21.835 13.3231H20.2208C20.0868 13.3231 19.9783 13.4315 19.9783 13.5655V15.1798C19.9783 15.3138 20.0868 15.4222 20.2208 15.4222H21.835ZM17.8273 15.4222C17.9613 15.4222 18.0697 15.3138 18.0697 15.1798V13.5655C18.0697 13.4315 17.9613 13.3231 17.8273 13.3231H16.213C16.079 13.3231 15.9706 13.4315 15.9706 13.5655V15.1798C15.9706 15.3138 16.079 15.4222 16.213 15.4222H17.8273ZM13.8187 15.4222C13.9527 15.4222 14.0612 15.3138 14.0612 15.1798V13.5655C14.0612 13.4315 13.9527 13.3231 13.8187 13.3231H12.2045C12.0705 13.3231 11.962 13.4315 11.962 13.5655V15.1798C11.962 15.3138 12.0705 15.4222 12.2045 15.4222H13.8187ZM9.811 15.4222C9.945 15.4222 10.0534 15.3138 10.0534 15.1798V13.5655C10.0534 13.4315 9.945 13.3231 9.811 13.3231H8.19675C8.06274 13.3231 7.9543 13.4315 7.9543 13.5655V15.1798C7.9543 15.3138 8.06274 15.4222 8.19675 15.4222H9.811Z" fill="white"/>
<path fill-rule="evenodd" clip-rule="evenodd" d="M23.4895 8.62439C23.8265 8.62439 24.0991 8.91564 24.0991 9.27427V11.9985H5.93261V9.27427C5.93261 8.91564 6.20527 8.62439 6.54221 8.62439H7.87297V9.96676C7.87297 10.4702 8.28118 10.8785 8.78466 10.8785H10.0511C10.5546 10.8785 10.9628 10.4702 10.9628 9.96676V8.62439H19.0689V9.96676C19.0689 10.4702 19.4771 10.8785 19.9806 10.8785H21.2471C21.7506 10.8785 22.1588 10.4702 22.1588 9.96676V8.62439H23.4895Z" fill="white"/>
<path fill-rule="evenodd" clip-rule="evenodd" d="M10.0511 10.3943H8.78467C8.54841 10.3943 8.35786 10.203 8.35786 9.96749V7.37492C8.35786 7.13867 8.54919 6.94812 8.78467 6.94812H10.0511C10.2874 6.94812 10.4779 7.13944 10.4779 7.37492V9.96671C10.4787 10.203 10.2874 10.3943 10.0511 10.3943Z" fill="white"/>
<path fill-rule="evenodd" clip-rule="evenodd" d="M21.2471 10.3943H19.9806C19.7444 10.3943 19.5538 10.203 19.5538 9.96749V7.37492C19.5538 7.13867 19.7452 6.94812 19.9806 6.94812H21.2471C21.4833 6.94812 21.6739 7.13944 21.6739 7.37492V9.96671C21.6739 10.203 21.4826 10.3943 21.2471 10.3943Z" fill="white"/>
<path d="M8.43919 13.8079H9.56855V14.9372H8.43919V13.8079Z" fill="white"/>
<path d="M12.4469 13.8079H13.5763V14.9372H12.4469V13.8079Z" fill="white"/>
<path d="M16.4555 13.8079H17.5848V14.9372H16.4555V13.8079Z" fill="white"/>
<path d="M20.4632 13.8079H21.5926V14.9372H20.4632V13.8079Z" fill="white"/>
<path d="M8.43919 17.0813H9.56855V18.2107H8.43919V17.0813Z" fill="white"/>
<path d="M12.4469 17.0813H13.5763V18.2107H12.4469V17.0813Z" fill="white"/>
<path d="M20.4632 17.0813H21.5926V18.2107H20.4632V17.0813Z" fill="white"/>
<path d="M8.43919 20.3556H9.56855V21.4849H8.43919V20.3556Z" fill="white"/>
<path d="M12.4469 20.3556H13.5763V21.4849H12.4469V20.3556Z" fill="white"/>
<path d="M16.4555 20.3556H17.5848V21.4849H16.4555V20.3556Z" fill="white"/>
<path d="M20.4632 20.3556H21.5926V21.4849H20.4632V20.3556Z" fill="white"/>
</g>
<defs>
<clipPath id="clip0_1710_3113">
<rect width="30" height="30" fill="white"/>
</clipPath>
</defs>
</svg>
