<svg width="284" height="175" viewBox="0 0 284 175" fill="none" xmlns="http://www.w3.org/2000/svg">
<path fill-rule="evenodd" clip-rule="evenodd" d="M220.209 171.611C235.428 153.496 244.594 130.125 244.594 104.614C244.594 47.0569 197.935 0.397461 140.377 0.397461C82.8201 0.397461 36.1606 47.0569 36.1606 104.614C36.1606 130.125 45.3269 153.496 60.5457 171.611H220.209Z" fill="#F0F3FD"/>
<path opacity="0.7" fill-rule="evenodd" clip-rule="evenodd" d="M111.892 43.0287C111.892 43.0766 111.891 43.1243 111.89 43.1719C114.869 43.2459 117.261 45.6842 117.261 48.6813C117.261 51.6777 114.87 54.1156 111.892 54.1906V54.1924H100.869V54.1906C100.822 54.1918 100.775 54.1924 100.728 54.1924C97.6843 54.1924 95.2169 51.725 95.2169 48.6813C95.2169 45.6375 97.6843 43.1701 100.728 43.1701C100.776 43.1701 100.824 43.1707 100.871 43.1719C100.87 43.1243 100.869 43.0766 100.869 43.0287C100.869 39.985 103.337 37.5176 106.381 37.5176C109.424 37.5176 111.892 39.985 111.892 43.0287Z" fill="white"/>
<g opacity="0.15">
<path fill-rule="evenodd" clip-rule="evenodd" d="M76.1653 72.1937C76.0516 72.3289 75.9777 72.4931 75.9521 72.6679L72.6023 95.4671C72.5396 95.8943 72.7722 96.3101 73.169 96.4802L76.1655 97.7644C76.2118 97.7842 76.2584 97.8001 76.3051 97.8122C76.4322 97.8451 76.5403 97.9488 76.5403 98.0801V105.113C76.5403 105.376 76.7533 105.589 77.0161 105.589C77.2789 105.589 77.4919 105.376 77.4919 105.113V96.9035C77.492 96.8989 77.492 96.8943 77.492 96.8897L77.492 71.2687C77.492 71.0467 77.2149 70.9456 77.072 71.1155L76.1653 72.1937Z" fill="#A4A4A4"/>
<path fill-rule="evenodd" clip-rule="evenodd" d="M76.1652 71.7181C76.0515 71.8533 75.9776 72.0175 75.9519 72.1923L72.6022 94.9916C72.5394 95.4187 72.7721 95.8345 73.1689 96.0046L76.1654 97.2888C76.2116 97.3086 76.2583 97.3245 76.305 97.3366C76.4321 97.3696 76.5402 97.4732 76.5402 97.6046V104.638C76.5402 104.9 76.7532 105.113 77.016 105.113C77.2788 105.113 77.4918 104.9 77.4918 104.638V96.4279C77.4919 96.4233 77.4919 96.4187 77.4919 96.4141L77.4919 70.7931C77.4919 70.5711 77.2148 70.4701 77.0719 70.6399L76.1652 71.7181Z" fill="#C4C4C4"/>
<path fill-rule="evenodd" clip-rule="evenodd" d="M49.1859 122.008C49.3598 122.039 49.5389 122.021 49.7031 121.956L71.1228 113.457C71.5241 113.298 71.7679 112.889 71.7168 112.46L71.3307 109.223C71.3247 109.173 71.3151 109.125 71.3023 109.078C71.2673 108.952 71.303 108.806 71.4168 108.741L77.5076 105.224C77.7352 105.093 77.8132 104.802 77.6818 104.574C77.5504 104.347 77.2594 104.269 77.0318 104.4L69.9306 108.5C69.9237 108.504 69.9168 108.507 69.9099 108.511L47.7214 121.322C47.5292 121.433 47.5802 121.723 47.7988 121.762L49.1859 122.008Z" fill="#A4A4A4"/>
<path fill-rule="evenodd" clip-rule="evenodd" d="M48.948 121.77C49.122 121.801 49.3011 121.783 49.4653 121.718L70.8849 113.219C71.2862 113.06 71.53 112.65 71.4789 112.222L71.0928 108.985C71.0869 108.935 71.0773 108.886 71.0645 108.84C71.0295 108.713 71.0652 108.568 71.1789 108.502L77.2698 104.986C77.4974 104.854 77.5754 104.563 77.444 104.336C77.3126 104.108 77.0216 104.03 76.794 104.162L69.6942 108.261C69.6868 108.265 69.6794 108.269 69.672 108.273L47.4836 121.084C47.2913 121.195 47.3424 121.485 47.5609 121.524L48.948 121.77Z" fill="#C4C4C4"/>
<path fill-rule="evenodd" clip-rule="evenodd" d="M106.125 120.86C106.065 120.694 105.959 120.548 105.821 120.439L87.7509 106.138C87.4124 105.87 86.9359 105.864 86.5903 106.122L83.9798 108.075C83.9394 108.105 83.9023 108.138 83.8684 108.172C83.7763 108.266 83.6324 108.308 83.5186 108.242L77.428 104.726C77.2004 104.594 76.9094 104.672 76.778 104.9C76.6466 105.128 76.7246 105.419 76.9522 105.55L88.4903 112.212C88.4961 112.215 88.502 112.218 88.5078 112.221L106.263 122.472C106.455 122.583 106.681 122.393 106.605 122.185L106.125 120.86Z" fill="#A4A4A4"/>
<path fill-rule="evenodd" clip-rule="evenodd" d="M106.125 120.385C106.065 120.219 105.959 120.073 105.821 119.963L87.7509 105.662C87.4124 105.395 86.9359 105.388 86.5903 105.647L83.9798 107.6C83.9396 107.63 83.9025 107.662 83.8687 107.697C83.7766 107.79 83.6328 107.832 83.5191 107.766L77.428 104.25C77.2004 104.118 76.9094 104.196 76.778 104.424C76.6466 104.651 76.7246 104.942 76.9522 105.074L84.0578 109.176C84.0632 109.179 84.0686 109.183 84.0741 109.186L106.263 121.996C106.455 122.107 106.681 121.918 106.605 121.709L106.125 120.385Z" fill="#C4C4C4"/>
<path fill-rule="evenodd" clip-rule="evenodd" d="M78.2394 106.564C78.919 106.274 79.3953 105.599 79.3953 104.813C79.3953 103.762 78.5432 102.91 77.492 102.91C76.4409 102.91 75.5887 103.762 75.5887 104.813C75.5887 105.599 76.065 106.274 76.7446 106.564L72.9717 169.525H82.0123L78.2394 106.564Z" fill="#A4A4A4"/>
<path fill-rule="evenodd" clip-rule="evenodd" d="M77.7635 106.564C78.4431 106.274 78.9194 105.599 78.9194 104.813C78.9194 103.762 78.0672 102.91 77.0161 102.91C75.9649 102.91 75.1128 103.762 75.1128 104.813C75.1128 105.599 75.589 106.274 76.2687 106.564L72.4957 169.525H81.5364L77.7635 106.564Z" fill="#C4C4C4"/>
</g>
<g opacity="0.6">
<rect x="226.53" y="85.458" width="18.5602" height="43.7688" rx="9.2801" fill="#E9EBF2"/>
<rect x="235.395" y="103.187" width="1.10807" height="68.4235" rx="0.554036" fill="#E1E2E5"/>
<rect x="239.966" y="105.62" width="1.10807" height="9.33995" rx="0.554036" transform="rotate(30 239.966 105.62)" fill="#E1E2E5"/>
<rect width="1.10807" height="13.1402" rx="0.554036" transform="matrix(0.866025 -0.5 -0.5 -0.866025 235.702 120.537)" fill="#E1E2E5"/>
</g>
<rect x="207.076" y="49.3291" width="26.5401" height="62.5871" rx="13.2701" fill="#E9EBF2"/>
<rect x="219.752" y="74.6816" width="1.58448" height="97.8419" rx="0.792242" fill="#E1E2E5"/>
<rect x="226.289" y="78.1602" width="1.58448" height="13.3556" rx="0.792242" transform="rotate(30 226.289 78.1602)" fill="#E1E2E5"/>
<rect width="1.58448" height="18.7899" rx="0.792242" transform="matrix(0.866025 -0.5 -0.5 -0.866025 220.191 99.4912)" fill="#E1E2E5"/>
<path fill-rule="evenodd" clip-rule="evenodd" d="M49.6266 19.9476C49.4478 20.1602 49.3317 20.4184 49.2913 20.6932L44.0239 56.5446C43.9252 57.2163 44.291 57.8702 44.915 58.1376L49.627 60.157C49.6997 60.1882 49.7731 60.2132 49.8465 60.2322C50.0465 60.284 50.2164 60.447 50.2164 60.6535V71.7135C50.2164 72.1268 50.5514 72.4618 50.9646 72.4618C51.3778 72.4618 51.7128 72.1268 51.7128 71.7135V58.7937C51.7129 58.7897 51.7129 58.7856 51.7129 58.7816L51.7129 18.493C51.7129 18.144 51.2771 17.9851 51.0524 18.2522L49.6266 19.9476Z" fill="#DCDFE6"/>
<path fill-rule="evenodd" clip-rule="evenodd" d="M49.6267 19.1995C49.4479 19.4121 49.3318 19.6703 49.2914 19.9452L44.024 55.7966C43.9253 56.4682 44.2911 57.1222 44.915 57.3896L49.627 59.409C49.6998 59.4402 49.7731 59.4651 49.8466 59.4841C50.0465 59.536 50.2165 59.699 50.2165 59.9055V70.9655C50.2165 71.3787 50.5514 71.7137 50.9647 71.7137C51.3779 71.7137 51.7129 71.3787 51.7129 70.9655V58.0457C51.7129 58.0416 51.7129 58.0376 51.7129 58.0335L51.7129 17.745C51.7129 17.3959 51.2772 17.237 51.0525 17.5042L49.6267 19.1995Z" fill="#E9EBF2"/>
<path fill-rule="evenodd" clip-rule="evenodd" d="M7.20235 98.2809C7.47589 98.3295 7.75754 98.3009 8.01576 98.1984L41.6977 84.8345C42.3287 84.5841 42.7121 83.9403 42.6317 83.2663L42.0246 78.1759C42.0152 78.0973 42.0001 78.0213 41.9799 77.9481C41.9248 77.7491 41.981 77.5204 42.1598 77.4171L51.7378 71.8873C52.0956 71.6807 52.2183 71.2231 52.0116 70.8652C51.805 70.5073 51.3474 70.3847 50.9896 70.5913L32.8461 81.0664C32.8448 81.0672 32.8436 81.0679 32.8423 81.0686L4.89954 97.2014C4.59724 97.376 4.67752 97.8328 5.02122 97.8938L7.20235 98.2809Z" fill="#DCDFE6"/>
<path fill-rule="evenodd" clip-rule="evenodd" d="M6.82827 97.9059C7.1018 97.9545 7.38345 97.9259 7.64168 97.8234L41.3236 84.4595C41.9546 84.2091 42.338 83.5653 42.2576 82.8913L41.6505 77.8009C41.6411 77.7223 41.626 77.6463 41.6058 77.5731C41.5507 77.3741 41.6069 77.1454 41.7857 77.0421L51.3637 71.5123C51.7216 71.3057 51.8442 70.8481 51.6376 70.4902C51.4309 70.1323 50.9733 70.0097 50.6155 70.2163L32.472 80.6914C32.4707 80.6922 32.4695 80.6929 32.4682 80.6936L4.52546 96.8264C4.22316 97.001 4.30344 97.4578 4.64713 97.5188L6.82827 97.9059Z" fill="#E9EBF2"/>
<path fill-rule="evenodd" clip-rule="evenodd" d="M96.7379 96.4766C96.6432 96.2154 96.4777 95.9858 96.2598 95.8134L67.8453 73.326C67.313 72.9047 66.5638 72.8945 66.0202 73.3012L61.9154 76.3722C61.852 76.4195 61.7938 76.4705 61.7406 76.5246C61.5958 76.6718 61.3697 76.7374 61.1909 76.6342L51.6127 71.1043C51.2549 70.8976 50.7972 71.0203 50.5906 71.3781C50.384 71.736 50.5066 72.1936 50.8645 72.4002L62.0363 78.8503C62.0453 78.8557 62.0544 78.8611 62.0636 78.8664L96.9545 99.0106C97.2568 99.1852 97.6123 98.8872 97.4932 98.5591L96.7379 96.4766Z" fill="#DCDFE6"/>
<path fill-rule="evenodd" clip-rule="evenodd" d="M96.7379 95.7276C96.6432 95.4664 96.4777 95.2368 96.2598 95.0644L67.8453 72.577C67.313 72.1557 66.5638 72.1455 66.0202 72.5522L61.9154 75.6232C61.852 75.6705 61.7938 75.7215 61.7406 75.7756C61.5958 75.9228 61.3697 75.9884 61.1909 75.8852L51.6127 70.3552C51.2549 70.1486 50.7973 70.2712 50.5906 70.6291C50.384 70.987 50.5066 71.4446 50.8645 71.6512L62.0363 78.1012C62.0453 78.1067 62.0544 78.1121 62.0636 78.1173L96.9545 98.2616C97.2568 98.4361 97.6123 98.1382 97.4932 97.8101L96.7379 95.7276Z" fill="#E9EBF2"/>
<path fill-rule="evenodd" clip-rule="evenodd" d="M52.8882 73.9953C53.9569 73.5385 54.7058 72.4777 54.7058 71.2419C54.7058 69.589 53.3659 68.249 51.7129 68.249C50.06 68.249 48.72 69.589 48.72 71.2419C48.72 72.4777 49.469 73.5385 50.5377 73.9952L44.6048 173H58.821L52.8882 73.9953Z" fill="#DCDFE6"/>
<path fill-rule="evenodd" clip-rule="evenodd" d="M52.14 73.9953C53.2088 73.5385 53.9577 72.4777 53.9577 71.2419C53.9577 69.589 52.6178 68.249 50.9648 68.249C49.3119 68.249 47.9719 69.589 47.9719 71.2419C47.9719 72.4777 48.7209 73.5385 49.7896 73.9952L43.8567 173H58.0729L52.14 73.9953Z" fill="#E9EBF2"/>
<path opacity="0.6" fill-rule="evenodd" clip-rule="evenodd" d="M180.051 62.5301C180.051 62.5542 180.051 62.5782 180.05 62.6022C181.553 62.6396 182.759 63.8692 182.759 65.3805C182.759 66.8914 181.553 68.1208 180.051 68.1587V68.1599H174.493V68.1587C174.469 68.1593 174.446 68.1596 174.422 68.1596C172.887 68.1596 171.643 66.9153 171.643 65.3805C171.643 63.8456 172.887 62.6013 174.422 62.6013C174.446 62.6013 174.47 62.6016 174.494 62.6023C174.493 62.5783 174.493 62.5542 174.493 62.5301C174.493 60.9952 175.737 59.751 177.272 59.751C178.807 59.751 180.051 60.9952 180.051 62.5301Z" fill="white"/>
<path opacity="0.5" fill-rule="evenodd" clip-rule="evenodd" d="M195.265 91.9287C195.265 91.9427 195.265 91.9566 195.265 91.9705L194.311 92.8765H195.265V95.1846H192.05V95.1843C192.037 95.1847 192.023 95.1849 192.009 95.1849C191.121 95.1849 190.402 94.4652 190.402 93.5774C190.402 92.6897 191.121 91.97 192.009 91.97C192.023 91.97 192.037 91.9702 192.051 91.9706C192.05 91.9567 192.05 91.9427 192.05 91.9287C192.05 91.041 192.77 90.3213 193.658 90.3213C194.545 90.3213 195.265 91.041 195.265 91.9287Z" fill="white"/>
<path fill-rule="evenodd" clip-rule="evenodd" d="M150.938 28.3658C150.938 23.4435 154.928 19.4531 159.851 19.4531C163.504 19.4531 166.643 21.6506 168.02 24.7958C168.905 24.1691 169.987 23.8009 171.155 23.8009C173.902 23.8009 176.173 25.8389 176.538 28.4853H178.576C181.071 28.4853 183.092 30.5072 183.092 33.0013C183.092 35.4955 181.071 37.5174 178.576 37.5174H151.841C149.347 37.5174 147.325 35.4955 147.325 33.0013C147.325 30.8156 148.878 28.9926 150.94 28.5751C150.939 28.5056 150.938 28.4358 150.938 28.3658Z" fill="white"/>
<path opacity="0.6" fill-rule="evenodd" clip-rule="evenodd" d="M64.036 61.9971C64.036 59.9891 65.6638 58.3613 67.6718 58.3613C69.1618 58.3613 70.4426 59.2577 71.0041 60.5407C71.3654 60.2851 71.8066 60.1349 72.2829 60.1349C73.4033 60.1349 74.3297 60.9661 74.4788 62.0456H75.3104C76.3278 62.0456 77.1526 62.8703 77.1526 63.8878C77.1526 64.9052 76.3278 65.73 75.3104 65.73H64.4045C63.387 65.73 62.5623 64.9052 62.5623 63.8878C62.5623 62.9962 63.1956 62.2525 64.037 62.0822C64.0364 62.0539 64.036 62.0255 64.036 61.9971Z" fill="white"/>
<path d="M80.3414 171.61H72.9671C64.4232 171.61 68.1093 169.179 70.2708 168.708C65.4394 167.058 68.9993 163.95 71.4414 165.246C69.9157 159.589 75.1285 160.768 76.1457 163.95C78.1799 160.65 81.7399 162.3 79.5785 165.835C83.2656 164.303 83.2656 167.368 81.7399 168.31C85.427 168.9 83.3664 170.004 81.3321 170.004C83.7478 171.301 81.9678 171.61 80.3414 171.61Z" fill="#EDEEF2"/>
<path d="M84.4314 171.267H80.6658C76.3029 171.267 78.1852 169.97 79.2889 169.719C76.8218 168.839 78.6397 167.181 79.8867 167.872C79.1076 164.855 81.7695 165.484 82.2889 167.181C83.3277 165.421 85.1455 166.301 84.0418 168.187C85.9246 167.37 85.9246 169.004 85.1455 169.507C87.0283 169.821 85.976 170.41 84.9373 170.41C86.1708 171.102 85.2619 171.267 84.4314 171.267Z" fill="#DFE0E6"/>
<path d="M67.5969 162.89C67.397 162.607 67.1118 162.365 66.7436 162.287C67.3631 161.995 67.6799 162.042 68.0587 162.161C68.9744 162.447 69.0202 163.345 68.6025 163.41C68.1848 163.476 67.8041 163.184 67.5969 162.89Z" fill="#E5E6ED"/>
<path d="M67.2113 162.253C68.0088 162.239 68.672 162.942 68.9667 163.307L68.8959 163.369C68.3499 162.568 67.6443 162.249 67.2113 162.253C67.1975 162.253 67.1837 162.253 67.1699 162.254C67.1834 162.253 67.1972 162.253 67.2113 162.253Z" fill="#616161"/>
<path d="M67.9058 162.18C68.0782 162.258 68.1493 162.476 68.1756 162.584L68.1541 162.59C68.1181 162.363 67.999 162.223 67.9058 162.18C67.9028 162.178 67.8998 162.177 67.8967 162.176C67.8997 162.177 67.9027 162.178 67.9058 162.18Z" fill="#616161"/>
<path d="M67.6564 162.452C67.7478 162.502 67.8611 162.464 67.9142 162.442L67.9092 162.431C67.8043 162.486 67.7062 162.478 67.6564 162.452C67.6548 162.451 67.6532 162.45 67.6517 162.449C67.6532 162.45 67.6548 162.451 67.6564 162.452Z" fill="#616161"/>
<path d="M68.312 162.355C68.4586 162.474 68.4711 162.703 68.4686 162.815L68.4463 162.815C68.47 162.586 68.391 162.42 68.312 162.355C68.3094 162.353 68.3069 162.351 68.3043 162.349C68.3068 162.351 68.3094 162.353 68.312 162.355Z" fill="#616161"/>
<path d="M67.8363 162.726C68.0016 162.818 68.219 162.745 68.3216 162.702L68.3137 162.681C68.1098 162.787 67.9265 162.775 67.8363 162.726C67.8334 162.724 67.8306 162.722 67.8278 162.721C67.8305 162.722 67.8333 162.724 67.8363 162.726Z" fill="#616161"/>
<path d="M67.9964 163.049C68.2314 163.186 68.5293 163.098 68.6692 163.044L68.657 163.015C68.3799 163.15 68.1246 163.122 67.9964 163.049C67.9924 163.047 67.9883 163.044 67.9843 163.042C67.9882 163.044 67.9923 163.047 67.9964 163.049Z" fill="#616161"/>
<path d="M84.7804 165.299C84.9804 165.015 85.2656 164.773 85.6338 164.695C85.0143 164.403 84.6975 164.451 84.3187 164.569C83.403 164.856 83.3572 165.753 83.7749 165.819C84.1926 165.884 84.5733 165.592 84.7804 165.299Z" fill="#E5E6ED"/>
<path d="M85.1661 164.661C84.3685 164.647 83.7054 165.35 83.4106 165.715L83.4814 165.777C84.0275 164.976 84.7331 164.657 85.1661 164.661C85.1799 164.661 85.1937 164.661 85.2075 164.662C85.194 164.661 85.1802 164.661 85.1661 164.661Z" fill="#616161"/>
<path d="M84.4717 164.588C84.2992 164.666 84.2282 164.884 84.2019 164.992L84.2234 164.998C84.2593 164.771 84.3784 164.631 84.4717 164.588C84.4747 164.587 84.4777 164.585 84.4807 164.584C84.4777 164.585 84.4747 164.586 84.4717 164.588Z" fill="#616161"/>
<path d="M84.721 164.86C84.6296 164.91 84.5163 164.872 84.4632 164.85L84.4681 164.839C84.573 164.894 84.6712 164.887 84.721 164.86C84.7226 164.859 84.7241 164.858 84.7257 164.857C84.7242 164.858 84.7226 164.859 84.721 164.86Z" fill="#616161"/>
<path d="M84.0654 164.763C83.9188 164.883 83.9063 165.112 83.9088 165.223L83.9311 165.223C83.9074 164.994 83.9864 164.829 84.0654 164.763C84.0679 164.761 84.0705 164.759 84.0731 164.757C84.0706 164.759 84.068 164.761 84.0654 164.763Z" fill="#616161"/>
<path d="M84.541 165.134C84.3757 165.226 84.1583 165.153 84.0558 165.11L84.0636 165.089C84.2675 165.195 84.4508 165.183 84.541 165.134C84.5439 165.132 84.5467 165.131 84.5496 165.129C84.5468 165.131 84.544 165.132 84.541 165.134Z" fill="#616161"/>
<path d="M84.381 165.457C84.1459 165.594 83.8481 165.506 83.7082 165.453L83.7204 165.423C83.9974 165.558 84.2528 165.531 84.381 165.457C84.385 165.455 84.389 165.453 84.3931 165.45C84.3892 165.453 84.3851 165.455 84.381 165.457Z" fill="#616161"/>
<path d="M77.0929 161.257C77.1171 160.911 77.2356 160.557 77.5102 160.299C76.829 160.37 76.5827 160.575 76.3201 160.873C75.6853 161.592 76.1111 162.384 76.5024 162.223C76.8936 162.063 77.0679 161.616 77.0929 161.257Z" fill="#E5E6ED"/>
<path d="M77.0925 160.512C76.4034 160.914 76.2003 161.859 76.1371 162.324L76.2298 162.34C76.282 161.372 76.7204 160.734 77.0925 160.512C77.1044 160.506 77.1165 160.499 77.1287 160.492C77.1167 160.499 77.1047 160.505 77.0925 160.512Z" fill="#616161"/>
<path d="M76.4606 160.809C76.3535 160.965 76.4056 161.188 76.4392 161.294L76.4607 161.288C76.3738 161.075 76.4032 160.894 76.4606 160.809C76.4625 160.806 76.4644 160.803 76.4663 160.801C76.4644 160.803 76.4625 160.806 76.4606 160.809Z" fill="#616161"/>
<path d="M76.8147 160.913C76.7623 161.003 76.6461 161.03 76.5891 161.038L76.5876 161.026C76.7058 161.019 76.7858 160.961 76.8147 160.913C76.8156 160.911 76.8165 160.91 76.8174 160.908C76.8166 160.91 76.8157 160.911 76.8147 160.913Z" fill="#616161"/>
<path d="M76.2042 161.17C76.1409 161.349 76.2488 161.551 76.3085 161.645L76.3278 161.634C76.189 161.45 76.1707 161.267 76.2042 161.17C76.2053 161.167 76.2064 161.164 76.2076 161.161C76.2064 161.164 76.2053 161.167 76.2042 161.17Z" fill="#616161"/>
<path d="M76.8029 161.241C76.7092 161.406 76.4855 161.456 76.3754 161.472L76.3713 161.45C76.6008 161.435 76.7512 161.33 76.8029 161.241C76.8045 161.238 76.8061 161.235 76.8076 161.232C76.8061 161.235 76.8046 161.238 76.8029 161.241Z" fill="#616161"/>
<path d="M76.8334 161.6C76.7032 161.839 76.403 161.918 76.2555 161.945L76.2507 161.913C76.5576 161.885 76.7616 161.729 76.8334 161.6C76.8356 161.596 76.8378 161.592 76.84 161.588C76.8379 161.592 76.8357 161.596 76.8334 161.6Z" fill="#616161"/>
<path d="M69.8337 161.19C69.822 160.986 69.7549 160.776 69.5952 160.623C69.9955 160.67 70.1389 160.792 70.2912 160.969C70.6595 161.397 70.4032 161.86 70.1741 161.762C69.9451 161.665 69.8458 161.401 69.8337 161.19Z" fill="#E5E6ED"/>
<path d="M69.8394 160.751C70.2419 160.993 70.3545 161.55 70.3883 161.824L70.3337 161.833C70.31 161.263 70.0567 160.885 69.8394 160.751C69.8325 160.747 69.8254 160.743 69.8183 160.739C69.8253 160.743 69.8323 160.747 69.8394 160.751Z" fill="#616161"/>
<path d="M70.209 160.932C70.2709 161.024 70.2386 161.155 70.218 161.217L70.2054 161.214C70.2581 161.089 70.2421 160.982 70.209 160.932C70.2079 160.93 70.2068 160.928 70.2057 160.927C70.2068 160.928 70.2079 160.93 70.209 160.932Z" fill="#616161"/>
<path d="M69.9999 160.989C70.0301 161.042 70.0983 161.059 70.1317 161.064L70.1327 161.057C70.0632 161.052 70.0165 161.018 69.9999 160.989C69.9994 160.988 69.9989 160.987 69.9984 160.986C69.9988 160.987 69.9993 160.988 69.9999 160.989Z" fill="#616161"/>
<path d="M70.3572 161.145C70.3931 161.25 70.3282 161.369 70.2923 161.424L70.2811 161.417C70.3641 161.31 70.3762 161.202 70.3572 161.145C70.3566 161.143 70.3559 161.141 70.3552 161.14C70.3559 161.141 70.3566 161.143 70.3572 161.145Z" fill="#616161"/>
<path d="M70.0046 161.182C70.0585 161.279 70.1897 161.311 70.2544 161.321L70.2569 161.308C70.122 161.298 70.0343 161.234 70.0046 161.182C70.0036 161.18 70.0027 161.178 70.0018 161.177C70.0027 161.178 70.0036 161.18 70.0046 161.182Z" fill="#616161"/>
<path d="M69.9839 161.393C70.0588 161.535 70.2348 161.583 70.3215 161.6L70.3245 161.582C70.1441 161.563 70.0252 161.47 69.9839 161.393C69.9827 161.391 69.9814 161.388 69.9802 161.386C69.9813 161.388 69.9826 161.391 69.9839 161.393Z" fill="#616161"/>
<path d="M82.5437 163.599C82.5554 163.395 82.6225 163.186 82.7822 163.032C82.382 163.079 82.2385 163.201 82.0862 163.378C81.718 163.806 81.9743 164.269 82.2033 164.172C82.4323 164.074 82.5316 163.81 82.5437 163.599Z" fill="#E5E6ED"/>
<path d="M82.538 163.161C82.1354 163.402 82.0228 163.959 81.9891 164.233L82.0437 164.242C82.0673 163.672 82.3207 163.294 82.538 163.161C82.5449 163.156 82.552 163.152 82.5591 163.148C82.5521 163.152 82.5451 163.156 82.538 163.161Z" fill="#616161"/>
<path d="M82.1685 163.34C82.1066 163.432 82.1389 163.563 82.1594 163.625L82.172 163.622C82.1193 163.497 82.1353 163.39 82.1685 163.34C82.1695 163.338 82.1706 163.337 82.1718 163.335C82.1706 163.336 82.1695 163.338 82.1685 163.34Z" fill="#616161"/>
<path d="M82.3775 163.398C82.3473 163.452 82.2791 163.468 82.2457 163.474L82.2447 163.466C82.3142 163.461 82.3609 163.427 82.3775 163.398C82.378 163.397 82.3785 163.396 82.379 163.396C82.3786 163.396 82.378 163.397 82.3775 163.398Z" fill="#616161"/>
<path d="M82.0203 163.554C81.9843 163.66 82.0493 163.778 82.0851 163.833L82.0964 163.826C82.0134 163.719 82.0013 163.612 82.0203 163.554C82.0209 163.552 82.0215 163.551 82.0222 163.549C82.0215 163.551 82.0209 163.552 82.0203 163.554Z" fill="#616161"/>
<path d="M82.3729 163.591C82.319 163.688 82.1877 163.72 82.1231 163.73L82.1205 163.717C82.2554 163.707 82.3431 163.644 82.3729 163.591C82.3738 163.589 82.3747 163.588 82.3756 163.586C82.3748 163.588 82.3739 163.589 82.3729 163.591Z" fill="#616161"/>
<path d="M82.3936 163.802C82.3187 163.944 82.1427 163.993 82.056 164.009L82.053 163.991C82.2334 163.972 82.3523 163.879 82.3936 163.802C82.3948 163.8 82.3961 163.797 82.3973 163.795C82.3962 163.797 82.3949 163.8 82.3936 163.802Z" fill="#616161"/>
<path d="M239.446 171.61H232.072C223.528 171.61 227.214 169.179 229.375 168.708C224.544 167.058 228.104 163.95 230.546 165.246C229.02 159.589 234.233 160.768 235.25 163.95C237.284 160.65 240.844 162.3 238.683 165.835C242.37 164.303 242.37 167.368 240.844 168.31C244.531 168.9 242.471 170.004 240.437 170.004C242.852 171.301 241.072 171.61 239.446 171.61Z" fill="#EDEEF2"/>
<path d="M243.536 171.267H239.77C235.407 171.267 237.29 169.97 238.393 169.719C235.926 168.839 237.744 167.181 238.991 167.872C238.212 164.855 240.874 165.484 241.393 167.181C242.432 165.421 244.25 166.301 243.146 168.187C245.029 167.37 245.029 169.004 244.25 169.507C246.133 169.821 245.08 170.41 244.042 170.41C245.275 171.102 244.366 171.267 243.536 171.267Z" fill="#DFE0E6"/>
<path d="M226.701 162.89C226.501 162.607 226.216 162.365 225.848 162.287C226.467 161.995 226.784 162.042 227.163 162.161C228.079 162.447 228.125 163.345 227.707 163.41C227.289 163.476 226.909 163.184 226.701 162.89Z" fill="#E5E6ED"/>
<path d="M226.316 162.253C227.113 162.239 227.776 162.942 228.071 163.307L228 163.369C227.454 162.568 226.749 162.249 226.316 162.253C226.302 162.253 226.288 162.253 226.274 162.254C226.288 162.253 226.302 162.253 226.316 162.253Z" fill="#616161"/>
<path d="M227.01 162.18C227.183 162.258 227.254 162.476 227.28 162.584L227.258 162.59C227.222 162.363 227.103 162.223 227.01 162.18C227.007 162.178 227.004 162.177 227.001 162.176C227.004 162.177 227.007 162.178 227.01 162.18Z" fill="#616161"/>
<path d="M226.761 162.452C226.852 162.502 226.966 162.464 227.019 162.442L227.014 162.431C226.909 162.486 226.811 162.478 226.761 162.452C226.759 162.451 226.758 162.45 226.756 162.449C226.758 162.45 226.759 162.451 226.761 162.452Z" fill="#616161"/>
<path d="M227.416 162.355C227.563 162.474 227.576 162.703 227.573 162.815L227.551 162.815C227.574 162.586 227.495 162.42 227.416 162.355C227.414 162.353 227.411 162.351 227.409 162.349C227.411 162.351 227.414 162.353 227.416 162.355Z" fill="#616161"/>
<path d="M226.941 162.726C227.106 162.818 227.324 162.745 227.426 162.702L227.418 162.681C227.214 162.787 227.031 162.775 226.941 162.726C226.938 162.724 226.935 162.722 226.932 162.721C226.935 162.722 226.938 162.724 226.941 162.726Z" fill="#616161"/>
<path d="M227.101 163.049C227.336 163.186 227.634 163.098 227.774 163.044L227.761 163.015C227.484 163.15 227.229 163.122 227.101 163.049C227.097 163.047 227.093 163.044 227.089 163.042C227.093 163.044 227.097 163.047 227.101 163.049Z" fill="#616161"/>
<path d="M243.885 165.299C244.085 165.015 244.37 164.773 244.738 164.695C244.119 164.403 243.802 164.451 243.423 164.569C242.507 164.856 242.462 165.753 242.879 165.819C243.297 165.884 243.678 165.592 243.885 165.299Z" fill="#E5E6ED"/>
<path d="M244.27 164.661C243.473 164.647 242.81 165.35 242.515 165.715L242.586 165.777C243.132 164.976 243.837 164.657 244.27 164.661C244.284 164.661 244.298 164.661 244.312 164.662C244.298 164.661 244.285 164.661 244.27 164.661Z" fill="#616161"/>
<path d="M243.576 164.588C243.404 164.666 243.333 164.884 243.306 164.992L243.328 164.998C243.364 164.771 243.483 164.631 243.576 164.588C243.579 164.587 243.582 164.585 243.585 164.584C243.582 164.585 243.579 164.586 243.576 164.588Z" fill="#616161"/>
<path d="M243.825 164.86C243.734 164.91 243.621 164.872 243.568 164.85L243.573 164.839C243.677 164.894 243.776 164.887 243.825 164.86C243.827 164.859 243.829 164.858 243.83 164.857C243.829 164.858 243.827 164.859 243.825 164.86Z" fill="#616161"/>
<path d="M243.17 164.763C243.023 164.883 243.011 165.112 243.013 165.223L243.035 165.223C243.012 164.994 243.091 164.829 243.17 164.763C243.172 164.761 243.175 164.759 243.177 164.757C243.175 164.759 243.172 164.761 243.17 164.763Z" fill="#616161"/>
<path d="M243.645 165.134C243.48 165.226 243.263 165.153 243.16 165.11L243.168 165.089C243.372 165.195 243.555 165.183 243.645 165.134C243.648 165.132 243.651 165.131 243.654 165.129C243.651 165.131 243.648 165.132 243.645 165.134Z" fill="#616161"/>
<path d="M243.485 165.457C243.25 165.594 242.952 165.506 242.813 165.453L242.825 165.423C243.102 165.558 243.357 165.531 243.485 165.457C243.489 165.455 243.493 165.453 243.497 165.45C243.494 165.453 243.489 165.455 243.485 165.457Z" fill="#616161"/>
<path d="M236.197 161.257C236.221 160.911 236.34 160.557 236.615 160.299C235.933 160.37 235.687 160.575 235.424 160.873C234.79 161.592 235.215 162.384 235.607 162.223C235.998 162.063 236.172 161.616 236.197 161.257Z" fill="#E5E6ED"/>
<path d="M236.197 160.512C235.508 160.914 235.305 161.859 235.242 162.324L235.334 162.34C235.386 161.372 235.825 160.734 236.197 160.512C236.209 160.506 236.221 160.499 236.233 160.492C236.221 160.499 236.209 160.505 236.197 160.512Z" fill="#616161"/>
<path d="M235.565 160.809C235.458 160.965 235.51 161.188 235.544 161.294L235.565 161.288C235.478 161.075 235.508 160.894 235.565 160.809C235.567 160.806 235.569 160.803 235.571 160.801C235.569 160.803 235.567 160.806 235.565 160.809Z" fill="#616161"/>
<path d="M235.919 160.913C235.867 161.003 235.75 161.03 235.693 161.038L235.692 161.026C235.81 161.019 235.89 160.961 235.919 160.913C235.92 160.911 235.921 160.91 235.922 160.908C235.921 160.91 235.92 160.911 235.919 160.913Z" fill="#616161"/>
<path d="M235.309 161.17C235.245 161.349 235.353 161.551 235.413 161.645L235.432 161.634C235.293 161.45 235.275 161.267 235.309 161.17C235.31 161.167 235.311 161.164 235.312 161.161C235.311 161.164 235.31 161.167 235.309 161.17Z" fill="#616161"/>
<path d="M235.907 161.241C235.814 161.406 235.59 161.456 235.48 161.472L235.476 161.45C235.705 161.435 235.856 161.33 235.907 161.241C235.909 161.238 235.91 161.235 235.912 161.232C235.911 161.235 235.909 161.238 235.907 161.241Z" fill="#616161"/>
<path d="M235.938 161.6C235.808 161.839 235.507 161.918 235.36 161.945L235.355 161.913C235.662 161.885 235.866 161.729 235.938 161.6C235.94 161.596 235.942 161.592 235.944 161.588C235.942 161.592 235.94 161.596 235.938 161.6Z" fill="#616161"/>
<path d="M228.938 161.19C228.926 160.986 228.859 160.776 228.699 160.623C229.1 160.67 229.243 160.792 229.395 160.969C229.764 161.397 229.507 161.86 229.278 161.762C229.049 161.665 228.95 161.401 228.938 161.19Z" fill="#E5E6ED"/>
<path d="M228.944 160.751C229.346 160.993 229.459 161.55 229.493 161.824L229.438 161.833C229.414 161.263 229.161 160.885 228.944 160.751C228.937 160.747 228.93 160.743 228.923 160.739C228.93 160.743 228.937 160.747 228.944 160.751Z" fill="#616161"/>
<path d="M229.313 160.932C229.375 161.024 229.343 161.155 229.322 161.217L229.31 161.214C229.362 161.089 229.346 160.982 229.313 160.932C229.312 160.93 229.311 160.928 229.31 160.927C229.311 160.928 229.312 160.93 229.313 160.932Z" fill="#616161"/>
<path d="M229.104 160.989C229.134 161.042 229.203 161.059 229.236 161.064L229.237 161.057C229.167 161.052 229.121 161.018 229.104 160.989C229.104 160.988 229.103 160.987 229.103 160.986C229.103 160.987 229.104 160.988 229.104 160.989Z" fill="#616161"/>
<path d="M229.461 161.145C229.497 161.25 229.432 161.369 229.397 161.424L229.385 161.417C229.468 161.31 229.48 161.202 229.461 161.145C229.461 161.143 229.46 161.141 229.459 161.14C229.46 161.141 229.461 161.143 229.461 161.145Z" fill="#616161"/>
<path d="M229.109 161.182C229.163 161.279 229.294 161.311 229.359 161.321L229.361 161.308C229.226 161.298 229.139 161.234 229.109 161.182C229.108 161.18 229.107 161.178 229.106 161.177C229.107 161.178 229.108 161.18 229.109 161.182Z" fill="#616161"/>
<path d="M229.088 161.393C229.163 161.535 229.339 161.583 229.426 161.6L229.429 161.582C229.248 161.563 229.129 161.47 229.088 161.393C229.087 161.391 229.086 161.388 229.084 161.386C229.086 161.388 229.087 161.391 229.088 161.393Z" fill="#616161"/>
<path d="M241.648 163.599C241.66 163.395 241.727 163.186 241.887 163.032C241.486 163.079 241.343 163.201 241.191 163.378C240.822 163.806 241.079 164.269 241.308 164.172C241.537 164.074 241.636 163.81 241.648 163.599Z" fill="#E5E6ED"/>
<path d="M241.642 163.161C241.24 163.402 241.127 163.959 241.094 164.233L241.148 164.242C241.172 163.672 241.425 163.294 241.642 163.161C241.649 163.156 241.656 163.152 241.664 163.148C241.657 163.152 241.65 163.156 241.642 163.161Z" fill="#616161"/>
<path d="M241.273 163.34C241.211 163.432 241.243 163.563 241.264 163.625L241.277 163.622C241.224 163.497 241.24 163.39 241.273 163.34C241.274 163.338 241.275 163.337 241.276 163.335C241.275 163.336 241.274 163.338 241.273 163.34Z" fill="#616161"/>
<path d="M241.482 163.398C241.452 163.452 241.384 163.468 241.35 163.474L241.349 163.466C241.419 163.461 241.465 163.427 241.482 163.398C241.483 163.397 241.483 163.396 241.484 163.396C241.483 163.396 241.483 163.397 241.482 163.398Z" fill="#616161"/>
<path d="M241.125 163.554C241.089 163.66 241.154 163.778 241.19 163.833L241.201 163.826C241.118 163.719 241.106 163.612 241.125 163.554C241.125 163.552 241.126 163.551 241.127 163.549C241.126 163.551 241.125 163.552 241.125 163.554Z" fill="#616161"/>
<path d="M241.477 163.591C241.423 163.688 241.292 163.72 241.228 163.73L241.225 163.717C241.36 163.707 241.448 163.644 241.477 163.591C241.478 163.589 241.479 163.588 241.48 163.586C241.479 163.588 241.478 163.589 241.477 163.591Z" fill="#616161"/>
<path d="M241.498 163.802C241.423 163.944 241.247 163.993 241.161 164.009L241.157 163.991C241.338 163.972 241.457 163.879 241.498 163.802C241.499 163.8 241.501 163.797 241.502 163.795C241.501 163.797 241.499 163.8 241.498 163.802Z" fill="#616161"/>
<path d="M1.42169 171.61H279.333" stroke="#333333" stroke-width="2.77912" stroke-linecap="round" stroke-linejoin="round"/>
<rect x="95.2168" y="94.4902" width="54.8876" height="75.7309" fill="#33803B"/>
<rect x="86.8795" y="75.0361" width="71.65" height="19.7297" rx="1.38454" fill="#1BA15B"/>
<path d="M98.302 92.6892C98.302 91.9246 98.9219 91.3047 99.6865 91.3047H125.647C126.411 91.3047 127.031 91.9246 127.031 92.6892V94.766H98.302V92.6892Z" fill="white"/>
<rect x="132.569" y="82.3047" width="13.4993" height="2.07681" rx="0.346135" fill="white"/>
<circle cx="90.6871" cy="78.8441" r="1.03841" fill="#FF4343"/>
<circle cx="97.6098" cy="78.8441" r="1.03841" fill="#28C760"/>
<circle cx="94.1484" cy="78.8441" r="1.03841" fill="#FFA113"/>
<circle cx="150.222" cy="83.3433" r="2.76908" fill="white"/>
<rect x="86.8795" y="98.9248" width="71.65" height="19.7297" rx="1.38454" fill="#1BA15B"/>
<path d="M98.302 116.578C98.302 115.813 98.9219 115.193 99.6865 115.193H125.647C126.411 115.193 127.031 115.813 127.031 116.578V118.655H98.302V116.578Z" fill="white"/>
<rect x="132.569" y="106.193" width="13.4993" height="2.07681" rx="0.346135" fill="white"/>
<circle cx="90.687" cy="102.732" r="1.03841" fill="#FF4343"/>
<circle cx="97.6097" cy="102.732" r="1.03841" fill="#28C760"/>
<circle cx="94.1484" cy="102.732" r="1.03841" fill="#FFA113"/>
<circle cx="150.222" cy="107.232" r="2.76908" fill="white"/>
<rect x="86.8795" y="122.812" width="71.65" height="19.7297" rx="1.38454" fill="#1BA15B"/>
<path d="M98.302 140.466C98.302 139.701 98.9219 139.081 99.6865 139.081H125.647C126.411 139.081 127.031 139.701 127.031 140.466V142.542H98.302V140.466Z" fill="white"/>
<rect x="132.569" y="130.081" width="13.4993" height="2.07681" rx="0.346135" fill="white"/>
<circle cx="90.6871" cy="126.619" r="1.03841" fill="#FF4343"/>
<circle cx="97.6098" cy="126.619" r="1.03841" fill="#28C760"/>
<circle cx="94.1485" cy="126.619" r="1.03841" fill="#FFA113"/>
<circle cx="150.222" cy="131.12" r="2.76908" fill="white"/>
<rect x="86.8795" y="146.702" width="71.65" height="19.7297" rx="1.38454" fill="#1BA15B"/>
<path d="M98.302 164.355C98.302 163.591 98.9219 162.971 99.6865 162.971H125.647C126.411 162.971 127.031 163.591 127.031 164.355V166.432H98.302V164.355Z" fill="white"/>
<rect x="132.569" y="153.971" width="13.4993" height="2.07681" rx="0.346135" fill="white"/>
<circle cx="90.6871" cy="150.509" r="1.03841" fill="#FF4343"/>
<circle cx="97.6098" cy="150.509" r="1.03841" fill="#28C760"/>
<circle cx="94.1485" cy="150.509" r="1.03841" fill="#FFA113"/>
<circle cx="150.222" cy="155.009" r="2.76908" fill="white"/>
<rect x="183.454" y="110.47" width="16.6747" height="16.6747" rx="1.26871" fill="#51DE79"/>
<path opacity="0.1" fill-rule="evenodd" clip-rule="evenodd" d="M196.871 110.576C195.843 117.116 190.248 122.139 183.454 122.281V111.738C183.454 111.038 184.022 110.47 184.722 110.47H196.362C196.543 110.47 196.715 110.508 196.871 110.576Z" fill="white"/>
<rect x="185.728" y="112.743" width="12.1271" height="12.1271" rx="6.06353" fill="#33803B"/>
<rect x="188.76" y="117.67" width="2.27382" height="2.27382" rx="1.13691" fill="#333333"/>
<rect x="192.549" y="117.67" width="2.27382" height="2.27382" rx="1.13691" fill="#333333"/>
<path fill-rule="evenodd" clip-rule="evenodd" d="M158.442 135.136H189.359C192.045 135.136 194.223 137.314 194.223 140C194.223 142.686 192.045 144.863 189.359 144.863H177.333H176.608H170.948C168.07 144.863 165.737 147.196 165.737 150.074C165.737 152.952 168.07 155.285 170.948 155.285L195.96 155.285V153.2L170.948 153.2C169.221 153.2 167.821 151.801 167.821 150.074C167.821 148.347 169.221 146.947 170.948 146.947H176.608H177.333H189.359C193.196 146.947 196.307 143.837 196.307 140C196.307 136.162 193.196 133.052 189.359 133.052H158.442V135.136Z" fill="#33803B"/>
<path d="M201.518 151.462H204.992C205.376 151.462 205.687 151.773 205.687 152.157C205.687 152.54 205.376 152.851 204.992 152.851H201.518V151.462Z" fill="#33803B"/>
<path d="M201.518 155.631H204.992C205.376 155.631 205.687 155.942 205.687 156.326C205.687 156.709 205.376 157.02 204.992 157.02H201.518V155.631Z" fill="#33803B"/>
<path d="M192.486 154.17C192.486 152.08 194.18 150.387 196.269 150.387H199.93V157.953H196.269C194.18 157.953 192.486 156.259 192.486 154.17Z" fill="#1BA15B"/>
<rect x="199.434" y="149.378" width="2.08434" height="9.72691" rx="0.504417" fill="#51DE79"/>
<rect x="203.602" y="141.041" width="0.692271" height="4.15363" rx="0.346135" fill="#74CE9D"/>
<rect x="206.718" y="148.31" width="0.692271" height="4.15363" rx="0.346135" transform="rotate(-90 206.718 148.31)" fill="#74CE9D"/>
<rect x="206.169" y="146.198" width="0.692271" height="4.15363" rx="0.346135" transform="rotate(-135 206.169 146.198)" fill="#74CE9D"/>
<rect x="199.06" y="168.459" width="0.692271" height="4.15363" rx="0.346135" transform="rotate(180 199.06 168.459)" fill="#74CE9D"/>
<rect x="195.945" y="161.19" width="0.692271" height="4.15363" rx="0.346135" transform="rotate(90 195.945 161.19)" fill="#74CE9D"/>
<rect x="196.494" y="163.302" width="0.692271" height="4.15363" rx="0.346135" transform="rotate(45 196.494 163.302)" fill="#74CE9D"/>
<path opacity="0.1" fill-rule="evenodd" clip-rule="evenodd" d="M126.826 94.7659C127.058 92.1574 127.177 89.5162 127.177 86.8474C127.177 82.8424 126.91 78.8997 126.393 75.0361H88.2641C87.4994 75.0361 86.8795 75.656 86.8795 76.4207V93.3813C86.8795 94.146 87.4994 94.7659 88.2641 94.7659H98.302H126.826ZM126.357 98.9245H88.2641C87.4994 98.9245 86.8795 99.5444 86.8795 100.309V117.27C86.8795 118.034 87.4994 118.654 88.2641 118.654H121.27C123.691 112.392 125.418 105.784 126.357 98.9245ZM119.538 122.813H88.2641C87.4994 122.813 86.8795 123.433 86.8795 124.197V141.158C86.8795 141.923 87.4994 142.543 88.2641 142.543L98.302 142.543H107.382C112.251 136.566 116.353 129.939 119.538 122.813ZM103.773 146.701H88.2641C87.4994 146.701 86.8795 147.321 86.8795 148.086V160.938C93.0935 156.909 98.7686 152.119 103.773 146.701Z" fill="white"/>
</svg>
