<svg width="30" height="30" viewBox="0 0 30 30" fill="none" xmlns="http://www.w3.org/2000/svg">
<g clip-path="url(#clip0_131_1978)">
<path d="M30 15C30 23.2844 23.2844 30 15 30C6.71562 30 0 23.2844 0 15C0 6.71562 6.71562 0 15 0C23.2844 0 30 6.71562 30 15Z" fill="#FFE047"/>
<path d="M29.8162 17.35L19.1423 6.67587C18.138 5.52185 16.6182 5 15 5C12.5464 5 10.3184 6.19865 9.77234 8.98369C9.21867 11.8065 10.3748 12.939 8.1752 12.4876C7.06237 12.2594 6.51649 12.9617 7.07908 13.608L9.19487 15.7252C8.87649 16.8396 7.65174 18.2555 6.45469 18.4949C5.12672 18.7604 4.68406 19.3761 5.21278 19.8389L15.4388 29.9932C22.7259 29.7838 28.7105 24.3774 29.8162 17.35Z" fill="#FFCF00"/>
<path d="M23.5453 18.4946C21.6414 18.114 19.6673 14.7579 21.381 14.3702C23.8666 13.8078 23.451 12.1542 21.8248 12.4876C19.625 12.939 20.7813 11.8065 20.2276 8.98369C19.6815 6.19865 17.4536 5 15 5C12.5464 5 10.3184 6.19865 9.77231 8.98369C9.21865 11.8065 10.3747 12.939 8.17517 12.4876C6.54897 12.1542 6.13332 13.8076 8.61897 14.3702C10.3326 14.7579 8.35851 18.114 6.45467 18.4946C4.55106 18.8755 4.4666 19.9753 6.45467 20.3138C8.44296 20.6523 7.08936 21.0329 7.72382 21.9636C8.35851 22.8942 10.0083 21.3712 11.0236 21.9636C12.0387 22.5559 12.8425 23.7404 15 23.7404C17.1574 23.7404 17.9612 22.5559 18.9763 21.9636C19.9917 21.3712 21.6414 22.8942 22.2761 21.9636C22.9106 21.0329 21.557 20.6523 23.5453 20.3138C25.5333 19.9753 25.4489 18.8755 23.5453 18.4946Z" fill="white"/>
<path d="M23.5453 20.314C21.5572 20.6521 22.9108 21.0329 22.2762 21.9633C21.6417 22.8944 19.9917 21.3714 18.9768 21.9633C17.9613 22.5557 17.1574 23.7406 15 23.7406V4.99976C17.4534 4.99976 19.6815 6.19864 20.2277 8.98367C20.7816 11.8067 19.6255 12.9388 21.825 12.4876C23.451 12.1541 23.8669 13.8076 21.3808 14.3702C19.6676 14.7581 21.6417 18.1138 23.5453 18.4946C25.4489 18.8755 25.5334 19.9753 23.5453 20.314Z" fill="#FFF5CB"/>
</g>
<defs>
<clipPath id="clip0_131_1978">
<rect width="30" height="30" fill="white"/>
</clipPath>
</defs>
</svg>
