<svg width="30" height="30" viewBox="0 0 30 30" fill="none" xmlns="http://www.w3.org/2000/svg">
<g clip-path="url(#clip0_1775_4647)">
<path d="M15 30C23.2843 30 30 23.2843 30 15C30 6.71573 23.2843 0 15 0C6.71573 0 0 6.71573 0 15C0 23.2843 6.71573 30 15 30Z" fill="#A04DF4"/>
<path d="M20.1515 20.5914C21.1587 20.5914 21.9752 19.7749 21.9752 18.7677C21.9752 17.7605 21.1587 16.944 20.1515 16.944C19.1442 16.944 18.3277 17.7605 18.3277 18.7677C18.3277 19.7749 19.1442 20.5914 20.1515 20.5914Z" fill="#BEC2D0"/>
<path d="M20.1515 21.1024C18.4134 21.1024 16.9593 22.3174 16.5917 23.9442H23.7112C23.3435 22.3174 21.8895 21.1024 20.1515 21.1024Z" fill="#BEC2D0"/>
<path d="M9.84856 20.5914C10.8558 20.5914 11.6723 19.7749 11.6723 18.7677C11.6723 17.7605 10.8558 16.944 9.84856 16.944C8.84134 16.944 8.02483 17.7605 8.02483 18.7677C8.02483 19.7749 8.84134 20.5914 9.84856 20.5914Z" fill="#DCE0EA"/>
<path d="M9.84855 21.1024C8.11054 21.1024 6.65642 22.3174 6.2888 23.9442H13.4083C13.0407 22.3174 11.5866 21.1024 9.84855 21.1024Z" fill="#DCE0EA"/>
<path d="M15 20.9947C16.3621 20.9947 17.4663 19.8905 17.4663 18.5284C17.4663 17.1663 16.3621 16.0621 15 16.0621C13.6379 16.0621 12.5337 17.1663 12.5337 18.5284C12.5337 19.8905 13.6379 20.9947 15 20.9947Z" fill="white"/>
<path d="M15 16.0621V20.9947C16.3621 20.9947 17.4663 19.8905 17.4663 18.5284C17.4663 17.1663 16.3621 16.0621 15 16.0621Z" fill="#E9ECF4"/>
<path d="M15 21.6857C12.6497 21.6857 10.6833 23.3286 10.1861 25.5287H19.8138C19.3167 23.3286 17.3503 21.6857 15 21.6857Z" fill="white"/>
<path d="M15 21.6857V25.5287H19.8139C19.3167 23.3286 17.3503 21.6857 15 21.6857Z" fill="#E9ECF4"/>
<path d="M24.8298 5.50623H5.28474V12.5311H8.38119L9.84855 15.3516L11.3159 12.5311H13.5899L15 15.2918L16.5247 12.5311H18.684L20.1514 15.3516L21.6188 12.5311H24.8298V5.50623Z" fill="#F1CC30"/>
<path d="M15 5.50623V15.2918L16.5247 12.5311H18.684L20.1514 15.3516L21.6188 12.5311H24.8298V5.50623H15Z" fill="#ECB931"/>
<path d="M15 6.3446L15.816 8.04646L17.6405 8.31939L16.3202 9.64408L16.6319 11.5146L15 10.6314L13.3681 11.5146L13.6798 9.64408L12.3595 8.31939L14.184 8.04646L15 6.3446Z" fill="white"/>
<path d="M17.6405 8.31939L15.816 8.04646L15 6.3446V10.6314L16.6319 11.5146L16.3202 9.64408L17.6405 8.31939Z" fill="#E9ECF4"/>
<path d="M21.2099 6.3446L22.0258 8.04646L23.8503 8.31939L22.5301 9.64408L22.8418 11.5146L21.2099 10.6314L19.5779 11.5146L19.8896 9.64408L18.5693 8.31939L20.3939 8.04646L21.2099 6.3446Z" fill="#E9ECF4"/>
<path d="M8.79011 6.3446L9.60609 8.04646L11.4306 8.31939L10.1103 9.64408L10.4221 11.5146L8.79011 10.6314L7.15822 11.5146L7.46988 9.64408L6.14964 8.31939L7.97419 8.04646L8.79011 6.3446Z" fill="white"/>
</g>
<defs>
<clipPath id="clip0_1775_4647">
<rect width="30" height="30" fill="white"/>
</clipPath>
</defs>
</svg>
