<svg width="19" height="18" viewBox="0 0 19 18" fill="none" xmlns="http://www.w3.org/2000/svg">
<path d="M4.69667 14.3121C5.92371 15.5391 7.53828 16.3027 9.26524 16.4727C10.9922 16.6427 12.7247 16.2086 14.1674 15.2444C15.6102 14.2802 16.6739 12.8455 17.1774 11.1848C17.6809 9.52412 17.5929 7.74026 16.9285 6.13719C16.2641 4.53411 15.0643 3.21104 13.5337 2.39344C12.0031 1.57583 10.2363 1.31429 8.53443 1.65339C6.83258 1.99248 5.30097 2.91123 4.20061 4.25306C3.10025 5.59489 2.49924 7.27676 2.5 9.01207V10.6754" stroke="#2C2A74" stroke-width="1.25" stroke-linecap="round" stroke-linejoin="round"/>
<path d="M0.833344 9.00863L2.50001 10.6753L4.16668 9.00863M9.16668 5.67529V9.84196H13.3333" stroke="#2C2A74" stroke-width="1.25" stroke-linecap="round" stroke-linejoin="round"/>
</svg>
