<svg width="30" height="30" viewBox="0 0 30 30" fill="none" xmlns="http://www.w3.org/2000/svg">
<g clip-path="url(#clip0_131_1983)">
<path d="M15 30C23.2843 30 30 23.2843 30 15C30 6.71573 23.2843 0 15 0C6.71573 0 0 6.71573 0 15C0 23.2843 6.71573 30 15 30Z" fill="#03A9F4"/>
<path d="M24.7165 8.97427C23.9856 9.29346 23.2125 9.50552 22.4211 9.60387C23.2554 9.10914 23.879 8.32535 24.1737 7.40124C23.3928 7.86473 22.5384 8.19116 21.6474 8.36637C21.1014 7.78246 20.3923 7.37636 19.6124 7.20089C18.8325 7.02542 18.0178 7.08871 17.2743 7.38252C16.5309 7.67633 15.893 8.18706 15.4438 8.84829C14.9945 9.50952 14.7546 10.2906 14.7553 11.0901C14.7525 11.3952 14.7836 11.6997 14.848 11.998C13.2631 11.9201 11.7124 11.5088 10.2973 10.7908C8.88218 10.0729 7.63442 9.0645 6.63554 7.8315C6.12211 8.70863 5.96304 9.74872 6.19085 10.7392C6.41866 11.7297 7.01615 12.5958 7.8612 13.1605C7.23046 13.1434 6.61307 12.9749 6.0612 12.669V12.7124C6.06298 13.6318 6.38121 14.5226 6.96241 15.235C7.5436 15.9474 8.35233 16.4379 9.25265 16.6243C8.91194 16.7138 8.56083 16.7576 8.20857 16.7545C7.95492 16.7592 7.7015 16.7367 7.45265 16.6874C7.71058 17.4781 8.20717 18.1695 8.8741 18.6664C9.54103 19.1633 10.3455 19.4414 11.177 19.4624C9.76802 20.5637 8.03108 21.1619 6.24278 21.1618C5.92414 21.1645 5.60568 21.146 5.28949 21.1065C7.11292 22.2821 9.23836 22.9033 11.4079 22.8947C18.7401 22.8947 22.7487 16.8216 22.7487 11.5578C22.7487 11.3822 22.7487 11.2124 22.7349 11.0427C23.5155 10.4793 24.187 9.77836 24.7165 8.97427Z" fill="white"/>
</g>
<defs>
<clipPath id="clip0_131_1983">
<rect width="30" height="30" fill="white"/>
</clipPath>
</defs>
</svg>
